<svg version="1.1" xmlns="http://www.w3.org/2000/svg" width="250px" height="235px" transform="rotate(0) scale(1, 1)">
<path d="M0 0 C2.10353495 -0.0810206 4.20795952 -0.13919907 6.3125 -0.1875 C7.48425781 -0.22230469 8.65601563 -0.25710937 9.86328125 -0.29296875 C13 0 13 0 14.91796875 1.38671875 C16 3 16 3 16 5 C16.66 5 17.32 5 18 5 C18 6.98 18 8.96 18 11 C18.69738281 10.83757813 19.39476562 10.67515625 20.11328125 10.5078125 C23.19398397 9.96587562 26.06126815 9.86723296 29.1875 9.875 C30.23292969 9.87242188 31.27835938 9.86984375 32.35546875 9.8671875 C35 10 35 10 37 11 C37 11.66 37 12.32 37 13 C43.27 13 49.54 13 56 13 C56.66 11.35 57.32 9.7 58 8 C58.66 8 59.32 8 60 8 C60 7.34 60 6.68 60 6 C62.79731805 4.60134097 65.19284559 4.75462733 68.3125 4.6875 C69.44300781 4.65011719 70.57351562 4.61273438 71.73828125 4.57421875 C75.64304057 5.08394182 77.22148129 6.27209183 80 9 C81.84231639 12.68463278 81.36066861 16.96937006 81 21 C79.6875 24.125 79.6875 24.125 78 26 C77.01 26 76.02 26 75 26 C75 26.66 75 27.32 75 28 C64.44191344 29.33257403 64.44191344 29.33257403 60 28 C60 27.34 60 26.68 60 26 C59.34 26 58.68 26 58 26 C57.01 24.02 56.02 22.04 55 20 C50.38 20 45.76 20 41 20 C41 26.93 41 33.86 41 41 C39.35 41 37.7 41 36 41 C36.4835096 45.72193421 37.0421603 50.34763576 38 55 C38 55.99 38 56.98 38 58 C37.01 58.495 37.01 58.495 36 59 C35.34444881 61.52733235 35.34444881 61.52733235 35 64 C31.7 64 28.4 64 25 64 C25 64.66 25 65.32 25 66 C23.68 66 22.36 66 21 66 C20.67 66.99 20.34 67.98 20 69 C18.68352881 69.69937532 17.34977849 70.36729133 16 71 C15.67 71.66 15.34 72.32 15 73 C12.88262268 73.78933522 10.72945068 74.48417121 8.5625 75.125 C7.38816406 75.47820312 6.21382812 75.83140625 5.00390625 76.1953125 C2 77 2 77 0 77 C0 84.59 0 92.18 0 100 C1.65 100 3.3 100 5 100 C5 108.58 5 117.16 5 126 C3.35 126 1.7 126 0 126 C0.33 133.26 0.66 140.52 1 148 C1.66 148.33 2.32 148.66 3 149 C3 149.66 3 150.32 3 151 C3.8971875 151.433125 3.8971875 151.433125 4.8125 151.875 C7 153 7 153 10 155 C12.57014955 155.18391218 15.02882277 155.25615079 17.59765625 155.23046875 C18.34655624 155.23001053 19.09545624 155.22955231 19.86705017 155.2290802 C21.45492126 155.22605898 23.04278942 155.21817654 24.63061523 155.20581055 C27.02924443 155.18775039 29.42748229 155.18529971 31.82617188 155.18554688 C39.61631511 155.16696773 47.25866437 154.97448837 55 154 C54.01 153.67 53.02 153.34 52 153 C52 152.34 52 151.68 52 151 C49.03 151 46.06 151 43 151 C43 149.35 43 147.7 43 146 C44.32 145.34 45.64 144.68 47 144 C45.68 143.67 44.36 143.34 43 143 C43 140.69 43 138.38 43 136 C44.32 135.67 45.64 135.34 47 135 C45.68 134.34 44.36 133.68 43 133 C43.33 131.35 43.66 129.7 44 128 C44.99 127.67 45.98 127.34 47 127 C45.68 126.34 44.36 125.68 43 125 C43 123.35 43 121.7 43 120 C43.99 119.67 44.98 119.34 46 119 C45.01 118.34 44.02 117.68 43 117 C43 115.68 43 114.36 43 113 C43.66 113 44.32 113 45 113 C45 112.34 45 111.68 45 111 C45.66 110.67 46.32 110.34 47 110 C45.68 109.67 44.36 109.34 43 109 C43 107.68 43 106.36 43 105 C43.66 105 44.32 105 45 105 C45 104.34 45 103.68 45 103 C45.99 103 46.98 103 48 103 C48 102.34 48 101.68 48 101 C46.35 101 44.7 101 43 101 C43 99.68 43 98.36 43 97 C43.66 97 44.32 97 45 97 C45 96.34 45 95.68 45 95 C45.66 94.34 46.32 93.68 47 93 C45.68 92.67 44.36 92.34 43 92 C43 90.68 43 89.36 43 88 C43.66 88 44.32 88 45 88 C45 87.34 45 86.68 45 86 C45.66 85.34 46.32 84.68 47 84 C45.68 83.01 44.36 82.02 43 81 C43.66 81 44.32 81 45 81 C45 79.35 45 77.7 45 76 C48.35161281 74.98965002 51.41005809 74.87098789 54.90234375 74.8671875 C56.60874023 74.86525391 56.60874023 74.86525391 58.34960938 74.86328125 C59.53361328 74.86714844 60.71761719 74.87101562 61.9375 74.875 C63.70770508 74.86919922 63.70770508 74.86919922 65.51367188 74.86328125 C66.65255859 74.86457031 67.79144531 74.86585937 68.96484375 74.8671875 C70.0024585 74.86831543 71.04007324 74.86944336 72.10913086 74.87060547 C74.87259378 74.99429733 77.33737281 75.24859834 80 76 C81.35439668 78.70879335 81.06501451 81.00933268 81 84 C80.01 84.33 79.02 84.66 78 85 C78.99 85.33 79.98 85.66 81 86 C81 91 81 96 81 101 C80.01 101 79.02 101 78 101 C78 101.66 78 102.32 78 103 C78.99 103 79.98 103 81 103 C81 104.98 81 106.96 81 109 C80.01 109.495 80.01 109.495 79 110 C79.66 110.33 80.32 110.66 81 111 C81 118.66666667 81 126.33333333 81 134 C80.01 134.33 79.02 134.66 78 135 C78.99 135.33 79.98 135.66 81 136 C81 141 81 146 81 151 C78.36 151 75.72 151 73 151 C73 151.66 73 152.32 73 153 C72.01 153 71.02 153 70 153 C70 153.99 70 154.98 70 156 C70.99 156.33 71.98 156.66 73 157 C73.04254356 158.99954746 73.04080783 161.00041636 73 163 C72 164 72 164 69.04077148 164.11352539 C67.74727783 164.10828857 66.45378418 164.10305176 65.12109375 164.09765625 C64.09110008 164.09553383 64.09110008 164.09553383 63.04029846 164.09336853 C60.83932199 164.08775479 58.63844591 164.07520007 56.4375 164.0625 C54.94856917 164.05748676 53.45963676 164.05292355 51.97070312 164.04882812 C48.31376925 164.03778093 44.65689442 164.02050713 41 164 C41 164.66 41 165.32 41 166 C30.77 166 20.54 166 10 166 C10 166.66 10 167.32 10 168 C9.38125 168.0825 8.7625 168.165 8.125 168.25 C5.81653196 168.78810733 5.81653196 168.78810733 5 171 C4.67 171.66 4.34 172.32 4 173 C2.68 173.33 1.36 173.66 0 174 C0 183.24 0 192.48 0 202 C-4.29 202 -8.58 202 -13 202 C-13 192.76 -13 183.52 -13 174 C-14.32 174 -15.64 174 -17 174 C-17 165.42 -17 156.84 -17 148 C-15.68 148 -14.36 148 -13 148 C-13 140.74 -13 133.48 -13 126 C-14.32 126 -15.64 126 -17 126 C-17 125.01 -17 124.02 -17 123 C-17.66 123 -18.32 123 -19 123 C-19.70817871 122.02885254 -19.70817871 122.02885254 -20.43066406 121.03808594 C-24.56298792 117.76018404 -28.98339734 118.39661639 -34.109375 118.390625 C-35.19132141 118.37408875 -36.27326782 118.35755249 -37.38800049 118.34051514 C-40.84205758 118.29194899 -44.29567411 118.27064434 -47.75 118.25 C-50.09247018 118.22184764 -52.43491977 118.19192126 -54.77734375 118.16015625 C-60.51814896 118.08618776 -66.25882982 118.03459573 -72 118 C-72 117.34 -72 116.68 -72 116 C-78.6 116 -85.2 116 -92 116 C-92 113.69 -92 111.38 -92 109 C-102.23 109 -112.46 109 -123 109 C-123 106.36 -123 103.72 -123 101 C-120.525 100.505 -120.525 100.505 -118 100 C-118.01160156 99.29359375 -118.02320313 98.5871875 -118.03515625 97.859375 C-118.12583225 87.5482188 -117.57463581 77.29213777 -117 67 C-116.34 67 -115.68 67 -115 67 C-115 66.34 -115 65.68 -115 65 C-114.34 65 -113.68 65 -113 65 C-112.34 63.68 -111.68 62.36 -111 61 C-98.79 61 -86.58 61 -74 61 C-74 61.66 -74 62.32 -74 63 C-65.09 63 -56.18 63 -47 63 C-47 63.66 -47 64.32 -47 65 C-46.34 65 -45.68 65 -45 65 C-43.72840057 68.88959827 -43.87348813 72.78563579 -43.90234375 76.828125 C-43.9037587 77.57713074 -43.90517365 78.32613647 -43.90663147 79.09783936 C-43.91221341 81.48193412 -43.92476255 83.86593378 -43.9375 86.25 C-43.94251734 87.86979031 -43.94707984 89.48958209 -43.95117188 91.109375 C-43.96217692 95.07295312 -43.97942909 99.03646045 -44 103 C-42.68 103 -41.36 103 -40 103 C-40 104.65 -40 106.3 -40 108 C-37.27001324 107.88562349 -34.5415418 107.75888594 -31.8125 107.625 C-31.04357422 107.5940625 -30.27464844 107.563125 -29.48242188 107.53125 C-25.30319766 107.31601098 -21.76065799 107.02552815 -18 105 C-16.79117904 102.99983534 -16.79117904 102.99983534 -16 101 C-15.34 100.67 -14.68 100.34 -14 100 C-14.00523682 99.40461426 -14.01047363 98.80922852 -14.01586914 98.19580078 C-14.03661999 95.50554453 -14.04965407 92.81530511 -14.0625 90.125 C-14.07087891 89.18785156 -14.07925781 88.25070313 -14.08789062 87.28515625 C-14.09111328 86.38925781 -14.09433594 85.49335937 -14.09765625 84.5703125 C-14.10289307 83.74289551 -14.10812988 82.91547852 -14.11352539 82.06298828 C-14 80 -14 80 -13 78 C-16.3 78 -19.6 78 -23 78 C-23 77.34 -23 76.68 -23 76 C-24.65 76 -26.3 76 -28 76 C-28 75.34 -28 74.68 -28 74 C-32.62 74 -37.24 74 -42 74 C-43.07094763 69.7162095 -42.89567799 66.08514348 -42.5625 61.75 C-42.51029297 61.00492188 -42.45808594 60.25984375 -42.40429688 59.4921875 C-42.2751783 57.66105139 -42.13834886 55.83046187 -42 54 C-44.64 53.67 -47.28 53.34 -50 53 C-50 45.74 -50 38.48 -50 31 C-51.65 31 -53.3 31 -55 31 C-55 31.66 -55 32.32 -55 33 C-57.5614657 35.29648649 -58.47967572 36 -62 36 C-62 36.66 -62 37.32 -62 38 C-63.41623216 38.05447047 -64.83308191 38.09300508 -66.25 38.125 C-67.03890625 38.14820313 -67.8278125 38.17140625 -68.640625 38.1953125 C-71.20731941 37.9828378 -72.7916067 37.28654105 -75 36 C-75 35.34 -75 34.68 -75 34 C-76.32 33.67 -77.64 33.34 -79 33 C-79.495 31.02 -79.495 31.02 -80 29 C-80.66 29 -81.32 29 -82 29 C-83.87052858 23.38841426 -83.75605958 17.82714398 -81.5 12.375 C-81.005 11.59125 -80.51 10.8075 -80 10 C-79.34 10 -78.68 10 -78 10 C-77.67 8.68 -77.34 7.36 -77 6 C-73.75684218 5.03395299 -70.81491334 4.86580976 -67.4375 4.875 C-66.48746094 4.87242188 -65.53742188 4.86984375 -64.55859375 4.8671875 C-62 5 -62 5 -59 6 C-59 6.66 -59 7.32 -59 8 C-58.34 8 -57.68 8 -57 8 C-57 8.66 -57 9.32 -57 10 C-56.34 10 -55.68 10 -55 10 C-51.08941894 14.51220891 -51.70530468 19.37895957 -52 25 C-49.03 24.34 -46.06 23.68 -43 23 C-43 22.34 -43 21.68 -43 21 C-37.68833136 19.67208284 -32.24118425 19.25293858 -27 21 C-27 21.66 -27 22.32 -27 23 C-25.515 23.495 -25.515 23.495 -24 24 C-24 24.66 -24 25.32 -24 26 C-23.34 26 -22.68 26 -22 26 C-22 26.66 -22 27.32 -22 28 C-20.35 28 -18.7 28 -17 28 C-17 27.01 -17 26.02 -17 25 C-14.54159395 24.97308315 -12.08348118 24.95320198 -9.625 24.9375 C-8.92632812 24.92912109 -8.22765625 24.92074219 -7.5078125 24.91210938 C-2.2265625 24.88671875 -2.2265625 24.88671875 0 26 C0 23.36 0 20.72 0 18 C-0.66 18 -1.32 18 -2 18 C-2.75612577 12.76528314 -3.2063366 8.22745859 -2 3 C-1.34 3 -0.68 3 0 3 C0 2.01 0 1.02 0 0 Z M1 31 C1 31.66 1 32.32 1 33 C-5.93 33 -12.86 33 -20 33 C-20 39.6 -20 46.2 -20 53 C-22.97 53.33 -25.94 53.66 -29 54 C-29 56.31 -29 58.62 -29 61 C-27.35 61 -25.7 61 -24 61 C-24 61.66 -24 62.32 -24 63 C-21.69 63 -19.38 63 -17 63 C-17 62.34 -17 61.68 -17 61 C-16.443125 61.01160156 -15.88625 61.02320312 -15.3125 61.03515625 C-10.10221657 61.09676433 -5.1562049 60.74999344 0 60 C0 59.34 0 58.68 0 58 C1.0209375 57.87625 1.0209375 57.87625 2.0625 57.75 C5.8746907 56.77667472 8.64070329 55.04192545 12 53 C12 52.34 12 51.68 12 51 C12.63808594 50.93941406 13.27617187 50.87882812 13.93359375 50.81640625 C15.17302734 50.69072266 15.17302734 50.69072266 16.4375 50.5625 C17.26121094 50.48128906 18.08492187 50.40007812 18.93359375 50.31640625 C20.98662025 50.21069185 20.98662025 50.21069185 22 49 C22.07148199 47.64756083 22.08399454 46.29165633 22.0625 44.9375 C22.041875 43.638125 22.02125 42.33875 22 41 C20.35 41 18.7 41 17 41 C17 38.36 17 35.72 17 33 C16.34 33.33 15.68 33.66 15 34 C15 34.66 15 35.32 15 36 C11.7 36 8.4 36 5 36 C5 35.34 5 34.68 5 34 C3.0399719 32.36323743 3.0399719 32.36323743 1 31 Z " fill="#a200ff" transform="translate(136,33)"/>
</svg>