<svg class="svg-icon" style="width: 1em; height: 1em;vertical-align: middle;fill: #9B1FE8;overflow: hidden;" viewBox="0 0 1024 1024" version="1.1" xmlns="http://www.w3.org/2000/svg" height="100px" width="100px" transform="rotate(0) scale(1, 1)"><path d="M512 710.4c-38.4 0-70.4 32-70.4 70.4s32 70.4 70.4 70.4c38.4 0 70.4-32 70.4-70.4S550.4 710.4 512 710.4L512 710.4zM256 627.2l51.2 51.2c57.6-51.2 128-76.8 204.8-76.8 76.8 0 153.6 32 204.8 76.8L768 627.2c-70.4-64-160-102.4-256-102.4S326.4 569.6 256 627.2L256 627.2zM128 499.2l51.2 51.2C268.8 473.6 384 422.4 512 422.4s243.2 51.2 332.8 134.4L896 499.2c-102.4-96-236.8-153.6-384-153.6C364.8 345.6 230.4 409.6 128 499.2L128 499.2zM512 166.4c-198.4 0-377.6 76.8-505.6 204.8l51.2 51.2C172.8 307.2 332.8 236.8 512 236.8s339.2 70.4 460.8 185.6l51.2-51.2C889.6 243.2 710.4 166.4 512 166.4L512 166.4z"/></svg>