<svg version="1.1" id="Layer_1" xmlns="http://www.w3.org/2000/svg" xmlns:xlink="http://www.w3.org/1999/xlink" x="0px" y="0px" width="100%px" viewBox="0 0 1024 1024" enable-background="new 0 0 1024 1024" xml:space="preserve" height="100px" transform="rotate(0) scale(1, 1)">
<path fill="#ffffff" opacity="1.000000" stroke="none" d="&#10;M759.480042,528.408691 &#10;&#9;C716.391724,596.357117 656.281189,640.675903 578.229126,658.650269 &#10;&#9;C499.572327,676.763916 425.224945,664.072754 357.092865,620.390442 &#10;&#9;C292.651306,579.074341 251.345413,520.540466 232.450821,446.402313 &#10;&#9;C222.969696,409.200500 221.561096,371.526001 227.405228,333.529022 &#10;&#9;C237.075317,270.656799 264.687958,216.835693 309.620148,172.137726 &#10;&#9;C353.716400,128.271332 406.871674,100.831085 468.411743,92.112099 &#10;&#9;C561.979980,78.855392 644.325562,104.287697 713.268188,169.440598 &#10;&#9;C758.734985,212.408127 786.697327,265.345642 797.432739,327.066528 &#10;&#9;C809.895996,398.721649 796.939636,465.723541 759.480042,528.408691 &#10;M419.189453,153.740097 &#10;&#9;C380.807220,169.978088 348.358917,194.209518 322.798737,227.097549 &#10;&#9;C277.549988,285.318634 261.572540,351.106110 274.814667,423.545807 &#10;&#9;C282.231873,464.120819 299.318787,500.732483 326.422943,531.935974 &#10;&#9;C388.863220,603.819885 467.602173,632.451111 561.124878,614.695007 &#10;&#9;C631.288574,601.373840 684.738037,561.763306 721.475830,500.581360 &#10;&#9;C751.395630,450.753876 761.245422,396.497192 752.402771,339.187134 &#10;&#9;C745.408752,293.858643 726.665710,253.539642 696.417480,218.972122 &#10;&#9;C652.430481,168.703842 596.800232,140.785049 530.300293,135.563904 &#10;&#9;C492.248535,132.576324 455.257263,138.611328 419.189453,153.740097 &#10;z"/>
<path fill="#ffffff" opacity="1.000000" stroke="none" d="&#10;M459.647980,755.999878 &#10;&#9;C459.647705,726.385498 459.647705,697.271057 459.647705,666.968872 &#10;&#9;C495.271912,673.164062 530.313293,673.322388 564.828552,667.086670 &#10;&#9;C566.917358,669.367004 566.333496,671.464783 566.334473,673.387024 &#10;&#9;C566.361511,729.192383 566.352905,784.997681 566.341187,840.803040 &#10;&#9;C566.339844,847.283569 566.316040,847.316040 559.586304,847.317505 &#10;&#9;C528.435242,847.324524 497.283630,847.215210 466.133789,847.405640 &#10;&#9;C461.173676,847.435913 459.504913,846.087646 459.545349,840.956848 &#10;&#9;C459.767151,812.806030 459.649414,784.652527 459.647980,755.999878 &#10;z"/>
<path fill="#ffffff" opacity="1.000000" stroke="none" d="&#10;M441.336426,853.063171 &#10;&#9;C466.116364,852.838318 490.444763,852.744324 514.773254,852.711304 &#10;&#9;C536.604980,852.681702 558.437622,852.819641 580.267944,852.644226 &#10;&#9;C584.765320,852.608093 586.416382,853.892212 586.345093,858.576355 &#10;&#9;C586.104309,874.404907 586.155823,890.240417 586.324646,906.070862 &#10;&#9;C586.367371,910.074158 585.302490,911.470032 580.999939,911.547302 &#10;&#9;C541.007874,912.264404 501.014862,911.781433 461.023102,911.872009 &#10;&#9;C455.029602,911.885620 449.035889,911.567749 443.041534,911.534241 &#10;&#9;C440.756409,911.521484 439.670105,910.712524 439.675415,908.343079 &#10;&#9;C439.714447,890.844910 439.705353,873.346619 439.727936,855.848328 &#10;&#9;C439.729248,854.834412 439.953125,853.855469 441.336426,853.063171 &#10;z"/>
<path fill="#ffffff" opacity="1.000000" stroke="none" d="&#10;M555.970703,974.333130 &#10;&#9;C525.646851,974.335022 495.816681,974.221436 465.989044,974.447388 &#10;&#9;C460.880096,974.486023 459.436859,972.929260 459.535248,967.921326 &#10;&#9;C459.833099,952.762451 459.762207,937.592773 459.581421,922.430359 &#10;&#9;C459.532166,918.300903 460.957275,916.874023 465.052673,916.886841 &#10;&#9;C497.047974,916.986633 529.043945,916.985107 561.039246,916.875549 &#10;&#9;C565.225769,916.861267 566.462646,918.468689 566.413513,922.512451 &#10;&#9;C566.233459,937.341614 566.349304,952.174255 566.346313,967.005615 &#10;&#9;C566.344849,974.323730 566.337463,974.323792 558.965027,974.330872 &#10;&#9;C558.131775,974.331665 557.298523,974.331787 555.970703,974.333130 &#10;z"/>
<path fill="#ffffff" opacity="1.000000" stroke="none" d="&#10;M519.951294,83.316902 &#10;&#9;C507.817017,82.932610 496.199158,83.533081 484.615387,84.538200 &#10;&#9;C480.259247,84.916176 479.377014,83.438187 480.125488,79.468857 &#10;&#9;C483.344330,62.398636 496.456085,51.524227 513.874878,51.678116 &#10;&#9;C529.720215,51.818104 543.002197,63.631851 545.866638,79.881699 &#10;&#9;C546.510254,83.533173 545.493958,84.734360 541.827881,84.464966 &#10;&#9;C534.710205,83.941940 527.572937,83.686188 519.951294,83.316902 &#10;z"/>
<path fill="#ffffff" opacity="1.000000" stroke="none" d="&#10;M433.637390,455.364807 &#10;&#9;C430.126190,452.017181 426.901581,448.880615 423.611053,445.814819 &#10;&#9;C421.881714,444.203552 421.239777,442.716949 423.292358,440.835358 &#10;&#9;C442.198547,423.503754 461.078430,406.143402 479.981567,388.808441 &#10;&#9;C480.188690,388.618500 480.604004,388.655487 481.683716,388.421509 &#10;&#9;C485.762360,398.095093 492.859680,405.211517 503.122589,408.907013 &#10;&#9;C502.428284,412.532959 499.833099,414.356201 497.999084,416.524719 &#10;&#9;C483.482208,433.689056 468.714722,450.642181 454.273621,467.869293 &#10;&#9;C451.384369,471.316010 449.683838,470.949463 446.898529,468.034882 &#10;&#9;C442.760193,463.704681 438.249084,459.730804 433.637390,455.364807 &#10;z"/>
<path fill="#ffffff" opacity="1.000000" stroke="none" d="&#10;M642.717529,238.706329 &#10;&#9;C649.899109,232.081543 656.818970,225.696350 664.463074,218.642792 &#10;&#9;C663.414246,222.641037 548.226624,358.923126 542.709473,363.176941 &#10;&#9;C539.049011,356.105011 533.669617,350.631134 525.332214,346.846619 &#10;&#9;C564.929810,310.367157 603.692749,274.656525 642.717529,238.706329 &#10;z"/>
<path fill="#ffffff" opacity="1.000000" stroke="none" d="&#10;M526.859680,400.047028 &#10;&#9;C515.598022,406.146240 503.905945,405.120148 495.433044,397.518066 &#10;&#9;C487.037598,389.985535 484.312042,377.632874 488.665710,366.847687 &#10;&#9;C492.672272,356.922394 502.705048,350.399170 513.457153,350.728516 &#10;&#9;C525.063965,351.084015 534.931213,358.648499 538.301575,369.774841 &#10;&#9;C541.783813,381.270569 537.675049,392.373596 526.859680,400.047028 &#10;z"/>
<path fill="#ffffff" opacity="1.000000" stroke="none" d="&#10;M505.936340,593.648987 &#10;&#9;C504.471130,589.038147 504.978455,584.690186 504.961395,580.389526 &#10;&#9;C504.921875,570.424988 504.807526,560.455322 505.068909,550.496887 &#10;&#9;C505.230682,544.332397 508.374298,540.929871 513.034790,540.918152 &#10;&#9;C517.550842,540.906799 520.836914,544.512756 520.935669,550.593872 &#10;&#9;C521.146057,563.544373 521.078430,576.501404 520.947327,589.454041 &#10;&#9;C520.908203,593.326111 519.426086,596.736389 515.297974,597.946716 &#10;&#9;C511.290314,599.121765 508.123047,597.777100 505.936340,593.648987 &#10;z"/>
<path fill="#ffffff" opacity="1.000000" stroke="none" d="&#10;M504.960938,203.579865 &#10;&#9;C504.934631,191.459030 504.881561,179.794510 504.945892,168.130630 &#10;&#9;C504.957733,165.991089 505.152344,163.762848 505.781586,161.736725 &#10;&#9;C506.815460,158.407562 509.263611,156.507309 512.864502,156.481766 &#10;&#9;C516.425476,156.456512 518.842529,158.221588 520.169128,161.498306 &#10;&#9;C520.355347,161.958237 520.530884,162.453568 520.560059,162.941544 &#10;&#9;C521.443176,177.740585 521.524231,192.553894 520.510681,207.335846 &#10;&#9;C520.244690,211.214966 517.223022,213.314728 513.112488,213.344406 &#10;&#9;C509.020386,213.373962 506.540009,211.379791 505.554840,207.477310 &#10;&#9;C505.271088,206.353149 505.163177,205.184601 504.960938,203.579865 &#10;z"/>
<path fill="#ffffff" opacity="1.000000" stroke="none" d="&#10;M622.462158,551.595398 &#10;&#9;C623.854492,554.100403 625.179749,556.229309 626.256226,558.477417 &#10;&#9;C628.177368,562.489502 627.416443,566.033203 623.681091,568.532227 &#10;&#9;C620.141113,570.900635 615.201782,569.775024 612.803833,565.855652 &#10;&#9;C608.110657,558.184937 603.689148,550.347595 599.177917,542.565979 &#10;&#9;C596.838806,538.531067 594.458862,534.515808 592.259521,530.404907 &#10;&#9;C589.790527,525.789856 590.894043,521.213013 594.789001,519.110291 &#10;&#9;C598.784180,516.953552 603.255859,518.196777 605.885498,522.658386 &#10;&#9;C611.467102,532.128357 616.830200,541.727051 622.462158,551.595398 &#10;z"/>
<path fill="#ffffff" opacity="1.000000" stroke="none" d="&#10;M666.862671,475.176270 &#10;&#9;C663.667053,473.329407 660.733459,471.750671 657.930237,469.966858 &#10;&#9;C653.701599,467.275940 652.545166,463.166809 654.762390,459.304077 &#10;&#9;C656.825867,455.708984 661.263672,454.053497 665.136414,456.220551 &#10;&#9;C677.468201,463.121002 689.697388,470.212799 701.815979,477.481293 &#10;&#9;C705.620361,479.763092 706.275696,484.414673 704.014282,488.020752 &#10;&#9;C701.718262,491.682129 697.393982,492.797058 693.070862,490.371246 &#10;&#9;C684.371582,485.489807 675.804626,480.372559 666.862671,475.176270 &#10;z"/>
<path fill="#ffffff" opacity="1.000000" stroke="none" d="&#10;M624.220825,200.077881 &#10;&#9;C618.131348,210.814056 612.260132,221.245117 606.276611,231.611374 &#10;&#9;C603.557861,236.321533 599.152100,237.734497 594.937073,235.505463 &#10;&#9;C591.240784,233.550751 589.666504,229.260559 591.898071,225.245117 &#10;&#9;C598.680115,213.041031 605.643982,200.934189 612.761536,188.922470 &#10;&#9;C615.199585,184.807861 619.850891,183.920898 623.601379,186.215866 &#10;&#9;C627.128296,188.374039 628.122070,192.440933 626.114441,196.711197 &#10;&#9;C625.621033,197.760666 624.971252,198.736588 624.220825,200.077881 &#10;z"/>
<path fill="#ffffff" opacity="1.000000" stroke="none" d="&#10;M401.749481,568.217102 &#10;&#9;C397.970245,564.519775 397.925659,560.765137 400.318848,556.668762 &#10;&#9;C406.859283,545.473755 413.339264,534.243408 419.834473,523.022034 &#10;&#9;C421.743347,519.724121 424.424652,517.759216 428.386688,518.268005 &#10;&#9;C431.948425,518.725464 433.903717,520.989929 434.833069,524.350525 &#10;&#9;C435.472076,526.661194 434.624176,528.614563 433.533112,530.500610 &#10;&#9;C426.874878,542.010376 420.266357,553.550232 413.470520,564.978516 &#10;&#9;C410.604218,569.798706 407.728668,570.494934 401.749481,568.217102 &#10;z"/>
<path fill="#ffffff" opacity="1.000000" stroke="none" d="&#10;M352.088684,479.150269 &#10;&#9;C345.722443,482.821289 339.723785,486.400696 333.626526,489.803467 &#10;&#9;C328.489899,492.670135 324.185669,491.923065 321.802277,488.000732 &#10;&#9;C319.253204,483.805939 320.698639,479.443817 325.851562,476.428925 &#10;&#9;C337.045410,469.879486 348.268646,463.379333 359.528717,456.944519 &#10;&#9;C364.267395,454.236511 368.976776,455.271088 371.245148,459.284637 &#10;&#9;C373.458313,463.200653 372.117645,467.385742 367.500702,470.199860 &#10;&#9;C362.532959,473.227814 357.447632,476.062897 352.088684,479.150269 &#10;z"/>
<path fill="#ffffff" opacity="1.000000" stroke="none" d="&#10;M430.764587,219.343292 &#10;&#9;C432.016418,221.541397 433.211609,223.363388 434.093109,225.326233 &#10;&#9;C435.938934,229.436325 434.560303,233.602875 430.873871,235.564270 &#10;&#9;C427.063080,237.591843 422.581268,236.368225 420.144226,232.268494 &#10;&#9;C414.793671,223.267456 409.617310,214.162827 404.371490,205.099518 &#10;&#9;C402.872986,202.510452 401.274628,199.972336 399.908234,197.315109 &#10;&#9;C397.537506,192.704742 398.679596,188.240799 402.631561,186.066315 &#10;&#9;C406.751160,183.799591 410.746460,185.076675 413.491089,189.735855 &#10;&#9;C419.227875,199.474289 424.879364,209.262955 430.764587,219.343292 &#10;z"/>
<path fill="#ffffff" opacity="1.000000" stroke="none" d="&#10;M677.997437,291.065674 &#10;&#9;C673.622864,293.517578 669.629272,295.911041 665.494202,298.028351 &#10;&#9;C660.960876,300.349548 656.812378,299.252136 654.685059,295.451324 &#10;&#9;C652.493652,291.536011 653.603271,287.520508 658.008606,284.910431 &#10;&#9;C669.722290,277.970184 681.484314,271.108917 693.315857,264.371948 &#10;&#9;C697.674316,261.890228 701.789551,263.079681 704.055603,266.997253 &#10;&#9;C706.349792,270.963409 705.444153,275.133667 701.187927,277.707458 &#10;&#9;C693.660339,282.259491 685.949951,286.509216 677.997437,291.065674 &#10;z"/>
<path fill="#ffffff" opacity="1.000000" stroke="none" d="&#10;M338.341064,267.576691 &#10;&#9;C347.874298,273.112457 357.090057,278.461243 366.291077,283.835297 &#10;&#9;C371.970459,287.152435 373.711121,291.312653 371.247772,295.555267 &#10;&#9;C368.842407,299.697998 364.609436,300.385681 359.061157,297.291931 &#10;&#9;C347.864868,291.048828 336.702209,284.744324 325.574310,278.380096 &#10;&#9;C320.767181,275.630768 319.296326,271.216034 321.556580,267.057465 &#10;&#9;C323.795227,262.938629 328.139618,262.058472 333.216858,264.727478 &#10;&#9;C334.837555,265.579437 336.418365,266.507263 338.341064,267.576691 &#10;z"/>
<path fill="#ffffff" opacity="1.000000" stroke="none" d="&#10;M727.301025,384.990875 &#10;&#9;C713.232605,385.121429 699.591003,385.236481 685.950073,385.179474 &#10;&#9;C680.180542,385.155334 676.807800,382.174927 676.739685,377.524292 &#10;&#9;C676.669800,372.753418 679.934021,369.780090 685.712708,369.743713 &#10;&#9;C698.856079,369.661041 712.000488,369.698456 725.144287,369.736938 &#10;&#9;C729.411377,369.749420 732.699707,371.430298 733.549683,375.942230 &#10;&#9;C734.431763,380.624695 732.261719,383.600891 727.301025,384.990875 &#10;z"/>
<path fill="#ffffff" opacity="1.000000" stroke="none" d="&#10;M324.999146,369.712708 &#10;&#9;C330.482025,369.717834 335.468262,369.614380 340.447357,369.758240 &#10;&#9;C345.816620,369.913330 349.178772,372.902588 349.260834,377.292664 &#10;&#9;C349.343109,381.694885 346.055664,385.035156 340.732544,385.109009 &#10;&#9;C327.280823,385.295654 313.823669,385.296875 300.371460,385.138031 &#10;&#9;C295.200317,385.076996 291.942566,381.579956 292.099792,377.059570 &#10;&#9;C292.246216,372.849121 295.549408,369.838348 300.580994,369.755157 &#10;&#9;C308.551849,369.623322 316.526398,369.715576 324.999146,369.712708 &#10;z"/>
</svg>