<svg version="1.1" xmlns="http://www.w3.org/2000/svg" width="612px" height="612px" transform="rotate(0) scale(1, 1)">
<path d="M0 0 C201.96 0 403.92 0 612 0 C612 201.96 612 403.92 612 612 C410.04 612 208.08 612 0 612 C0 410.04 0 208.08 0 0 Z " fill="#fefefe" transform="translate(0,0)"/>
<path d="M0 0 C1.07507813 0.391875 2.15015625 0.78375 3.2578125 1.1875 C6.24024248 2.3430854 9.13980659 3.5699033 12 5 C12 5.66 12 6.32 12 7 C12.721875 7.28875 13.44375 7.5775 14.1875 7.875 C16.79166667 8.91666667 19.39583333 9.95833333 22 11 C22 11.66 22 12.32 22 13 C22.99 13.33 23.98 13.66 25 14 C25.33 15.65 25.66 17.3 26 19 C26.99 19.33 27.98 19.66 29 20 C29.33 22.31 29.66 24.62 30 27 C30.66 27 31.32 27 32 27 C32 48.78 32 70.56 32 93 C39.26 93 46.52 93 54 93 C54 117.42 54 141.84 54 167 C11.80493054 167.08682113 -30.37066168 166.95495376 -72.5625 166.5 C-73.67187675 166.48804218 -74.78125351 166.47608437 -75.92424774 166.46376419 C-89.61623974 166.31559286 -103.30815262 166.16096563 -117 166 C-117.02312504 156.62964062 -117.04091591 147.25929099 -117.05181217 137.88890934 C-117.05704065 133.53831541 -117.06413765 129.18774093 -117.07543945 124.8371582 C-117.08626959 120.64209742 -117.0922771 116.44705541 -117.09487724 112.25198174 C-117.09673126 110.64793032 -117.10035144 109.04387997 -117.10573006 107.4398365 C-117.11294219 105.20083485 -117.11399087 102.9619117 -117.11352539 100.72290039 C-117.115746 99.44604874 -117.11796661 98.16919708 -117.12025452 96.85365295 C-117 94 -117 94 -116 93 C-114.5112814 92.91330568 -113.018555 92.89296506 -111.52734375 92.90234375 C-110.62822266 92.90556641 -109.72910156 92.90878906 -108.80273438 92.91210938 C-107.38444336 92.92467773 -107.38444336 92.92467773 -105.9375 92.9375 C-104.98810547 92.94201172 -104.03871094 92.94652344 -103.06054688 92.95117188 C-100.70696935 92.9629989 -98.35351523 92.97947975 -96 93 C-96.00666183 92.24102417 -96.01332367 91.48204834 -96.02018738 90.70007324 C-96.08048635 83.52110635 -96.12606929 76.34226356 -96.15543652 69.16310883 C-96.17104246 65.47288645 -96.19218682 61.78287465 -96.22631836 58.09277344 C-96.25909442 54.52659558 -96.27689109 50.96061932 -96.28463173 47.39430237 C-96.29281099 45.38255153 -96.31620093 43.37088093 -96.33988953 41.35925293 C-96.34185271 30.6101028 -93.87303892 23.87359463 -88 15 C-87.34 13.865625 -86.68 12.73125 -86 11.5625 C-83.59772163 8.48458084 -82.69687155 8.63117319 -79 8 C-78.278125 7.236875 -77.55625 6.47375 -76.8125 5.6875 C-59.54799373 -10.80969488 -20.53428343 -7.52235264 0 0 Z " fill="#ffffff" transform="translate(338,213)"/>
<path d="M0 0 C56.43 0 112.86 0 171 0 C171 5.94 171 11.88 171 18 C160.87500644 18.03122329 150.75003352 18.05151537 140.625 18.0625 C139.84185047 18.06335602 139.05870094 18.06421204 138.25181961 18.06509399 C106.97811536 18.09509616 75.70920401 17.83720217 44.4375 17.5 C43.32812325 17.48804218 42.21874649 17.47608437 41.07575226 17.46376419 C27.38375896 17.31559284 13.69185563 17.16036313 0 17 C0 11.39 0 5.78 0 0 Z " fill="#ffffff" transform="translate(221,362)"/>
<path d="M0 0 C6.86786581 2.81702604 10.17391634 7.05979006 13.125 13.73046875 C16.69870419 22.999764 15.65921269 32.88553903 12 42 C11.35088461 43.34196551 10.68934782 44.67825048 10 46 C9.34 46 8.68 46 8 46 C7.79375 46.598125 7.5875 47.19625 7.375 47.8125 C5.34331555 51.04472526 3.61210496 51.73259475 0 53 C-4.82840712 53.38627257 -9.37981459 53.5400618 -14 52 C-14 51.34 -14 50.68 -14 50 C-14.90878906 49.62294922 -14.90878906 49.62294922 -15.8359375 49.23828125 C-18.31528622 47.81959254 -19.18036191 46.62474427 -20.625 44.1875 C-21.02976562 43.52105469 -21.43453125 42.85460937 -21.8515625 42.16796875 C-24.53444514 37.10334335 -25.35731906 32.91163034 -25.3125 27.1875 C-25.30903564 26.47553467 -25.30557129 25.76356934 -25.30200195 25.0300293 C-25.18978977 19.61718618 -24.44197123 15.79349907 -22 11 C-21.62875 10.13375 -21.2575 9.2675 -20.875 8.375 C-15.54050767 1.61797638 -8.5808155 -1.96671752 0 0 Z " fill="#000000" transform="translate(320,266)"/>
<path d="M0 0 C0.33 0 0.66 0 1 0 C1 5.61 1 11.22 1 17 C33.34 17 65.68 17 99 17 C99 25.25 99 33.5 99 42 C90.75 42 82.5 42 74 42 C74 34.08 74 26.16 74 18 C65.09 18 56.18 18 47 18 C47 25.92 47 33.84 47 42 C38.75 42 30.5 42 22 42 C22 34.08 22 26.16 22 18 C14.74 18 7.48 18 0 18 C0 12.06 0 6.12 0 0 Z " fill="#ffffff" transform="translate(220,362)"/>
<path d="M0 0 C7.625 1.75 7.625 1.75 11 4 C13.64632287 3.6878236 13.64632287 3.6878236 16 3 C16 3.99 16 4.98 16 6 C15.071875 6.3403125 15.071875 6.3403125 14.125 6.6875 C11.2788291 8.44542908 11.03283469 9.83264027 10 13 C9.46375 14.093125 8.9275 15.18625 8.375 16.3125 C5.77178828 23.33449675 5.6857871 32.8438017 7.9375 39.96484375 C9.00642661 42.34268418 9.00642661 42.34268418 10.22265625 44.3984375 C10.47917969 44.92695313 10.73570312 45.45546875 11 46 C10.67 46.66 10.34 47.32 10 48 C7.49962266 45.82575883 6.56371414 44.26954202 6 41 C5.566875 41.474375 5.13375 41.94875 4.6875 42.4375 C1.04971575 45.80581875 -3.64381872 45.39100828 -8.33203125 45.34765625 C-11 45 -11 45 -14.0625 42.8125 C-17.61861418 37.65039877 -18.27489307 33.70433016 -18.25 27.4375 C-18.25515625 26.13683594 -18.2603125 24.83617187 -18.265625 23.49609375 C-17.92441206 19.00512934 -16.94142317 17.05910107 -14 13.75 C-8.61598163 10.60932261 -2.87099275 11.53225181 3 13 C3.33 10.03 3.66 7.06 4 4 C1.525 3.505 1.525 3.505 -1 3 C-0.67 2.01 -0.34 1.02 0 0 Z " fill="#ffffff" transform="translate(289,264)"/>
<path d="M0 0 C0.9178125 -0.00515625 1.835625 -0.0103125 2.78125 -0.015625 C5.6778282 0.26737402 7.86375653 1.04649755 10.5 2.25 C10.17 5.22 9.84 8.19 9.5 11.25 C8.03626953 11.19779297 8.03626953 11.19779297 6.54296875 11.14453125 C5.27066406 11.11746094 3.99835938 11.09039062 2.6875 11.0625 C1.42292969 11.02769531 0.15835937 10.99289062 -1.14453125 10.95703125 C-4.46112588 10.9261484 -4.46112588 10.9261484 -6.32421875 12.76171875 C-6.71222656 13.25285156 -7.10023438 13.74398438 -7.5 14.25 C-8.16 14.25 -8.82 14.25 -9.5 14.25 C-10.68857226 18.02659251 -10.70281679 21.68520166 -10.75 25.625 C-10.77578125 26.91148437 -10.8015625 28.19796875 -10.828125 29.5234375 C-10.4799712 33.4774699 -9.42117875 35.82221264 -7.5 39.25 C-7.5 39.91 -7.5 40.57 -7.5 41.25 C-3.93954823 42.43681726 -1.06191663 42.34689832 2.6875 42.3125 C3.95980469 42.30347656 5.23210937 42.29445313 6.54296875 42.28515625 C7.51878906 42.27355469 8.49460937 42.26195312 9.5 42.25 C9.83 45.55 10.16 48.85 10.5 52.25 C2.81732649 54.29871294 -4.46466171 54.03825908 -11.5 50.25 C-12.551875 49.734375 -13.60375 49.21875 -14.6875 48.6875 C-20.04763222 44.04205208 -21.40756791 38.65524354 -21.91796875 31.72265625 C-22.34342253 21.80623478 -22.01799154 13.28801169 -15.0078125 5.6171875 C-10.50068377 1.53041275 -5.99685701 -0.03369021 0 0 Z " fill="#000000" transform="translate(282.5,265.75)"/>
<path d="M0 0 C8.25 0 16.5 0 25 0 C25 7.92 25 15.84 25 24 C16.75 24 8.5 24 0 24 C0 16.08 0 8.16 0 0 Z " fill="#ffffff" transform="translate(345,380)"/>
<path d="M0 0 C4.36450941 1.42320959 5.29434001 2.9267215 7.5625 6.875 C10.25017102 13.63706592 9.87433452 21.33856893 7.125 28 C4.20532439 33.60537024 4.20532439 33.60537024 0.875 34.9375 C-2.5625 35.25 -2.5625 35.25 -6.125 33.9375 C-11.09117728 28.06499536 -11.804637 21.37679596 -11.48046875 13.9296875 C-10.8501469 8.62390137 -9.50763659 5.43224226 -5.8125 1.4375 C-3.125 -0.0625 -3.125 -0.0625 0 0 Z " fill="#ffffff" transform="translate(316.125,275.0625)"/>
<path d="M0 0 C7.26 0 14.52 0 22 0 C23.23482184 3.70446553 23.14558202 7.1443008 23.125 11 C23.13080078 12.08667969 23.13080078 12.08667969 23.13671875 13.1953125 C23.13081927 16.39282879 23.01805798 18.94582607 22 22 C14.74 22 7.48 22 0 22 C0 14.74 0 7.48 0 0 Z " fill="#ffffff" transform="translate(244,381)"/>
<path d="M0 0 C1.57394531 -0.04253906 1.57394531 -0.04253906 3.1796875 -0.0859375 C6.125 0.375 6.125 0.375 8.4921875 2.0703125 C10.46258868 4.85150077 10.55218558 6.258474 10.375 9.625 C10.33890625 10.51703125 10.3028125 11.4090625 10.265625 12.328125 C10.19601562 13.34132813 10.19601562 13.34132813 10.125 14.375 C9.465 14.375 8.805 14.375 8.125 14.375 C7.856875 15.1175 7.58875 15.86 7.3125 16.625 C6.18270579 19.24136554 4.91606798 21.17687111 3.125 23.375 C5.765 23.375 8.405 23.375 11.125 23.375 C11.125 25.685 11.125 27.995 11.125 30.375 C4.525 30.375 -2.075 30.375 -8.875 30.375 C-8.875 24.63745023 -8.29455309 24.16425508 -4.5 20.25 C0.72318435 15.20565808 0.72318435 15.20565808 2.125 8.375 C-0.845 8.375 -3.815 8.375 -6.875 8.375 C-7.5 5.5 -7.5 5.5 -7.875 2.375 C-5.20028957 -0.29971043 -3.72694382 0.04556166 0 0 Z " fill="#000000" transform="translate(345.875,299.625)"/>
<path d="M0 0 C0 5.94 0 11.88 0 18 C-24.09 18 -48.18 18 -73 18 C-73 17.67 -73 17.34 -73 17 C-49.24 17 -25.48 17 -1 17 C-1 13.04 -1 9.08 -1 5 C-56.11 5 -111.22 5 -168 5 C-168 4.67 -168 4.34 -168 4 C-166.75317381 3.99641747 -166.75317381 3.99641747 -165.48115921 3.99276257 C-145.26759524 3.93365911 -125.05415096 3.85813898 -104.84071732 3.76428509 C-95.0656975 3.71929528 -85.29071437 3.679888 -75.515625 3.65356445 C-66.9969117 3.63061013 -58.47831421 3.59724094 -49.95969272 3.55129844 C-45.44799749 3.52733152 -40.9364172 3.50862552 -36.42465973 3.50238609 C-32.17946034 3.49635087 -27.93455518 3.47640798 -23.68946457 3.44572449 C-22.13021002 3.43691911 -20.57091706 3.43322684 -19.01163864 3.43499184 C-16.884472 3.43663964 -14.75820761 3.41998919 -12.63116455 3.39872742 C-11.44020802 3.39411845 -10.24925148 3.38950949 -9.02220535 3.38476086 C-5.32886859 2.9145574 -3.42112547 0 0 0 Z " fill="#ffffff" transform="translate(392,362)"/>
<path d="M0 0 C0.33 0 0.66 0 1 0 C1 5.61 1 11.22 1 17 C25.09 17 49.18 17 74 17 C74 17.33 74 17.66 74 18 C65.09 18 56.18 18 47 18 C46.67 19.32 46.34 20.64 46 22 C46 21.01 46 20.02 46 19 C38.74 19 31.48 19 24 19 C24 26.26 24 33.52 24 41 C31.26 41 38.52 41 46 41 C46.33 40.01 46.66 39.02 47 38 C47 39.32 47 40.64 47 42 C38.75 42 30.5 42 22 42 C22 34.08 22 26.16 22 18 C14.74 18 7.48 18 0 18 C0 12.06 0 6.12 0 0 Z " fill="#ffffff" transform="translate(220,362)"/>
<path d="M0 0 C1.85776765 3.13498292 2.20140476 5.37471432 2 9 C2.66 9 3.32 9 4 9 C4.10823773 11.24893954 4.18569645 13.49937575 4.25 15.75 C4.29640625 17.00296875 4.3428125 18.2559375 4.390625 19.546875 C4 23 4 23 2.109375 25.328125 C1.06523437 26.15570313 1.06523437 26.15570313 0 27 C-0.66 27.66 -1.32 28.32 -2 29 C-2.33 28.01 -2.66 27.02 -3 26 C-2.34 26 -1.68 26 -1 26 C-1.33 24.35 -1.66 22.7 -2 21 C-1.67 21 -1.34 21 -1 21 C-1 19.35 -1 17.7 -1 16 C-1.28875 16.639375 -1.5775 17.27875 -1.875 17.9375 C-3 20 -3 20 -5 21 C-5.0544452 18.79194476 -5.09299283 16.58349446 -5.125 14.375 C-5.14820313 13.14523437 -5.17140625 11.91546875 -5.1953125 10.6484375 C-5.00047204 7.00881763 -4.5031995 4.31500287 -3 1 C-2.01 0.67 -1.02 0.34 0 0 Z " fill="#000000" transform="translate(330,279)"/>
<path d="M0 0 C1.32 1.32 2.64 2.64 4 4 C4 3.34 4 2.68 4 2 C6.86724686 2.57344937 7.8614515 2.8614515 10 5 C9.34 5 8.68 5 8 5 C7.21311555 7.77723925 6.88050076 10.22610077 6.90234375 13.109375 C6.90556641 13.86347656 6.90878906 14.61757813 6.91210938 15.39453125 C6.92048828 16.17183594 6.92886719 16.94914062 6.9375 17.75 C6.94201172 18.54277344 6.94652344 19.33554687 6.95117188 20.15234375 C6.96291435 22.10159508 6.98084854 24.05080738 7 26 C6.34 25.67 5.68 25.34 5 25 C4.5859375 22.27734375 4.5859375 22.27734375 4.375 18.9375 C4.30023438 17.83277344 4.22546875 16.72804688 4.1484375 15.58984375 C4.09945313 14.73519531 4.05046875 13.88054687 4 13 C2.68 13 1.36 13 0 13 C-0.66 13 -1.32 13 -2 13 C-2 18.94 -2 24.88 -2 31 C-4.38335917 26.23328167 -4.36696499 22.96472001 -4.375 17.75 C-4.39949219 16.92886719 -4.42398437 16.10773438 -4.44921875 15.26171875 C-4.47836408 9.13148461 -3.08523613 5.29246039 0 0 Z " fill="#000000" transform="translate(265,275)"/>
<path d="M0 0 C2.97 0.33 5.94 0.66 9 1 C8.67 2.32 8.34 3.64 8 5 C7.01 5.33 6.02 5.66 5 6 C5 5.34 5 4.68 5 4 C4.34 4 3.68 4 3 4 C3.33 5.32 3.66 6.64 4 8 C2.35 8 0.7 8 -1 8 C-1 7.34 -1 6.68 -1 6 C-1.99 5.67 -2.98 5.34 -4 5 C-4.33 7.31 -4.66 9.62 -5 12 C-5.99 12.33 -6.98 12.66 -8 13 C-8.66 13.66 -9.32 14.32 -10 15 C-10 14.34 -10 13.68 -10 13 C-10.99 13 -11.98 13 -13 13 C-13.3125 10.8125 -13.3125 10.8125 -13 8 C-10.62632516 5.01595163 -8.99137572 3.29971824 -5.3125 2.1875 C-3 2 -3 2 -1 2 C-0.67 1.34 -0.34 0.68 0 0 Z " fill="#000000" transform="translate(312,267)"/>
<path d="M0 0 C3 1 3 1 5 4 C5.25760279 6.69452521 5.08900053 9.28548375 5 12 C4.34 12 3.68 12 3 12 C2.67 12.66 2.34 13.32 2 14 C1.67 14.33 1.34 14.66 1 15 C0.95936168 16.66617115 0.957279 18.33388095 1 20 C0.34 20 -0.32 20 -1 20 C-1.33 20.66 -1.66 21.32 -2 22 C-4.05652174 5.8048913 -4.05652174 5.8048913 -1.5 1.4375 C-0.7575 0.7259375 -0.7575 0.7259375 0 0 Z " fill="#000000" transform="translate(265,284)"/>
<path d="M0 0 C3.63 0 7.26 0 11 0 C11 1.66666667 11 3.33333333 11 5 C10.34 5 9.68 5 9 5 C9 5.99 9 6.98 9 8 C5.37 8 1.74 8 -2 8 C-1 4 -1 4 0 3 C0 2.01 0 1.02 0 0 Z " fill="#000000" transform="translate(280,267)"/>
<path d="M0 0 C0.99 0 1.98 0 3 0 C3.33 3.3 3.66 6.6 4 10 C-0.96073422 11.32286246 -5.91111512 11.08893197 -11 11 C-10.67 10.34 -10.34 9.68 -10 9 C-10.99 9 -11.98 9 -13 9 C-13 8.34 -13 7.68 -13 7 C-10.29816945 5.64908472 -7.88191794 5.66141942 -4.875 5.4375 C-3.77929688 5.35371094 -2.68359375 5.26992188 -1.5546875 5.18359375 C-0.29011719 5.09271484 -0.29011719 5.09271484 1 5 C0.67 3.35 0.34 1.7 0 0 Z " fill="#000000" transform="translate(289,308)"/>
<path d="M0 0 C4.55555556 0.55555556 4.55555556 0.55555556 6 2 C8.28684338 2.2819396 10.57363273 2.44777005 12.87109375 2.62109375 C15 3 15 3 17 5 C14.40483479 6.29758261 12.45816973 6.13269102 9.5625 6.125 C8.59441406 6.12757813 7.62632812 6.13015625 6.62890625 6.1328125 C4 6 4 6 1 5 C1 4.34 1 3.68 1 3 C0.01 2.67 -0.98 2.34 -2 2 C-1.34 1.34 -0.68 0.68 0 0 Z " fill="#000000" transform="translate(305,313)"/>
<path d="M0 0 C4.82971226 4.34535716 6.79686435 10.16235121 7.25390625 16.546875 C7.25045535 19.70790224 7.17806335 22.84432174 7 26 C6.67 26 6.34 26 6 26 C6 22.7 6 19.4 6 16 C5.34 16 4.68 16 4 16 C3.5186659 14.27143541 3.04003029 12.54211929 2.5625 10.8125 C2.29566406 9.84957031 2.02882813 8.88664062 1.75390625 7.89453125 C1.07119982 5.27336303 0.50107805 2.661065 0 0 Z " fill="#000000" transform="translate(328,272)"/>
<path d="M0 0 C0.33 0 0.66 0 1 0 C1.33 3.3 1.66 6.6 2 10 C2.33 7.36 2.66 4.72 3 2 C3.33 2 3.66 2 4 2 C4 4.64 4 7.28 4 10 C4.66 10.33 5.32 10.66 6 11 C4.35 12.65 2.7 14.3 1 16 C-0.14077657 12.57767028 -0.09815117 9.91326783 -0.0625 6.3125 C-0.05347656 5.13300781 -0.04445313 3.95351563 -0.03515625 2.73828125 C-0.02355469 1.83464844 -0.01195312 0.93101562 0 0 Z " fill="#ffffff" transform="translate(305,286)"/>
<path d="M0 0 C0.33 0 0.66 0 1 0 C1.05406122 1.93719378 1.09282025 3.87481921 1.125 5.8125 C1.14820313 6.89144531 1.17140625 7.97039062 1.1953125 9.08203125 C1 12 1 12 -1 15 C-2.10228696 10.59085217 -2.07654536 6.51617599 -2 2 C-1.34 2 -0.68 2 0 2 C0 1.34 0 0.68 0 0 Z " fill="#ffffff" transform="translate(324,286)"/>
<path d="M0 0 C1.52299523 2.93720508 2.80100302 5.9168649 4 9 C3.01 9.33 2.02 9.66 1 10 C1 9.34 1 8.68 1 8 C0.01 8 -0.98 8 -2 8 C-2.66 8.66 -3.32 9.32 -4 10 C-3.43454163 6.04179141 -2.19097652 3.3340947 0 0 Z " fill="#ffffff" transform="translate(261,302)"/>
<path d="M0 0 C0.66 0 1.32 0 2 0 C2 0.66 2 1.32 2 2 C3.32 2 4.64 2 6 2 C6 2.66 6 3.32 6 4 C8.97 4.495 8.97 4.495 12 5 C11.34 5.66 10.68 6.32 10 7 C6.5625 7 6.5625 7 3 6 C1.0625 2.9375 1.0625 2.9375 0 0 Z " fill="#ffffff" transform="translate(307,303)"/>
<path d="M0 0 C0.97608217 2.92824652 1.08226668 4.95613276 1 8 C1.66 8.33 2.32 8.66 3 9 C0.36 9 -2.28 9 -5 9 C-3.50163895 5.88801935 -1.80066242 2.9465385 0 0 Z " fill="#ffffff" transform="translate(354,314)"/>
<path d="M0 0 C5 7.5 5 7.5 5 10 C5.66 10.33 6.32 10.66 7 11 C6.01 11 5.02 11 4 11 C3.67 10.34 3.34 9.68 3 9 C2.01 9.33 1.02 9.66 0 10 C0 9.34 0 8.68 0 8 C-0.66 8 -1.32 8 -2 8 C-2 6 -2 6 0 4 C0 2.68 0 1.36 0 0 Z " fill="#000000" transform="translate(305,299)"/>
<path d="M0 0 C0.66 0.33 1.32 0.66 2 1 C2 2.65 2 4.3 2 6 C3.65 6 5.3 6 7 6 C7 6.33 7 6.66 7 7 C4.36 7.33 1.72 7.66 -1 8 C-1.625 5.125 -1.625 5.125 -2 2 C-1.34 1.34 -0.68 0.68 0 0 Z " fill="#000000" transform="translate(340,300)"/>
<path d="M0 0 C0.99 0.66 1.98 1.32 3 2 C2.01 2.33 1.02 2.66 0 3 C-1.71567661 6.50294871 -1.71567661 6.50294871 -3 10 C-3.66 10 -4.32 10 -5 10 C-5.8125 8.3125 -5.8125 8.3125 -6 6 C-3.625 3.3125 -3.625 3.3125 -1 1 C-0.67 0.67 -0.34 0.34 0 0 Z " fill="#000000" transform="translate(305,269)"/>
<path d="M0 0 C2.64 0.33 5.28 0.66 8 1 C7.4225 1.268125 6.845 1.53625 6.25 1.8125 C3.9674132 3.01719859 2.0262058 4.40798115 0 6 C0 5.34 0 4.68 0 4 C-0.66 3.67 -1.32 3.34 -2 3 C-1.34 2.01 -0.68 1.02 0 0 Z " fill="#ffffff" transform="translate(268,266)"/>
<path d="M0 0 C2 1 2 1 3 3 C2.01 3 1.02 3 0 3 C0 4.32 0 5.64 0 7 C-0.61875 6.814375 -1.2375 6.62875 -1.875 6.4375 C-4.04160178 5.76313824 -4.04160178 5.76313824 -6 7 C-4.77065985 3.31197956 -3.06140622 2.27643027 0 0 Z " fill="#000000" transform="translate(272,268)"/>
<path d="M0 0 C0.66 0.33 1.32 0.66 2 1 C0.02 3.31 -1.96 5.62 -4 8 C-4.66 7.67 -5.32 7.34 -6 7 C-4.60667426 3.63279613 -3.0210714 2.0140476 0 0 Z " fill="#ffffff" transform="translate(343,316)"/>
<path d="M0 0 C0.804375 0.433125 0.804375 0.433125 1.625 0.875 C4.35280484 2.16711808 7.12612718 3.08558592 10 4 C6.32589215 5.17571451 2.83070817 5.07366746 -1 5 C-1 4.34 -1 3.68 -1 3 C-0.34 3 0.32 3 1 3 C0.67 2.01 0.34 1.02 0 0 Z " fill="#ffffff" transform="translate(268,314)"/>
<path d="M0 0 C2 3 2 3 2 6 C1.34 6 0.68 6 0 6 C-0.33 7.98 -0.66 9.96 -1 12 C-1.99 12 -2.98 12 -4 12 C-3.79503906 11.46890625 -3.59007812 10.9378125 -3.37890625 10.390625 C-3.10949219 9.68421875 -2.84007812 8.9778125 -2.5625 8.25 C-2.29566406 7.55390625 -2.02882813 6.8578125 -1.75390625 6.140625 C-1.03853307 4.10940997 -0.48634348 2.0964709 0 0 Z " fill="#ffffff" transform="translate(334,298)"/>
<path d="M0 0 C0.99 0 1.98 0 3 0 C3.33 3.3 3.66 6.6 4 10 C3.01 9.67 2.02 9.34 1 9 C1.66 9 2.32 9 3 9 C3 8.01 3 7.02 3 6 C1.68 5.67 0.36 5.34 -1 5 C-0.34 5 0.32 5 1 5 C0.67 3.35 0.34 1.7 0 0 Z " fill="#000000" transform="translate(289,308)"/>
<path d="M0 0 C3.3 0 6.6 0 10 0 C8.02 0.99 8.02 0.99 6 2 C5.67 2.66 5.34 3.32 5 4 C3.35 3.67 1.7 3.34 0 3 C0 2.01 0 1.02 0 0 Z " fill="#000000" transform="translate(279,309)"/>
<path d="M0 0 C1.33804687 0.04060547 1.33804687 0.04060547 2.703125 0.08203125 C3.37859375 0.11683594 4.0540625 0.15164063 4.75 0.1875 C4.75 0.5175 4.75 0.8475 4.75 1.1875 C2.11 1.1875 -0.53 1.1875 -3.25 1.1875 C-3.58 2.1775 -3.91 3.1675 -4.25 4.1875 C-5.9 3.8575 -7.55 3.5275 -9.25 3.1875 C-6.10408067 0.38704377 -4.182936 -0.16511589 0 0 Z " fill="#000000" transform="translate(315.25,265.8125)"/>
<path d="M0 0 C1.32 0 2.64 0 4 0 C4.33 1.65 4.66 3.3 5 5 C4.34 4.67 3.68 4.34 3 4 C1.46331135 3.77532169 -0.07968054 3.59203195 -1.625 3.4375 C-2.44226563 3.35371094 -3.25953125 3.26992188 -4.1015625 3.18359375 C-4.72804688 3.12300781 -5.35453125 3.06242187 -6 3 C-6 2.67 -6 2.34 -6 2 C-4.02 1.67 -2.04 1.34 0 1 C0 0.67 0 0.34 0 0 Z " fill="#ffffff" transform="translate(349,297)"/>
<path d="M0 0 C1.32 0.33 2.64 0.66 4 1 C3.01 2.32 2.02 3.64 1 5 C-0.32 4.67 -1.64 4.34 -3 4 C-2.01 2.68 -1.02 1.36 0 0 Z " fill="#ffffff" transform="translate(302,267)"/>
<path d="M0 0 C0.66 0 1.32 0 2 0 C0.375 6.75 0.375 6.75 -3 9 C-2.5020163 5.26512223 -2.12508244 3.18762365 0 0 Z " fill="#ffffff" transform="translate(254,222)"/>
<path d="M0 0 C5.66153846 1.47692308 5.66153846 1.47692308 7.375 4.125 C7.684375 5.053125 7.684375 5.053125 8 6 C5.0280615 4.87548273 2.66559313 3.77706209 0 2 C0 1.34 0 0.68 0 0 Z " fill="#ffffff" transform="translate(350,218)"/>
<path d="M0 0 C0.66 0.66 1.32 1.32 2 2 C0.68 2.99 -0.64 3.98 -2 5 C-3.32 4.34 -4.64 3.68 -6 3 C-3 1 -3 1 0 0 Z " fill="#000000" transform="translate(326,312)"/>
<path d="M0 0 C0.66 0.33 1.32 0.66 2 1 C2.33 1.99 2.66 2.98 3 4 C2.34 4 1.68 4 1 4 C1 4.66 1 5.32 1 6 C0.01 5.67 -0.98 5.34 -2 5 C-1.125 1.125 -1.125 1.125 0 0 Z " fill="#000000" transform="translate(268,273)"/>
<path d="M0 0 C0.66 0.33 1.32 0.66 2 1 C1.25 5.75 1.25 5.75 -1 8 C-1.66 6.68 -2.32 5.36 -3 4 C-2.34 3.67 -1.68 3.34 -1 3 C-0.67 2.01 -0.34 1.02 0 0 Z " fill="#ffffff" transform="translate(347,307)"/>
<path d="M0 0 C2.15377564 2.62198774 3.40072174 4.64404172 4 8 C3.01 7.67 2.02 7.34 1 7 C-0.1875 3.9375 -0.1875 3.9375 -1 1 C-0.67 0.67 -0.34 0.34 0 0 Z " fill="#ffffff" transform="translate(296,304)"/>
</svg>