<svg version="1.1" xmlns="http://www.w3.org/2000/svg" width="512px" height="512px" transform="rotate(0) scale(1, 1)">
<path d="M0 0 C104.28 0 208.56 0 316 0 C316.12099405 91.25191789 316.12099405 91.25191789 316.14648438 129.43164062 C316.1523574 138.16967791 316.15841868 146.90771502 316.16479492 155.64575195 C316.16598179 157.28835758 316.16598179 157.28835758 316.16719264 158.96414715 C316.18021698 176.6102391 316.20385537 194.25630153 316.23145839 211.90237602 C316.25957874 230.03126452 316.27619024 248.16013764 316.28226548 266.28904706 C316.28636821 277.46266142 316.29929503 288.63619234 316.3237494 299.80978099 C316.33968856 307.48679128 316.34438198 315.16375885 316.34050413 322.84078445 C316.33859523 327.2605497 316.34138287 331.68016983 316.35761642 336.09990883 C316.50519863 378.36946815 316.50519863 378.36946815 310.3125 398.6875 C310.05903809 399.54287354 309.80557617 400.39824707 309.54443359 401.27954102 C302.65917645 423.63081219 290.95126438 443.62077004 275.04296875 460.74609375 C273.6244739 462.31104887 272.26401964 463.92980725 270.953125 465.5859375 C249.05701607 492.64952814 209.52049439 507.91051236 176 512 C170.11043532 512.48384225 164.21789633 512.48744444 158.3125 512.4375 C157.14036453 512.43243942 157.14036453 512.43243942 155.94454956 512.42727661 C142.97291246 512.34654953 130.56731359 511.43866978 118 508 C117.13455566 507.76394043 116.26911133 507.52788086 115.37744141 507.28466797 C85.8226928 498.90298666 57.58052762 481.93175598 38 458 C37.16597656 457.00355469 36.33195312 456.00710938 35.47265625 454.98046875 C21.78436375 438.33827146 11.82584578 419.33748498 5.6875 398.6875 C5.45708008 397.93178711 5.22666016 397.17607422 4.98925781 396.39746094 C0.02881915 378.6025246 -0.43171869 360.37127149 -0.34057617 342.03393555 C-0.33972767 339.60722362 -0.34020938 337.18051092 -0.34190369 334.75379944 C-0.34266839 328.90718833 -0.32981248 323.06072782 -0.31059071 317.21415093 C-0.28894327 310.39798096 -0.28463786 303.58183081 -0.2812262 296.7656313 C-0.27469565 284.61480024 -0.25482786 272.46403036 -0.22631836 260.31323242 C-0.19868904 248.52514955 -0.17749918 236.73708342 -0.16479492 224.94897461 C-0.16400675 224.21969089 -0.16321858 223.49040717 -0.16240653 222.73902395 C-0.1584908 219.07962584 -0.15469982 215.42022763 -0.15097082 211.76082933 C-0.11998095 181.5071758 -0.06701266 151.25359647 0 121 C5.28 121 10.56 121 16 121 C16.00238835 122.24515035 16.00477671 123.49030069 16.00723743 124.77318287 C16.06473366 154.40364935 16.13756019 184.03403558 16.22898628 213.66441496 C16.24025296 217.32014024 16.25139166 220.97586589 16.26245117 224.6315918 C16.26465486 225.35930852 16.26685854 226.08702524 16.269129 226.83679398 C16.3043956 238.58332557 16.32931955 250.32985711 16.35034702 262.07642183 C16.37219422 274.15073809 16.40532823 286.2249863 16.44870156 298.29924458 C16.47271405 305.07221402 16.4917037 311.84511624 16.49761391 318.61812782 C16.50370233 325.00637281 16.52383678 331.39442651 16.55427551 337.7826004 C16.56299586 340.11442672 16.56679094 342.4462781 16.56500816 344.77812004 C16.54256973 387.70873471 28.80002098 424.49579869 59.1875 455.5625 C65.90882788 462.27036166 72.98333489 467.92613238 81 473 C82.09570312 473.69480469 83.19140625 474.38960938 84.3203125 475.10546875 C116.53704844 494.42803543 154.40443667 500.51378959 191 492 C227.40487768 482.81177083 259.46473757 460.27891022 279 428 C281.98511466 422.80860307 284.55727939 417.46364952 287 412 C287.54269531 410.824375 288.08539063 409.64875 288.64453125 408.4375 C296.4933181 390.31574404 299.14513169 371.19352632 299.15821838 351.59239197 C299.16279072 350.13681818 299.16779172 348.68124568 299.17318195 347.22567469 C299.18669597 343.24405925 299.19416177 339.26245231 299.20060861 335.28082001 C299.20864233 330.98031447 299.2223298 326.67982641 299.23532104 322.3793335 C299.25704177 314.93444812 299.27520228 307.48956093 299.29092598 300.04466057 C299.31366481 289.28066204 299.34180202 278.51668291 299.37124526 267.75270087 C299.41887204 250.28769783 299.46214949 232.82268685 299.50268555 215.35766602 C299.54206551 198.3947691 299.58350888 181.43187927 299.62768555 164.46899414 C299.63180981 162.88389676 299.63180981 162.88389676 299.63601738 161.26677722 C299.65753728 153.0021069 299.67917662 144.7374369 299.70085371 136.472767 C299.80702516 95.98185898 299.90278039 55.49093241 300 15 C206.28 15 112.56 15 16 15 C16 45.03 16 75.06 16 106 C10.72 106 5.44 106 0 106 C0 71.02 0 36.04 0 0 Z " fill="#ffffff" transform="translate(98,0)"/>
<path d="M0 0 C84.48 0 168.96 0 256 0 C256 64.68 256 129.36 256 196 C240.82 196 225.64 196 210 196 C210 190.72 210 185.44 210 180 C219.9 180 229.8 180 240 180 C240 125.88 240 71.76 240 16 C166.08 16 92.16 16 16 16 C16 70.12 16 124.24 16 180 C75.4 180 134.8 180 196 180 C196 185.28 196 190.56 196 196 C131.32 196 66.64 196 0 196 C0 131.32 0 66.64 0 0 Z " fill="#ffffff" transform="translate(128,76)"/>
<path d="M0 0 C2.48907731 1.93131151 4.84844836 3.94112872 7.1875 6.05078125 C7.87199219 6.64246094 8.55648437 7.23414063 9.26171875 7.84375 C22.58740163 20.12222794 30.73584969 38.24846804 31.5234375 56.27734375 C31.88929105 78.07661765 27.10742062 96.50850033 12.1875 113.05078125 C11.29998047 114.07751953 11.29998047 114.07751953 10.39453125 115.125 C-1.75071411 128.30608718 -20.06815224 136.6019087 -37.94140625 137.38671875 C-59.78177844 137.75192234 -78.23475718 133.00268589 -94.8125 118.05078125 C-95.49699219 117.45910156 -96.18148437 116.86742187 -96.88671875 116.2578125 C-110.21240163 103.97933456 -118.36084969 85.85309446 -119.1484375 67.82421875 C-119.51399196 46.04276623 -114.7451213 27.56891254 -99.8125 11.05078125 C-98.87277344 9.98923828 -98.87277344 9.98923828 -97.9140625 8.90625 C-92.86722381 3.51952217 -87.18830592 -0.28020773 -80.8125 -3.94921875 C-80.03261719 -4.41328125 -79.25273437 -4.87734375 -78.44921875 -5.35546875 C-54.17104467 -18.73906724 -22.41300063 -15.53345461 0 0 Z M-89.8125 24.05078125 C-100.85127461 38.05216816 -103.99147952 53.70514134 -102.8125 71.05078125 C-101.67384292 78.19729338 -101.67384292 78.19729338 -97.8125 84.05078125 C-72.7325 58.97078125 -47.6525 33.89078125 -21.8125 8.05078125 C-42.45936958 -7.43437093 -74.69865737 7.45254336 -89.8125 24.05078125 Z M-9.33922005 17.33140564 C-10.24349896 18.23844994 -10.24349896 18.23844994 -11.16604614 19.16381836 C-11.8587561 19.85377899 -12.55146606 20.54373962 -13.26516724 21.25460815 C-14.02473724 22.02136871 -14.78430725 22.78812927 -15.56689453 23.578125 C-16.36697937 24.37791779 -17.16706421 25.17771057 -17.99139404 26.0017395 C-20.6474652 28.65920934 -23.29637311 31.32370399 -25.9453125 33.98828125 C-27.78047905 35.82717601 -29.61608627 37.6656311 -31.45211792 39.50366211 C-35.79774434 43.85615708 -40.13888653 48.21307873 -44.47791088 52.57215405 C-49.41709489 57.53366745 -54.36193699 62.48952513 -59.3072722 67.44490623 C-69.48200767 77.6405653 -79.64958663 87.8433387 -89.8125 98.05078125 C-88.40571502 100.99175815 -87.05076794 103.04026409 -84.6875 105.30078125 C-83.73875 106.20828125 -82.79 107.11578125 -81.8125 108.05078125 C-78.75474821 106.68493408 -76.65368809 105.1398976 -74.29437256 102.77316284 C-73.61574158 102.09728119 -72.9371106 101.42139954 -72.23791504 100.72503662 C-71.50423706 99.98416809 -70.77055908 99.24329956 -70.01464844 98.47998047 C-69.23377869 97.69940277 -68.45290894 96.91882507 -67.64837646 96.11459351 C-65.06810727 93.5329308 -62.49499478 90.94425567 -59.921875 88.35546875 C-58.13440835 86.56427206 -56.34649968 84.77351637 -54.5581665 82.98318481 C-50.33301369 78.75117553 -46.1123454 74.51474367 -41.89381623 70.27613556 C-37.09003114 65.4499841 -32.28055558 60.62952062 -27.47059584 55.8095243 C-17.57822333 45.89625517 -7.69301113 35.97587159 2.1875 26.05078125 C0.80187164 23.1680201 -0.5318933 21.05858189 -2.8125 18.80078125 C-3.328125 18.28 -3.84375 17.75921875 -4.375 17.22265625 C-6.44990711 15.53115588 -7.30310449 15.62349642 -9.33922005 17.33140564 Z M10.1875 40.05078125 C-14.8925 65.13078125 -39.9725 90.21078125 -65.8125 116.05078125 C-56.56652373 122.98526346 -42.78299669 122.14947127 -31.6953125 120.62109375 C-16.19672638 116.8959143 -2.79403687 107.86211593 6.125 94.67578125 C14.39682548 80.59952078 17.30711331 65.57576899 14.5859375 49.49609375 C13.29708098 44.2752333 13.29708098 44.2752333 10.1875 40.05078125 Z " fill="#ffffff" transform="translate(299.8125,313.94921875)"/>
<path d="M0 0 C6.7299463 5.28157196 10.42357269 12.14052397 11.85546875 20.52734375 C12.11947914 24.39973884 12.13234616 28.27185675 12.16796875 32.15234375 C12.19697266 33.18230469 12.22597656 34.21226562 12.25585938 35.2734375 C12.33957245 45.51219066 9.99466997 54.30674759 2.76953125 61.80859375 C-4.46378598 68.30381738 -11.86961007 70.91626614 -21.58203125 70.46484375 C-29.22653019 69.56422957 -36.68433122 65.98754378 -42.14453125 60.52734375 C-48.83563947 51.42978432 -49.50847626 43.29747213 -49.51953125 32.21484375 C-49.54402344 30.93416016 -49.56851563 29.65347656 -49.59375 28.33398438 C-49.62725323 17.48452102 -47.47969122 10.2949032 -40.078125 2.3203125 C-28.7972097 -8.1401726 -12.50496671 -8.58719936 0 0 Z M-30.39453125 16.08984375 C-33.99465224 21.10429798 -33.40150084 25.69164515 -33.45703125 31.71484375 C-33.48603516 32.74416016 -33.51503906 33.77347656 -33.54492188 34.83398438 C-33.59894388 41.32077997 -33.02788518 45.2662558 -29.14453125 50.52734375 C-25.41180521 53.55387838 -21.92033926 54.36266072 -17.14453125 54.52734375 C-11.27113066 52.80582978 -8.57376632 50.36861679 -5.14453125 45.52734375 C-3.67619422 41.12233266 -3.91959417 36.82955437 -3.89453125 32.21484375 C-3.87390625 31.27705078 -3.85328125 30.33925781 -3.83203125 29.37304688 C-3.8017101 23.99483216 -4.07461442 20.1504489 -7.14453125 15.52734375 C-11.85850304 11.27327164 -14.68443468 10.2229313 -20.89453125 10.3125 C-25.35729358 10.73863182 -27.52614398 12.82306935 -30.39453125 16.08984375 Z " fill="#ffffff" transform="translate(278.14453125,141.47265625)"/>
<path d="M0 0 C5.55261626 3.32921695 9.61523571 8.04144346 12.0625 14 C13.38233676 22.21231761 12.69879369 28.16957477 8.625 35.5 C6.52951706 38.14190001 4.18092081 40.30921074 1.625 42.5 C0.99335938 43.06203125 0.36171875 43.6240625 -0.2890625 44.203125 C-2.30356191 45.98487349 -4.33960538 47.74215919 -6.375 49.5 C-9.345 52.14 -12.315 54.78 -15.375 57.5 C-1.515 57.995 -1.515 57.995 12.625 58.5 C12.625 63.78 12.625 69.06 12.625 74.5 C-2.555 74.5 -17.735 74.5 -33.375 74.5 C-35.01757127 51.75670549 -35.01757127 51.75670549 -30.76171875 46.48046875 C-28.08605058 43.84683935 -25.12648458 41.66424015 -21.99902344 39.59619141 C-19.82049494 38.12571742 -17.92903129 36.40535101 -16 34.625 C-14.15816975 33.00997687 -12.31231369 31.45173277 -10.37109375 29.95703125 C-7.26537403 27.51637475 -5.61448234 26.16522872 -4.25 22.375 C-4.1979758 19.50457587 -4.1979758 19.50457587 -5.4375 17.125 C-7.34510261 15.2361143 -7.34510261 15.2361143 -10.375 15.0625 C-13.28558435 15.29499624 -13.28558435 15.29499624 -15.1875 16.5625 C-16.93728296 19.12986387 -16.93728296 19.12986387 -17.375 25.5 C-22.655 25.5 -27.935 25.5 -33.375 25.5 C-33.74250971 18.14980576 -33.89477872 12.53958735 -29.375 6.5 C-21.7349658 -1.62885155 -10.61395095 -4.69423271 0 0 Z " fill="#ffffff" transform="translate(337.375,137.5)"/>
<path d="M0 0 C1.10408203 0.01353516 2.20816406 0.02707031 3.34570312 0.04101562 C6.0431832 0.07604783 8.74040867 0.12984247 11.4375 0.1875 C11.4375 5.1375 11.4375 10.0875 11.4375 15.1875 C9.9421875 15.27386719 8.446875 15.36023438 6.90625 15.44921875 C4.91658504 15.58999693 2.92700568 15.73198846 0.9375 15.875 C-0.04476562 15.92849609 -1.02703125 15.98199219 -2.0390625 16.03710938 C-10.15286472 16.65916755 -15.88266672 19.02990698 -21.4375 25.0625 C-25.29797318 30.73966644 -26.11103384 35.92642872 -25.22265625 42.625 C-23.85040519 47.95160768 -21.07483413 52.44188589 -16.52734375 55.6015625 C-11.89790572 58.00713964 -7.44480243 59.24338488 -2.234375 59.50390625 C-1.03554687 59.56674805 -1.03554687 59.56674805 0.1875 59.63085938 C1.0125 59.67017578 1.8375 59.70949219 2.6875 59.75 C3.94820312 59.81477539 3.94820312 59.81477539 5.234375 59.88085938 C7.30190671 59.98658543 9.36968281 60.08751295 11.4375 60.1875 C11.4375 65.4675 11.4375 70.7475 11.4375 76.1875 C-4.66705235 76.61337945 -18.82763375 76.72960333 -31.56640625 65.40625 C-37.44148544 59.21394191 -42.00019986 50.8094355 -42.5625 42.1875 C-42.624375 41.55972656 -42.68625 40.93195313 -42.75 40.28515625 C-43.33394556 30.193847 -39.6707051 20.37536567 -33.609375 12.41015625 C-24.09769419 2.08163262 -13.54287402 -0.31836774 0 0 Z " fill="#ffffff" transform="translate(203.5625,135.8125)"/>
<path d="M0 0 C5.28 0 10.56 0 16 0 C16 9.9 16 19.8 16 30 C10.72 30 5.44 30 0 30 C0 20.1 0 10.2 0 0 Z " fill="#ffffff" transform="translate(278,31)"/>
<path d="M0 0 C5.28 0 10.56 0 16 0 C16 9.9 16 19.8 16 30 C10.72 30 5.44 30 0 30 C0 20.1 0 10.2 0 0 Z " fill="#ffffff" transform="translate(248,31)"/>
<path d="M0 0 C5.28 0 10.56 0 16 0 C16 9.9 16 19.8 16 30 C10.72 30 5.44 30 0 30 C0 20.1 0 10.2 0 0 Z " fill="#ffffff" transform="translate(218,31)"/>
<path d="M0 0 C5.28 0 10.56 0 16 0 C16 4.95 16 9.9 16 15 C10.72 15 5.44 15 0 15 C0 10.05 0 5.1 0 0 Z " fill="#ffffff" transform="translate(188,106)"/>
<path d="M0 0 C5.28 0 10.56 0 16 0 C16 4.95 16 9.9 16 15 C10.72 15 5.44 15 0 15 C0 10.05 0 5.1 0 0 Z " fill="#ffffff" transform="translate(158,106)"/>
</svg>