<svg class="svg-icon" style="width: 1em;height: 1em;vertical-align: middle;fill: #9B1FE8;overflow: hidden;" viewBox="0 0 1024 1024" version="1.1" xmlns="http://www.w3.org/2000/svg" height="100px" width="100px" transform="rotate(0) scale(1, 1)"><path d="M261.5 165.8l500 3.8V642L516.2 883.6 262 629.4l-0.5-463.6m-10.6-70.1c-32.8 0-59.4 26.5-59.4 59.3l0.5 503.4 282.1 282.1c11.1 11.1 26.2 17.3 42 17.4h0.3c15.7 0 30.6-6.3 41.7-17.4L832 670.8v-13.2h-0.5V158.9c0-32.7-26.5-59.3-59.3-59.3v0.1l-521.3-4z" fill="#ffffff"/><path d="M642 382.1H382c-16.5 0-30-13.5-30-30v-18c0-16.5 13.5-30 30-30h260c16.5 0 30 13.5 30 30v18c0 16.5-13.5 30-30 30zM642 560.1H382c-16.5 0-30-13.5-30-30v-18c0-16.5 13.5-30 30-30h260c16.5 0 30 13.5 30 30v18c0 16.5-13.5 30-30 30z" fill="#ffffff"/></svg>