<svg version="1.1" xmlns="http://www.w3.org/2000/svg" width="1600px" height="1600px" transform="rotate(0) scale(1, 1)">
<path d="M0 0 C0.6820752 0.06316406 1.36415039 0.12632813 2.06689453 0.19140625 C38.18887532 3.54776429 73.74310088 9.46553003 109 18 C109.65381653 18.15770874 110.30763306 18.31541748 110.98126221 18.47790527 C132.73385296 23.74729059 153.89019268 30.61393178 175 38 C175.96510498 38.3373819 175.96510498 38.3373819 176.94970703 38.68157959 C194.00461865 44.66092654 210.56150781 51.50234737 227 59 C228.14146484 59.5146582 229.28292969 60.02931641 230.45898438 60.55957031 C245.49154745 67.34114668 260.16649584 74.51302933 274.53173828 82.61523438 C276.88459832 83.93525635 279.2492321 85.23012386 281.62109375 86.515625 C297.56872764 95.18728145 313.0208784 104.74691142 328 115 C329.20294606 115.8127649 330.40608341 116.62524674 331.609375 117.4375 C350.7797691 130.43576295 369.29302207 144.32518849 386.90234375 159.37109375 C389.81526355 161.8552957 392.77628998 164.27627198 395.75 166.6875 C400.62669942 170.65474152 405.34200816 174.77905431 410 179 C412.77484057 177.72827803 414.85102505 176.40735701 417.03132629 174.276474 C417.60201843 173.72298279 418.17271057 173.16949158 418.76069641 172.59922791 C419.37438583 171.99405838 419.98807526 171.38888885 420.62036133 170.76538086 C421.27604095 170.12605621 421.93172058 169.48673157 422.60726929 168.82803345 C424.77170308 166.71316865 426.92785095 164.59014964 429.08203125 162.46484375 C430.18717355 161.37567248 430.18717355 161.37567248 431.31464195 160.26449776 C435.21033093 156.42220275 439.09867981 152.57263153 442.98217773 148.71801758 C446.19764844 145.52926372 449.42701712 142.35567663 452.66967773 139.19458008 C456.58688698 135.3758961 460.47907505 131.53334465 464.35443687 127.6722126 C465.83439852 126.20568832 467.3228667 124.74769697 468.81986427 123.29856682 C470.91296447 121.26865254 472.97234523 119.20948544 475.02661133 117.14038086 C475.96232719 116.253881 475.96232719 116.253881 476.91694641 115.34947205 C480.12711282 112.04511223 480.12711282 112.04511223 481.14940453 107.68092537 C480.90172298 105.40269686 480.48870666 103.23697446 480 101 C478.74812784 82.09878265 483.48404893 65.45762901 496 51 C496.58394531 50.32066406 497.16789062 49.64132813 497.76953125 48.94140625 C507.40951378 38.53022512 521.7222816 30.73897693 536.07275391 29.87524414 C555.66441898 29.22703506 572.39874643 32.7761789 587.375 46.125 C599.73549777 57.76323761 606.75782689 73.10644571 608 90 C608.18809951 109.81314786 601.28998348 125.71649797 588.046875 140.125 C575.24464921 152.63404505 558.46866677 157.29427156 541.07910156 157.2421875 C534.41293214 157.13823164 534.41293214 157.13823164 531.29777527 156.09541321 C527.60509338 155.98857433 527.25068596 156.22295117 524.6210022 158.53721619 C523.36036727 159.77753989 522.11897867 161.03760201 520.89306641 162.31225586 C520.20944031 162.99485977 519.52581421 163.67746368 518.82147217 164.38075256 C516.5645168 166.64258729 514.33336486 168.92820869 512.1015625 171.21484375 C510.54225122 172.78720968 508.98138787 174.35803782 507.41903687 175.92738342 C503.30992732 180.06322758 499.22226861 184.21966018 495.13867188 188.38067627 C490.9684409 192.62249702 486.77833793 196.84458505 482.58984375 201.06835938 C474.37361719 209.3596733 466.17990865 217.67286501 458 226 C458.94736311 227.27606056 459.89652528 228.5507856 460.84643555 229.82495117 C461.37480515 230.53495773 461.90317474 231.24496429 462.44755554 231.97648621 C464.4305463 234.56119005 466.58469284 236.93691127 468.8125 239.3125 C473.77410213 244.70297385 478.41630902 250.2872106 483 256 C483.91225289 257.12020516 484.82503803 258.23997705 485.73828125 259.359375 C503.67152742 281.43546617 520.12838687 304.7617355 535 329 C535.59240479 329.96317139 535.59240479 329.96317139 536.19677734 330.94580078 C538.84665345 335.26892043 541.43370555 339.62685705 544 344 C544.42684082 344.72219727 544.85368164 345.44439453 545.29345703 346.18847656 C588.27672528 419.13257237 617.03120506 500.15969921 638 645 C638.14356934 646.73757568 638.14356934 646.73757568 638.29003906 648.51025391 C639.39671232 664.01756248 639.24590574 679.58606153 639.25 695.125 C639.25044186 695.89311634 639.25088371 696.66123268 639.25133896 697.45262527 C639.25866161 721.75444227 638.78017313 745.83480756 636 770 C635.82648708 771.55906278 635.65315135 773.11814529 635.47998047 774.67724609 C626.25488815 856.5172546 602.50837682 935.23069174 536 1063 C535.443125 1063.89702637 534.88625 1064.79405273 534.3125 1065.71826172 C526.59736121 1078.10252328 518.57842319 1090.19828335 510 1102 C509.44844238 1102.7640918 508.89688477 1103.52818359 508.32861328 1104.31542969 C500.67579662 1114.9063235 492.75768696 1125.21293995 484.42382812 1135.27636719 C482.41159527 1137.71230065 480.4269225 1140.17042475 478.4375 1142.625 C466.22767756 1157.49394893 453.43496941 1171.75945852 439.7109375 1185.25390625 C437.86231645 1187.07703337 437.86231645 1187.07703337 435.9375 1189.625 C434.22921667 1191.71902472 432.60836427 1193.25974201 430.5625 1195 C426.67313887 1198.31504425 423.0876946 1201.86702182 419.5 1205.5 C415.4369378 1209.60473464 411.3504062 1213.59437256 406.9453125 1217.3359375 C404.64767068 1219.30139014 402.42126877 1221.33729871 400.1875 1223.375 C394.93834825 1228.10561852 389.50577537 1232.57267547 384 1237 C382.84364408 1237.93736935 381.6873992 1238.8748757 380.53125 1239.8125 C313.01451596 1294.39189578 235.59931719 1336.28858263 16.31433105 1391.73571777 C14.12188567 1391.98608141 11.93059459 1392.24502789 9.73925781 1392.50488281 C-36.84218195 1397.90804279 -86.45449376 1397.45159512 -133 1392 C-133.74443359 1391.91514343 -134.48886719 1391.83028687 -135.25585938 1391.74285889 C-183.49042524 1386.23643726 -230.89501907 1376.26537496 -277 1361 C-278.15371094 1360.62439941 -279.30742188 1360.24879883 -280.49609375 1359.86181641 C-336.05729973 1341.71233407 -389.02280026 1315.83358656 -438 1284 C-438.74942871 1283.51321777 -439.49885742 1283.02643555 -440.27099609 1282.52490234 C-471.72444137 1262.00884681 -500.55683225 1238.43468534 -529 1214 C-533.74992791 1217.97726119 -538.27735559 1222.10950802 -542.68554688 1226.4609375 C-543.31240387 1227.07640442 -543.93926086 1227.69187134 -544.58511353 1228.32598877 C-551.05347304 1234.68481588 -557.49147941 1241.07452099 -563.92675781 1247.46679688 C-566.98074146 1250.49838127 -570.04421493 1253.51987456 -573.11621094 1256.53320312 C-576.8355344 1260.18166384 -580.53758236 1263.84682794 -584.22779846 1267.52471924 C-585.63489492 1268.92139472 -587.04800771 1270.31203576 -588.46714783 1271.69647217 C-590.44464374 1273.62801849 -592.39916703 1275.58025466 -594.34960938 1277.5390625 C-595.23617722 1278.39023651 -595.23617722 1278.39023651 -596.14065552 1279.25860596 C-597.96251883 1281.03951628 -597.96251883 1281.03951628 -600 1284 C-600.00790388 1287.22007165 -600.00790388 1287.22007165 -599 1290 C-597.51419774 1309.26419476 -600.98540317 1326.49849507 -613.70678711 1341.72021484 C-625.49958205 1355.02719362 -641.25929536 1362.69405911 -659 1364 C-678.77186239 1364.18950667 -695.24990544 1357.66959394 -709.3046875 1343.890625 C-722.38858347 1329.85862062 -726.60077175 1313.48754161 -726.2421875 1294.87890625 C-725.57325197 1277.55612519 -717.25992805 1263.65300092 -705 1252 C-691.91264261 1240.19316348 -675.98988726 1235.38916814 -658.59765625 1235.76171875 C-655 1236 -655 1236 -652.93851566 1236.46070766 C-649.6509351 1237.1215599 -647.12479557 1237.59276863 -644.08154106 1235.9889698 C-642.12737268 1234.35818768 -640.39215721 1232.62995076 -638.64428711 1230.77954102 C-637.9699765 1230.10669067 -637.29566589 1229.43384033 -636.60092163 1228.74060059 C-634.38518881 1226.51791868 -632.20694719 1224.26198091 -630.02734375 1222.00390625 C-628.49540407 1220.45330904 -626.96123659 1218.90490992 -625.42494202 1217.35862732 C-621.39284827 1213.28840301 -617.39168491 1209.18904901 -613.39624023 1205.08288574 C-609.3117237 1200.89596225 -605.19865071 1196.73730342 -601.08789062 1192.57617188 C-593.03039748 1184.4115209 -585.00529892 1176.21581017 -577 1168 C-578.37705941 1165.15583423 -579.74551076 1162.96637871 -581.875 1160.625 C-590.77208518 1150.6573112 -599.33853329 1140.48215112 -607.51220703 1129.91308594 C-609.09911222 1127.87255606 -610.70255982 1125.84581561 -612.30859375 1123.8203125 C-620.9819848 1112.84255638 -629.10947045 1101.55143983 -637 1090 C-637.4532666 1089.33935547 -637.9065332 1088.67871094 -638.37353516 1087.99804688 C-649.94640713 1071.08555936 -660.5161668 1053.52015693 -670.52050781 1035.64160156 C-671.50239806 1033.88845759 -672.48869233 1032.13777254 -673.47949219 1030.38964844 C-682.20266995 1014.98464302 -689.7260175 999.13302819 -697 983 C-697.48887695 981.92814453 -697.97775391 980.85628906 -698.48144531 979.75195312 C-705.76752597 963.76926221 -712.18426142 947.57283068 -718 931 C-718.23438782 930.33548828 -718.46877563 929.67097656 -718.71026611 928.98632812 C-737.70114879 875.0951239 -749.91896975 819.63519939 -755.3125 762.75 C-755.43460342 761.46405441 -755.43460342 761.46405441 -755.55917358 760.15213013 C-757.50025033 739.37892672 -758.20714278 718.7381812 -758.1875 697.875 C-758.18659363 696.09020233 -758.18659363 696.09020233 -758.18566895 694.26934814 C-758.15932557 675.10004517 -757.75285407 656.09801192 -756 637 C-755.93683594 636.30505432 -755.87367188 635.61010864 -755.80859375 634.894104 C-748.38150364 553.88557616 -727.58610901 474.41289093 -683 381 C-682.46262207 379.92121582 -681.92524414 378.84243164 -681.37158203 377.73095703 C-661.1785969 337.45064413 -636.25834316 299.10389068 -608 264 C-607.48969238 263.36352539 -606.97938477 262.72705078 -606.45361328 262.07128906 C-595.56191313 248.50054196 -584.35036779 235.29714173 -572.46923828 222.58251953 C-571.04973823 221.05357315 -569.64547029 219.51220724 -568.24609375 217.96484375 C-562.08880682 211.17562474 -555.72069627 204.61632149 -549.25 198.125 C-548.45779053 197.32819824 -547.66558105 196.53139648 -546.84936523 195.71044922 C-542.65165852 191.52372092 -538.37405635 187.50212081 -533.88037109 183.63525391 C-530.9050583 181.04779025 -528.05552249 178.32998673 -525.1875 175.625 C-520.27059426 171.02869091 -515.26536152 166.62554078 -510.0078125 162.41796875 C-507.73128854 160.58788001 -505.48093211 158.73860783 -503.2421875 156.86328125 C-474.15458811 132.54158381 -442.7635237 111.05493638 -410 92 C-409.07687012 91.46294434 -408.15374023 90.92588867 -407.20263672 90.37255859 C-336.14682303 49.28798402 -258.49075257 21.73682819 -119 0 C-117.11837158 -0.17789063 -117.11837158 -0.17789063 -115.19873047 -0.359375 C-77.1857037 -3.78590136 -37.9915718 -3.59591009 0 0 Z M-393 156 C-394.3617334 156.83192871 -394.3617334 156.83192871 -395.75097656 157.68066406 C-407.15659053 164.68182961 -418.16688489 172.14599154 -429 180 C-429.763125 180.54914063 -430.52625 181.09828125 -431.3125 181.6640625 C-442.22682872 189.52668746 -452.78601411 197.71369053 -463.07470703 206.37890625 C-464.88700461 207.90485805 -466.70607809 209.42227303 -468.52734375 210.9375 C-474.86153325 216.22697038 -481.02297194 221.67423782 -487.0703125 227.2890625 C-488.92667424 229.0068159 -490.79512488 230.71167154 -492.6796875 232.3984375 C-499.6045601 238.6170908 -506.2226878 245.11647517 -512.8125 251.6875 C-513.70831787 252.57872559 -514.60413574 253.46995117 -515.52709961 254.38818359 C-520.00119828 258.87271529 -524.33832477 263.41265984 -528.46459961 268.21948242 C-530.70204195 270.81411861 -533.03978751 273.30547758 -535.375 275.8125 C-539.61186417 280.40424681 -543.65405883 285.10954114 -547.5703125 289.98046875 C-549.36164261 292.2066716 -551.16738303 294.41488116 -552.9921875 296.61328125 C-560.4975222 305.68769534 -567.53445667 315.01844334 -574.32763672 324.63623047 C-576.03319115 327.04691339 -577.75234932 329.44748479 -579.47265625 331.84765625 C-587.84207782 343.58828826 -595.60010965 355.62696213 -603 368 C-603.46470703 368.77633789 -603.92941406 369.55267578 -604.40820312 370.35253906 C-607.68515198 375.85734163 -610.86805332 381.41154305 -614 387 C-614.53206055 387.94907227 -615.06412109 388.89814453 -615.61230469 389.87597656 C-659.72296695 469.06136046 -685.68045322 557.66323231 -693 654 C-693.04236786 654.65240662 -693.08473572 655.30481323 -693.12838745 655.97698975 C-693.96854059 669.19522438 -694.20208429 682.382057 -694.1875 695.625 C-694.18689575 696.64846527 -694.1862915 697.67193054 -694.18566895 698.72640991 C-694.06108397 777.02426705 -679.63158062 854.88871418 -565 1081 C-564.53158691 1081.60440918 -564.06317383 1082.20881836 -563.58056641 1082.83154297 C-545.00990038 1106.78208232 -525.01661203 1129.05528224 -503.625 1150.5 C-503.01308807 1151.11459076 -502.40117615 1151.72918152 -501.77072144 1152.36239624 C-495.3570445 1158.79734644 -488.93738752 1165.12437118 -482 1171 C-480.39231627 1172.45445517 -478.78760285 1173.91220895 -477.1875 1175.375 C-416.13226912 1230.38975903 -341.66416076 1271.74399438 -264 1298 C-262.91605957 1298.37431152 -261.83211914 1298.74862305 -260.71533203 1299.13427734 C-218.14438656 1313.79442844 -173.67743368 1322.84550671 -129 1328 C-127.90090302 1328.12695251 -127.90090302 1328.12695251 -126.77960205 1328.25646973 C-81.74959881 1333.35685414 -35.01380812 1333.17146508 10 1328 C11.11622742 1327.87271515 11.11622742 1327.87271515 12.25500488 1327.74285889 C96.82148341 1317.98065511 178.83650304 1292.02234213 253 1250 C253.8446582 1249.52578613 254.68931641 1249.05157227 255.55957031 1248.56298828 C285.75000294 1231.53085216 314.58394158 1211.53046234 341.26757812 1189.42822266 C343.74310877 1187.3873751 346.24998215 1185.38572864 348.75 1183.375 C353.74794769 1179.28645332 358.4884002 1174.95347677 363.21875 1170.5625 C365.50787222 1168.4534211 367.82475164 1166.40021288 370.1875 1164.375 C373.91328833 1161.15061175 377.34460624 1157.67304834 380.80078125 1154.1640625 C382.70170976 1152.29352183 384.63894045 1150.57849302 386.6875 1148.875 C392.65035751 1143.75048483 397.81871958 1137.80086577 403.13134766 1132.02148438 C404.97435204 1130.02774563 406.83327725 1128.050395 408.69921875 1126.078125 C414.63532141 1119.79696495 420.40907508 1113.48210428 425.8046875 1106.72265625 C427.8000892 1104.24793208 429.85047623 1101.83074099 431.92651367 1099.42358398 C438.11108795 1092.23457471 443.84155494 1084.75703595 449.44970703 1077.11230469 C450.48121006 1075.70686151 451.51603356 1074.30384917 452.55419922 1072.90332031 C465.36810632 1055.61313092 477.19698717 1037.61357739 488 1019 C488.43844238 1018.25169922 488.87688477 1017.50339844 489.32861328 1016.73242188 C532.41941289 943.09867454 559.59300369 861.84191302 574 744 C574.0942627 742.88753906 574.18852539 741.77507813 574.28564453 740.62890625 C575.35677083 726.40342926 575.24724694 712.13290437 575.25 697.875 C575.25029457 697.17531223 575.25058914 696.47562447 575.25089264 695.75473404 C575.25245611 672.72261402 574.77593958 649.88737534 572 627 C571.85081116 625.76265106 571.85081116 625.76265106 571.6986084 624.50030518 C568.68144096 599.76011356 564.60400996 575.28632027 559 551 C558.71463379 549.75412109 558.42926758 548.50824219 558.13525391 547.22460938 C549.96458002 512.21928571 538.36544421 477.93552199 524 445 C523.53529297 443.93378418 523.07058594 442.86756836 522.59179688 441.76904297 C519.51932065 434.78523819 516.30631758 427.87591194 513 421 C512.46793945 419.89205078 511.93587891 418.78410156 511.38769531 417.64257812 C503.32981303 400.96885287 494.63037811 384.81631442 485 369 C484.37947754 367.9785791 483.75895508 366.9571582 483.11962891 365.90478516 C475.20212161 352.9258946 466.96607403 340.27653708 458 328 C456.8670832 326.43236704 455.7342746 324.86465588 454.6015625 323.296875 C447.06368087 312.91634425 439.21300299 302.85349701 431 293 C430.51934082 292.42024414 430.03868164 291.84048828 429.54345703 291.24316406 C423.78117329 284.30137247 417.84746279 277.55532426 411.703125 270.94921875 C409.67846403 268.76481484 407.72435206 266.52905912 405.7800293 264.27294922 C402.26974028 260.25615773 398.59360696 256.44839958 394.81640625 252.68359375 C394.15720688 252.02343765 393.49800751 251.36328156 392.8188324 250.68312073 C391.43603165 249.29964494 390.05198924 247.91740917 388.66674805 246.53637695 C386.56769657 244.44268331 384.4740406 242.34370126 382.38085938 240.24414062 C381.02636214 238.89030429 379.67155469 237.53677825 378.31640625 236.18359375 C377.70156876 235.56673203 377.08673126 234.9498703 376.45326233 234.3143158 C372.12958165 230.01344715 367.62183397 225.97678923 363 222 C361.83233348 220.97770341 360.6655105 219.95444147 359.5 218.9296875 C294.75571642 162.31629482 219.02535713 119.38347875 97 81 C96.01447144 80.74540009 96.01447144 80.74540009 95.0090332 80.48565674 C14.08330087 59.63967563 -71.90973205 56.30063323 -393 156 Z " fill="#ffffff" transform="translate(853,97)"/>
<path d="M0 0 C1.0901049 1.043943 2.17850543 2.0896673 3.265625 3.13671875 C3.92498047 3.76884277 4.58433594 4.4009668 5.26367188 5.05224609 C14.754445 14.19911928 23.47883276 23.50117569 31.265625 34.13671875 C32.08807254 35.22951989 32.91098882 36.32196841 33.734375 37.4140625 C66.17604261 81.01617718 83.85844736 135.24013312 88.265625 189.13671875 C88.35102539 190.17127197 88.43642578 191.2058252 88.52441406 192.27172852 C89.30289514 202.66752015 89.50841821 213.0275921 89.515625 223.44921875 C89.51663712 224.78289993 89.51663712 224.78289993 89.51766968 226.14352417 C89.47081944 265.47013627 83.74303637 304.01768279 74.265625 342.13671875 C73.82742432 343.89967285 73.82742432 343.89967285 73.38037109 345.69824219 C62.06482636 390.39808043 44.91947764 433.11191275 24.22265625 474.23370361 C23.29621128 476.07589925 22.37416289 477.92023297 21.453125 479.76513672 C15.15755678 492.32992452 8.53003383 504.6551614 1.390625 516.76171875 C0.73956787 517.87168213 0.08851074 518.98164551 -0.58227539 520.12524414 C-4.02056916 525.89647017 -7.61477509 531.46096137 -11.55078125 536.8984375 C-19.05161353 546.28946719 -19.05161353 546.28946719 -22.89599609 557.27001953 C-22.09547292 561.33201197 -19.67817659 564.29577867 -17.09570312 567.38427734 C-14.61133547 570.5824106 -12.93120709 574.22233625 -11.109375 577.82421875 C-10.25089154 579.45750017 -9.39147841 581.0902932 -8.53125 582.72265625 C20.67340322 638.93848015 51.52214511 711.10160646 32.31518555 775.01708984 C28.17964909 787.96204497 22.1708496 799.80175626 13.265625 810.13671875 C12.72421875 810.80960938 12.1828125 811.4825 11.625 812.17578125 C-5.17661404 832.51044497 -32.19482472 842.37924804 -57.734375 845.13671875 C-62.40570804 845.41271347 -67.05562328 845.47156998 -71.734375 845.44921875 C-73.62603394 845.44075928 -73.62603394 845.44075928 -75.5559082 845.43212891 C-86.82291782 845.28796371 -97.67160334 844.24065749 -108.734375 842.13671875 C-109.68683105 841.95931152 -110.63928711 841.7819043 -111.62060547 841.59912109 C-149.14286092 834.36229152 -184.64078406 819.39825844 -218.76318359 802.59667969 C-221.61865655 801.19357958 -224.48216785 799.80828473 -227.34765625 798.42578125 C-240.19409751 792.17671858 -252.52085785 785.20169552 -264.78808594 777.88769531 C-267.63951719 776.19309265 -270.50100768 774.51716835 -273.3671875 772.84765625 C-300.04849328 757.27726251 -325.61076567 740.0954469 -350.734375 722.13671875 C-351.85585938 721.33621094 -351.85585938 721.33621094 -353 720.51953125 C-362.72382099 713.56928336 -372.30315044 706.478748 -381.734375 699.13671875 C-383.40462099 697.85316779 -385.07727379 696.57279678 -386.75 695.29248047 C-397.6251983 686.96139252 -408.23964576 678.31166009 -418.86132812 669.66162109 C-420.48992459 668.33573299 -422.11984578 667.0114724 -423.75 665.6875 C-430.24090896 660.40177443 -436.64817085 655.02269227 -443.02099609 649.59570312 C-444.17948847 648.60921831 -445.3386877 647.6235631 -446.49853516 646.63867188 C-453.5355555 640.66133948 -460.47892201 634.61096981 -467.28515625 628.37109375 C-469.43362199 626.41108992 -471.60321307 624.48327384 -473.796875 622.57421875 C-482.33404417 615.14307959 -490.66522547 607.48426316 -498.95849609 599.78320312 C-500.14451757 598.68359784 -501.33235266 597.58594555 -502.52197266 596.49023438 C-512.33282863 587.45343631 -521.82962831 578.13030831 -531.19702148 568.63720703 C-536.37227876 563.34526426 -536.37227876 563.34526426 -541.9453125 558.48828125 C-544.20265004 556.58503587 -545.93209799 554.83133917 -547.828125 552.60546875 C-550.93955036 548.96065618 -554.24330453 545.54442116 -557.640625 542.16796875 C-558.17300781 541.63880859 -558.70539063 541.10964844 -559.25390625 540.56445312 C-560.91219896 538.91997953 -562.57283916 537.27791518 -564.234375 535.63671875 C-576.92451815 523.10191982 -576.92451815 523.10191982 -582.12841797 516.99658203 C-585.14979863 513.49751273 -588.36447533 510.1762436 -591.546875 506.82421875 C-602.6518233 495.0743927 -613.39653613 483.05519782 -623.90307617 470.76904297 C-627.1696839 466.95184929 -630.45577889 463.15247549 -633.75537109 459.36376953 C-639.54010129 452.7180247 -645.19415026 445.98861921 -650.734375 439.13671875 C-651.72844422 437.92388667 -652.72328811 436.71168927 -653.71875 435.5 C-660.45535465 427.28340695 -666.99789805 418.94323892 -673.421875 410.48046875 C-676.22157412 406.79630411 -679.06260288 403.14636262 -681.91625977 399.50390625 C-720.19810827 350.61216704 -753.89843561 298.10936307 -782.734375 243.13671875 C-783.46068115 241.75419922 -783.46068115 241.75419922 -784.20166016 240.34375 C-813.44706053 184.28750864 -843.76537914 111.61351069 -824.42651367 47.90600586 C-819.72370841 33.43473139 -812.95743826 21.51984593 -802.734375 10.13671875 C-802.11046875 9.4303125 -801.4865625 8.72390625 -800.84375 7.99609375 C-781.76289515 -12.36750765 -753.36795243 -21.0139057 -726.19140625 -22.1484375 C-664.9291201 -23.6367184 -599.5130914 2.65114081 -547.9609375 34.77148438 C-543.85310746 37.33143047 -543.85310746 37.33143047 -539.2109375 38.2890625 C-535.31264839 36.47518981 -531.87979772 34.09155858 -528.359375 31.63671875 C-520.31316332 26.15527252 -512.15336898 21.02188784 -503.734375 16.13671875 C-502.98414063 15.69924316 -502.23390625 15.26176758 -501.4609375 14.81103516 C-495.25005463 11.19681387 -489.00393558 7.64809345 -482.734375 4.13671875 C-481.26677734 3.31445801 -481.26677734 3.31445801 -479.76953125 2.47558594 C-451.73117835 -13.1403693 -422.67277212 -26.33914635 -392.734375 -37.86328125 C-391.55987793 -38.31541992 -390.38538086 -38.76755859 -389.17529297 -39.23339844 C-341.8965638 -57.20668712 -292.09178539 -68.45680193 -241.734375 -72.86328125 C-240.91678711 -72.93530762 -240.09919922 -73.00733398 -239.25683594 -73.08154297 C-154.78428302 -80.09302523 -62.93142287 -59.45649138 0 0 Z M-479.734375 75.13671875 C-475.17550386 78.91724604 -470.34408306 82.26088042 -465.484375 85.63671875 C-463.67824018 86.89692729 -461.87225291 88.15734732 -460.06640625 89.41796875 C-459.16615723 90.04574219 -458.2659082 90.67351562 -457.33837891 91.3203125 C-440.88811521 102.7950886 -424.61308712 114.49575664 -408.76171875 126.7890625 C-406.19278535 128.78122891 -403.61119116 130.75549531 -401.02514648 132.7253418 C-394.8359391 137.44994917 -388.77587591 142.31957816 -382.74902344 147.24926758 C-378.4352606 150.77293179 -374.07351962 154.2238358 -369.671875 157.63671875 C-362.76199156 163.01619897 -356.17791947 168.74136328 -349.59570312 174.51367188 C-346.58050329 177.14287551 -343.53019033 179.73062786 -340.484375 182.32421875 C-335.29029801 186.75825766 -330.20941454 191.29416066 -325.17578125 195.91015625 C-323.07282667 197.82805082 -320.94768344 199.7104792 -318.796875 201.57421875 C-314.89489915 204.96550655 -311.08930745 208.45896281 -307.28613281 211.95996094 C-304.22822712 214.77338697 -301.1494393 217.55992381 -298.046875 220.32421875 C-285.38549185 231.72147014 -273.18463725 243.56206278 -261.22167969 255.6862793 C-256.07234524 260.95013653 -256.07234524 260.95013653 -250.52734375 265.78125 C-248.25996698 267.69345726 -246.51616567 269.46344458 -244.609375 271.69921875 C-241.57436577 275.25451527 -238.36127264 278.59355024 -235.046875 281.88671875 C-234.53664795 282.39372314 -234.0264209 282.90072754 -233.50073242 283.4230957 C-231.91381391 284.9962042 -230.32454542 286.56689786 -228.734375 288.13671875 C-216.26225273 300.44923434 -216.26225273 300.44923434 -211.18554688 306.46679688 C-209.61188867 308.2776687 -207.94718868 309.95760222 -206.234375 311.63671875 C-203.28554717 314.54008007 -200.5730539 317.5792676 -197.875 320.71484375 C-195.6496286 323.23259971 -193.36427501 325.68355627 -191.06445312 328.13305664 C-185.80430501 333.73589768 -180.78244035 339.42283493 -175.9765625 345.42578125 C-173.49529767 348.4257774 -170.88550963 351.28803786 -168.234375 354.13671875 C-164.00030682 358.69255568 -160.00505082 363.3894397 -156.10546875 368.234375 C-153.41606446 371.52634763 -150.64270414 374.73679857 -147.859375 377.94921875 C-142.89500546 383.69921411 -138.15873 389.59482603 -133.5 395.59375 C-131.18687695 398.57046048 -128.82906436 401.50802373 -126.45776367 404.43847656 C-119.29265292 413.3049301 -112.46784771 422.41244677 -105.66210938 431.55615234 C-103.76388336 434.09721731 -101.85312233 436.6282809 -99.9375 439.15625 C-89.82634839 452.51386148 -80.03155595 466.06811401 -70.81640625 480.0625 C-70.17517822 481.03517822 -69.5339502 482.00785645 -68.87329102 483.01000977 C-67.63369609 484.89784059 -66.40086756 486.79013539 -65.17553711 488.68725586 C-64.62260986 489.53167236 -64.06968262 490.37608887 -63.5 491.24609375 C-63.01305664 491.99858398 -62.52611328 492.75107422 -62.02441406 493.52636719 C-61.59870117 494.0577832 -61.17298828 494.58919922 -60.734375 495.13671875 C-60.074375 495.13671875 -59.414375 495.13671875 -58.734375 495.13671875 C-51.68354779 482.85710616 -44.65919948 470.56480321 -37.84423828 458.15234375 C-36.83517259 456.31977746 -35.81469446 454.49350684 -34.79296875 452.66796875 C0.8977145 387.69453286 25.7670808 310.5988634 27.265625 236.13671875 C27.28608887 235.36666504 27.30655273 234.59661133 27.32763672 233.80322266 C28.43675632 187.63268197 20.37089963 141.02603216 -1.734375 100.13671875 C-2.05374023 99.53811035 -2.37310547 98.93950195 -2.70214844 98.32275391 C-28.28991106 50.66716961 -73.40633432 15.99662626 -124.828125 0.21875 C-150.4783401 -7.33337215 -176.06110415 -10.9964566 -202.734375 -11.86328125 C-204.59835937 -11.92708984 -204.59835937 -11.92708984 -206.5 -11.9921875 C-302.83345963 -13.55604236 -399.11851151 24.69097721 -479.734375 75.13671875 Z M-757.109375 54.32421875 C-767.65822937 67.71199993 -765.91926049 88.35746403 -764.45019531 104.20166016 C-757.86497761 154.79131519 -732.99783143 203.55426312 -707.734375 247.13671875 C-707.20585938 248.05453125 -706.67734375 248.97234375 -706.1328125 249.91796875 C-697.82477307 264.32402727 -688.92768861 278.28204044 -679.734375 292.13671875 C-678.52061788 293.97642037 -677.30707301 295.81626205 -676.09375 297.65625 C-664.49148657 315.20497124 -652.27909017 332.25188885 -639.734375 349.13671875 C-639.10668213 349.98459961 -639.10668213 349.98459961 -638.46630859 350.84960938 C-627.74685383 365.32807537 -616.58121662 379.46120653 -605.16259766 393.39257812 C-603.87432852 394.96580799 -602.59114775 396.54320123 -601.30859375 398.12109375 C-595.54399696 405.20653066 -589.65751745 412.18389422 -583.734375 419.13671875 C-583.23470215 419.72420898 -582.7350293 420.31169922 -582.22021484 420.91699219 C-576.48089465 427.66119494 -570.69677216 434.35052152 -564.74609375 440.91015625 C-562.88702831 442.96776266 -561.05509142 445.04518638 -559.234375 447.13671875 C-551.7601713 455.70554267 -544.06647984 464.07347668 -536.33349609 472.40820312 C-534.75960697 474.10944511 -533.19373036 475.81776482 -531.62890625 477.52734375 C-521.76261227 488.25645247 -511.44460517 498.52401163 -501.09936523 508.78759766 C-497.03478668 512.82490279 -492.99075662 516.88247138 -488.95158386 520.94515991 C-486.43843284 523.47182379 -483.92251075 525.99572125 -481.40649414 528.51953125 C-480.08788008 529.84317385 -478.77016497 531.16771262 -477.45336914 532.49316406 C-468.15701568 541.92894756 -468.15701568 541.92894756 -458.30981445 550.77783203 C-456.52655324 552.31597428 -454.88280603 553.95565517 -453.234375 555.63671875 C-450.31306712 558.60387676 -447.25445827 561.33730846 -444.1015625 564.0546875 C-441.09714951 566.69718275 -438.16703428 569.41512048 -435.234375 572.13671875 C-430.46812659 576.55186231 -425.66530006 580.90521569 -420.734375 585.13671875 C-420.24388672 585.55888672 -419.75339844 585.98105469 -419.24804688 586.41601562 C-407.18962087 596.79451924 -395.07916455 607.09951731 -382.734375 617.13671875 C-381.51924498 618.1337658 -380.3044201 619.13118481 -379.08984375 620.12890625 C-370.87625698 626.86046515 -362.54120811 633.40068482 -354.08203125 639.8203125 C-350.37754561 642.63525341 -346.71120237 645.49607474 -343.05151367 648.36889648 C-333.46111797 655.88855596 -323.68477192 663.10148492 -313.734375 670.13671875 C-312.87247559 670.74741211 -312.01057617 671.35810547 -311.12255859 671.98730469 C-272.68434521 699.15831246 -232.80742244 723.98728622 -190.734375 745.13671875 C-189.28780518 745.87100098 -189.28780518 745.87100098 -187.81201172 746.62011719 C-147.40521665 767.03840701 -94.45537563 789.62809324 -48.734375 778.13671875 C-40.36015222 775.10402704 -34.59055668 770.10172849 -30.734375 762.13671875 C-15.70669754 719.47550216 -39.61324273 666.61228399 -57.734375 628.13671875 C-60.23804202 623.04199511 -62.88317359 618.04664262 -65.734375 613.13671875 C-69.36701166 616.67788615 -72.72860433 620.3694332 -75.984375 624.26171875 C-76.70270508 625.11431274 -76.70270508 625.11431274 -77.43554688 625.98413086 C-80.40956613 629.523431 -83.33113917 633.10150385 -86.234375 636.69921875 C-90.29263268 641.68840293 -94.57953066 646.4134249 -98.9609375 651.1171875 C-101.04831575 653.36697655 -103.0738107 655.66317317 -105.0859375 657.98046875 C-108.78894247 662.22951346 -112.61549281 666.35125801 -116.484375 670.44921875 C-117.53044922 671.55789307 -117.53044922 671.55789307 -118.59765625 672.68896484 C-133.59681452 688.53407012 -133.59681452 688.53407012 -141.6328125 695.296875 C-143.29212838 696.74954745 -144.88918099 698.27332579 -146.4609375 699.8203125 C-146.94046875 700.2855835 -147.42 700.75085449 -147.9140625 701.23022461 C-149.29451656 702.57360228 -150.65939688 703.93292825 -152.0234375 705.29296875 C-154.734375 707.13671875 -154.734375 707.13671875 -157.51171875 707.18359375 C-161.78818064 705.79439158 -165.67667314 703.9382982 -169.671875 701.88671875 C-170.53288818 701.45069336 -171.39390137 701.01466797 -172.28100586 700.56542969 C-181.10958426 696.04087219 -189.72852549 691.15048649 -198.33203125 686.21484375 C-203.7548111 683.10587618 -209.23564373 680.10886235 -214.734375 677.13671875 C-213.6061196 676.00846335 -212.47750186 674.88056919 -211.34765625 673.75390625 C-210.1940874 672.59754426 -209.04628191 671.43542131 -207.90234375 670.26953125 C-203.96373645 666.27654475 -199.92026421 662.50704456 -195.66796875 658.8515625 C-193.1991763 656.66206779 -190.90824503 654.3240702 -188.59912109 651.96875 C-186.84853813 650.24887902 -185.04606612 648.65790589 -183.17578125 647.0703125 C-177.93966254 642.51596126 -173.06648648 637.61479216 -168.171875 632.69921875 C-167.26501953 631.79623047 -166.35816406 630.89324219 -165.42382812 629.96289062 C-160.83886741 625.37128022 -156.40154772 620.72111177 -152.17602539 615.79663086 C-150.45180599 613.8113696 -148.62559894 611.96272807 -146.734375 610.13671875 C-142.85398389 606.30067496 -139.28713963 602.2749577 -135.734375 598.13671875 C-134.7898968 597.05526039 -133.84450521 595.97459937 -132.8984375 594.89453125 C-121.35460803 581.69189009 -110.10244205 568.28777048 -99.734375 554.13671875 C-104.56063909 544.6927791 -110.32257337 535.98080519 -116.234375 527.19921875 C-117.22472034 525.72191683 -118.21495372 524.24453985 -119.20507812 522.76708984 C-130.96650228 505.24508629 -143.12378704 488.0578618 -155.734375 471.13671875 C-156.52739014 470.0691333 -156.52739014 470.0691333 -157.33642578 468.97998047 C-164.32070185 459.57933312 -171.44655845 450.3039318 -178.734375 441.13671875 C-179.72824219 439.88375 -179.72824219 439.88375 -180.7421875 438.60546875 C-182.7310967 436.10893 -184.73048837 433.62125544 -186.734375 431.13671875 C-187.20601074 430.55164551 -187.67764648 429.96657227 -188.16357422 429.36376953 C-195.5693713 420.18556604 -203.06735076 411.09778972 -210.734375 402.13671875 C-211.21229492 401.57774902 -211.69021484 401.0187793 -212.18261719 400.44287109 C-214.68718504 397.51482159 -217.1953174 394.58989017 -219.70703125 391.66796875 C-221.70413455 389.34304027 -223.6904342 387.00955994 -225.66796875 384.66796875 C-231.51870108 377.75780052 -237.52600434 371.03705835 -243.75146484 364.46118164 C-247.25092987 360.76031967 -250.63475019 356.98059505 -253.97680664 353.13720703 C-256.85054987 349.86627329 -259.81438325 346.68340856 -262.796875 343.51171875 C-263.46372314 342.80241211 -264.13057129 342.09310547 -264.81762695 341.36230469 C-273.48755323 332.20510561 -282.44925376 323.33418142 -291.40112305 314.45410156 C-295.45527098 310.4275271 -299.48854295 306.38035513 -303.51716614 302.32827759 C-306.03031716 299.80161371 -308.54623925 297.27771625 -311.06225586 294.75390625 C-312.38086992 293.43026365 -313.69858503 292.10572488 -315.01538086 290.78027344 C-324.22201813 281.45989455 -324.22201813 281.45989455 -333.93823242 272.68115234 C-338.23371237 268.98763513 -342.27436485 265.00033496 -346.37890625 261.09765625 C-350.49427796 257.20046695 -354.67041451 253.39967608 -358.95263672 249.68652344 C-361.18302542 247.74647034 -363.36515513 245.75621572 -365.546875 243.76171875 C-369.91723184 239.8130043 -374.43740579 236.09044665 -379.015625 232.38671875 C-381.65585229 230.20170306 -384.2016722 227.94500484 -386.734375 225.63671875 C-391.90630961 220.93050337 -397.29716261 216.53096797 -402.734375 212.13671875 C-404.4850624 210.70005599 -406.23505615 209.26254758 -407.984375 207.82421875 C-418.45558908 199.26228587 -429.02242034 190.82950276 -439.78027344 182.62988281 C-442.06358239 180.88516547 -444.34019081 179.13185307 -446.6171875 177.37890625 C-456.78709012 169.56687477 -467.04859514 161.94678964 -477.58447266 154.63623047 C-479.80402372 153.08814023 -482.01043652 151.52269327 -484.21484375 149.953125 C-497.80733651 140.30565686 -511.73191088 131.1895776 -525.70849609 122.11279297 C-527.81666637 120.73603565 -529.90241604 119.32459 -531.96972656 117.88720703 C-534.53582449 115.93108006 -534.53582449 115.93108006 -537.1953125 116.07421875 C-540.70284425 117.54198588 -543.45408842 119.73832221 -546.359375 122.13671875 C-547.28351196 122.88211914 -547.28351196 122.88211914 -548.22631836 123.64257812 C-550.06923788 125.1323648 -551.90211888 126.63385126 -553.734375 128.13671875 C-554.69214844 128.91015625 -555.64992188 129.68359375 -556.63671875 130.48046875 C-563.17323839 135.77879304 -569.59803513 141.20907933 -576.00341797 146.66455078 C-577.80786318 148.19921998 -579.61675019 149.72855296 -581.42578125 151.2578125 C-589.48493372 158.08546066 -589.48493372 158.08546066 -597.04823303 165.45152283 C-598.77569998 167.17802054 -600.57479641 168.75962267 -602.43139648 170.34594727 C-606.69817488 174.05683291 -610.71567704 177.9733348 -614.70703125 181.9765625 C-615.43377548 182.70235001 -616.16051971 183.42813751 -616.9092865 184.17591858 C-618.43399796 185.69995431 -619.9574665 187.22523444 -621.47973633 188.75170898 C-623.79071391 191.06804338 -626.10698271 193.37898953 -628.42382812 195.68945312 C-629.9143832 197.18066909 -631.404628 198.67219528 -632.89453125 200.1640625 C-633.91825584 201.18475075 -633.91825584 201.18475075 -634.96266174 202.22605896 C-638.8594564 206.14162526 -642.58291236 210.1579336 -646.18730164 214.34466553 C-648.56378002 217.09746047 -651.0222604 219.77315972 -653.484375 222.44921875 C-653.95230469 222.96033203 -654.42023438 223.47144531 -654.90234375 223.99804688 C-657.13267804 226.42740533 -659.37473555 228.83213755 -661.734375 231.13671875 C-661.97542969 230.47285156 -662.21648437 229.80898438 -662.46484375 229.125 C-664.06426733 225.36020295 -666.0331998 221.88053633 -668.046875 218.32421875 C-668.94373126 216.72322885 -669.83950605 215.12163279 -670.734375 213.51953125 C-671.21519531 212.65875977 -671.69601562 211.79798828 -672.19140625 210.91113281 C-675.00331079 205.8550437 -677.77939168 200.779728 -680.546875 195.69921875 C-681.35475464 194.22714966 -681.35475464 194.22714966 -682.17895508 192.7253418 C-683.7273305 189.87701268 -685.2410815 187.01428101 -686.734375 184.13671875 C-687.25177246 183.14913574 -687.76916992 182.16155273 -688.30224609 181.14404297 C-689.01695068 179.69989014 -689.01695068 179.69989014 -689.74609375 178.2265625 C-690.39324341 176.93866821 -690.39324341 176.93866821 -691.0534668 175.62475586 C-691.94109286 172.38137213 -691.32161646 171.0528274 -689.734375 168.13671875 C-688.42504883 166.41088867 -688.42504883 166.41088867 -686.94140625 164.8671875 C-686.11866211 163.99803711 -686.11866211 163.99803711 -685.27929688 163.11132812 C-684.70759766 162.52158203 -684.13589844 161.93183594 -683.546875 161.32421875 C-682.42714477 160.15222573 -681.30866244 158.97903925 -680.19140625 157.8046875 C-679.33421997 156.90617065 -679.33421997 156.90617065 -678.4597168 155.98950195 C-676.7340629 154.1363836 -675.07896052 152.23761973 -673.4296875 150.31640625 C-669.11185591 145.34408482 -664.46205783 140.71840301 -659.796875 136.07421875 C-658.94158203 135.21505859 -658.08628906 134.35589844 -657.20507812 133.47070312 C-652.21060308 128.48384742 -647.11127691 123.70733467 -641.734375 119.13671875 C-640.60524391 118.16302109 -639.47632944 117.18907216 -638.34765625 116.21484375 C-635.41298003 113.69746375 -632.47399085 111.18512517 -629.53369141 108.67431641 C-628.3735524 107.68292489 -627.21430405 106.69048971 -626.05615234 105.69677734 C-619.30208711 99.90206173 -612.46021607 94.26251503 -605.40234375 88.83959961 C-602.29687539 86.43839415 -599.47958908 83.9373917 -596.734375 81.13671875 C-629.67027015 64.77862929 -663.41658548 50.82898558 -699.734375 44.13671875 C-701.02214844 43.89179688 -702.30992187 43.646875 -703.63671875 43.39453125 C-721.97969672 40.32686254 -743.26931288 39.89595399 -757.109375 54.32421875 Z " fill="#ffffff" transform="translate(1189.734375,381.86328125)"/>
<path d="M0 0 C0.66 0 1.32 0 2 0 C3.33764648 1.84155273 3.33764648 1.84155273 4.87109375 4.43359375 C5.44005371 5.38451904 6.00901367 6.33544434 6.59521484 7.31518555 C7.20316895 8.34554932 7.81112305 9.37591309 8.4375 10.4375 C9.70778465 12.55840126 10.97993738 14.67818471 12.25390625 16.796875 C12.88699707 17.85068359 13.52008789 18.90449219 14.17236328 19.99023438 C18.28576301 26.76421138 22.63616502 33.38562271 27 40 C27.38414062 40.58378418 27.76828125 41.16756836 28.1640625 41.76904297 C29.23162195 43.38951237 30.30321398 45.00732297 31.375 46.625 C31.99890625 47.56859375 32.6228125 48.5121875 33.265625 49.484375 C34.79849475 51.70772663 36.42852195 53.77720456 38.125 55.875 C40 59 40 59 39.44921875 61.54296875 C37.87630548 65.29506645 36.0893756 68.87256731 34.21826172 72.48339844 C21.6551181 96.72806156 11.66766097 122.12598884 3 148 C2.46898682 149.58095459 2.46898682 149.58095459 1.92724609 151.19384766 C-6.03132568 175.19654161 -11.96507381 199.83218275 -15.875 224.8125 C-16.06602295 226.0308252 -16.2570459 227.24915039 -16.45385742 228.50439453 C-19.17193143 246.88375212 -20.38313056 265.11340351 -20.3125 283.6875 C-20.30976578 285.19162445 -20.30976578 285.19162445 -20.30697632 286.72613525 C-20.25937947 302.3289079 -19.71936159 317.59905081 -17 333 C-16.73461426 334.5159375 -16.73461426 334.5159375 -16.46386719 336.0625 C-9.88959758 372.39697798 3.15740215 407.65981393 26 437 C26.44134277 437.56831543 26.88268555 438.13663086 27.33740234 438.72216797 C61.46896921 482.0375762 111.2838949 506.91223194 165 516 C165.8259668 516.15098145 166.65193359 516.30196289 167.50292969 516.45751953 C200.11035796 522.24150078 236.35136913 521.00337411 269 516 C270.09618652 515.83902832 271.19237305 515.67805664 272.32177734 515.51220703 C325.80952733 507.46236639 379.64031342 489.63667692 427.55859375 464.65234375 C428.20908691 464.31428711 428.85958008 463.97623047 429.52978516 463.62792969 C431.15017887 462.77312873 432.75754381 461.89374354 434.36328125 461.01171875 C437.54025574 459.79270187 438.76108407 460.08170275 442 461 C444.37744141 462.30004883 444.37744141 462.30004883 446.8515625 463.95703125 C447.77573975 464.56909424 448.69991699 465.18115723 449.65209961 465.81176758 C450.63315674 466.47200928 451.61421387 467.13225098 452.625 467.8125 C454.70107588 469.18862767 456.77790991 470.5636122 458.85546875 471.9375 C459.89106934 472.62457031 460.92666992 473.31164063 461.99365234 474.01953125 C466.27382851 476.83915031 470.5981069 479.58517855 474.9375 482.3125 C475.69861084 482.79146729 476.45972168 483.27043457 477.24389648 483.76391602 C479.49454898 485.17816268 481.74691896 486.58962599 484 488 C484.78181641 488.48968262 485.56363281 488.97936523 486.36914062 489.48388672 C490.9099763 492.32706479 495.45367816 495.16560349 500 498 C497.34975495 501.06888995 494.21052461 502.66281606 490.65625 504.5546875 C490.02386414 504.89245712 489.39147827 505.23022675 488.7399292 505.57823181 C486.66345486 506.68390849 484.58224816 507.78023938 482.5 508.875 C481.78404663 509.25304779 481.06809326 509.63109558 480.33044434 510.02059937 C413.43478699 545.31299793 341.80490004 571.19597309 266.4375 580.3125 C265.43089828 580.43460342 265.43089828 580.43460342 264.40396118 580.55917358 C248.1068229 582.50668726 231.95776652 583.23929671 215.5625 583.25 C214.155448 583.25101212 214.155448 583.25101212 212.7199707 583.25204468 C142.74350618 583.17276173 74.548961 564.48317625 19 521 C18.45553223 520.57557617 17.91106445 520.15115234 17.35009766 519.71386719 C2.52026892 508.02012893 -11.71866445 494.15998726 -23 479 C-23.86034837 477.87995576 -24.72104995 476.76018278 -25.58203125 475.640625 C-60.66972824 429.46216736 -77.56698653 374.19389132 -83 317 C-83.07202637 316.28328125 -83.14405273 315.5665625 -83.21826172 314.828125 C-92.52443089 219.24858378 -61.30147739 120.90136379 -11.0625 19.4375 C-10.53092285 18.40882813 -9.9993457 17.38015625 -9.45166016 16.3203125 C-6.52575119 10.72243789 -3.56765417 5.21808202 0 0 Z " fill="#ffffff" transform="translate(392,696)"/>
<path d="M0 0 C21.21445869 15.53047144 41.67298003 32.16172041 60.890625 50.109375 C62.8002066 51.89243217 64.7243822 53.64813144 66.671875 55.390625 C73.95650993 61.91732104 80.89051359 68.78198608 87.8125 75.6875 C88.31263611 76.18504791 88.81277222 76.68259583 89.32806396 77.19522095 C94.5469154 82.39277051 99.67517826 87.62628661 104.46850586 93.22338867 C106.85736259 95.99458434 109.37242096 98.64442987 111.875 101.3125 C116.36064455 106.13448049 120.62100492 111.07835022 124.7421875 116.21875 C126.727259 118.66402839 128.76560514 121.05125892 130.83007812 123.42944336 C137.82310239 131.52047305 144.11663207 140.09270576 150.37792969 148.75634766 C151.82107103 150.75250493 153.27230639 152.74240615 154.7265625 154.73046875 C179.91034062 189.33420837 209.89254603 234.36016265 206 279 C204.5225656 286.67912011 201.0339205 292.96983187 195 298 C182.53684045 305.70065791 167.7147316 305.79445355 153.6875 302.5 C111.851296 291.77264197 74.78951229 267.10925238 41 241 C40.4028418 240.54173828 39.80568359 240.08347656 39.19042969 239.61132812 C27.42676123 230.57221503 16.18965201 220.96348454 5.20703125 210.9921875 C3.26373999 209.23806619 1.29640552 207.52027306 -0.6875 205.8125 C-11.3422663 196.48694217 -21.47818132 186.62147615 -31.5 176.625 C-32.43150879 175.6980835 -33.36301758 174.77116699 -34.32275391 173.81616211 C-38.85856184 169.27013287 -43.26306954 164.67522515 -47.44433594 159.80078125 C-49.8435734 157.02350951 -52.36478815 154.3640461 -54.875 151.6875 C-59.28226211 146.94500684 -63.49064391 142.09950345 -67.54296875 137.046875 C-69.39945546 134.74471342 -71.27495624 132.46817659 -73.17578125 130.203125 C-106.26533374 90.68937065 -151.08494911 34.00842243 -149.3203125 -20.6953125 C-148.47374773 -29.42938322 -145.59338968 -37.47838203 -139.25 -43.72265625 C-102.00929576 -74.28105671 -29.73913144 -21.31961784 0 0 Z M-21 76.9375 C-23.7275811 81.11410856 -23.82815837 84.23808935 -23 89 C-18.81221287 105.79302638 -8.38492822 119.36840002 3 132 C3.89509504 133.01643087 4.78963038 134.03335491 5.68359375 135.05078125 C20.85583102 152.14544291 43.99822575 175.72720525 67.8515625 178.30859375 C71.91806263 178.48563135 75.00119302 178.48778946 78.6875 176.6875 C81.35342817 171.2286947 80.69407855 165.72050887 79.22265625 159.953125 C74.01873411 145.06361111 64.44211732 132.58554946 54 121 C53.10490496 119.98356913 52.21036962 118.96664509 51.31640625 117.94921875 C35.03260231 99.59843041 12.87922848 78.76042683 -12.2578125 74.62890625 C-15.95253429 74.49750401 -17.88864846 74.92808546 -21 76.9375 Z " fill="#ffffff" transform="translate(765,667)"/>
</svg>