<svg version="1.1" xmlns="http://www.w3.org/2000/svg" width="512px" height="512px" transform="rotate(0) scale(1, 1)">
<path d="M0 0 C4.95409033 3.00021419 9.82038832 7.54413145 11.25390625 13.25390625 C11.35574219 13.99511719 11.45757812 14.73632812 11.5625 15.5 C12.42488281 15.58636719 13.28726562 15.67273438 14.17578125 15.76171875 C36.76444648 18.36168127 57.58844952 25.82885814 77.5625 36.5 C78.58859375 37.04269531 79.6146875 37.58539063 80.671875 38.14453125 C109.07568566 53.92016123 131.24114108 78.12217869 146.5625 106.5 C147.07296875 107.39203125 147.5834375 108.2840625 148.109375 109.203125 C158.80676652 128.87252231 165.11366481 153.10892965 164.5625 175.5 C165.243125 175.70625 165.92375 175.9125 166.625 176.125 C172.58254901 178.91363996 177.10371882 183.04228741 179.8515625 189.06640625 C181.31612314 194.07970997 181.40415364 199.30623924 181.5625 204.5 C195.01241258 200.77931972 205.76667186 194.13021826 213.09765625 181.94921875 C218.84127746 170.91409812 219.69302102 160.14971856 219.76782227 147.93139648 C219.77772186 146.91571091 219.78762146 145.90002533 219.79782104 144.8535614 C219.82918406 141.52609517 219.85409292 138.19861471 219.87890625 134.87109375 C219.89949758 132.5522476 219.9204946 130.23340501 219.94187927 127.91456604 C219.99687493 121.83359685 220.04638281 115.75259505 220.09472656 109.67156982 C220.14510665 103.45744959 220.20070627 97.24337626 220.25585938 91.02929688 C220.36316538 78.85290473 220.46467072 66.67647172 220.5625 54.5 C225.8425 54.5 231.1225 54.5 236.5625 54.5 C236.65545736 69.25229081 236.7266622 84.00451847 236.76974869 98.75704384 C236.79029437 105.60831353 236.81825993 112.45939687 236.86425781 119.31054688 C236.90868276 125.93062263 236.93168325 132.55055667 236.94200897 139.17078781 C236.94936124 141.68797209 236.96371783 144.20514662 236.98542023 146.72224808 C237.19513669 172.06931349 237.19513669 172.06931349 232.5625 183.5 C232.29269318 184.18705521 232.02288635 184.87411041 231.74490356 185.58198547 C224.77744474 201.70883488 211.56912896 212.29155962 195.90234375 219.27734375 C190.82841728 221.13481625 185.9190821 221.85462866 180.5625 222.5 C180.5625 227.78 180.5625 233.06 180.5625 238.5 C196.4025 238.5 212.2425 238.5 228.5625 238.5 C228.5625 243.78 228.5625 249.06 228.5625 254.5 C212.7225 254.5 196.8825 254.5 180.5625 254.5 C180.5625 259.78 180.5625 265.06 180.5625 270.5 C182.2125 270.665 183.8625 270.83 185.5625 271 C201.53067174 273.68023686 215.61937287 283.83480336 225.453125 296.37109375 C233.64392979 308.52078752 236.88980555 320.53658327 236.78955078 335.07836914 C236.78984283 336.20134399 236.79013489 337.32431885 236.79043579 338.48132324 C236.78905062 342.16601486 236.77352765 345.85050027 236.7578125 349.53515625 C236.75407948 352.10062042 236.75123388 354.66608602 236.74923706 357.23155212 C236.74240012 363.27679884 236.72666264 369.32195805 236.70653808 375.3671698 C236.68411142 382.25478247 236.67316871 389.1423988 236.66314721 396.03003895 C236.64229424 410.1867342 236.60675345 424.34336029 236.5625 438.5 C231.2825 438.5 226.0025 438.5 220.5625 438.5 C220.55441315 437.22594803 220.54632629 435.95189606 220.53799438 434.63923645 C220.46026997 422.59067668 220.37246573 410.54222619 220.27497292 398.4938097 C220.22517859 392.30066448 220.17884785 386.10753494 220.140625 379.91430664 C220.10355823 373.92956378 220.05714199 367.94495772 220.00443649 361.96033287 C219.98600562 359.68520207 219.97085668 357.41004208 219.95915604 355.13486671 C219.86683652 325.35235347 219.86683652 325.35235347 204.68359375 300.55859375 C198.06411351 294.3670395 190.33806418 290.59850448 181.5625 288.5 C181.53671875 289.345625 181.5109375 290.19125 181.484375 291.0625 C181.00026847 300.7446307 179.78291295 306.78181209 172.5625 313.4375 C169.88866657 315.73010327 167.97438679 316.74343187 164.5625 317.5 C164.60890625 319.38525391 164.60890625 319.38525391 164.65625 321.30859375 C164.59474143 360.72790167 144.38074169 397.12511322 118.5625 425.5 C117.88960938 426.24507813 117.21671875 426.99015625 116.5234375 427.7578125 C89.64825071 456.00534926 49.97838123 473.65266959 11.5625 477.5 C11.46066406 478.24121094 11.35882813 478.98242188 11.25390625 479.74609375 C9.82038832 485.45586855 4.95409033 489.99978581 0 493 C-6.3831411 495.78718052 -14.21341171 495.58483809 -20.87109375 493.875 C-26.16927312 491.56156495 -30.33542194 487.32845194 -33.4375 482.5 C-34.12890625 479.74609375 -34.12890625 479.74609375 -34.4375 477.5 C-35.26507813 477.42523438 -36.09265625 477.35046875 -36.9453125 477.2734375 C-80.33973692 472.4934901 -121.4594023 449.78420924 -149.6875 416.625 C-171.67360298 389.17085068 -188.69713652 353.39964077 -187.4375 317.5 C-188.4584375 317.190625 -188.4584375 317.190625 -189.5 316.875 C-195.45754901 314.08636004 -199.97871882 309.95771259 -202.7265625 303.93359375 C-204.19112314 298.92029003 -204.27915364 293.69376076 -204.4375 288.5 C-217.88741258 292.22068028 -228.64167186 298.86978174 -235.97265625 311.05078125 C-241.71627746 322.08590188 -242.56802102 332.85028144 -242.64282227 345.06860352 C-242.65272186 346.08428909 -242.66262146 347.09997467 -242.67282104 348.1464386 C-242.70418406 351.47390483 -242.72909292 354.80138529 -242.75390625 358.12890625 C-242.77449758 360.4477524 -242.7954946 362.76659499 -242.81687927 365.08543396 C-242.87187493 371.16640315 -242.92138281 377.24740495 -242.96972656 383.32843018 C-243.02010665 389.54255041 -243.07570627 395.75662374 -243.13085938 401.97070312 C-243.23816538 414.14709527 -243.33967072 426.32352828 -243.4375 438.5 C-248.7175 438.5 -253.9975 438.5 -259.4375 438.5 C-259.5071619 423.71314261 -259.56059339 408.92632051 -259.59293652 394.13933182 C-259.60835798 387.27235553 -259.62935628 380.40548353 -259.66381836 373.53857422 C-259.69709066 366.90553789 -259.7143784 360.27258102 -259.72213173 353.6394577 C-259.72765369 351.11505178 -259.73843651 348.59065144 -259.75469017 346.06629181 C-259.77662372 342.51704859 -259.77946024 338.96824593 -259.77807617 335.41894531 C-259.788862 334.38675369 -259.79964783 333.35456207 -259.8107605 332.29109192 C-259.7386767 315.08946782 -252.91714601 300.12600216 -241.00390625 287.8671875 C-231.25787151 278.87769427 -217.10694078 270.5 -203.4375 270.5 C-203.4375 265.22 -203.4375 259.94 -203.4375 254.5 C-219.2775 254.5 -235.1175 254.5 -251.4375 254.5 C-251.4375 249.22 -251.4375 243.94 -251.4375 238.5 C-235.5975 238.5 -219.7575 238.5 -203.4375 238.5 C-203.4375 233.22 -203.4375 227.94 -203.4375 222.5 C-205.78875 222.1596875 -205.78875 222.1596875 -208.1875 221.8125 C-223.99482788 218.90703999 -238.57146475 209.76751374 -248.125 196.8125 C-256.36961198 184.34971445 -259.76635205 172.68773424 -259.66455078 157.92163086 C-259.66484283 156.79865601 -259.66513489 155.67568115 -259.66543579 154.51867676 C-259.66405062 150.83398514 -259.64852765 147.14949973 -259.6328125 143.46484375 C-259.62907948 140.89937958 -259.62623388 138.33391398 -259.62423706 135.76844788 C-259.61740012 129.72320116 -259.60166264 123.67804195 -259.58153808 117.6328302 C-259.55911142 110.74521753 -259.54816871 103.8576012 -259.53814721 96.96996105 C-259.51729424 82.8132658 -259.48175345 68.65663971 -259.4375 54.5 C-254.1575 54.5 -248.8775 54.5 -243.4375 54.5 C-243.42536972 56.41107796 -243.42536972 56.41107796 -243.41299438 58.36076355 C-243.33526997 70.40932332 -243.24746573 82.45777381 -243.14997292 94.5061903 C-243.10017859 100.69933552 -243.05384785 106.89246506 -243.015625 113.08569336 C-242.97855823 119.07043622 -242.93214199 125.05504228 -242.87943649 131.03966713 C-242.86100562 133.31479793 -242.84585668 135.58995792 -242.83415604 137.86513329 C-242.74183652 167.64764653 -242.74183652 167.64764653 -227.55859375 192.44140625 C-220.93911351 198.6329605 -213.21306418 202.40149552 -204.4375 204.5 C-204.39882812 203.2315625 -204.39882812 203.2315625 -204.359375 201.9375 C-203.87526847 192.2553693 -202.65791295 186.21818791 -195.4375 179.5625 C-192.76366657 177.26989673 -190.84938679 176.25656813 -187.4375 175.5 C-187.46328125 174.20320312 -187.4890625 172.90640625 -187.515625 171.5703125 C-187.51185051 166.74085835 -186.97499207 162.13319879 -186.1875 157.375 C-186.05255127 156.5502417 -185.91760254 155.7254834 -185.77856445 154.87573242 C-178.57977444 112.64147144 -154.5736014 73.5895211 -119.75 48.4375 C-95.96756696 31.77202914 -64.24761381 15.5 -34.4375 15.5 C-34.33566406 14.75878906 -34.23382813 14.01757812 -34.12890625 13.25390625 C-32.69538832 7.54413145 -27.82909033 3.00021419 -22.875 0 C-16.0623237 -2.97473585 -6.8126763 -2.97473585 0 0 Z M-109.4375 62.5 C-110.36175781 63.18191406 -111.28601563 63.86382812 -112.23828125 64.56640625 C-142.65505732 88.31402253 -164.85973861 123.1761344 -169.73730469 161.87890625 C-170.15015216 166.08309968 -170.36610981 170.2749987 -170.4375 174.5 C-157.49525697 176.38205831 -157.49525697 176.38205831 -145.28320312 173.23876953 C-141.7090535 170.04008025 -139.07655519 166.18726274 -136.51464844 162.15722656 C-128.56278875 149.92304171 -112.77557606 140.85019771 -100.4375 133.5 C-99.87015137 133.1587207 -99.30280273 132.81744141 -98.71826172 132.46582031 C-81.63060208 122.34015866 -61.77886347 115.40493608 -42.01953125 113.1015625 C-38.14253049 112.64079016 -38.14253049 112.64079016 -34.4375 111.5 C-32.97333295 109.60622704 -32.22099009 107.83985147 -31.38671875 105.6015625 C-29.40668162 101.2177766 -25.35384337 98.45165351 -21.140625 96.359375 C-14.63191599 94.29013225 -6.22796513 94.22753216 0.0625 97.0625 C4.64941329 99.83827156 8.75535173 103.83966597 10.33129883 109.03393555 C11.31531956 111.67649952 11.31531956 111.67649952 13.7512207 112.41552734 C15.10606567 112.62363037 15.10606567 112.62363037 16.48828125 112.8359375 C17.50212891 113.00907471 18.51597656 113.18221191 19.56054688 113.3605957 C20.65431641 113.53034912 21.74808594 113.70010254 22.875 113.875 C52.01884545 119.06462767 79.26318198 130.76609025 101.5625 150.5 C102.05202148 150.92925781 102.54154297 151.35851562 103.04589844 151.80078125 C110.85212162 158.67144567 118.76536545 165.80429818 124.5625 174.5 C126.98349355 174.9164535 126.98349355 174.9164535 129.7890625 174.79296875 C130.8203125 174.78330078 131.8515625 174.77363281 132.9140625 174.76367188 C133.99429687 174.73853516 135.07453125 174.71339844 136.1875 174.6875 C137.27546875 174.67396484 138.3634375 174.66042969 139.484375 174.64648438 C142.17757409 174.61104754 144.86979374 174.56164331 147.5625 174.5 C146.39301781 138.65537089 131.04320251 106.32103082 106.5625 80.5 C105.22251953 79.06333984 105.22251953 79.06333984 103.85546875 77.59765625 C79.96407612 52.48710767 44.99450289 35.85639692 10.5625 32.5 C10.02625 33.386875 9.49 34.27375 8.9375 35.1875 C5.58054394 40.20514104 1.36075409 43.62799225 -4.4375 45.5 C-12.26316083 46.30407029 -20.05208757 46.61129302 -26.4375 41.5 C-29.2081551 38.76588102 -31.69022846 35.99454307 -33.4375 32.5 C-59.5906501 32.5 -89.00479312 47.33131252 -109.4375 62.5 Z M-123.4375 171.5 C-124.0975 172.49 -124.7575 173.48 -125.4375 174.5 C-50.1975 174.5 25.0425 174.5 102.5625 174.5 C80.09908563 148.29268324 44.70841743 131.8285096 10.5625 128.5 C10.02625 129.386875 9.49 130.27375 8.9375 131.1875 C5.58054394 136.20514104 1.36075409 139.62799225 -4.4375 141.5 C-12.26316083 142.30407029 -20.05208757 142.61129302 -26.4375 137.5 C-29.2081551 134.76588102 -31.69022846 131.99454307 -33.4375 128.5 C-66.93354475 128.5 -99.79004819 149.55596633 -123.4375 171.5 Z M-170.4375 318.5 C-169.2681294 354.34120883 -153.92085529 386.68339269 -129.4375 412.5 C-128.59445313 413.39589844 -127.75140625 414.29179687 -126.8828125 415.21484375 C-102.29075249 440.6266391 -69.93921566 454.68125827 -35.4375 460.5 C-34.7775 460.5 -34.1175 460.5 -33.4375 460.5 C-32.49800814 459.05720893 -31.56061903 457.61298085 -30.63671875 456.16015625 C-27.54700764 451.88286888 -23.4384837 449.11460331 -18.4375 447.5 C-10.61183917 446.69592971 -2.82291243 446.38870698 3.5625 451.5 C6.3331551 454.23411898 8.81522846 457.00545693 10.5625 460.5 C46.59645813 455.31616743 77.15222207 440.688578 103.5625 415.5 C104.41714844 414.70980469 105.27179688 413.91960937 106.15234375 413.10546875 C131.52753585 388.93289239 146.53538859 353.31907688 147.5625 318.5 C134.62025697 316.61794169 134.62025697 316.61794169 122.40820312 319.76123047 C118.8340535 322.95991975 116.20155519 326.81273726 113.63964844 330.84277344 C105.68778875 343.07695829 89.90057606 352.14980229 77.5625 359.5 C76.99515137 359.8412793 76.42780273 360.18255859 75.84326172 360.53417969 C58.75560208 370.65984134 38.90386347 377.59506392 19.14453125 379.8984375 C15.26753049 380.35920984 15.26753049 380.35920984 11.5625 381.5 C10.09833295 383.39377296 9.34599009 385.16014853 8.51171875 387.3984375 C6.53168162 391.7822234 2.47884337 394.54834649 -1.734375 396.640625 C-8.24308401 398.70986775 -16.64703487 398.77246784 -22.9375 395.9375 C-27.52441329 393.16172844 -31.63035173 389.16033403 -33.20629883 383.96606445 C-34.19031956 381.32350048 -34.19031956 381.32350048 -36.6262207 380.58447266 C-37.52945068 380.4457373 -38.43268066 380.30700195 -39.36328125 380.1640625 C-40.37712891 379.99092529 -41.39097656 379.81778809 -42.43554688 379.6394043 C-43.52931641 379.46965088 -44.62308594 379.29989746 -45.75 379.125 C-76.31588484 373.6821506 -103.26961559 361.1684446 -126.4375 340.5 C-127.17355469 339.88511719 -127.90960938 339.27023437 -128.66796875 338.63671875 C-134.84043306 333.47451806 -141.52715653 327.26252876 -145.7421875 320.36499023 C-147.30401286 318.26896606 -147.30401286 318.26896606 -149.8894043 318.04589844 C-150.83726807 318.0668457 -151.78513184 318.08779297 -152.76171875 318.109375 C-154.30375977 318.12871094 -154.30375977 318.12871094 -155.87695312 318.1484375 C-156.94880859 318.18195313 -158.02066406 318.21546875 -159.125 318.25 C-160.75018555 318.27707031 -160.75018555 318.27707031 -162.40820312 318.3046875 C-165.08552146 318.35186492 -167.76106909 318.41767751 -170.4375 318.5 Z M-125.4375 318.5 C-102.97408563 344.70731676 -67.58341743 361.1714904 -33.4375 364.5 C-32.90125 363.613125 -32.365 362.72625 -31.8125 361.8125 C-28.45554394 356.79485896 -24.23575409 353.37200775 -18.4375 351.5 C-10.61183917 350.69592971 -2.82291243 350.38870698 3.5625 355.5 C6.3331551 358.23411898 8.81522846 361.00545693 10.5625 364.5 C45.69462424 361.07535596 77.69591181 344.16725682 102.5625 319.5 C102.5625 319.17 102.5625 318.84 102.5625 318.5 C27.3225 318.5 -47.9175 318.5 -125.4375 318.5 Z " fill="#ffffff" transform="translate(267.4375,9.5)"/>
<path d="M0 0 C1.00483674 -0.00640819 1.00483674 -0.00640819 2.02997321 -0.01294583 C4.26771408 -0.02116163 6.50356744 0.00628142 8.74113464 0.03364563 C10.34776261 0.03505643 11.9543938 0.0342635 13.5610199 0.03143311 C17.91830569 0.02999876 22.27490301 0.05939116 26.63202882 0.09430289 C31.18705392 0.12556348 35.74209488 0.12849689 40.29721069 0.13442993 C48.92098441 0.14996927 57.54444113 0.19099891 66.16807526 0.24117738 C77.82254263 0.30751907 89.47709671 0.33450465 101.13170528 0.36368847 C119.49157998 0.41070077 137.85078573 0.51031228 156.21061707 0.60127258 C156.21061707 37.56127258 156.21061707 74.52127258 156.21061707 112.60127258 C115.49559627 112.72218169 115.49559627 112.72218169 98.46452332 112.74775696 C86.69413849 112.76557401 74.92381797 112.78654579 63.15348816 112.82759094 C54.58210587 112.8574666 46.01077564 112.87684124 37.43934274 112.88353807 C32.89965386 112.88745344 28.36011392 112.89667318 23.82047272 112.91846275 C19.54908726 112.93879897 15.27791235 112.94511221 11.00648308 112.94059563 C9.43752079 112.94142211 7.86855159 112.94740488 6.29963112 112.95888901 C4.15940935 112.97378873 2.01998525 112.97023601 -0.12025452 112.96203613 C-1.3185854 112.96480151 -2.51691628 112.96756689 -3.75156021 112.97041607 C-7.08262765 112.56563871 -8.44941437 111.96864488 -10.78938293 109.60127258 C-11.6988779 106.8727877 -11.92200282 105.24882063 -11.94328308 102.43980408 C-11.95188354 101.59307632 -11.96048401 100.74634857 -11.96934509 99.8739624 C-11.97360504 98.94817886 -11.97786499 98.02239532 -11.98225403 97.06855774 C-11.99043152 96.0910405 -11.99860901 95.11352325 -12.0070343 94.10638428 C-12.03187192 90.86770746 -12.04839817 87.62907435 -12.06282043 84.39033508 C-12.06814411 83.28503826 -12.07346779 82.17974144 -12.07895279 81.04095078 C-12.10567435 75.19322656 -12.12505445 69.34552364 -12.13948059 63.49775696 C-12.15614674 57.45251741 -12.2009443 51.40782108 -12.25185204 45.36278725 C-12.28546909 40.71826027 -12.29705183 36.07386329 -12.30270767 31.42922592 C-12.30943297 29.2004467 -12.324688 26.9716764 -12.34859848 24.74301529 C-12.38013978 21.62581471 -12.38030331 18.51009407 -12.37287903 15.39277649 C-12.38928436 14.47104141 -12.4056897 13.54930634 -12.42259216 12.59963989 C-12.41427368 11.74727249 -12.4059552 10.89490509 -12.39738464 10.01670837 C-12.40069479 9.28040506 -12.40400494 8.54410175 -12.40741539 7.78548622 C-10.61103852 1.43683767 -6.01497158 -0.02315232 0 0 Z " fill="#d13f34" transform="translate(91.78938293457031,199.3987274169922)"/>
<path d="M0 0 C40.42394332 -0.1209091 40.42394332 -0.1209091 57.34179688 -0.14648438 C69.03088318 -0.16429685 80.7199047 -0.18525589 92.40893555 -0.22631836 C100.92136378 -0.25620748 109.43373954 -0.27557186 117.94621879 -0.28226548 C122.45408201 -0.28617857 126.96179508 -0.29538383 131.46961021 -0.31719017 C135.71227201 -0.33754762 139.95472175 -0.34383531 144.19742775 -0.33932304 C145.75468218 -0.34014858 147.31194368 -0.34611872 148.86915588 -0.35761642 C150.99589133 -0.37254938 153.12182686 -0.36895128 155.24858093 -0.36076355 C157.03363305 -0.36491162 157.03363305 -0.36491162 158.85474682 -0.36914349 C162.33235332 0.03900674 164.21414143 0.91444537 167 3 C168.13552911 5.27105821 168.13025595 6.5193639 168.14044189 9.04121399 C168.14615204 9.88656708 168.15186218 10.73192017 168.15774536 11.60289001 C168.15942215 12.99695824 168.15942215 12.99695824 168.16113281 14.41918945 C168.16609772 15.39656067 168.17106262 16.37393188 168.17617798 17.38092041 C168.19082286 20.62504777 168.19760568 23.86912622 168.203125 27.11328125 C168.20887478 29.36288963 168.21463254 31.61249799 168.22039795 33.86210632 C168.23091473 38.5840986 168.23675288 43.30607382 168.24023438 48.02807617 C168.24571879 54.08104035 168.269743 60.13377955 168.29820633 66.18667316 C168.31682365 70.83549153 168.32203784 75.48425564 168.32357025 80.13310814 C168.32659963 82.36464861 168.33463773 84.59618806 168.34775543 86.82769203 C168.36479579 89.94951136 168.36294036 93.07078008 168.35644531 96.19262695 C168.3656601 97.11593307 168.37487488 98.0392392 168.3843689 98.99052429 C168.35323152 103.76422809 168.24484358 107.20113771 165 111 C161.61409586 112.12863471 159.05946202 112.12301583 155.48908997 112.12025452 C154.82499121 112.12110894 154.16089245 112.12196337 153.47666949 112.12284368 C151.24719574 112.12449328 149.01779692 112.11898562 146.78833008 112.11352539 C145.19184877 112.11324338 143.59536734 112.11340152 141.99888611 112.1139679 C137.66034783 112.11425533 133.32183708 112.10836726 128.98330522 112.10139394 C124.45092295 112.09515148 119.91854008 112.09455589 115.38615417 112.09336853 C106.80141751 112.09025786 98.21669355 112.082048 89.63196248 112.07201904 C78.03283817 112.0587621 66.43371039 112.05335587 54.83458042 112.04751682 C36.55637743 112.03810795 18.27820125 112.01818726 0 112 C0 75.04 0 38.08 0 0 Z " fill="#779fd2" transform="translate(264,200)"/>
<path d="M0 0 C6.27 0 12.54 0 19 0 C19 36.96 19 73.92 19 112 C-21.71502079 112.1209091 -21.71502079 112.1209091 -38.74609375 112.14648438 C-50.51647858 112.16430143 -62.2867991 112.18527321 -74.05712891 112.22631836 C-82.62851119 112.25619402 -91.19984142 112.27556865 -99.77127433 112.28226548 C-104.31096321 112.28618086 -108.85050314 112.2954006 -113.39014435 112.31719017 C-117.66152981 112.33752638 -121.93270471 112.34383963 -126.20413399 112.33932304 C-127.77309627 112.34014953 -129.34206547 112.3461323 -130.91098595 112.35761642 C-133.05120772 112.37251615 -135.19063182 112.36896343 -137.33087158 112.36076355 C-138.52920246 112.36352893 -139.72753334 112.36629431 -140.96217728 112.36914349 C-144.29324472 111.96436613 -145.66003144 111.36737229 -148 109 C-149 106 -149 106 -149 96 C-133.16 96 -117.32 96 -101 96 C-101.02320313 90.78832031 -101.04640625 85.57664062 -101.0703125 80.20703125 C-101.08053299 76.9029898 -101.09016103 73.59896788 -101.09765625 70.29492188 C-101.10960629 65.05196071 -101.12373512 59.80906949 -101.15087891 54.56616211 C-101.17262844 50.33865785 -101.1845731 46.11122861 -101.18975449 41.88367271 C-101.19344645 40.27175402 -101.20065593 38.65983937 -101.21146011 37.04795265 C-101.22600315 34.78814484 -101.22797678 32.528646 -101.22705078 30.26879883 C-101.231492 28.98306473 -101.23593323 27.69733063 -101.24050903 26.37263489 C-101.00539762 23.07569028 -100.56514725 20.89562622 -99 18 C-96 16 -96 16 -92.625 16.0625 C-85.50642134 17.90351172 -81.79931798 24.79018807 -77.6875 30.5 C-69.95279534 41.12603591 -61.98637208 51.56167158 -54 62 C-53.67 46.82 -53.34 31.64 -53 16 C-47.72 16 -42.44 16 -37 16 C-36.95482111 25.5793151 -36.91812531 35.15855948 -36.89637566 44.737957 C-36.8859371 49.18602201 -36.87177655 53.63401036 -36.84912109 58.08203125 C-36.82739533 62.37436934 -36.81543192 66.66663369 -36.81024551 70.95902252 C-36.80654928 72.59688732 -36.79933151 74.23474807 -36.78853989 75.87258148 C-36.77402845 78.16611972 -36.7720219 80.45935295 -36.77294922 82.75292969 C-36.768508 84.05864929 -36.76406677 85.3643689 -36.75949097 86.70965576 C-36.98439978 89.78657724 -37.26601067 91.48745665 -39 94 C-39.99 94.495 -39.99 94.495 -41 95 C-37.33360752 95.11728126 -33.6677048 95.18760891 -30 95.25 C-28.97003906 95.28351563 -27.94007813 95.31703125 -26.87890625 95.3515625 C-19.03862748 95.45143866 -13.70807273 94.24940868 -7.7578125 89.03515625 C-7.21898437 88.38417969 -6.68015625 87.73320312 -6.125 87.0625 C-5.29355469 86.08990234 -5.29355469 86.08990234 -4.4453125 85.09765625 C-1.16492177 80.33665674 -0.6983492 75.93539322 -0.68115234 70.2722168 C-0.67110672 69.51070816 -0.6610611 68.74919952 -0.65071106 67.96461487 C-0.61993763 65.45949017 -0.60286034 62.95447206 -0.5859375 60.44921875 C-0.56722114 58.70757636 -0.54764737 56.965943 -0.5272522 55.22431946 C-0.47597442 50.64921391 -0.43632542 46.07407899 -0.39910889 41.49884033 C-0.35904193 36.82662716 -0.30796186 32.15453578 -0.2578125 27.48242188 C-0.16110469 18.32169172 -0.07770176 9.1609111 0 0 Z " fill="#b42e27" transform="translate(229,200)"/>
<path d="M0 0 C2.22855574 -0.0814222 4.45797655 -0.13938079 6.6875 -0.1875 C7.92886719 -0.22230469 9.17023438 -0.25710937 10.44921875 -0.29296875 C14.21666932 0.01787701 16.02794917 0.7227143 19 3 C20.13552911 5.27105821 20.13025595 6.5193639 20.14044189 9.04121399 C20.14615204 9.88656708 20.15186218 10.73192017 20.15774536 11.60289001 C20.15942215 12.99695824 20.15942215 12.99695824 20.16113281 14.41918945 C20.16609772 15.39656067 20.17106262 16.37393188 20.17617798 17.38092041 C20.19082286 20.62504777 20.19760568 23.86912622 20.203125 27.11328125 C20.20887478 29.36288963 20.21463254 31.61249799 20.22039795 33.86210632 C20.23091473 38.5840986 20.23675288 43.30607382 20.24023438 48.02807617 C20.24571879 54.08104035 20.269743 60.13377955 20.29820633 66.18667316 C20.31682365 70.83549153 20.32203784 75.48425564 20.32357025 80.13310814 C20.32659963 82.36464861 20.33463773 84.59618806 20.34775543 86.82769203 C20.36479579 89.94951136 20.36294036 93.07078008 20.35644531 96.19262695 C20.3656601 97.11593307 20.37487488 98.0392392 20.3843689 98.99052429 C20.35323152 103.76422809 20.24484358 107.20113771 17 111 C13.61409586 112.12863471 11.05946202 112.12301583 7.48908997 112.12025452 C6.82499121 112.12110894 6.16089245 112.12196337 5.47666949 112.12284368 C3.24719574 112.12449328 1.01779692 112.11898562 -1.21166992 112.11352539 C-2.80815123 112.11324338 -4.40463266 112.11340152 -6.00111389 112.1139679 C-10.33965217 112.11425533 -14.67816292 112.10836726 -19.01669478 112.10139394 C-23.54907705 112.09515148 -28.08145992 112.09455589 -32.61384583 112.09336853 C-41.19858249 112.09025786 -49.78330645 112.082048 -58.36803752 112.07201904 C-68.14059173 112.06084974 -77.91314654 112.05534539 -87.68570554 112.05032361 C-107.79047765 112.03986519 -127.89523758 112.02206988 -148 112 C-148 106.72 -148 101.44 -148 96 C-126.88 95.67 -105.76 95.34 -84 95 C-86.64 93.35 -89.28 91.7 -92 90 C-96.5088537 85.59134305 -98.58246746 81.05044376 -100 75 C-100 74.01 -100 73.02 -100 72 C-94.72 72 -89.44 72 -84 72 C-83.01 73.98 -82.02 75.96 -81 78 C-77.12937878 79.93531061 -72.38277058 79.27192404 -68.125 79.3125 C-67.11824219 79.34150391 -66.11148438 79.37050781 -65.07421875 79.40039062 C-59.35690795 79.54797366 -59.35690795 79.54797366 -54.3359375 77.16796875 C-52.50078034 74.18986284 -52.4273462 72.4359228 -53 69 C-54.27270094 66.62532043 -54.27270094 66.62532043 -57 65 C-61.68159138 64.29943399 -66.41780666 64.49336583 -71.140625 64.51171875 C-79.1103506 64.39727099 -85.93688067 63.08532801 -92.40234375 58.17578125 C-97.19926772 52.35356056 -99.485856 47.03970284 -100.4375 39.5625 C-99.4427965 31.46277151 -96.59306204 25.77600053 -90.390625 20.47265625 C-83.07573103 15.96658595 -76.53492622 15.50475394 -68.125 15.5625 C-67.10019531 15.54251953 -66.07539063 15.52253906 -65.01953125 15.50195312 C-57.00848611 15.50704273 -50.04444175 16.86966785 -43.59765625 21.859375 C-39.00415934 27.51650605 -36 32.48234925 -36 40 C-41.28 40 -46.56 40 -52 40 C-52.99 38.02 -53.98 36.04 -55 34 C-58.87062122 32.06468939 -63.61722942 32.72807596 -67.875 32.6875 C-68.88175781 32.65849609 -69.88851562 32.62949219 -70.92578125 32.59960938 C-76.64309205 32.45202634 -76.64309205 32.45202634 -81.6640625 34.83203125 C-83.49921966 37.81013716 -83.5726538 39.5640772 -83 43 C-81.72729906 45.37467957 -81.72729906 45.37467957 -79 47 C-74.31840862 47.70056601 -69.58219334 47.50663417 -64.859375 47.48828125 C-56.89503422 47.60265168 -50.02198432 48.88704953 -43.59765625 53.859375 C-39.07927544 59.42399666 -36.40795766 64.26038811 -35.625 71.4375 C-36.51792081 79.92024767 -39.4375779 86.3677853 -46 92 C-47.9884069 93.02285776 -49.98754391 94.02531006 -52 95 C-46.43161149 95.09926507 -40.86374396 95.17165521 -35.29467773 95.21972656 C-33.4023338 95.23977703 -31.51005132 95.26702477 -29.61791992 95.30175781 C-26.88965649 95.35056652 -24.16221585 95.37303442 -21.43359375 95.390625 C-20.59477158 95.41127014 -19.7559494 95.43191528 -18.89170837 95.45318604 C-13.35409411 95.45527656 -9.23561654 94.72775141 -5 91 C-1.35956283 85.71033825 -0.41167399 80.77601815 -0.45410156 74.47265625 C-0.43859505 73.2565844 -0.43859505 73.2565844 -0.42277527 72.01594543 C-0.3935277 69.36458986 -0.39185197 66.71400365 -0.390625 64.0625 C-0.37563111 62.21303874 -0.35890144 60.3635908 -0.34051514 58.51416016 C-0.29696501 53.66777912 -0.27686995 48.82157869 -0.26177979 43.97503662 C-0.2421641 39.02101009 -0.20019916 34.06717733 -0.16015625 29.11328125 C-0.08498787 19.40891412 -0.03461554 9.70459063 0 0 Z " fill="#5d86c9" transform="translate(412,200)"/>
<path d="M0 0 C7.11857866 1.84101172 10.82568202 8.72768807 14.9375 14.4375 C22.67220466 25.06353591 30.63862792 35.49917158 38.625 45.9375 C38.955 30.7575 39.285 15.5775 39.625 -0.0625 C44.905 -0.0625 50.185 -0.0625 55.625 -0.0625 C55.67017889 9.5168151 55.70687469 19.09605948 55.72862434 28.675457 C55.7390629 33.12352201 55.75322345 37.57151036 55.77587891 42.01953125 C55.79760467 46.31186934 55.80956808 50.60413369 55.81475449 54.89652252 C55.81845072 56.53438732 55.82566849 58.17224807 55.83646011 59.81008148 C55.85097155 62.10361972 55.8529781 64.39685295 55.85205078 66.69042969 C55.856492 67.99614929 55.86093323 69.3018689 55.86550903 70.64715576 C55.64015725 73.7301375 55.33566625 75.40800339 53.625 77.9375 C50.62951478 80.00335188 48.21323384 80.32962735 44.625 79.9375 C36.94042994 73.99456212 31.28668177 64.21050666 25.640625 56.40234375 C20.07817079 48.83242795 14.33129856 41.39958274 8.625 33.9375 C8.295 49.1175 7.965 64.2975 7.625 79.9375 C2.345 79.9375 -2.935 79.9375 -8.375 79.9375 C-8.42020576 70.50583946 -8.45689022 61.07425102 -8.47862434 51.6425066 C-8.48905624 47.26285078 -8.50320461 42.88327301 -8.52587891 38.50366211 C-8.54762844 34.27615785 -8.5595731 30.04872861 -8.56475449 25.82117271 C-8.56844645 24.20925402 -8.57565593 22.59733937 -8.58646011 20.98545265 C-8.60100315 18.72564484 -8.60297678 16.466146 -8.60205078 14.20629883 C-8.606492 12.92056473 -8.61093323 11.63483063 -8.61550903 10.31013489 C-8.38039762 7.01319028 -7.94014725 4.83312622 -6.375 1.9375 C-3.375 -0.0625 -3.375 -0.0625 0 0 Z " fill="#ffffff" transform="translate(136.375,216.0625)"/>
<path d="M0 0 C1.02480469 -0.01998047 2.04960937 -0.03996094 3.10546875 -0.06054688 C11.11651389 -0.05545727 18.08055825 1.30716785 24.52734375 6.296875 C29.12084066 11.95400605 32.125 16.91984925 32.125 24.4375 C26.845 24.4375 21.565 24.4375 16.125 24.4375 C15.135 22.4575 14.145 20.4775 13.125 18.4375 C9.25437878 16.50218939 4.50777058 17.16557596 0.25 17.125 C-0.75675781 17.09599609 -1.76351563 17.06699219 -2.80078125 17.03710938 C-8.51809205 16.88952634 -8.51809205 16.88952634 -13.5390625 19.26953125 C-15.37421966 22.24763716 -15.4476538 24.0015772 -14.875 27.4375 C-13.60229906 29.81217957 -13.60229906 29.81217957 -10.875 31.4375 C-6.19340862 32.13806601 -1.45719334 31.94413417 3.265625 31.92578125 C11.22996578 32.04015168 18.10301568 33.32454953 24.52734375 38.296875 C29.04572456 43.86149666 31.71704234 48.69788811 32.5 55.875 C31.70547581 63.42297981 29.34644273 68.76414585 24.52734375 74.61328125 C16.97349948 80.34928982 8.84040648 81.09494661 -0.375 81 C-1.97021484 81.03577148 -1.97021484 81.03577148 -3.59765625 81.07226562 C-11.79545972 81.05717764 -18.52604959 79.26437621 -24.78466797 73.75708008 C-29.33990608 69.07736997 -31.875 62.96840127 -31.875 56.4375 C-26.595 56.4375 -21.315 56.4375 -15.875 56.4375 C-14.885 58.4175 -13.895 60.3975 -12.875 62.4375 C-9.00437878 64.37281061 -4.25777058 63.70942404 0 63.75 C1.00675781 63.77900391 2.01351562 63.80800781 3.05078125 63.83789062 C8.76809205 63.98547366 8.76809205 63.98547366 13.7890625 61.60546875 C15.62421966 58.62736284 15.6976538 56.8734228 15.125 53.4375 C13.85229906 51.06282043 13.85229906 51.06282043 11.125 49.4375 C6.44340862 48.73693399 1.70719334 48.93086583 -3.015625 48.94921875 C-10.9853506 48.83477099 -17.81188067 47.52282801 -24.27734375 42.61328125 C-29.07426772 36.79106056 -31.360856 31.47720284 -32.3125 24 C-31.3177965 15.90027151 -28.46806204 10.21350053 -22.265625 4.91015625 C-14.95073103 0.40408595 -8.40992622 -0.05774606 0 0 Z " fill="#ffffff" transform="translate(343.875,215.5625)"/>
<path d="M0 0 C2.66330921 2.66330921 4.74353129 4.83899454 6.890625 7.80859375 C7.69632935 8.91448853 7.69632935 8.91448853 8.51831055 10.04272461 C9.08976807 10.83300049 9.66122559 11.62327637 10.25 12.4375 C17.49767105 22.3730233 24.93247681 32.15864868 32.4128418 41.91967773 C33.95282135 43.93816193 35.47668337 45.96891115 37 48 C24.79 48 12.58 48 0 48 C0 32.16 0 16.32 0 0 Z " fill="#ce3f34" transform="translate(144,248)"/>
<path d="M0 0 C4.0743356 0.84881992 5.54405875 2.30225596 8 5.625 C8.625 8.625 8.625 8.625 8 11.625 C5.54405875 14.94774404 4.0743356 16.40118008 0 17.25 C-4.0743356 16.40118008 -5.54405875 14.94774404 -8 11.625 C-8.625 8.625 -8.625 8.625 -8 5.625 C-5.54405875 2.30225596 -4.0743356 0.84881992 0 0 Z " fill="#f0ca62" transform="translate(256,375.375)"/>
<path d="M0 0 C4.0743356 0.84881992 5.54405875 2.30225596 8 5.625 C8.625 8.625 8.625 8.625 8 11.625 C5.54405875 14.94774404 4.0743356 16.40118008 0 17.25 C-4.0743356 16.40118008 -5.54405875 14.94774404 -8 11.625 C-8.625 8.625 -8.625 8.625 -8 5.625 C-5.54405875 2.30225596 -4.0743356 0.84881992 0 0 Z " fill="#f0ca61" transform="translate(256,23.375)"/>
<path d="M0 0 C2.66589042 0.54323805 3.75768995 0.96351964 5.875 2.75 C7.21538506 5.84964046 7.42167869 7.71409302 6.875 11.0625 C4.41905875 14.38524404 2.9493356 15.83868008 -1.125 16.6875 C-5.1993356 15.83868008 -6.66905875 14.38524404 -9.125 11.0625 C-9.75 8.0625 -9.75 8.0625 -9.125 5.0625 C-6.50620524 1.2161452 -4.62486834 -0.35838463 0 0 Z " fill="#f1ca62" transform="translate(257.125,471.9375)"/>
<path d="M0 0 C2.66589042 0.54323805 3.75768995 0.96351964 5.875 2.75 C7.21538506 5.84964046 7.42167869 7.71409302 6.875 11.0625 C4.41905875 14.38524404 2.9493356 15.83868008 -1.125 16.6875 C-5.1993356 15.83868008 -6.66905875 14.38524404 -9.125 11.0625 C-9.75 8.0625 -9.75 8.0625 -9.125 5.0625 C-6.50620524 1.2161452 -4.62486834 -0.35838463 0 0 Z " fill="#f0ca62" transform="translate(257.125,119.9375)"/>
<path d="M0 0 C0.33 0 0.66 0 1 0 C1.46707789 4.01686987 1.32150834 5.56501812 -1.125 8.875 C-4.43498188 11.32150834 -5.98313013 11.46707789 -10 11 C-9.2575 10.443125 -8.515 9.88625 -7.75 9.3125 C-4.52326049 6.59910541 -1.89487672 3.78975344 0 0 Z " fill="#d99e3c" transform="translate(263,477)"/>
<path d="M0 0 C0.33 0 0.66 0 1 0 C1.46707789 4.01686987 1.32150834 5.56501812 -1.125 8.875 C-4.43498188 11.32150834 -5.98313013 11.46707789 -10 11 C-9.2575 10.443125 -8.515 9.88625 -7.75 9.3125 C-4.52326049 6.59910541 -1.89487672 3.78975344 0 0 Z " fill="#d99e3c" transform="translate(263,381)"/>
<path d="M0 0 C0.33 0 0.66 0 1 0 C1.46707789 4.01686987 1.32150834 5.56501812 -1.125 8.875 C-4.43498188 11.32150834 -5.98313013 11.46707789 -10 11 C-9.2575 10.443125 -8.515 9.88625 -7.75 9.3125 C-4.52326049 6.59910541 -1.89487672 3.78975344 0 0 Z " fill="#d99e3c" transform="translate(263,125)"/>
<path d="M0 0 C0.33 0 0.66 0 1 0 C1.46707789 4.01686987 1.32150834 5.56501812 -1.125 8.875 C-4.43498188 11.32150834 -5.98313013 11.46707789 -10 11 C-9.2575 10.443125 -8.515 9.88625 -7.75 9.3125 C-4.52326049 6.59910541 -1.89487672 3.78975344 0 0 Z " fill="#d99e3c" transform="translate(263,29)"/>
</svg>