<svg xmlns="http://www.w3.org/2000/svg" version="1.1" width="512px" height="512px" style="shape-rendering:geometricPrecision; text-rendering:geometricPrecision; image-rendering:optimizeQuality; fill-rule:evenodd; clip-rule:evenodd" xmlns:xlink="http://www.w3.org/1999/xlink" transform="rotate(0) scale(1, 1)">
<g><path style="opacity:1" fill="#ffffff" d="M 307.5,73.5 C 303.116,73.1744 298.783,73.5078 294.5,74.5C 303.022,84.5213 311.356,94.688 319.5,105C 277.163,105.833 234.829,105.667 192.5,104.5C 200.34,94.1655 208.34,83.9988 216.5,74C 212.083,73.7725 207.75,73.2725 203.5,72.5C 216.926,56.9029 230.926,41.7363 245.5,27C 248.453,24.207 251.787,22.0403 255.5,20.5C 265.005,26.4936 273.505,33.8269 281,42.5C 290.043,52.7057 298.877,63.039 307.5,73.5 Z"/></g>
<g><path style="opacity:1" fill="#ffffff" d="M 254.5,33.5 C 268.679,45.18 281.346,58.3467 292.5,73C 267.827,73.8332 243.16,73.6665 218.5,72.5C 230.275,59.2779 242.275,46.2779 254.5,33.5 Z"/></g>
<g><path style="opacity:1" fill="#ffffff" d="M 203.5,72.5 C 207.75,73.2725 212.083,73.7725 216.5,74C 208.34,83.9988 200.34,94.1655 192.5,104.5C 234.829,105.667 277.163,105.833 319.5,105C 311.356,94.688 303.022,84.5213 294.5,74.5C 298.783,73.5078 303.116,73.1744 307.5,73.5C 322.275,89.6085 335.942,106.608 348.5,124.5C 344.956,126.268 340.956,127.102 336.5,127C 340.744,133.24 345.077,139.406 349.5,145.5C 286.503,146.667 223.503,146.833 160.5,146C 165.167,139.667 169.833,133.333 174.5,127C 170.044,127.102 166.044,126.268 162.5,124.5C 175.405,106.592 189.071,89.2587 203.5,72.5 Z"/></g>
<g><path style="opacity:1" fill="#ffffff" d="M 162.5,124.5 C 166.044,126.268 170.044,127.102 174.5,127C 169.833,133.333 165.167,139.667 160.5,146C 223.503,146.833 286.503,146.667 349.5,145.5C 345.077,139.406 340.744,133.24 336.5,127C 340.956,127.102 344.956,126.268 348.5,124.5C 367.761,149.117 385.095,175.117 400.5,202.5C 395.897,201.617 391.23,201.283 386.5,201.5C 385.974,199.77 384.974,198.436 383.5,197.5C 379.61,190.059 375.444,182.726 371,175.5C 332.712,176.83 294.212,177.497 255.5,177.5C 216.93,177.499 178.43,177.165 140,176.5C 135.307,183.225 131.14,190.225 127.5,197.5C 125.554,198.035 124.554,199.368 124.5,201.5C 120.167,201.5 115.833,201.5 111.5,201.5C 126.57,174.454 143.57,148.787 162.5,124.5 Z"/></g>
<g><path style="opacity:1" fill="#ffffff" d="M 383.5,197.5 C 298.167,197.5 212.833,197.5 127.5,197.5C 131.14,190.225 135.307,183.225 140,176.5C 178.43,177.165 216.93,177.499 255.5,177.5C 294.212,177.497 332.712,176.83 371,175.5C 375.444,182.726 379.61,190.059 383.5,197.5 Z"/></g>
<g><path style="opacity:1" fill="#ffffff" d="M 127.5,197.5 C 212.833,197.5 298.167,197.5 383.5,197.5C 384.974,198.436 385.974,199.77 386.5,201.5C 389.281,206.226 391.948,211.059 394.5,216C 301.833,216.667 209.167,216.667 116.5,216C 119.246,210.628 121.912,205.795 124.5,201.5C 124.554,199.368 125.554,198.035 127.5,197.5 Z"/></g>
<g><path style="opacity:0.998" fill="#ffffff" d="M 111.5,201.5 C 115.833,201.5 120.167,201.5 124.5,201.5C 121.912,205.795 119.246,210.628 116.5,216C 209.167,216.667 301.833,216.667 394.5,216C 391.948,211.059 389.281,206.226 386.5,201.5C 391.23,201.283 395.897,201.617 400.5,202.5C 412.34,222.848 422.007,244.181 429.5,266.5C 425.4,266.763 421.4,266.43 417.5,265.5C 416.459,261.746 415.125,258.08 413.5,254.5C 377.506,253.5 341.506,253.167 305.5,253.5C 311.892,240.437 307.892,234.271 293.5,235C 290.22,237.775 287.554,240.942 285.5,244.5C 265.833,244.5 246.167,244.5 226.5,244.5C 213.265,232.982 198.932,231.482 183.5,240C 178.077,244.233 174.077,249.4 171.5,255.5C 147.189,253.51 122.523,252.843 97.5,253.5C 96.253,257.909 94.9197,261.909 93.5,265.5C 89.7016,266.483 85.7016,266.817 81.5,266.5C 89.0909,243.656 99.0909,221.989 111.5,201.5 Z"/></g>
<g><path style="opacity:1" fill="#00000000" d="M 305.5,253.5 C 302.9,257.701 300.566,262.034 298.5,266.5C 291.515,278.465 284.515,290.465 277.5,302.5C 269.427,303.132 261.76,302.465 254.5,300.5C 258.755,292.991 262.755,285.324 266.5,277.5C 273.588,266.998 279.921,255.998 285.5,244.5C 287.554,240.942 290.22,237.775 293.5,235C 307.892,234.271 311.892,240.437 305.5,253.5 Z"/></g>
<g><path style="opacity:1" fill="#00000000" d="M 226.5,244.5 C 229.914,249.33 232.247,254.664 233.5,260.5C 233.5,262.167 233.5,263.833 233.5,265.5C 226.412,265.795 219.412,265.462 212.5,264.5C 211.491,258.47 207.825,255.47 201.5,255.5C 195.823,256.51 192.49,259.844 191.5,265.5C 184.5,265.5 177.5,265.5 170.5,265.5C 170.616,262.14 170.949,258.807 171.5,255.5C 174.077,249.4 178.077,244.233 183.5,240C 198.932,231.482 213.265,232.982 226.5,244.5 Z"/></g>
<g><path style="opacity:1" fill="#ffffff" d="M 171.5,255.5 C 170.949,258.807 170.616,262.14 170.5,265.5C 170.552,269.198 170.886,272.865 171.5,276.5C 144.492,276.833 117.492,276.5 90.5,275.5C 91.8634,273.326 92.1967,271.159 91.5,269C 117.498,268.5 143.498,268.333 169.5,268.5C 169.5,267.5 169.5,266.5 169.5,265.5C 144.167,265.5 118.833,265.5 93.5,265.5C 94.9197,261.909 96.253,257.909 97.5,253.5C 122.523,252.843 147.189,253.51 171.5,255.5 Z"/></g>
<g><path style="opacity:1" fill="#ffffff" d="M 226.5,244.5 C 246.167,244.5 265.833,244.5 285.5,244.5C 279.921,255.998 273.588,266.998 266.5,277.5C 255.346,276.505 244.012,276.172 232.5,276.5C 233.579,272.923 234.246,269.256 234.5,265.5C 234.493,263.631 234.16,261.964 233.5,260.5C 232.247,254.664 229.914,249.33 226.5,244.5 Z"/></g>
<g><path style="opacity:1" fill="#ffffff" d="M 305.5,253.5 C 341.506,253.167 377.506,253.5 413.5,254.5C 415.125,258.08 416.459,261.746 417.5,265.5C 377.761,265.173 338.094,265.506 298.5,266.5C 300.566,262.034 302.9,257.701 305.5,253.5 Z"/></g>
<g><path style="opacity:0.997" fill="#ffffff" d="M 93.5,265.5 C 118.833,265.5 144.167,265.5 169.5,265.5C 169.5,266.5 169.5,267.5 169.5,268.5C 143.498,268.333 117.498,268.5 91.5,269C 92.1967,271.159 91.8634,273.326 90.5,275.5C 117.492,276.5 144.492,276.833 171.5,276.5C 179.882,294.519 193.882,301.019 213.5,296C 222.721,292.28 229.054,285.78 232.5,276.5C 244.012,276.172 255.346,276.505 266.5,277.5C 262.755,285.324 258.755,292.991 254.5,300.5C 250.417,307.668 246.084,314.668 241.5,321.5C 185.888,320.259 130.222,320.259 74.5,321.5C 72.6487,302.644 74.9821,284.31 81.5,266.5C 85.7016,266.817 89.7016,266.483 93.5,265.5 Z"/></g>
<g><path style="opacity:1" fill="#00000000" d="M 233.5,260.5 C 234.16,261.964 234.493,263.631 234.5,265.5C 234.246,269.256 233.579,272.923 232.5,276.5C 229.054,285.78 222.721,292.28 213.5,296C 193.882,301.019 179.882,294.519 171.5,276.5C 170.886,272.865 170.552,269.198 170.5,265.5C 177.5,265.5 184.5,265.5 191.5,265.5C 192.633,274.407 197.633,277.907 206.5,276C 211.26,273.647 213.26,269.814 212.5,264.5C 219.412,265.462 226.412,265.795 233.5,265.5C 233.5,263.833 233.5,262.167 233.5,260.5 Z"/></g>
<g><path style="opacity:0.997" fill="#ffffff" d="M 417.5,265.5 C 421.4,266.43 425.4,266.763 429.5,266.5C 436.07,284.63 438.403,303.297 436.5,322.5C 380.206,320.593 323.873,319.927 267.5,320.5C 270.833,314.5 274.167,308.5 277.5,302.5C 284.515,290.465 291.515,278.465 298.5,266.5C 338.094,265.506 377.761,265.173 417.5,265.5 Z"/></g>
<g><path style="opacity:1" fill="#ffffff" d="M 212.5,264.5 C 213.26,269.814 211.26,273.647 206.5,276C 197.633,277.907 192.633,274.407 191.5,265.5C 192.49,259.844 195.823,256.51 201.5,255.5C 207.825,255.47 211.491,258.47 212.5,264.5 Z"/></g>
<g><path style="opacity:1" fill="#00000000" d="M 254.5,300.5 C 261.76,302.465 269.427,303.132 277.5,302.5C 274.167,308.5 270.833,314.5 267.5,320.5C 259.917,333.33 252.584,346.33 245.5,359.5C 237.108,373.273 228.941,387.273 221,401.5C 215.064,405.729 209.397,405.396 204,400.5C 202.994,398.466 202.494,396.3 202.5,394C 202.749,390.589 203.749,387.422 205.5,384.5C 213.256,372.662 220.256,360.328 226.5,347.5C 232.002,339.168 237.002,330.501 241.5,321.5C 246.084,314.668 250.417,307.668 254.5,300.5 Z"/></g>
<g><path style="opacity:0.999" fill="#ffffff" d="M 241.5,321.5 C 237.002,330.501 232.002,339.168 226.5,347.5C 177.003,346.501 127.336,346.168 77.5,346.5C 75.7622,338.264 74.7622,329.931 74.5,321.5C 130.222,320.259 185.888,320.259 241.5,321.5 Z"/></g>
<g><path style="opacity:0.999" fill="#ffffff" d="M 267.5,320.5 C 323.873,319.927 380.206,320.593 436.5,322.5C 436.299,331.471 434.966,340.138 432.5,348.5C 415.513,347.167 398.18,346.5 380.5,346.5C 362.997,346.5 345.663,346.833 328.5,347.5C 307.018,335.368 290.351,340.035 278.5,361.5C 267.884,359.523 256.884,358.856 245.5,359.5C 252.584,346.33 259.917,333.33 267.5,320.5 Z"/></g>
<g><path style="opacity:1" fill="#00000000" d="M 328.5,347.5 C 337.387,354.62 341.387,363.953 340.5,375.5C 336.211,397.492 322.877,406.992 300.5,404C 281.139,396.112 273.805,381.945 278.5,361.5C 290.351,340.035 307.018,335.368 328.5,347.5 Z"/></g>
<g><path style="opacity:0.999" fill="#ffffff" d="M 77.5,346.5 C 127.336,346.168 177.003,346.501 226.5,347.5C 220.256,360.328 213.256,372.662 205.5,384.5C 167.152,383.839 129.152,384.506 91.5,386.5C 85.0717,373.886 80.405,360.553 77.5,346.5 Z"/></g>
<g><path style="opacity:0.999" fill="#ffffff" d="M 432.5,348.5 C 431.432,356.106 429.432,363.439 426.5,370.5C 398.167,370.5 369.833,370.5 341.5,370.5C 341.784,372.415 341.451,374.081 340.5,375.5C 341.387,363.953 337.387,354.62 328.5,347.5C 345.663,346.833 362.997,346.5 380.5,346.5C 398.18,346.5 415.513,347.167 432.5,348.5 Z"/></g>
<g><path style="opacity:1" fill="#ffffff" d="M 304.5,362.5 C 316.78,361.424 321.28,366.758 318,378.5C 312.926,384.179 307.26,384.846 301,380.5C 296.81,373.284 297.976,367.284 304.5,362.5 Z"/></g>
<g><path style="opacity:0.999" fill="#ffffff" d="M 245.5,359.5 C 256.884,358.856 267.884,359.523 278.5,361.5C 273.805,381.945 281.139,396.112 300.5,404C 322.877,406.992 336.211,397.492 340.5,375.5C 341.451,374.081 341.784,372.415 341.5,370.5C 369.833,370.5 398.167,370.5 426.5,370.5C 421.232,385.707 413.899,399.707 404.5,412.5C 355.171,411.167 305.505,410.5 255.5,410.5C 205.43,410.502 155.43,410.836 105.5,411.5C 100.04,403.683 95.3734,395.349 91.5,386.5C 129.152,384.506 167.152,383.839 205.5,384.5C 203.749,387.422 202.749,390.589 202.5,394C 202.494,396.3 202.994,398.466 204,400.5C 209.397,405.396 215.064,405.729 221,401.5C 228.941,387.273 237.108,373.273 245.5,359.5 Z"/></g>
<g><path style="opacity:0.999" fill="#ffffff" d="M 404.5,412.5 C 400.117,419.936 394.784,426.603 388.5,432.5C 344.505,431.167 300.172,430.5 255.5,430.5C 211.167,430.667 166.833,430.833 122.5,431C 123.252,431.671 123.586,432.504 123.5,433.5C 116.554,426.941 110.554,419.608 105.5,411.5C 155.43,410.836 205.43,410.502 255.5,410.5C 305.505,410.5 355.171,411.167 404.5,412.5 Z"/></g>
<g><path style="opacity:1" fill="#ffffff" d="M 388.5,432.5 C 380.148,442.487 370.481,450.82 359.5,457.5C 290.167,456.167 220.833,456.167 151.5,457.5C 141.04,450.919 131.707,442.919 123.5,433.5C 123.586,432.504 123.252,431.671 122.5,431C 166.833,430.833 211.167,430.667 255.5,430.5C 300.172,430.5 344.505,431.167 388.5,432.5 Z"/></g>
<g><path style="opacity:1" fill="#ffffff" d="M 359.5,457.5 C 352.542,462.652 345.208,467.319 337.5,471.5C 310.508,470.167 283.175,469.5 255.5,469.5C 227.998,469.5 200.665,469.833 173.5,470.5C 165.499,467.171 158.166,462.838 151.5,457.5C 220.833,456.167 290.167,456.167 359.5,457.5 Z"/></g>
<g><path style="opacity:1" fill="#ffffff" d="M 337.5,471.5 C 290.694,493.517 242.694,496.351 193.5,480C 186.347,477.588 179.681,474.421 173.5,470.5C 200.665,469.833 227.998,469.5 255.5,469.5C 283.175,469.5 310.508,470.167 337.5,471.5 Z"/></g>
</svg>