<svg xmlns="http://www.w3.org/2000/svg" version="1.1" width="512px" height="512px" style="shape-rendering:geometricPrecision; text-rendering:geometricPrecision; image-rendering:optimizeQuality; fill-rule:evenodd; clip-rule:evenodd" xmlns:xlink="http://www.w3.org/1999/xlink" transform="rotate(0) scale(1, 1)">
<g><path style="opacity:0.655" fill="#ffffff" d="M 265.5,67.5 C 257.88,65.8457 250.213,64.3457 242.5,63C 232.822,62.4672 223.155,62.6339 213.5,63.5C 215.292,62.6909 217.292,62.1909 219.5,62C 235.419,60.1248 250.752,61.9582 265.5,67.5 Z"/></g>
<g><path style="opacity:0.999" fill="#f4f4f4" d="M 265.5,67.5 C 302.209,81.8838 324.042,108.55 331,147.5C 375.31,137.998 409.976,151.998 435,189.5C 451.055,216.906 452.388,244.906 439,273.5C 431.065,286.937 419.899,296.604 405.5,302.5C 417.142,258.926 404.809,223.759 368.5,197C 344.795,182.438 319.462,178.605 292.5,185.5C 285.295,141.79 260.295,113.957 217.5,102C 203.887,99.2144 190.22,98.8811 176.5,101C 166.11,103.574 156.11,106.908 146.5,111C 155.693,96.6408 167.36,84.8075 181.5,75.5C 191.109,68.9599 201.776,64.9599 213.5,63.5C 223.155,62.6339 232.822,62.4672 242.5,63C 250.213,64.3457 257.88,65.8457 265.5,67.5 Z"/></g>
<g><path style="opacity:0.998" fill="#ffffff" d="M 181.5,75.5 C 167.36,84.8075 155.693,96.6408 146.5,111C 156.11,106.908 166.11,103.574 176.5,101C 190.22,98.8811 203.887,99.2144 217.5,102C 260.295,113.957 285.295,141.79 292.5,185.5C 319.462,178.605 344.795,182.438 368.5,197C 404.809,223.759 417.142,258.926 405.5,302.5C 400.555,303.819 395.555,304.986 390.5,306C 300.167,306.667 209.833,306.667 119.5,306C 88.6667,299.167 69.8333,280.333 63,249.5C 58.7982,210.052 74.6315,182.219 110.5,166C 117.468,164.008 124.468,162.175 131.5,160.5C 132.778,130.448 144.445,105.281 166.5,85C 171.134,81.1877 176.134,78.021 181.5,75.5 Z"/></g>
<g><path style="opacity:1" fill="#f4f4f4" d="M 149.5,367.5 C 164.613,366.888 170.446,359.221 167,344.5C 163.742,337.649 160.242,330.982 156.5,324.5C 156.751,322.83 157.418,321.33 158.5,320C 159.449,319.383 160.282,319.549 161,320.5C 165.667,329.833 170.333,339.167 175,348.5C 177.767,361.656 172.6,369.323 159.5,371.5C 157.133,371.158 154.8,370.658 152.5,370C 151.058,369.623 150.058,368.79 149.5,367.5 Z"/></g>
<g><path style="opacity:1" fill="#f4f4f4" d="M 245.5,367.5 C 260.613,366.888 266.446,359.221 263,344.5C 259.742,337.649 256.242,330.982 252.5,324.5C 252.751,322.83 253.418,321.33 254.5,320C 255.449,319.383 256.282,319.549 257,320.5C 261.667,329.833 266.333,339.167 271,348.5C 273.767,361.656 268.6,369.323 255.5,371.5C 253.133,371.158 250.8,370.658 248.5,370C 247.058,369.623 246.058,368.79 245.5,367.5 Z"/></g>
<g><path style="opacity:1" fill="#f4f4f4" d="M 341.5,367.5 C 356.613,366.888 362.446,359.221 359,344.5C 355.742,337.649 352.242,330.982 348.5,324.5C 348.751,322.83 349.418,321.33 350.5,320C 351.449,319.383 352.282,319.549 353,320.5C 357.667,329.833 362.333,339.167 367,348.5C 369.767,361.656 364.6,369.323 351.5,371.5C 349.133,371.158 346.8,370.658 344.5,370C 343.058,369.623 342.058,368.79 341.5,367.5 Z"/></g>
<g><path style="opacity:0.967" fill="#ffffff" d="M 156.5,324.5 C 160.242,330.982 163.742,337.649 167,344.5C 170.446,359.221 164.613,366.888 149.5,367.5C 146.769,365.929 144.935,363.595 144,360.5C 143.333,356.5 143.333,352.5 144,348.5C 147.941,340.281 152.108,332.281 156.5,324.5 Z"/></g>
<g><path style="opacity:0.967" fill="#ffffff" d="M 252.5,324.5 C 256.242,330.982 259.742,337.649 263,344.5C 266.446,359.221 260.613,366.888 245.5,367.5C 242.769,365.929 240.935,363.595 240,360.5C 239.333,356.5 239.333,352.5 240,348.5C 243.941,340.281 248.108,332.281 252.5,324.5 Z"/></g>
<g><path style="opacity:0.967" fill="#ffffff" d="M 348.5,324.5 C 352.242,330.982 355.742,337.649 359,344.5C 362.446,359.221 356.613,366.888 341.5,367.5C 338.769,365.929 336.935,363.595 336,360.5C 335.333,356.5 335.333,352.5 336,348.5C 339.941,340.281 344.108,332.281 348.5,324.5 Z"/></g>
<g><path style="opacity:1" fill="#f4f4f4" d="M 197.5,444.5 C 212.51,443.813 218.343,436.146 215,421.5C 211.742,414.649 208.242,407.982 204.5,401.5C 204.877,399.742 205.544,398.075 206.5,396.5C 207.167,395.167 207.833,395.167 208.5,396.5C 213.333,406.167 218.167,415.833 223,425.5C 225.167,442 218,449.167 201.5,447C 199.934,446.392 198.6,445.558 197.5,444.5 Z"/></g>
<g><path style="opacity:1" fill="#f4f4f4" d="M 293.5,444.5 C 308.51,443.813 314.343,436.146 311,421.5C 307.742,414.649 304.242,407.982 300.5,401.5C 300.877,399.742 301.544,398.075 302.5,396.5C 303.167,395.167 303.833,395.167 304.5,396.5C 309.333,406.167 314.167,415.833 319,425.5C 321.167,442 314,449.167 297.5,447C 295.934,446.392 294.6,445.558 293.5,444.5 Z"/></g>
<g><path style="opacity:0.968" fill="#ffffff" d="M 204.5,401.5 C 208.242,407.982 211.742,414.649 215,421.5C 218.343,436.146 212.51,443.813 197.5,444.5C 194.769,442.929 192.935,440.595 192,437.5C 191.333,433.5 191.333,429.5 192,425.5C 195.941,417.281 200.108,409.281 204.5,401.5 Z"/></g>
<g><path style="opacity:0.968" fill="#ffffff" d="M 300.5,401.5 C 304.242,407.982 307.742,414.649 311,421.5C 314.343,436.146 308.51,443.813 293.5,444.5C 290.769,442.929 288.935,440.595 288,437.5C 287.333,433.5 287.333,429.5 288,425.5C 291.941,417.281 296.108,409.281 300.5,401.5 Z"/></g>
</svg>