<svg version="1.1" xmlns="http://www.w3.org/2000/svg" width="512px" height="512px" transform="rotate(0) scale(1, 1)">
<path d="M0 0 C12.7569381 10.80472516 20.19947234 25.04099976 22.7734375 41.48828125 C23.02140022 44.74135573 23.03639578 47.97134829 23.01394653 51.23269653 C23.01565538 52.16004006 23.01736423 53.08738359 23.01912487 54.04282844 C23.02239464 57.12124395 23.01145778 60.19943692 23.00048828 63.27783203 C22.99992362 65.49602758 23.00024179 67.71422349 23.00137329 69.93241882 C23.00194567 75.93373437 22.99020986 81.93496951 22.97622538 87.93626642 C22.96369894 94.21563462 22.96254601 100.49500478 22.96017456 106.77438354 C22.95467029 117.30728447 22.942189 127.84016062 22.92431641 138.37304688 C22.9059339 149.21777195 22.89178903 160.06248903 22.88330078 170.90722656 C22.88277533 171.57667333 22.88224989 172.2461201 22.88170852 172.93585314 C22.87909828 176.29456278 22.8765709 179.65327247 22.87408471 183.0119822 C22.85319552 210.83743567 22.81803053 238.66285639 22.7734375 266.48828125 C23.93903198 266.93965454 23.93903198 266.93965454 25.12817383 267.40014648 C33.85668331 270.99063719 41.00480013 278.10112907 47.7734375 284.48828125 C48.50175781 285.14054687 49.23007812 285.7928125 49.98046875 286.46484375 C70.37168177 305.49664256 83.5311575 335.06757709 84.94189453 362.79980469 C85.40541544 377.17089223 85.57480512 391.53271699 81.7734375 405.48828125 C81.48339844 406.56263428 81.48339844 406.56263428 81.1875 407.65869141 C75.34956948 428.46532805 64.58594037 445.83359595 49.7734375 461.48828125 C49.00257813 462.32359375 48.23171875 463.15890625 47.4375 464.01953125 C32.41651129 479.76969417 12.56006027 489.72755439 -8.2265625 495.48828125 C-9.41507813 495.82859375 -10.60359375 496.16890625 -11.828125 496.51953125 C-44.60564337 504.23188851 -79.89461642 496.98211162 -108.2265625 479.48828125 C-112.77840347 476.41986329 -117.0195479 473.00879556 -121.2265625 469.48828125 C-121.99613281 468.85921875 -122.76570313 468.23015625 -123.55859375 467.58203125 C-139.77036812 453.94306237 -151.83690238 434.31168511 -158.6015625 414.36328125 C-158.82811523 413.69651367 -159.05466797 413.02974609 -159.28808594 412.34277344 C-163.21805324 399.93826011 -164.7858489 387.77514465 -164.6640625 374.80078125 C-164.65950043 373.76087036 -164.65950043 373.76087036 -164.65484619 372.69995117 C-164.43142212 338.08411442 -150.93265928 307.51833547 -126.42114258 283.19897461 C-120.18323296 277.20730796 -113.46007449 272.20271004 -106.2265625 267.48828125 C-105.2365625 266.82828125 -104.2465625 266.16828125 -103.2265625 265.48828125 C-102.92891522 262.52596767 -102.82861311 259.77191239 -102.85475159 256.80683899 C-102.85092702 255.89691435 -102.84710246 254.9869897 -102.843162 254.04949158 C-102.83382991 250.98116484 -102.84589839 247.91328383 -102.85766602 244.8449707 C-102.85519956 242.65229097 -102.85136272 240.45961242 -102.84625244 238.26693726 C-102.83789322 233.53332419 -102.83874039 228.79983132 -102.84643745 224.06621742 C-102.85799917 216.5721796 -102.84587302 209.07829698 -102.82981873 201.58427429 C-102.80935509 191.06651663 -102.7965074 180.54878089 -102.79272461 170.03100586 C-102.79247974 169.3631832 -102.79223487 168.69536053 -102.79198258 168.00730082 C-102.78944188 160.57257522 -102.78886698 153.13785092 -102.78991699 145.703125 C-102.79024995 143.01554362 -102.79053538 140.32796225 -102.79077148 137.64038086 C-102.79083427 136.97731335 -102.79089706 136.31424584 -102.79096175 135.63108537 C-102.79156856 124.53758034 -102.77640378 113.44415555 -102.74993843 102.35068291 C-102.73319274 94.91177811 -102.73489947 87.47318185 -102.75076115 80.03427851 C-102.75658721 75.38567389 -102.74576458 70.73721319 -102.73051453 66.08863449 C-102.72680973 63.94539519 -102.72983371 61.80213109 -102.74038506 59.65891457 C-102.83713299 38.58850221 -99.55531477 20.55439849 -84.55419922 4.60058594 C-62.03176157 -18.09739087 -24.79059976 -19.86992785 0 0 Z M-71.4765625 22.80078125 C-82.92280571 37.14038038 -81.52902822 54.72257858 -81.54541016 72.07739258 C-81.55472161 74.34529472 -81.56489207 76.61319348 -81.57585144 78.88108826 C-81.60302823 85.00408293 -81.61826417 91.12705475 -81.63127947 97.2500937 C-81.64696416 103.66160324 -81.67373726 110.07306649 -81.6993103 116.48454285 C-81.74070666 127.2348821 -81.77532757 137.9852183 -81.8046875 148.7355957 C-81.83493021 159.80234605 -81.86930649 170.869071 -81.90917969 181.93579102 C-81.91287201 182.96118138 -81.91287201 182.96118138 -81.91663893 184.00728671 C-81.92901464 187.43710509 -81.94147096 190.86692318 -81.95396733 194.29674113 C-82.05732692 222.69388558 -82.14645261 251.09106235 -82.2265625 279.48828125 C-83.2462915 280.0186499 -84.26602051 280.54901855 -85.31665039 281.09545898 C-86.67346919 281.80818481 -88.03015142 282.52117066 -89.38671875 283.234375 C-90.05658813 283.58189819 -90.72645752 283.92942139 -91.41662598 284.28747559 C-97.27639869 287.37938744 -102.2378528 291.13206867 -107.2265625 295.48828125 C-107.8865625 296.00519531 -108.5465625 296.52210938 -109.2265625 297.0546875 C-128.45316854 312.52125164 -140.31261062 338.10110113 -143.03173828 362.30078125 C-145.33853356 388.2016405 -139.39784655 415.45989109 -122.93017578 436.11425781 C-120.17179568 439.38201809 -117.24402163 442.46083053 -114.2265625 445.48828125 C-113.38480469 446.33519531 -112.54304688 447.18210937 -111.67578125 448.0546875 C-110.86753906 448.85777344 -110.05929688 449.66085937 -109.2265625 450.48828125 C-108.25396484 451.45701172 -108.25396484 451.45701172 -107.26171875 452.4453125 C-88.07277586 470.49431819 -60.90687538 478.31743593 -35.0546875 477.73046875 C-5.40021676 476.5372012 19.46917544 462.30674434 39.46484375 440.93603516 C57.2105135 421.30323262 65.08090153 393.71138335 63.92578125 367.68652344 C62.36569114 345.17522322 53.6572486 323.44371488 38.7734375 306.48828125 C38.10957031 305.64265625 37.44570313 304.79703125 36.76171875 303.92578125 C29.21252908 294.67097898 18.50867731 287.40231326 8.04760742 281.83789062 C7.44387047 281.51487976 6.84013351 281.1918689 6.2181015 280.85906982 C4.73741825 280.06717543 3.25554602 279.27750489 1.7734375 278.48828125 C1.77197094 277.27183269 1.77050438 276.05538412 1.76899338 274.80207348 C1.7332583 245.89819453 1.6769694 216.99440416 1.59551655 188.09061955 C1.58549961 184.5297331 1.57565539 180.9688462 1.56591797 177.40795898 C1.5639766 176.69907808 1.56203522 175.99019718 1.56003502 175.25983504 C1.52905019 163.79565299 1.51204421 152.33149093 1.50024328 140.8672749 C1.48781345 129.09582572 1.46027086 117.32448114 1.41882443 105.55309802 C1.39598681 98.9446894 1.38052697 92.33639597 1.38155365 85.72794151 C1.38230011 79.50382572 1.364354 73.28003974 1.33226967 67.05600929 C1.32377326 64.77565134 1.32201895 62.49525639 1.32763481 60.21488953 C1.36361993 43.35262596 0.29871517 31.38591544 -11.8828125 18.7734375 C-21.3048528 10.04027278 -31.47718862 7.99211535 -43.88671875 8.21484375 C-55.28756848 8.71364636 -63.89487135 14.62104322 -71.4765625 22.80078125 Z " fill="#ffffff" transform="translate(266.2265625,13.51171875)"/>
<path d="M0 0 C4.36775158 3.14884416 7.96773395 6.77820184 9.6875 11.9375 C9.78138794 14.68585133 9.81780285 17.40847693 9.80775452 20.15678406 C9.80860894 21.00464267 9.80946337 21.85250128 9.81034368 22.72605258 C9.81199557 25.5773994 9.80648184 28.42868786 9.80102539 31.2800293 C9.80074343 33.31985472 9.80090143 35.35968025 9.8014679 37.39950562 C9.80175552 42.94668056 9.79586435 48.49383401 9.78889394 54.04100394 C9.78265468 59.83461127 9.78205615 65.62821906 9.78086853 71.42182922 C9.77775691 82.39714235 9.76954579 93.37244555 9.75951904 104.3477543 C9.74835267 116.8409343 9.74284613 129.33411477 9.73782361 141.82729852 C9.72736305 167.53070452 9.70976686 193.23410171 9.6875 218.9375 C10.62754883 219.24365234 11.56759766 219.54980469 12.53613281 219.86523438 C25.22162483 224.18152512 34.92709063 234.06647821 41.21484375 245.67578125 C47.79637451 260.25291172 48.8503682 275.76123973 43.6875 290.9375 C37.12870576 306.18802969 26.96695583 316.54470593 11.8125 323.25 C-2.66619129 328.54819618 -18.20327062 328.07962628 -32.3125 321.9375 C-46.80683979 314.7436966 -56.96493824 303.2546367 -62.3125 287.9375 C-66.90965026 272.54361399 -64.5315467 256.85125488 -57.10546875 242.82421875 C-50.48163045 232.15969477 -40.76059982 223.95859641 -29.3125 218.9375 C-28.6525 218.9375 -27.9925 218.9375 -27.3125 218.9375 C-27.31526538 217.87620817 -27.31803076 216.81491634 -27.32087994 215.72146416 C-27.38745436 189.90767076 -27.43676578 164.09388848 -27.46793652 138.28002739 C-27.48341079 125.79667995 -27.50451108 113.31338919 -27.53881836 100.83007812 C-27.56870348 89.95066927 -27.58807093 79.07130145 -27.59476548 68.19185269 C-27.59867922 62.4303289 -27.60788885 56.66892255 -27.62969017 50.90743637 C-27.6500412 45.48532876 -27.65633655 40.06338706 -27.65182304 34.64124489 C-27.65264886 32.65063513 -27.65862267 30.66001987 -27.67011642 28.66944313 C-27.68503879 25.95194054 -27.68145448 23.23506465 -27.67326355 20.51754761 C-27.68200207 19.72959836 -27.6907406 18.94164911 -27.69974393 18.12982261 C-27.65336996 12.4389279 -26.4864457 8.29425477 -22.59375 4.07421875 C-22.0059375 3.59597656 -21.418125 3.11773437 -20.8125 2.625 C-20.2246875 2.13386719 -19.636875 1.64273438 -19.03125 1.13671875 C-13.73908174 -2.55577137 -5.86921721 -1.8825791 0 0 Z " fill="#ffffff" transform="translate(235.3125,114.0625)"/>
<path d="M0 0 C3.8213947 1.27379823 4.15379915 2.49129893 6.1171875 5.94140625 C6.71716553 6.98699707 7.31714355 8.03258789 7.93530273 9.10986328 C8.57540283 10.2492334 9.21550293 11.38860352 9.875 12.5625 C10.55044101 13.75268078 11.22630953 14.94261903 11.90258789 16.13232422 C13.95091293 19.74608257 15.97734078 23.37183178 18 27 C18.56605957 28.0120752 19.13211914 29.02415039 19.71533203 30.06689453 C31.93409857 52.00403348 43.72696585 74.36966515 53.25 97.625 C53.67941895 98.67147705 54.10883789 99.7179541 54.55126953 100.79614258 C61.99885944 119.53490167 66.68553154 138.35313928 58.5234375 157.7265625 C50.66529572 174.19636651 39.44886599 185.09510885 22.37109375 191.84765625 C6.43862352 197.29386566 -10.18495013 196.01717189 -25.55078125 189.4921875 C-41.86163111 181.25051248 -52.15934201 168.28868926 -57.97265625 151.12890625 C-69.13217574 112.04463565 -36.18799387 64.60532745 -17.90087891 31.39990234 C-13.1625084 22.92487696 -8.24520861 14.55323517 -3.27416992 6.21289062 C-2.10042905 4.17441827 -1.0266988 2.11565841 0 0 Z " fill="#ffffff" transform="translate(433,105)"/>
<path d="M0 0 C0.66 0 1.32 0 2 0 C35.38402914 59.34592881 35.38402914 59.34592881 32.76953125 75.375 C29.95202992 84.98596902 25.6046378 92.17104488 16.91796875 97.20703125 C8.95003527 101.3905659 0.9274313 102.3032498 -7.94921875 100.3515625 C-14.55115172 98.19695676 -19.21065833 94.98227723 -24 90 C-24.763125 89.21625 -25.52625 88.4325 -26.3125 87.625 C-31.01340041 80.31248826 -32.02692472 72.55428288 -31 64 C-26.75094752 44.52517611 -14.06981486 14.06981486 0 0 Z " fill="#ffffff" transform="translate(50,182)"/>
<path d="M0 0 C3.41128193 1.13709398 3.59168228 1.51539606 5.234375 4.5078125 C5.64034912 5.24008057 6.04632324 5.97234863 6.46459961 6.72680664 C7.1008728 7.91391235 7.1008728 7.91391235 7.75 9.125 C8.19029541 9.93380615 8.63059082 10.7426123 9.08422852 11.57592773 C25.23563999 41.55964902 25.23563999 41.55964902 22.4609375 52.03515625 C20.30409452 58.37532656 17.21750347 62.99978358 11.1171875 66.20703125 C4.80821336 68.56998651 -1.97286125 68.86967767 -8.15234375 66.078125 C-13.59408133 62.90281935 -18.0668412 59.14062207 -20 53 C-22.68690563 35.31577419 -9.46446266 14.19669398 0 0 Z " fill="#ffffff" transform="translate(102,21)"/>
</svg>