<svg version="1.1" xmlns="http://www.w3.org/2000/svg" width="512px" height="512px" transform="rotate(0) scale(1, 1)">
<path d="M0 0 C0.73800539 -0.00235223 1.47601079 -0.00470446 2.23637998 -0.00712797 C4.7169149 -0.01380114 7.19739724 -0.01336026 9.67794037 -0.01294994 C11.47140441 -0.01624962 13.26486771 -0.01997541 15.05833006 -0.02409142 C19.99302263 -0.0341078 24.92770305 -0.03782764 29.86240435 -0.04048073 C35.18232013 -0.04438486 40.50222629 -0.05396314 45.82213593 -0.0626936 C58.67302465 -0.08245508 71.52391415 -0.09252389 84.37481427 -0.10142139 C90.42702362 -0.10580487 96.47923208 -0.11117153 102.53144073 -0.11641026 C122.65129922 -0.13342234 142.77115716 -0.14791638 162.89102173 -0.155159 C168.11210887 -0.15706888 173.33319601 -0.15898921 178.55428314 -0.16094494 C180.50078889 -0.16167055 180.50078889 -0.16167055 182.48661798 -0.16241082 C203.50668905 -0.17071062 224.5267032 -0.1960468 245.54674941 -0.22852562 C267.12907846 -0.26160127 288.71137859 -0.27960823 310.29373312 -0.28280324 C322.41079583 -0.28496788 334.52777554 -0.29370986 346.64481354 -0.31926441 C356.96456245 -0.34097828 367.28420821 -0.3490184 377.60397738 -0.33929763 C382.86734587 -0.33475495 388.13050153 -0.33663751 393.39384079 -0.35605907 C398.21787857 -0.37370554 403.04154851 -0.37268086 407.86559027 -0.35716178 C409.6052344 -0.35478798 411.3449041 -0.35909738 413.08450919 -0.37099043 C428.61106263 -0.47051403 441.31652192 1.91970062 453.29940033 12.50922108 C464.46656954 25.18546721 467.44239993 36.23946254 466.79109955 52.8524828 C465.8861415 64.37528653 458.36682481 74.33561175 449.87361908 81.62640858 C441.28735871 88.54359629 432.14632409 91.25359197 421.22380066 91.26844215 C420.48579527 91.27079438 419.74778987 91.27314661 418.98742068 91.27557012 C416.50688576 91.2822433 414.02640342 91.28180241 411.54586029 91.2813921 C409.75239625 91.28469177 407.95893295 91.28841756 406.1654706 91.29253358 C401.23077802 91.30254996 396.29609761 91.30626979 391.36139631 91.30892289 C386.04148053 91.31282702 380.72157437 91.3224053 375.40166473 91.33113575 C362.55077601 91.35089724 349.69988651 91.36096604 336.84898639 91.36986354 C330.79677704 91.37424702 324.74456858 91.37961368 318.69235992 91.38485241 C298.57250144 91.40186449 278.4526435 91.41635853 258.33277893 91.42360115 C253.11169179 91.42551103 247.89060465 91.42743137 242.66951752 91.42938709 C241.37184702 91.42987083 240.07417652 91.43035457 238.73718268 91.43085297 C217.71711161 91.43915277 196.69709746 91.46448896 175.67705125 91.49696777 C154.0947222 91.53004342 132.51242207 91.54805038 110.93006754 91.55124539 C98.81300483 91.55341003 86.69602512 91.56215202 74.57898712 91.58770657 C64.2592382 91.60942044 53.93959245 91.61746056 43.61982328 91.60773978 C38.35645479 91.60319711 33.09329912 91.60507967 27.82995987 91.62450123 C23.00592209 91.64214769 18.18225215 91.64112302 13.35821038 91.62560394 C11.61856626 91.62323013 9.87889656 91.62753953 8.13929147 91.63943259 C-7.38726197 91.73895618 -20.09272126 89.34874153 -32.07559967 78.75922108 C-43.24276889 66.08297494 -46.21859927 55.02897961 -45.56729889 38.41595936 C-44.66234084 26.89315562 -37.14302415 16.9328304 -28.64981842 9.64203358 C-20.06355805 2.72484586 -10.92252343 0.01485019 0 0 Z " fill="#ffffff" transform="translate(45.388099670410156,420.86577892303467)"/>
<path d="M0 0 C23.63567761 -0.09359269 47.2713273 -0.16405232 70.90715313 -0.20724869 C81.88258256 -0.22784188 92.8578966 -0.25590033 103.83325195 -0.30175781 C113.40344171 -0.34172501 122.97354787 -0.36745637 132.54381877 -0.37635398 C137.60753631 -0.38155201 142.67101475 -0.39370133 147.73465538 -0.42292023 C152.5092372 -0.45024568 157.28348339 -0.45841064 162.05813599 -0.45243073 C163.80231874 -0.45352335 165.54651374 -0.46137455 167.29062843 -0.4768219 C182.89482181 -0.60814544 195.6390656 1.72754635 207.6875 12.375 C218.85466922 25.05124614 221.8304996 36.10524147 221.17919922 52.71826172 C220.27424117 64.24106545 212.75492448 74.20139067 204.26171875 81.4921875 C195.64461681 88.43422153 186.4080032 91.16601218 175.45133972 91.12025452 C174.69977752 91.12110894 173.94821531 91.12196337 173.17387849 91.12284368 C170.66040957 91.12448826 168.14700767 91.11899386 165.63354492 91.11352539 C163.82987469 91.11324327 162.02620434 91.11340173 160.22253418 91.1139679 C155.32834819 91.11425491 150.43418669 91.10837365 145.5400064 91.10139394 C140.4244027 91.09514445 135.30879845 91.09455534 130.19319153 91.09336853 C120.50708557 91.09025993 110.82099089 91.08205287 101.1348899 91.07201904 C90.10717393 91.06084331 79.07945742 91.05534377 68.05173719 91.05032361 C45.36781854 91.03986988 22.6839099 91.02227952 0 91 C2.70689526 89.61531489 5.27233905 88.55302137 8.1875 87.6875 C19.74964097 83.91599438 27.84055866 77.47543942 34 67 C39.65269902 54.30264605 40.77207987 42.33568619 36.26953125 29.05078125 C33.46792616 22.31830871 29.42471129 16.86833065 24 12 C23.278125 11.34 22.55625 10.68 21.8125 10 C15.0209772 5.17047268 8.1731051 2.45006703 0 1 C0 0.67 0 0.34 0 0 Z " fill="#dbdbdb" transform="translate(291,421)"/>
<path d="M0 0 C9.80592735 7.16243509 17.36770997 17.06316326 20 29.0625 C21.3084855 44.02255009 19.38073186 55.98756317 10 68.0625 C1.78890938 77.35399728 -8.62634304 83.34053905 -21.09375 84.30078125 C-35.15423137 84.60714495 -46.15180131 80.99811744 -56.6875 71.6875 C-67.85466922 59.01125386 -70.8304996 47.95725853 -70.17919922 31.34423828 C-69.27424117 19.82143455 -61.75492448 9.86110933 -53.26171875 2.5703125 C-38.03495518 -9.69653911 -16.47136887 -10.536231 0 0 Z " fill="#ffffff" transform="translate(281,306.9375)"/>
<path d="M0 0 C9.80592735 7.16243509 17.36770997 17.06316326 20 29.0625 C21.3084855 44.02255009 19.38073186 55.98756317 10 68.0625 C1.78890938 77.35399728 -8.62634304 83.34053905 -21.09375 84.30078125 C-35.15423137 84.60714495 -46.15180131 80.99811744 -56.6875 71.6875 C-67.85466922 59.01125386 -70.8304996 47.95725853 -70.17919922 31.34423828 C-69.27424117 19.82143455 -61.75492448 9.86110933 -53.26171875 2.5703125 C-38.03495518 -9.69653911 -16.47136887 -10.536231 0 0 Z " fill="#ffffff" transform="translate(431,156.9375)"/>
<path d="M0 0 C9.80592735 7.16243509 17.36770997 17.06316326 20 29.0625 C21.3084855 44.02255009 19.38073186 55.98756317 10 68.0625 C1.78890938 77.35399728 -8.62634304 83.34053905 -21.09375 84.30078125 C-35.15423137 84.60714495 -46.15180131 80.99811744 -56.6875 71.6875 C-67.85466922 59.01125386 -70.8304996 47.95725853 -70.17919922 31.34423828 C-69.27424117 19.82143455 -61.75492448 9.86110933 -53.26171875 2.5703125 C-38.03495518 -9.69653911 -16.47136887 -10.536231 0 0 Z " fill="#ffffff" transform="translate(131,156.9375)"/>
<path d="M0 0 C9.80592735 7.16243509 17.36770997 17.06316326 20 29.0625 C21.3084855 44.02255009 19.38073186 55.98756317 10 68.0625 C1.78890938 77.35399728 -8.62634304 83.34053905 -21.09375 84.30078125 C-35.15423137 84.60714495 -46.15180131 80.99811744 -56.6875 71.6875 C-67.85466922 59.01125386 -70.8304996 47.95725853 -70.17919922 31.34423828 C-69.27424117 19.82143455 -61.75492448 9.86110933 -53.26171875 2.5703125 C-38.03495518 -9.69653911 -16.47136887 -10.536231 0 0 Z " fill="#ffffff" transform="translate(281,6.9375)"/>
<path d="M0 0 C10.50071257 12.12071098 12.7871089 24.21202823 12.17919922 39.71826172 C11.30984524 50.78771981 4.13606357 60.66877562 -3.66796875 68.14453125 C-14.05163048 76.40623866 -26.01756782 79.02621484 -39 78 C-47.42092368 76.72992406 -54.02947246 73.83169654 -61 69 C-61.9075 68.38125 -62.815 67.7625 -63.75 67.125 C-73.49341728 57.92288368 -78.05734615 46.33755883 -78.96484375 33.12109375 C-79.08734225 22.24594875 -75.37957151 12.6994157 -69 4 C-68.319375 3.030625 -67.63875 2.06125 -66.9375 1.0625 C-59.99259039 -7.057702 -48.80060019 -11.9526226 -38.28125 -12.93359375 C-23.64202695 -13.35973552 -10.95390655 -10.03820143 0 0 Z " fill="#ffffff" transform="translate(183,57)"/>
<path d="M0 0 C9.54064135 8.27062091 15.06178193 18.71462207 16.5 31.25 C17.15859786 43.65091575 13.89781178 54.3123838 6.625 64.3125 C5.820625 65.5190625 5.820625 65.5190625 5 66.75 C-3.04686473 75.43214353 -14.27801666 80.62593522 -26.06640625 81.515625 C-40.70549386 81.75463051 -51.70391055 77.53697632 -62.625 67.75 C-72.52015688 57.36518587 -74.86430785 44.86485571 -74.65234375 31.09765625 C-74.22617267 20.22711327 -69.01630617 11.40661653 -61.8125 3.5 C-44.34438035 -12.17651764 -19.25913492 -14.37162032 0 0 Z " fill="#ffffff" transform="translate(391.375,53.6875)"/>
<path d="M0 0 C10.46823935 7.11896331 17.30573598 16.81154935 20.04296875 29.234375 C22.18725124 42.10006994 19.84159215 53.33986553 13.10546875 64.421875 C12.42484375 65.35 11.74421875 66.278125 11.04296875 67.234375 C10.36234375 68.20375 9.68171875 69.173125 8.98046875 70.171875 C1.43703171 78.90758781 -10.21780827 83.39183333 -21.4375 84.61328125 C-35.17499606 85.0859365 -46.42144013 80.8937346 -56.64453125 71.859375 C-67.81170047 59.18312886 -70.78753085 48.12913353 -70.13623047 31.51611328 C-69.46961945 23.0281751 -65.09682113 15.8123056 -59.95703125 9.234375 C-59.47878906 8.61820312 -59.00054687 8.00203125 -58.5078125 7.3671875 C-44.4948739 -8.51649605 -17.53023949 -10.46719716 0 0 Z " fill="#ffffff" transform="translate(386.95703125,262.765625)"/>
<path d="M0 0 C2.3086964 1.43763566 4.44741489 2.97050414 6.58984375 4.64453125 C7.20601563 5.12277344 7.8221875 5.60101563 8.45703125 6.09375 C15.15288191 12.00097825 20.97827433 22.65239479 21.7668457 31.66821289 C22.22284361 47.56637115 20.05167513 59.06930101 9.21484375 71.33203125 C-1.70419374 80.95118333 -12.01115389 85.07091842 -26.6484375 84.91796875 C-37.99258012 84.09336856 -48.77755605 79.4572988 -56.73046875 71.25 C-60.75171724 66.42005024 -64.00353785 61.45097565 -66.41015625 55.64453125 C-66.80203125 54.73703125 -67.19390625 53.82953125 -67.59765625 52.89453125 C-71.13683864 38.7378017 -68.86755959 25.79888523 -61.47265625 13.39453125 C-47.0428786 -5.84517229 -21.17088321 -11.90647726 0 0 Z " fill="#ffffff" transform="translate(173.41015625,262.35546875)"/>
<path d="M0 0 C3.5677811 2.35149209 5.84221079 4.99692157 7.75 8.8125 C7.98828125 11.203125 7.98828125 11.203125 8.0625 14.0625 C8.11857422 15.46242187 8.11857422 15.46242187 8.17578125 16.890625 C7.24538572 23.27535761 2.082919 27.77378749 -2.31616211 32.15332031 C-3.21207314 33.05689774 -3.21207314 33.05689774 -4.12608337 33.97872925 C-6.08805778 35.95452525 -8.05729286 37.92288421 -10.02734375 39.890625 C-11.39992369 41.26709458 -12.77228054 42.64378666 -14.14442444 44.02069092 C-17.01500733 46.89871901 -19.88941358 49.77286229 -22.76635742 52.64453125 C-26.45131559 56.32368248 -30.12475433 60.01410263 -33.79520321 63.70772171 C-36.62355413 66.55080264 -39.45879966 69.38692843 -42.29608345 72.22109222 C-43.65359146 73.57911332 -45.00873995 74.93949733 -46.36146355 76.30228424 C-48.25203613 78.20519574 -50.1519079 80.09831703 -52.05444336 81.98925781 C-52.60992859 82.55238678 -53.16541382 83.11551575 -53.73773193 83.69570923 C-58.08875682 87.98835388 -61.12438587 89.64380047 -67.1875 90.125 C-71.17026158 90.00499212 -73.88287721 89.03174002 -77.25 86.8125 C-81.00560264 82.65088627 -82.41813949 80.12417876 -82.5625 74.5625 C-82.59988281 73.62921875 -82.63726562 72.6959375 -82.67578125 71.734375 C-81.74538572 65.34964239 -76.582919 60.85121251 -72.18383789 56.47167969 C-71.28792686 55.56810226 -71.28792686 55.56810226 -70.37391663 54.64627075 C-68.41194222 52.67047475 -66.44270714 50.70211579 -64.47265625 48.734375 C-63.10007631 47.35790542 -61.72771946 45.98121334 -60.35557556 44.60430908 C-57.48499267 41.72628099 -54.61058642 38.85213771 -51.73364258 35.98046875 C-48.04868441 32.30131752 -44.37524567 28.61089737 -40.70479679 24.91727829 C-37.87644587 22.07419736 -35.04120034 19.23807157 -32.20391655 16.40390778 C-30.84640854 15.04588668 -29.49126005 13.68550267 -28.13853645 12.32271576 C-26.24796387 10.41980426 -24.3480921 8.52668297 -22.44555664 6.63574219 C-21.89007141 6.07261322 -21.33458618 5.50948425 -20.76226807 4.92929077 C-14.6227919 -1.12780846 -8.19812906 -2.99547023 0 0 Z " fill="#dbdbdb" transform="translate(293.25,151.1875)"/>
<path d="M0 0 C3.5677811 2.35149209 5.84221079 4.99692157 7.75 8.8125 C8.27940021 14.12385952 8.41363629 18.48522741 6 23.3125 C1.96243575 27.7986825 -0.92422644 29.65999026 -7.0625 30.0625 C-11.12306094 29.99544487 -13.81188674 29.0785292 -17.25 26.8125 C-21.92177343 21.63566998 -22.5978341 18.41896502 -22.53515625 11.578125 C-22.0389048 6.7651657 -19.71185415 4.09715971 -16.1875 1 C-11.04600443 -2.15123922 -5.48396699 -2.00375717 0 0 Z " fill="#dbdbdb" transform="translate(293.25,211.1875)"/>
<path d="M0 0 C3.5677811 2.35149209 5.84221079 4.99692157 7.75 8.8125 C8.27940021 14.12385952 8.41363629 18.48522741 6 23.3125 C1.96243575 27.7986825 -0.92422644 29.65999026 -7.0625 30.0625 C-11.12306094 29.99544487 -13.81188674 29.0785292 -17.25 26.8125 C-21.92177343 21.63566998 -22.5978341 18.41896502 -22.53515625 11.578125 C-22.0389048 6.7651657 -19.71185415 4.09715971 -16.1875 1 C-11.04600443 -2.15123922 -5.48396699 -2.00375717 0 0 Z " fill="#dbdbdb" transform="translate(233.25,151.1875)"/>
</svg>