<?xml version="1.0" encoding="UTF-8"?>
<svg version="1.1" xmlns="http://www.w3.org/2000/svg" width="461" height="365">
<path d="M0 0 C152.13 0 304.26 0 461 0 C461 120.45 461 240.9 461 365 C308.87 365 156.74 365 0 365 C0 244.55 0 124.1 0 0 Z " fill="#FEFEFE" transform="translate(0,0)"/>
<path d="M0 0 C3.62011046 2.33296007 5.89022378 4.96794755 7.8125 8.8125 C7.92220197 10.29170795 7.97153009 11.77562768 7.98950195 13.25878906 C8.00233719 14.18024719 8.01517242 15.10170532 8.02839661 16.05108643 C8.03578354 17.05000916 8.04317047 18.04893188 8.05078125 19.078125 C8.058853 20.10427917 8.06692474 21.13043335 8.07524109 22.18768311 C8.08908889 24.36322334 8.09980792 26.53878536 8.10766602 28.71435547 C8.12485893 32.03525242 8.16873722 35.35514885 8.21289062 38.67578125 C8.22301919 40.78905518 8.23153478 42.90233757 8.23828125 45.015625 C8.25578934 46.00645081 8.27329742 46.99727661 8.29133606 48.01812744 C8.27273837 53.95594518 7.72846525 57.27032593 3.8125 61.8125 C-0.1058101 65.25586342 -3.80506889 66.27311757 -9.0546875 66.234375 C-12.99676118 65.45462416 -15.56727254 62.72307699 -18.1875 59.8125 C-20.3117592 56.6261112 -20.45036407 55.75059748 -20.50976562 52.08496094 C-20.52898071 51.12676453 -20.5481958 50.16856812 -20.56799316 49.18133545 C-20.5807428 47.62977753 -20.5807428 47.62977753 -20.59375 46.046875 C-20.60515015 44.98011536 -20.61655029 43.91335571 -20.6282959 42.81427002 C-20.64719764 40.55476855 -20.66026458 38.29521192 -20.66796875 36.03564453 C-20.68734996 32.58918139 -20.74937199 29.14512015 -20.8125 25.69921875 C-20.82556379 23.50261831 -20.83606328 21.30600083 -20.84375 19.109375 C-20.8684436 18.08309998 -20.89313721 17.05682495 -20.9185791 15.99945068 C-20.88130335 9.9704107 -20.09673137 6.53873204 -15.86755371 2.14190674 C-10.84411591 -1.8330805 -6.03239015 -2.24736104 0 0 Z " fill="#020202" transform="translate(183.1875,1.1875)"/>
<path d="M0 0 C4.37885656 2.27363706 7.42288793 4.80013691 10 9 C10.61797216 12.65038111 10.6081412 16.26505104 10.6015625 19.9609375 C10.61013275 21.02486725 10.618703 22.088797 10.62753296 23.18496704 C10.63900357 25.43252724 10.64003175 27.68016168 10.63134766 29.92773438 C10.62503358 33.35676583 10.67193143 36.7823335 10.72265625 40.2109375 C10.72720331 42.39843316 10.72860873 44.58593807 10.7265625 46.7734375 C10.74498199 47.79343842 10.76340149 48.81343933 10.78237915 49.86434937 C10.70370156 55.9548347 9.8385254 59.32929697 5.51278687 63.71694946 C1.95159253 66.7373302 -0.88397349 67.17355238 -5.4375 66.9375 C-10.32992951 66.25255987 -12.61410933 64.55105607 -16 61 C-17.81243831 58.02282755 -18.25782438 55.79261312 -18.29052734 52.32666016 C-18.30328705 51.40535309 -18.31604675 50.48404602 -18.32919312 49.53482056 C-18.33141876 48.5462204 -18.33364441 47.55762024 -18.3359375 46.5390625 C-18.3425943 45.51573822 -18.3492511 44.49241394 -18.35610962 43.43807983 C-18.36622899 41.27449337 -18.37092686 39.11087573 -18.37060547 36.94726562 C-18.37497486 33.64400559 -18.41129259 30.34208587 -18.44921875 27.0390625 C-18.45508785 24.93490039 -18.45905662 22.83073195 -18.4609375 20.7265625 C-18.47530853 19.7420108 -18.48967957 18.75745911 -18.50448608 17.74307251 C-18.46622777 11.97558472 -17.92427743 8.53764137 -14 4 C-9.52570125 0.13583289 -5.75448551 -1.13938813 0 0 Z " fill="#020202" transform="translate(315,0)"/>
<path d="M0 0 C0.99 0.495 0.99 0.495 2 1 C1.20318314 1.72576233 0.40636627 2.45152466 -0.41459656 3.19927979 C-8.20231412 10.32211369 -15.76426283 17.62839854 -23.20703125 25.109375 C-24.30924151 26.21345815 -25.41167855 27.31731495 -26.514328 28.42095947 C-29.36871036 31.27909866 -32.2200733 34.14023045 -35.07073975 37.0020752 C-37.99905805 39.9407576 -40.93033007 42.87649076 -43.86132812 45.8125 C-49.57705472 51.53884279 -55.28958345 57.26836194 -61 63 C-64.53239023 61.49315032 -66.7962166 59.44633388 -69.49316406 56.73388672 C-70.37377502 55.85312469 -71.25438599 54.97236267 -72.16168213 54.06491089 C-73.11310431 53.10327649 -74.06441603 52.1415328 -75.015625 51.1796875 C-75.99596129 50.19561893 -76.97674168 49.21199258 -77.95794678 48.22879028 C-80.53354467 45.64557286 -83.10307857 43.05640488 -85.67138672 40.46594238 C-88.29551067 37.8213238 -90.92533771 35.1823899 -93.5546875 32.54296875 C-98.7087167 27.36751928 -103.85635157 22.18576878 -109 17 C-105.79667031 17 -104.6533754 17.50321792 -101.86743164 18.94360352 C-101.03969742 19.367267 -100.2119632 19.79093048 -99.35914612 20.22743225 C-98.02314613 20.92116188 -98.02314613 20.92116188 -96.66015625 21.62890625 C-94.77425593 22.59082304 -92.88818287 23.55240122 -91.00195312 24.51367188 C-88.0259894 26.03893017 -85.05205698 27.56789726 -82.08129883 29.10327148 C-79.21698451 30.58063967 -76.34545783 32.04312742 -73.47265625 33.50390625 C-72.58401382 33.9684169 -71.6953714 34.43292755 -70.77980042 34.91151428 C-69.94891403 35.3320256 -69.11802765 35.75253693 -68.26196289 36.18579102 C-67.53376846 36.56107437 -66.80557404 36.93635773 -66.05531311 37.32301331 C-63.57622402 38.13958491 -62.42208801 37.89623673 -60 37 C-58.12634792 35.98019996 -56.28596598 34.89851913 -54.46875 33.78125 C-53.36080078 33.10400879 -52.25285156 32.42676758 -51.11132812 31.72900391 C-49.90748961 30.98610383 -48.70371512 30.2431 -47.5 29.5 C-46.26008725 28.73954696 -45.01984788 27.97962624 -43.77929688 27.22021484 C-41.84363535 26.03500784 -39.90831699 24.84926498 -37.97424316 23.66146851 C-33.34819336 20.82072292 -28.70937689 18.00184354 -24.0625 15.1953125 C-22.78190052 14.42122482 -21.50130156 13.64713629 -20.22070312 12.87304688 C-18.37150882 11.75543901 -16.52204574 10.63829103 -14.67163086 9.52270508 C-12.95697763 8.48846607 -11.24407653 7.45132394 -9.53125 6.4140625 C-8.55736328 5.8257666 -7.58347656 5.2374707 -6.58007812 4.63134766 C-4.29128057 3.18417267 -2.1362971 1.66149435 0 0 Z " fill="#060606" transform="translate(404,195)"/>
</svg>
