<svg version="1.1" xmlns="http://www.w3.org/2000/svg" width="461px" height="365px" transform="rotate(0) scale(1, 1)">
<path d="M0 0 C0.78773804 0.0028299 1.57547607 0.00565979 2.38708496 0.00857544 C4.87280264 0.01966081 7.3581435 0.0447424 9.84375 0.0703125 C11.54166142 0.0803574 13.23957855 0.08948059 14.9375 0.09765625 C19.07305914 0.11956179 23.20834096 0.15400924 27.34375 0.1953125 C27.3530957 0.94103516 27.36244141 1.68675781 27.37207031 2.45507812 C27.4261103 5.869134 27.50969304 9.28186905 27.59375 12.6953125 C27.60792969 13.86835937 27.62210937 15.04140625 27.63671875 16.25 C27.86134844 24.24681695 28.79099223 30.07824644 34.08984375 36.21875 C34.92708984 36.88777344 34.92708984 36.88777344 35.78125 37.5703125 C36.33683594 38.03179687 36.89242187 38.49328125 37.46484375 38.96875 C43.42479573 42.8594463 49.43049887 42.90551645 56.34375 42.1953125 C62.45861176 40.49617454 67.01796143 36.55470427 70.34375 31.1953125 C73.62028935 22.2925547 73.62028935 22.2925547 73.34375 0.1953125 C102.38375 0.1953125 131.42375 0.1953125 161.34375 0.1953125 C161.67375 8.7753125 162.00375 17.3553125 162.34375 26.1953125 C165.33775123 32.9237886 165.33775123 32.9237886 169.78125 37.5703125 C170.33683594 38.03179687 170.89242187 38.49328125 171.46484375 38.96875 C177.42479573 42.8594463 183.43049887 42.90551645 190.34375 42.1953125 C196.52970462 40.47641995 200.87218784 36.51321505 204.34375 31.1953125 C206.14255963 27.37534967 206.63345847 24.22684262 206.7578125 20.01953125 C206.79648437 18.86259766 206.83515625 17.70566406 206.875 16.51367188 C206.9059375 15.31548828 206.936875 14.11730469 206.96875 12.8828125 C207.00742187 11.66529297 207.04609375 10.44777344 207.0859375 9.19335938 C207.18003002 6.19416022 207.26567209 3.19496427 207.34375 0.1953125 C212.09019069 0.09510344 216.83599203 0.02322527 221.58325195 -0.02441406 C223.19208526 -0.04430988 224.80084842 -0.07143679 226.40942383 -0.10644531 C242.52349711 -0.447909 256.0751169 2.10385956 268.55859375 13.15625 C279.85735789 24.82368782 283.71419434 39.19139545 283.5390625 55.015625 C283.53481766 56.49263382 283.53481766 56.49263382 283.53048706 57.9994812 C283.51940195 61.10655511 283.49431991 64.21332754 283.46875 67.3203125 C283.45870509 69.44270413 283.4495819 71.56510034 283.44140625 73.6875 C283.41950099 78.85688481 283.38505328 84.02604776 283.34375 89.1953125 C279.37591686 87.90298048 275.5631204 86.45587974 271.73828125 84.78393555 C237.248304 69.85634338 198.32424335 69.17069704 163.19921875 82.7578125 C149.42161872 88.36674425 137.12801704 96.11757606 125.5625 105.421875 C125.05278687 105.83148185 124.54307375 106.2410887 124.01791477 106.66310787 C122.29490217 108.13073621 122.29490217 108.13073621 121.09087276 109.96946812 C118.41801052 113.5142175 116.33361769 115.0120405 111.91484261 115.83016777 C107.44007279 116.15249646 102.9669729 116.06173796 98.48461914 115.98999023 C96.75947144 115.98801432 95.03431786 115.98912679 93.30917358 115.99308777 C88.63773075 115.99509281 83.96755103 115.95399518 79.29640126 115.90507007 C74.4104298 115.86125314 69.52442803 115.85719441 64.63829041 115.84889221 C55.39113576 115.82715225 46.14456176 115.76973193 36.89766258 115.69944578 C26.36815762 115.62115118 15.83862464 115.58270295 5.30890095 115.54757774 C-16.3464732 115.47444792 -38.00132499 115.35135629 -59.65625 115.1953125 C-60.90385976 111.45248321 -60.36321521 109.23866626 -59.73168945 105.34399414 C-59.56598198 104.30423431 -59.56598198 104.30423431 -59.39692688 103.24346924 C-59.02860357 100.94619059 -58.64951445 98.65084555 -58.26953125 96.35546875 C-58.00829213 94.75188285 -57.74740778 93.14823913 -57.48686218 91.54454041 C-56.93762823 88.175272 -56.38285986 84.80697043 -55.82446289 81.43920898 C-55.1146524 77.1545017 -54.42026522 72.86746542 -53.73040485 68.57950687 C-53.19431499 65.26059748 -52.64888668 61.94327117 -52.10088158 58.62631035 C-51.84152403 57.04860542 -51.58518052 55.47040159 -51.33208656 53.89167976 C-49.22895057 40.81898891 -46.76850494 28.95965079 -38.65625 18.1953125 C-38.07875 17.3290625 -37.50125 16.4628125 -36.90625 15.5703125 C-27.06533659 5.18268168 -14.13922961 -0.19560425 0 0 Z " fill="#ffffff" transform="translate(126.65625,32.8046875)"/>
<path d="M0 0 C33.33730762 -0.80089628 63.3129481 12.71727492 87.4765625 35.125 C107.75875079 54.82953103 120.91191315 83.93788891 121.8125 112.19140625 C121.98605483 126.60789998 121.74088367 140.27984384 117.4765625 154.125 C117.16307861 155.15488037 117.16307861 155.15488037 116.84326172 156.20556641 C107.38326332 186.15868492 85.96277451 211.06662384 58.4140625 225.875 C36.54777271 237.22402619 14.86775593 239.42828441 -9.38696289 239.41552734 C-11.6733268 239.42152145 -13.95968869 239.42832901 -16.24604797 239.43588257 C-22.4194596 239.45345353 -28.59281568 239.45823399 -34.7662499 239.45951414 C-38.62954163 239.46094062 -42.49281945 239.46521945 -46.35610771 239.47050858 C-59.15653307 239.48802437 -71.95691394 239.49735252 -84.75734956 239.49584763 C-85.44497547 239.49576772 -86.13260139 239.4956878 -86.84106445 239.49560547 C-87.87377965 239.49548283 -87.87377965 239.49548283 -88.92735779 239.49535771 C-100.091901 239.49454429 -111.2563095 239.51370569 -122.42081375 239.5418822 C-133.91921072 239.57066988 -145.41752463 239.58405388 -156.91596025 239.58269465 C-163.35770656 239.582186 -169.79929996 239.58781691 -176.24101448 239.60905075 C-182.29784121 239.62847428 -188.35436969 239.62852926 -194.4112072 239.61401749 C-196.6262544 239.61193388 -198.8413205 239.61660335 -201.05633545 239.6287384 C-217.0501559 239.71064892 -230.03314648 238.70228571 -243.5234375 229.125 C-244.1834375 228.465 -244.8434375 227.805 -245.5234375 227.125 C-247.39850037 226.54648605 -247.39850037 226.54648605 -249.55859375 226.1953125 C-250.36401611 226.04191406 -251.16943848 225.88851562 -251.99926758 225.73046875 C-252.85286865 225.57191406 -253.70646973 225.41335938 -254.5859375 225.25 C-264.03843035 223.37553306 -271.66795228 220.88568916 -279.5234375 215.125 C-280.4928125 214.42375 -281.4621875 213.7225 -282.4609375 213 C-291.36668739 205.35648237 -296.10189741 194.53913069 -297.5234375 183.125 C-298.33611084 183.13023682 -299.14878418 183.13547363 -299.98608398 183.14086914 C-303.64436072 183.16156994 -307.30262517 183.17463803 -310.9609375 183.1875 C-312.24033203 183.19587891 -313.51972656 183.20425781 -314.83789062 183.21289062 C-316.05283203 183.21611328 -317.26777344 183.21933594 -318.51953125 183.22265625 C-320.20840454 183.23051147 -320.20840454 183.23051147 -321.93139648 183.23852539 C-324.5234375 183.125 -324.5234375 183.125 -325.5234375 182.125 C-325.5234375 178.495 -325.5234375 174.865 -325.5234375 171.125 C-309.3534375 171.125 -293.1834375 171.125 -276.5234375 171.125 C-276.5234375 173.765 -276.5234375 176.405 -276.5234375 179.125 C-274.53143336 189.77920396 -270.33567171 194.51582434 -261.5234375 201.125 C-261.5234375 191.225 -261.5234375 181.325 -261.5234375 171.125 C-256.604375 171.0940625 -256.604375 171.0940625 -251.5859375 171.0625 C-250.55090088 171.053396 -249.51586426 171.04429199 -248.44946289 171.03491211 C-247.23504517 171.03116577 -247.23504517 171.03116577 -245.99609375 171.02734375 C-245.16343994 171.02210693 -244.33078613 171.01687012 -243.47290039 171.01147461 C-241.5234375 171.125 -241.5234375 171.125 -240.5234375 172.125 C-240.40184684 173.88392368 -240.34373629 175.64731165 -240.3125 177.41015625 C-240.28414063 178.49876953 -240.25578125 179.58738281 -240.2265625 180.70898438 C-240.17509666 183.00050075 -240.1306507 185.29218719 -240.09375 187.58398438 C-239.83755474 196.67357877 -238.57564995 203.69795747 -232.26953125 210.5859375 C-227.06160271 215.17637116 -220.78844867 217.1956318 -213.93847656 217.33032227 C-213.02533691 217.35050415 -212.11219727 217.37068604 -211.17138672 217.39147949 C-210.22021973 217.40795532 -209.26905273 217.42443115 -208.2890625 217.44140625 C-206.96817627 217.46938293 -206.96817627 217.46938293 -205.62060547 217.4979248 C-202.33831599 217.56610586 -199.0558651 217.62632894 -195.7734375 217.6875 C-184.7596875 217.9040625 -184.7596875 217.9040625 -173.5234375 218.125 C-173.5234375 202.615 -173.5234375 187.105 -173.5234375 171.125 C-166.9234375 171.125 -160.3234375 171.125 -153.5234375 171.125 C-142.44292407 182.20551343 -152.5234375 202.45478764 -152.5234375 218.125 C-102.6934375 218.125 -52.8634375 218.125 -1.5234375 218.125 C-1.5234375 212.515 -1.5234375 206.905 -1.5234375 201.125 C1.4465625 201.125 4.4165625 201.125 7.4765625 201.125 C7.4765625 206.405 7.4765625 211.685 7.4765625 217.125 C35.89284364 214.33411525 60.65803629 203.19338574 79.4765625 181.125 C82.8828143 176.69429309 85.71494645 171.97603347 88.4765625 167.125 C89.03988281 166.17367187 89.60320312 165.22234375 90.18359375 164.2421875 C96.67166608 152.44867881 99.89453195 138.51170255 100.4765625 125.125 C95.5265625 124.795 90.5765625 124.465 85.4765625 124.125 C85.4765625 121.155 85.4765625 118.185 85.4765625 115.125 C93.3965625 114.63 93.3965625 114.63 101.4765625 114.125 C95.96706653 84.65163441 86.20866566 58.53881467 60.890625 40.2578125 C58.13636281 38.44048407 55.3415313 36.76212503 52.4765625 35.125 C51.44015625 34.526875 50.40375 33.92875 49.3359375 33.3125 C36.71488489 26.50300185 22.80937707 22.74816585 8.4765625 22.125 C8.1465625 27.075 7.8165625 32.025 7.4765625 37.125 C4.5065625 37.125 1.5365625 37.125 -1.5234375 37.125 C-1.8534375 32.175 -2.1834375 27.225 -2.5234375 22.125 C-24.06478175 24.39250992 -42.54633534 30.28984987 -59.5234375 44.125 C-60.78220703 45.13820313 -60.78220703 45.13820313 -62.06640625 46.171875 C-80.92326704 62.19289781 -91.39450133 85.11294041 -94.1640625 109.4296875 C-94.5234375 112.125 -94.5234375 112.125 -95.5234375 114.125 C-90.2434375 114.455 -84.9634375 114.785 -79.5234375 115.125 C-79.5234375 118.095 -79.5234375 121.065 -79.5234375 124.125 C-84.8034375 124.125 -90.0834375 124.125 -95.5234375 124.125 C-91.21398672 146.6258345 -86.12906377 169.29262548 -68.7890625 185.7734375 C-67.5234375 187.125 -67.5234375 187.125 -67.5234375 189.125 C-66.8634375 189.125 -66.2034375 189.125 -65.5234375 189.125 C-65.5234375 189.785 -65.5234375 190.445 -65.5234375 191.125 C-64.94078125 191.39828125 -64.358125 191.6715625 -63.7578125 191.953125 C-60.19368234 193.82242403 -57.17791265 196.08822272 -54.5234375 199.125 C-53.7734375 202.1875 -53.7734375 202.1875 -54.5234375 205.125 C-57.12154525 208.77858902 -58.8952389 209.94399362 -63.2109375 211.1875 C-70.05086017 211.61257994 -76.24106142 208.45578973 -81.4609375 204.25 C-103.01674679 183.82641503 -115.56549089 153.85374246 -116.74609375 124.43359375 C-117.61465264 89.9639252 -105.06577459 60.13334343 -81.5234375 35.125 C-80.98460937 34.52171875 -80.44578125 33.9184375 -79.890625 33.296875 C-59.77063669 11.66030466 -28.73759789 1.42353426 0 0 Z " fill="#ffffff" transform="translate(339.5234375,125.875)"/>
<path d="M0 0 C22.77 0 45.54 0 69 0 C69.33 15.18 69.66 30.36 70 46 C91.45 46 112.9 46 135 46 C135.33 30.82 135.66 15.64 136 0 C142.93 0 149.86 0 157 0 C157.33 15.18 157.66 30.36 158 46 C164.6 46.33 171.2 46.66 178 47 C177.0409375 51.640625 177.0409375 51.640625 176.0625 56.375 C175.86277588 57.34872559 175.66305176 58.32245117 175.45727539 59.32568359 C175.29735107 60.09219238 175.13742676 60.85870117 174.97265625 61.6484375 C174.81031494 62.43395996 174.64797363 63.21948242 174.48071289 64.02880859 C174 66 174 66 173 68 C131.75 68 90.5 68 48 68 C47.505 63.545 47.505 63.545 47 59 C46.34 61.97 45.68 64.94 45 68 C38.07 68 31.14 68 24 68 C24.60888212 60.63331029 25.46480973 53.3798701 26.62890625 46.08203125 C26.78286362 45.09877365 26.93682098 44.11551605 27.09544373 43.10246277 C27.58116369 40.00527917 28.07174157 36.9088888 28.5625 33.8125 C28.89550587 31.69471231 29.22819103 29.57687417 29.56054688 27.45898438 C30.36940365 22.30529597 31.18484569 17.15271171 32 12 C21.44 11.67 10.88 11.34 0 11 C0 7.37 0 3.74 0 0 Z " fill="#ffffff" transform="translate(30,156)"/>
<path d="M0 0 C6.6 0 13.2 0 20 0 C21 1 21 1 21.11352539 4.32641602 C21.11327435 5.80225555 21.10771514 7.27810097 21.09765625 8.75390625 C21.09664917 9.44093628 21.09564209 10.12796631 21.09460449 10.83581543 C21.08935776 13.41139384 21.07539659 15.98694853 21.0625 18.5625 C21.041875 24.316875 21.02125 30.07125 21 36 C43.11 36 65.22 36 88 36 C88 24.12 88 12.24 88 0 C92.9190625 -0.0309375 92.9190625 -0.0309375 97.9375 -0.0625 C98.97253662 -0.071604 100.00757324 -0.08070801 101.07397461 -0.09008789 C102.28839233 -0.09383423 102.28839233 -0.09383423 103.52734375 -0.09765625 C104.77632446 -0.10551147 104.77632446 -0.10551147 106.05053711 -0.11352539 C108 0 108 0 109 1 C109.08851529 3.59359322 109.11525945 6.16039691 109.09765625 8.75390625 C109.0962413 9.52935287 109.09482635 10.3047995 109.09336853 11.10374451 C109.08775345 13.59003494 109.07519846 16.0762366 109.0625 18.5625 C109.05748694 20.24413933 109.0529237 21.92578006 109.04882812 23.60742188 C109.03862832 27.73834329 109.01905605 31.86907182 109 36 C114.28 36 119.56 36 125 36 C126.36214719 40.08644157 127.58096754 44.02718884 128.625 48.1875 C128.88539063 49.21230469 129.14578125 50.23710937 129.4140625 51.29296875 C130 54 130 54 130 57 C87.1 57 44.2 57 0 57 C0 38.19 0 19.38 0 0 Z " fill="#ffffff" transform="translate(78,232)"/>
<path d="M0 0 C4.48769101 4.27399144 6.78236295 9.02251908 7.12670898 15.24438477 C7.14610746 16.97661766 7.14327429 18.70920675 7.12109375 20.44140625 C7.12254898 21.36791489 7.12400421 22.29442352 7.12550354 23.24900818 C7.12385256 25.1962297 7.11238177 27.14346536 7.09155273 29.09057617 C7.06254696 32.05769659 7.07097141 35.02303233 7.08398438 37.99023438 C7.07774726 39.89063361 7.06935652 41.79102726 7.05859375 43.69140625 C7.06152939 44.57075333 7.06446503 45.4501004 7.06748962 46.35609436 C6.96208845 53.2908559 5.81181165 58.10492058 1 63.375 C-3.18739612 66.01150867 -6.45474191 66.79202971 -11.375 66.5 C-16.65391584 64.77420059 -19.19420937 61.86222715 -22.375 57.5 C-23.30235074 54.71794779 -23.51077853 53.00031184 -23.53613281 50.1237793 C-23.54574036 49.2424382 -23.5553479 48.36109711 -23.56524658 47.45304871 C-23.56949646 46.50303482 -23.57374634 45.55302094 -23.578125 44.57421875 C-23.58382507 43.59387161 -23.58952515 42.61352448 -23.59539795 41.60346985 C-23.60484604 39.52805663 -23.61138117 37.45262842 -23.61523438 35.37719727 C-23.62493056 32.21018116 -23.65595213 29.04381665 -23.6875 25.87695312 C-23.69403121 23.85937885 -23.69928122 21.84179994 -23.703125 19.82421875 C-23.7154718 18.88027756 -23.7278186 17.93633636 -23.74053955 16.96379089 C-23.71875965 10.49899835 -22.72046997 6.21194966 -18.375 1.1875 C-13.33003335 -3.06919061 -5.72884763 -2.5461545 0 0 Z " fill="#000000" transform="translate(185.375,1.5)"/>
<path d="M0 0 C3.95222679 2.01204273 6.72762595 4.17284371 9 8 C9.86842555 10.84800926 10.13425977 13.42776475 10.16113281 16.39794922 C10.17074036 17.25919403 10.1803479 18.12043884 10.19024658 19.00778198 C10.19449646 19.9307608 10.19874634 20.85373962 10.203125 21.8046875 C10.20882507 22.76142365 10.21452515 23.71815979 10.22039795 24.70388794 C10.22983484 26.72624612 10.23637672 28.74861958 10.24023438 30.77099609 C10.24994249 33.85671921 10.28097944 36.94177678 10.3125 40.02734375 C10.3190303 41.99478772 10.32428067 43.96223645 10.328125 45.9296875 C10.3404718 46.84861786 10.3528186 47.76754822 10.36553955 48.71432495 C10.34203809 55.50805996 9.13152015 59.71622841 4.375 64.8125 C0.61025617 67.70629563 -3.32850807 68.27726481 -8 68 C-13.27483664 66.27553417 -15.86020959 63.39570657 -19 59 C-19.90671292 56.21133203 -20.13764822 53.64738416 -20.17700195 50.72558594 C-20.18983719 49.89081726 -20.20267242 49.05604858 -20.21589661 48.19598389 C-20.22328354 47.30115295 -20.23067047 46.40632202 -20.23828125 45.484375 C-20.246353 44.55457825 -20.25442474 43.62478149 -20.26274109 42.66680908 C-20.27655767 40.69992931 -20.28729065 38.73302581 -20.29516602 36.76611328 C-20.30668126 34.76246069 -20.32712581 32.75883866 -20.35668945 30.75537109 C-20.39951496 27.85232809 -20.41555609 24.9501953 -20.42578125 22.046875 C-20.44328934 21.16014099 -20.46079742 20.27340698 -20.47883606 19.35980225 C-20.45835289 13.42694692 -19.36707288 8.94915486 -16 4 C-11.22043723 -0.55196454 -6.31322899 -1.0265413 0 0 Z " fill="#000000" transform="translate(316,0)"/>
<path d="M0 0 C24.09 0 48.18 0 73 0 C72.38749149 7.96261057 71.74516624 15.57123745 70.40625 23.38671875 C70.25466431 24.29581497 70.10307861 25.20491119 69.94689941 26.14155579 C69.63024105 28.03322274 69.31085525 29.92443512 68.98876953 31.81518555 C68.49467977 34.71876501 68.01040453 37.6238642 67.52734375 40.52929688 C67.21671303 42.37769958 66.90553565 44.22601051 66.59375 46.07421875 C66.44893188 46.9418132 66.30411377 47.80940765 66.15490723 48.70329285 C65.11586893 54.76826213 65.11586893 54.76826213 64 57 C57.07 57 50.14 57 43 57 C46.11119826 34.77715531 46.11119826 34.77715531 48.08520508 23.86376953 C48.80387271 19.75998935 49 16.2302687 49 12 C24.745 11.505 24.745 11.505 0 11 C0 7.37 0 3.74 0 0 Z " fill="#ffffff" transform="translate(0,232)"/>
<path d="M0 0 C1.32 0.33 2.64 0.66 4 1 C-4.30416026 9.35041394 -12.61364978 17.69548344 -20.93006706 26.03369141 C-24.79116092 29.90524143 -28.65036467 33.77863775 -32.50537109 37.65625 C-36.22276301 41.39530501 -39.94495895 45.12951374 -43.67059708 48.86035156 C-45.09416555 50.28762757 -46.51596688 51.71666829 -47.93600082 53.14746094 C-49.9187272 55.14461533 -51.90753255 57.13551413 -53.89794922 59.125 C-54.48920593 59.72344727 -55.08046265 60.32189453 -55.68963623 60.93847656 C-59.77189568 65 -59.77189568 65 -62 65 C-63.16539358 63.59467245 -64.32639893 62.185497 -65.46618652 60.75932312 C-67.08149332 58.90652509 -68.79003873 57.37530263 -70.66601562 55.78833008 C-75.03312934 52.01620639 -79.13626852 48.02523245 -83.21875 43.94921875 C-83.96209595 43.2092012 -84.70544189 42.46918365 -85.47131348 41.70674133 C-87.02547226 40.15760633 -88.5783148 38.60714976 -90.12988281 37.05541992 C-92.51608307 34.67143184 -94.91020259 32.29558529 -97.3046875 29.91992188 C-98.81819621 28.40934283 -100.33123446 26.89829223 -101.84375 25.38671875 C-102.56236206 24.67529221 -103.28097412 23.96386566 -104.0213623 23.23088074 C-104.67624634 22.57292007 -105.33113037 21.91495941 -106.00585938 21.23706055 C-106.58573608 20.65860886 -107.16561279 20.08015717 -107.76306152 19.48417664 C-109 18 -109 18 -109 16 C-103.58346839 17.59049957 -98.79511463 20.02278867 -93.8046875 22.60546875 C-92.01976519 23.51543299 -90.2346017 24.42492427 -88.44921875 25.33398438 C-85.65076008 26.76426936 -82.85434412 28.19816856 -80.06201172 29.64038086 C-77.35657732 31.03531859 -74.64388553 32.41517903 -71.9296875 33.79296875 C-71.0942038 34.22933151 -70.25872009 34.66569427 -69.3979187 35.11528015 C-68.6167569 35.50931534 -67.83559509 35.90335052 -67.03076172 36.30932617 C-66.34714569 36.66081223 -65.66352966 37.01229828 -64.959198 37.37443542 C-62.53189591 38.14946388 -61.37175549 37.86860319 -59 37 C-56.58008238 35.69537449 -54.22916245 34.35229613 -51.875 32.9375 C-51.15070801 32.50703369 -50.42641602 32.07656738 -49.68017578 31.63305664 C-41.5678814 26.78726149 -33.53086653 21.81627718 -25.49389648 16.84692383 C-18.74153429 12.67319807 -11.97196425 8.5353616 -5.09912109 4.56225586 C-2.00460108 2.82910136 -2.00460108 2.82910136 0 0 Z " fill="#010101" transform="translate(403,194)"/>
<path d="M0 0 C3.31248187 -0.02888146 6.62493167 -0.04675799 9.9375 -0.0625 C10.88302734 -0.07087891 11.82855469 -0.07925781 12.80273438 -0.08789062 C14.15141602 -0.09272461 14.15141602 -0.09272461 15.52734375 -0.09765625 C16.77632446 -0.10551147 16.77632446 -0.10551147 18.05053711 -0.11352539 C20 0 20 0 21 1 C21.09295815 2.44289787 21.11746513 3.89029785 21.11352539 5.33618164 C21.11344986 6.2570607 21.11337433 7.17793976 21.11329651 8.12672424 C21.10813522 9.12775681 21.10297394 10.12878937 21.09765625 11.16015625 C21.0962413 12.17975937 21.09482635 13.19936249 21.09336853 14.24986267 C21.08775097 17.52077107 21.0751955 20.79161213 21.0625 24.0625 C21.05748726 26.27408756 21.05292396 28.48567618 21.04882812 30.69726562 C21.03777584 36.13153357 21.02102063 41.56576197 21 47 C20.34 47 19.68 47 19 47 C19 32.15 19 17.3 19 2 C12.73 2 6.46 2 0 2 C0 1.34 0 0.68 0 0 Z " fill="#ffffff" transform="translate(166,297)"/>
<path d="M0 0 C4.89304424 -0.02299603 9.78589979 -0.04289756 14.67895508 -0.05493164 C16.34237301 -0.05995023 18.00578656 -0.06676652 19.66918945 -0.07543945 C22.06462693 -0.08761357 24.46000591 -0.09325314 26.85546875 -0.09765625 C27.96513252 -0.10539818 27.96513252 -0.10539818 29.09721375 -0.11329651 C32.86083154 -0.11370241 36.34140381 0.09241691 40 1 C40 1.33 40 1.66 40 2 C21.19 2.495 21.19 2.495 2 3 C1.67 10.26 1.34 17.52 1 25 C0.67 25 0.34 25 0 25 C0 16.75 0 8.5 0 0 Z " fill="#ffffff" transform="translate(334,33)"/>
<path d="M0 0 C3.31248187 -0.02888146 6.62493167 -0.04675799 9.9375 -0.0625 C10.88302734 -0.07087891 11.82855469 -0.07925781 12.80273438 -0.08789062 C14.15141602 -0.09272461 14.15141602 -0.09272461 15.52734375 -0.09765625 C16.77632446 -0.10551147 16.77632446 -0.10551147 18.05053711 -0.11352539 C20 0 20 0 21 1 C21.12159066 2.75892368 21.17970121 4.52231165 21.2109375 6.28515625 C21.23929688 7.37376953 21.26765625 8.46238281 21.296875 9.58398438 C21.34834084 11.87550075 21.3927868 14.16718719 21.4296875 16.45898438 C21.66112843 24.67031584 23.06446044 30.73438851 27 38 C26.34 38 25.68 38 25 38 C25 37.34 25 36.68 25 36 C24.34 36 23.68 36 23 36 C18.38420849 28.73103699 18.51790352 22.45366809 18.75 14 C18.76804687 12.74832031 18.78609375 11.49664062 18.8046875 10.20703125 C18.8515477 7.13768806 18.92328145 4.06874205 19 1 C12.73 1 6.46 1 0 1 C0 0.67 0 0.34 0 0 Z " fill="#ffffff" transform="translate(78,297)"/>
<path d="M0 0 C11.88 0 23.76 0 36 0 C36.25 12.5 36.25 12.5 36.29785156 16.39257812 C36.55143667 24.97176261 38.24174722 29.86262083 43 37 C39.05448458 35.72037338 37.0759004 34.6225982 35 31 C34.65942383 27.79199219 34.65942383 27.79199219 34.70703125 24.046875 C34.71827026 22.23461426 34.71827026 22.23461426 34.72973633 20.38574219 C34.75704834 18.85594727 34.78436035 17.32615234 34.8125 15.75 C34.9053125 8.44875 34.9053125 8.44875 35 1 C23.45 1 11.9 1 0 1 C0 0.67 0 0.34 0 0 Z " fill="#ffffff" transform="translate(118,33)"/>
<path d="M0 0 C0.2475 0.639375 0.495 1.27875 0.75 1.9375 C1.78813195 4.19635114 1.78813195 4.19635114 4 4.5 C6 5 6 5 7.1484375 6.546875 C8.34519246 9.99440764 7.96198206 13.18472981 7.625 16.75 C7.56828125 17.44738281 7.5115625 18.14476562 7.453125 18.86328125 C7.31232128 20.57639312 7.15754028 22.28834611 7 24 C4.99135673 20.33772947 3.73135727 16.45451924 2.4375 12.5 C2.21642578 11.83613281 1.99535156 11.17226562 1.76757812 10.48828125 C-0.56660414 3.42226725 -0.56660414 3.42226725 -1 1 C-0.67 0.67 -0.34 0.34 0 0 Z " fill="#ffffff" transform="translate(432,200)"/>
<path d="M0 0 C1.0625 1.875 1.0625 1.875 2 4 C1.67 4.66 1.34 5.32 1 6 C0.34 6 -0.32 6 -1 6 C-0.87625 6.9075 -0.7525 7.815 -0.625 8.75 C-0.74875 9.8225 -0.8725 10.895 -1 12 C-3.9375 14.125 -3.9375 14.125 -7 16 C-7.95231597 18.12119128 -7.95231597 18.12119128 -8 20 C-10.475 19.01 -10.475 19.01 -13 18 C-12.01 17.34 -11.02 16.68 -10 16 C-10.99 15.67 -11.98 15.34 -13 15 C-12.46890625 14.63648437 -11.9378125 14.27296875 -11.390625 13.8984375 C-5.8516167 9.95644254 -2.199384 6.598152 0 0 Z " fill="#ffffff" transform="translate(333,59)"/>
<path d="M0 0 C2.475 0.99 2.475 0.99 5 2 C1.57289879 4.82782668 -1.92717565 7.3225484 -5.6875 9.6875 C-6.64011719 10.28949219 -7.59273438 10.89148438 -8.57421875 11.51171875 C-11 13 -11 13 -13 14 C-13.33 13.01 -13.66 12.02 -14 11 C-9.25 7 -9.25 7 -7 7 C-6.67 5.68 -6.34 4.36 -6 3 C-5.67 3.99 -5.34 4.98 -5 6 C-4.34 6 -3.68 6 -3 6 C-3 5.34 -3 4.68 -3 4 C-2.34 4 -1.68 4 -1 4 C-0.67 2.68 -0.34 1.36 0 0 Z " fill="#ffffff" transform="translate(293,155)"/>
<path d="M0 0 C0.80060349 0.00007553 1.60120697 0.00015106 2.42607117 0.00022888 C3.71527214 0.00797081 3.71527214 0.00797081 5.03051758 0.01586914 C5.91411453 0.01728409 6.79771149 0.01869904 7.70808411 0.02015686 C10.53044011 0.0257547 13.3527168 0.03830678 16.17504883 0.05102539 C18.08845914 0.05604067 20.0018707 0.06060353 21.9152832 0.06469727 C26.60606897 0.07572342 31.29679545 0.09298656 35.98754883 0.11352539 C35.98754883 0.44352539 35.98754883 0.77352539 35.98754883 1.11352539 C34.88241943 1.13858154 33.77729004 1.1636377 32.63867188 1.18945312 C28.54040839 1.28359048 24.44231189 1.3837958 20.34423828 1.48583984 C18.57018946 1.52916473 16.7960996 1.57084158 15.02197266 1.61083984 C12.47261178 1.66860159 9.92345702 1.73227902 7.37426758 1.79711914 C6.5804216 1.81383163 5.78657562 1.83054413 4.96867371 1.84776306 C1.74071806 1.93470257 -0.92996216 2.08602905 -4.01245117 3.11352539 C-4.34245117 3.77352539 -4.67245117 4.43352539 -5.01245117 5.11352539 C-6.33245117 4.45352539 -7.65245117 3.79352539 -9.01245117 3.11352539 C-6.19109459 0.29216881 -3.8221452 -0.01205724 0 0 Z " fill="#ffffff" transform="translate(117.012451171875,33.886474609375)"/>
<path d="M0 0 C0.99 0.66 1.98 1.32 3 2 C3.1875 5.125 3.1875 5.125 3 8 C2.01 8.495 2.01 8.495 1 9 C1 7.02 1 5.04 1 3 C0.34 3 -0.32 3 -1 3 C-1 3.66 -1 4.32 -1 5 C-1.66 5 -2.32 5 -3 5 C-3.33 6.32 -3.66 7.64 -4 9 C-4.66 9 -5.32 9 -6 9 C-6 9.66 -6 10.32 -6 11 C-6.66 11 -7.32 11 -8 11 C-7.62403791 8.21788056 -7.32681541 6.4120716 -5.5625 4.1875 C-4 3 -4 3 -2 3 C-1.67 2.34 -1.34 1.68 -1 1 C-0.67 0.67 -0.34 0.34 0 0 Z " fill="#ffffff" transform="translate(282,323)"/>
<path d="M0 0 C0.33 0.66 0.66 1.32 1 2 C1.66 2.33 2.32 2.66 3 3 C-0.63 6.63 -4.26 10.26 -8 14 C-8.99 12.68 -9.98 11.36 -11 10 C-9.02 9.67 -7.04 9.34 -5 9 C-5 8.01 -5 7.02 -5 6 C-4.34 6 -3.68 6 -3 6 C-2.87625 5.38125 -2.7525 4.7625 -2.625 4.125 C-2 2 -2 2 0 0 Z " fill="#ffffff" transform="translate(429,322)"/>
<path d="M0 0 C2.31 0.33 4.62 0.66 7 1 C7.28875 2.093125 7.5775 3.18625 7.875 4.3125 C8.81893204 8.04013845 8.81893204 8.04013845 11 11 C7.08149058 9.34216909 4.09708904 6.89061644 1 4 C0.125 1.6875 0.125 1.6875 0 0 Z " fill="#ffffff" transform="translate(53,332)"/>
<path d="M0 0 C3 3.57692308 3 3.57692308 3 6 C3.99 6.33 4.98 6.66 6 7 C5.01 7.495 5.01 7.495 4 8 C1.55667274 6.92481882 -0.76754523 5.80191434 -3.125 4.5625 C-3.78371094 4.22412109 -4.44242187 3.88574219 -5.12109375 3.53710938 C-6.75106547 2.69850074 -8.37601909 1.85015189 -10 1 C-10 0.67 -10 0.34 -10 0 C-2.25 -1.125 -2.25 -1.125 0 0 Z " fill="#ffffff" transform="translate(388,153)"/>
<path d="M0 0 C0.66 0 1.32 0 2 0 C2 0.66 2 1.32 2 2 C3.8871875 2.2475 3.8871875 2.2475 5.8125 2.5 C6.87404297 2.63921875 6.87404297 2.63921875 7.95703125 2.78125 C10.15471706 3.053233 10.15471706 3.053233 13 3 C12.67 3.99 12.34 4.98 12 6 C0.615 4.02 0.615 4.02 -11 2 C-11 1.67 -11 1.34 -11 1 C-10.28972656 1.01160156 -9.57945312 1.02320313 -8.84765625 1.03515625 C-7.92855469 1.04417969 -7.00945312 1.05320313 -6.0625 1.0625 C-4.68771484 1.07990234 -4.68771484 1.07990234 -3.28515625 1.09765625 C-1.03406673 1.25949049 -1.03406673 1.25949049 0 0 Z " fill="#ffffff" transform="translate(362,146)"/>
<path d="M0 0 C-0.28284018 1.77226453 -0.57660498 3.542788 -0.875 5.3125 C-1.03742188 6.29863281 -1.19984375 7.28476562 -1.3671875 8.30078125 C-2 11 -2 11 -4 14 C-4.33 9.71 -4.66 5.42 -5 1 C-2 0 -2 0 0 0 Z " fill="#ffffff" transform="translate(459,269)"/>
<path d="M0 0 C0.33 0 0.66 0 1 0 C1.26305952 8.2425317 0.60614551 15.91191011 -1 24 C-1.33 24 -1.66 24 -2 24 C-2.06058594 23.22914063 -2.12117188 22.45828125 -2.18359375 21.6640625 C-2.26738281 20.66117188 -2.35117188 19.65828125 -2.4375 18.625 C-2.51871094 17.62726563 -2.59992188 16.62953125 -2.68359375 15.6015625 C-2.84965626 13.02072387 -2.84965626 13.02072387 -4 11 C-3.34 10.34 -2.68 9.68 -2 9 C-1.34 9.33 -0.68 9.66 0 10 C0 6.7 0 3.4 0 0 Z " fill="#ffffff" transform="translate(71,233)"/>
<path d="M0 0 C0.33 0 0.66 0 1 0 C1.09336088 4.96887351 1.09977786 9.91942017 0.6875 14.875 C0.62949219 15.57367188 0.57148437 16.27234375 0.51171875 16.9921875 C-0.12824019 19.50317143 -1.35184158 21.02927975 -3 23 C-2.41993763 15.24548194 -1.37559416 7.65257723 0 0 Z " fill="#ffffff" transform="translate(60,182)"/>
<path d="M0 0 C2.67132544 0.9646453 4.78349887 1.82409283 7 3.625 C9.48753895 5.33518303 11.04397282 5.2463356 14 5 C14 5.99 14 6.98 14 8 C15.65 8.33 17.3 8.66 19 9 C14.18358043 10.60547319 10.39613276 8.18784281 6 6 C3.73859706 4.46722197 1.96902722 2.91721071 0 1 C0 0.67 0 0.34 0 0 Z " fill="#ffffff" transform="translate(256,327)"/>
<path d="M0 0 C-1.93270582 1.93270582 -5.38641388 1.62663055 -8 2 C-8.33 2.33 -8.66 2.66 -9 3 C-10.68608966 3.07205511 -12.37500659 3.08386068 -14.0625 3.0625 C-14.98160156 3.05347656 -15.90070313 3.04445313 -16.84765625 3.03515625 C-17.55792969 3.02355469 -18.26820313 3.01195312 -19 3 C-19 2.34 -19 1.68 -19 1 C-16.58440932 0.63645961 -14.16805703 0.28389449 -11.75 -0.0625 C-11.06808594 -0.16626953 -10.38617188 -0.27003906 -9.68359375 -0.37695312 C-6.2150075 -0.86524925 -3.33088887 -1.22762141 0 0 Z " fill="#ffffff" transform="translate(367,342)"/>
<path d="M0 0 C0 0.33 0 0.66 0 1 C-0.83144531 1.12117187 -1.66289062 1.24234375 -2.51953125 1.3671875 C-3.60621094 1.53476563 -4.69289063 1.70234375 -5.8125 1.875 C-6.89144531 2.03742188 -7.97039062 2.19984375 -9.08203125 2.3671875 C-12.17321793 2.85132338 -12.17321793 2.85132338 -15 5 C-17.73990408 4.96856707 -20.28417854 4.44521663 -23 4 C-23 3.67 -23 3.34 -23 3 C-7.25512528 -0.44419134 -7.25512528 -0.44419134 0 0 Z " fill="#ffffff" transform="translate(334,127)"/>
<path d="M0 0 C0.66 1.32 1.32 2.64 2 4 C1.67 4.66 1.34 5.32 1 6 C-0.66500443 6.34153937 -2.33178677 6.67449498 -4 7 C-4.66 7.66 -5.32 8.32 -6 9 C-6.99 8.67 -7.98 8.34 -9 8 C-6.03 5.36 -3.06 2.72 0 0 Z " fill="#ffffff" transform="translate(410,316)"/>
<path d="M0 0 C1.65 0 3.3 0 5 0 C4.04578192 1.14926266 3.08647955 2.29430541 2.125 3.4375 C1.59132812 4.07558594 1.05765625 4.71367187 0.5078125 5.37109375 C-1 7 -1 7 -3 8 C-3 7.01 -3 6.02 -3 5 C-3.66 4.67 -4.32 4.34 -5 4 C-4.360625 3.71125 -3.72125 3.4225 -3.0625 3.125 C-0.84793921 2.17176549 -0.84793921 2.17176549 0 0 Z " fill="#ffffff" transform="translate(246,138)"/>
<path d="M0 0 C0.66 0.99 1.32 1.98 2 3 C0.97159885 7.01076447 -0.95987596 9.26388836 -4 12 C-3.67 9.03 -3.34 6.06 -3 3 C-2.01 2.67 -1.02 2.34 0 2 C0 1.34 0 0.68 0 0 Z " fill="#ffffff" transform="translate(77,94)"/>
<path d="M0 0 C1.35439668 2.70879335 1.06501451 5.00933268 1 8 C0.360625 8.268125 -0.27875 8.53625 -0.9375 8.8125 C-3.33131686 9.88667752 -3.33131686 9.88667752 -4 13 C-4.66 13 -5.32 13 -6 13 C-4.58707905 8.1725201 -2.57025846 4.2837641 0 0 Z " fill="#ffffff" transform="translate(239,186)"/>
<path d="M0 0 C2.51083114 1.25541557 2.87125446 2.50063488 4 5 C4.33 5 4.66 5 5 5 C4.67 7.64 4.34 10.28 4 13 C1.99706653 9.99559979 1.50728374 8.29006055 0.875 4.8125 C0.70742187 3.91144531 0.53984375 3.01039063 0.3671875 2.08203125 C0.24601563 1.39496094 0.12484375 0.70789063 0 0 Z " fill="#ffffff" transform="translate(227,274)"/>
<path d="M0 0 C2.16874252 0.50603992 3.99967627 0.99983813 6 2 C6 2.66 6 3.32 6 4 C6.66 4.33 7.32 4.66 8 5 C5.03 4.67 2.06 4.34 -1 4 C-0.67 2.68 -0.34 1.36 0 0 Z " fill="#ffffff" transform="translate(79,346)"/>
<path d="M0 0 C0.66 0.33 1.32 0.66 2 1 C1.34 2.32 0.68 3.64 0 5 C-0.66 5 -1.32 5 -2 5 C-2 5.66 -2 6.32 -2 7 C-2.99 6.67 -3.98 6.34 -5 6 C-4.34 6 -3.68 6 -3 6 C-3 5.34 -3 4.68 -3 4 C-4.65 4 -6.3 4 -8 4 C-5.31143836 2.20762558 -3.0466145 1.01553817 0 0 Z " fill="#ffffff" transform="translate(382,335)"/>
<path d="M0 0 C-0.66 1.98 -1.32 3.96 -2 6 C-1.34 6 -0.68 6 0 6 C-0.33 6.99 -0.66 7.98 -1 9 C-2.65 7.02 -4.3 5.04 -6 3 C-2.25 0 -2.25 0 0 0 Z " fill="#ffffff" transform="translate(253,314)"/>
<path d="M0 0 C2.6635969 0.35994553 4.58183452 0.71161002 6.8125 2.25 C8.39364795 4.58011277 8.22337696 6.24501755 8 9 C5.06799526 6.14723863 2.35684596 3.34920216 0 0 Z " fill="#ffffff" transform="translate(413,176)"/>
<path d="M0 0 C2.56296049 1.28148025 2.59318218 2.15611519 3.5 4.8125 C4.50524206 7.65473263 5.56038505 10.34224933 7 13 C6.34 13 5.68 13 5 13 C5 12.34 5 11.68 5 11 C4.34 11 3.68 11 3 11 C0 4.5 0 4.5 0 0 Z " fill="#ffffff" transform="translate(98,322)"/>
<path d="M0 0 C3 1 3 1 4.203125 3.1796875 C4.54859375 4.06914062 4.8940625 4.95859375 5.25 5.875 C5.60578125 6.75929688 5.9615625 7.64359375 6.328125 8.5546875 C7 11 7 11 6 14 C4.99515796 12.04414675 3.99626195 10.08523763 3 8.125 C2.1646875 6.48917969 2.1646875 6.48917969 1.3125 4.8203125 C0 2 0 2 0 0 Z " fill="#ffffff" transform="translate(233,292)"/>
<path d="M0 0 C1.65 0 3.3 0 5 0 C1.63576723 2.96052484 -1.69159287 3.92289822 -6 5 C-6.33 4.01 -6.66 3.02 -7 2 C-4.69 2 -2.38 2 0 2 C0 1.34 0 0.68 0 0 Z " fill="#ffffff" transform="translate(388,353)"/>
<path d="M0 0 C-4.95 2.475 -4.95 2.475 -10 5 C-10 4.34 -10 3.68 -10 3 C-9.34 3 -8.68 3 -8 3 C-7.67 2.01 -7.34 1.02 -7 0 C-4 -1 -4 -1 0 0 Z " fill="#ffffff" transform="translate(404,348)"/>
<path d="M0 0 C0.33 0 0.66 0 1 0 C1.33 2.97 1.66 5.94 2 9 C0.35 9 -1.3 9 -3 9 C-2.67 7.68 -2.34 6.36 -2 5 C-1.34 5 -0.68 5 0 5 C0 3.35 0 1.7 0 0 Z " fill="#ffffff" transform="translate(245,261)"/>
<path d="M0 0 C-2.64 1.98 -5.28 3.96 -8 6 C-8 4.35 -8 2.7 -8 1 C-4.59449725 -1.06762667 -4.18836538 -1.04709135 0 0 Z " fill="#ffffff" transform="translate(260,132)"/>
<path d="M0 0 C-0.639375 0.28875 -1.27875 0.5775 -1.9375 0.875 C-4.15206079 1.82823451 -4.15206079 1.82823451 -5 4 C-6.32 3.34 -7.64 2.68 -9 2 C-5.945634 -1.054366 -3.9532319 -1.22686507 0 0 Z " fill="#ffffff" transform="translate(117,35)"/>
<path d="M0 0 C1.5 1.3125 1.5 1.3125 3 3 C3 3.99 3 4.98 3 6 C2.01 6.495 2.01 6.495 1 7 C0.67 6.34 0.34 5.68 0 5 C-0.99 4.34 -1.98 3.68 -3 3 C-2.01 2.01 -1.02 1.02 0 0 Z " fill="#ffffff" transform="translate(259,160)"/>
<path d="M0 0 C1.04478472 3.39555034 1.30152754 6.45705143 1 10 C-0.515625 11.68359375 -0.515625 11.68359375 -2 13 C-1.85851011 11.3954444 -1.71164314 9.79136233 -1.5625 8.1875 C-1.48128906 7.29417969 -1.40007812 6.40085938 -1.31640625 5.48046875 C-1 3 -1 3 0 0 Z " fill="#ffffff" transform="translate(227,214)"/>
<path d="M0 0 C0.99 0.33 1.98 0.66 3 1 C1.02 5.455 1.02 5.455 -1 10 C-2.10191901 5.59232396 -1.58706842 4.1077065 0 0 Z " fill="#ffffff" transform="translate(253,198)"/>
<path d="M0 0 C0.28875 0.639375 0.5775 1.27875 0.875 1.9375 C1.82823451 4.15206079 1.82823451 4.15206079 4 5 C3.67 6.65 3.34 8.3 3 10 C0.3144406 7.3144406 -0.06049974 4.62378672 -1 1 C-0.67 0.67 -0.34 0.34 0 0 Z " fill="#ffffff" transform="translate(432,200)"/>
<path d="M0 0 C-0.639375 0.103125 -1.27875 0.20625 -1.9375 0.3125 C-2.618125 0.539375 -3.29875 0.76625 -4 1 C-4.33 1.99 -4.66 2.98 -5 4 C-7.97 3.505 -7.97 3.505 -11 3 C-3.71428571 -1.85714286 -3.71428571 -1.85714286 0 0 Z " fill="#ffffff" transform="translate(310,132)"/>
<path d="M0 0 C0.66 0.33 1.32 0.66 2 1 C1.01 3.31 0.02 5.62 -1 8 C-1.33 7.34 -1.66 6.68 -2 6 C-2.99 5.67 -3.98 5.34 -5 5 C-3.35 3.35 -1.7 1.7 0 0 Z " fill="#ffffff" transform="translate(196,66)"/>
<path d="M0 0 C0.33 0 0.66 0 1 0 C1 6.27 1 12.54 1 19 C0.67 19 0.34 19 0 19 C0 12.73 0 6.46 0 0 Z " fill="#000000" transform="translate(327,35)"/>
<path d="M0 0 C2.31 1.65 4.62 3.3 7 5 C4 6 4 6 1 6 C0.67 4.02 0.34 2.04 0 0 Z " fill="#ffffff" transform="translate(105,335)"/>
<path d="M0 0 C0 2.31 0 4.62 0 7 C-0.66 7 -1.32 7 -2 7 C-2.33 6.34 -2.66 5.68 -3 5 C-3.66 4.67 -4.32 4.34 -5 4 C-1.125 0 -1.125 0 0 0 Z " fill="#ffffff" transform="translate(420,307)"/>
<path d="M0 0 C0.33 0.66 0.66 1.32 1 2 C-0.32 3.65 -1.64 5.3 -3 7 C-4.125 3.25 -4.125 3.25 -3 1 C-2.01 0.67 -1.02 0.34 0 0 Z " fill="#ffffff" transform="translate(448,298)"/>
<path d="M0 0 C0.99 0 1.98 0 3 0 C2.34 2.97 1.68 5.94 1 9 C-1.08954032 4.82091936 -1.16552619 4.19589427 0 0 Z " fill="#ffffff" transform="translate(205,203)"/>
<path d="M0 0 C3.63 0.66 7.26 1.32 11 2 C11 2.33 11 2.66 11 3 C5.375 4.125 5.375 4.125 2 3 C2 2.34 2 1.68 2 1 C1.34 0.67 0.68 0.34 0 0 Z " fill="#ffffff" transform="translate(362,128)"/>
<path d="M0 0 C1.65 0 3.3 0 5 0 C2.14693203 2.32472205 -0.54074837 3.7508258 -4 5 C-4.33 4.34 -4.66 3.68 -5 3 C-3.35 2.67 -1.7 2.34 0 2 C0 1.34 0 0.68 0 0 Z " fill="#ffffff" transform="translate(270,122)"/>
<path d="M0 0 C1.67542976 0.28604898 3.34385343 0.61781233 5 1 C3.68 2.32 2.36 3.64 1 5 C0.34 3.68 -0.32 2.36 -1 1 C-0.67 0.67 -0.34 0.34 0 0 Z " fill="#ffffff" transform="translate(411,338)"/>
<path d="M0 0 C1.485 0.99 1.485 0.99 3 2 C3.1875 5.125 3.1875 5.125 3 8 C2.01 8.495 2.01 8.495 1 9 C0.67 6.03 0.34 3.06 0 0 Z " fill="#ffffff" transform="translate(282,323)"/>
<path d="M0 0 C1.7074998 1.28062485 3.37373596 2.61767557 5 4 C5 4.66 5 5.32 5 6 C4.01 6.33 3.02 6.66 2 7 C1.34 4.69 0.68 2.38 0 0 Z " fill="#ffffff" transform="translate(267,309)"/>
<path d="M0 0 C1.32 0 2.64 0 4 0 C4.33 2.31 4.66 4.62 5 7 C2.47411298 4.63707344 1.11179163 3.33537489 0 0 Z " fill="#ffffff" transform="translate(240,306)"/>
<path d="M0 0 C-0.33 0.66 -0.66 1.32 -1 2 C-3.64 1.67 -6.28 1.34 -9 1 C-5.64919071 -1.10976881 -3.77897651 -1.0497157 0 0 Z " fill="#ffffff" transform="translate(377,107)"/>
<path d="M0 0 C0.33 0.99 0.66 1.98 1 3 C-0.98 3.99 -0.98 3.99 -3 5 C-3 5.99 -3 6.98 -3 8 C-3.66 8 -4.32 8 -5 8 C-3.8141763 4.62496331 -2.72426311 2.35277269 0 0 Z " fill="#ffffff" transform="translate(90,49)"/>
<path d="" fill="#ffffff" transform="translate(0,0)"/>
<path d="M0 0 C2 1 2 1 2 1 Z " fill="#000000" transform="translate(314,68)"/>
<path d="" fill="#000000" transform="translate(0,0)"/>
<path d="" fill="#ffffff" transform="translate(0,0)"/>
<path d="" fill="#000000" transform="translate(0,0)"/>
<path d="" fill="#ffffff" transform="translate(0,0)"/>
<path d="" fill="#000000" transform="translate(0,0)"/>
<path d="" fill="#000000" transform="translate(0,0)"/>
<path d="" fill="#000000" transform="translate(0,0)"/>
<path d="" fill="#000000" transform="translate(0,0)"/>
<path d="" fill="#000000" transform="translate(0,0)"/>
<path d="" fill="#000000" transform="translate(0,0)"/>
<path d="" fill="#000000" transform="translate(0,0)"/>
<path d="" fill="#000000" transform="translate(0,0)"/>
<path d="" fill="#000000" transform="translate(0,0)"/>
<path d="" fill="#000000" transform="translate(0,0)"/>
<path d="" fill="#000000" transform="translate(0,0)"/>
<path d="" fill="#000000" transform="translate(0,0)"/>
<path d="" fill="#000000" transform="translate(0,0)"/>
<path d="" fill="#000000" transform="translate(0,0)"/>
</svg>