<svg version="1.0" xmlns="http://www.w3.org/2000/svg" width="512.000000ptpx" height="512.000000ptpx" viewBox="0 0 512.000000 512.000000" preserveAspectRatio="xMidYMid meet" transform="rotate(0) scale(1, 1)">

<g transform="translate(0.000000,512.000000) scale(0.100000,-0.100000)" fill="#ffffff" stroke="none">
<path d="M2442 5041 c-48 -43 -161 -154 -252 -247 -711 -728 -1207 -1370&#10;-1480 -1914 -164 -328 -230 -560 -230 -812 0 -462 164 -925 458 -1290 437&#10;-541 1130 -835 1813 -768 856 84 1580 683 1810 1499 68 241 97 546 70 731 -92&#10;628 -683 1513 -1711 2564 -96 98 -210 210 -253 247 -104 93 -111 92 -225 -10z&#10;m334 -353 c720 -730 1246 -1411 1498 -1940 160 -335 208 -565 177 -853 -90&#10;-839 -694 -1506 -1514 -1675 -531 -109 -1093 20 -1528 351 -341 259 -591 639&#10;-694 1056 -65 261 -71 527 -17 733 134 507 583 1184 1320 1988 137 149 532&#10;552 542 552 3 0 101 -96 216 -212z"/>
<path d="M1414 3120 c-56 -22 -54 7 -54 -772 l0 -717 23 -26 c13 -15 37 -28&#10;59 -32 32 -5 41 -1 68 25 l30 30 0 316 0 316 280 0 280 0 0 -314 c0 -312 0&#10;-315 23 -341 13 -15 37 -28 59 -32 32 -5 41 -1 68 25 l30 30 0 722 0 722 -30&#10;30 c-27 26 -36 30 -68 25 -22 -4 -46 -17 -59 -32 -23 -26 -23 -29 -23 -341 l0&#10;-314 -280 0 -280 0 0 316 0 316 -29 29 c-30 29 -58 35 -97 19z"/>
<path d="M2996 3115 c-61 -23 -102 -60 -130 -118 l-26 -53 2 -605 3 -606 30&#10;-49 c19 -30 49 -60 79 -79 l49 -30 261 -3 c324 -4 349 0 421 72 32 32 55 66&#10;63 92 17 57 17 1169 0 1225 -15 51 -69 114 -122 142 -39 21 -53 22 -316 24&#10;-221 2 -283 -1 -314 -12z m568 -197 c14 -20 16 -91 16 -569 0 -524 -1 -548&#10;-19 -570 l-19 -24 -247 0 c-233 0 -247 1 -261 19 -12 17 -14 111 -14 574 0&#10;362 4 560 10 573 10 18 24 19 265 19 251 0 254 0 269 -22z"/>
<path d="M2335 1606 c-38 -38 -46 -162 -12 -207 17 -22 51 -39 80 -39 32 0 73&#10;33 81 65 5 21 12 25 41 25 66 0 48 -33 -90 -165 -121 -116 -125 -121 -125&#10;-162 0 -34 6 -46 32 -68 l31 -26 159 3 160 3 24 28 c46 53 25 125 -42 147&#10;l-35 12 50 53 51 54 0 124 c0 121 -1 125 -26 151 -27 26 -27 26 -191 26 -159&#10;0 -165 -1 -188 -24z"/>
</g>
</svg>