<?xml version="1.0" encoding="UTF-8"?>
<svg version="1.1" xmlns="http://www.w3.org/2000/svg" width="64" height="64">
<path d="M0 0 C21.12 0 42.24 0 64 0 C64 21.12 64 42.24 64 64 C42.88 64 21.76 64 0 64 C0 42.88 0 21.76 0 0 Z " fill="#010101" transform="translate(0,0)"/>
<path d="M0 0 C0.66 0 1.32 0 2 0 C5.60605385 11.26316395 8.8961747 22.58848911 12 34 C12.30292969 33.27296875 12.60585938 32.5459375 12.91796875 31.796875 C15.9453125 24.53125 18.97265625 17.265625 22 10 C22.66 10 23.32 10 24 10 C25.98 14.95 27.96 19.9 30 25 C31.32 24.34 32.64 23.68 34 23 C36.75 23.375 36.75 23.375 39 24 C39.6875 26.25 39.6875 26.25 40 29 C38.5625 31.3125 38.5625 31.3125 37 33 C39.60943058 31.9354148 39.60943058 31.9354148 42 30 C42.75 27 42.75 27 42 24 C39.73599988 21.73599988 38.05224368 21.01741456 35 20 C35 18.02 35 16.04 35 14 C40.2688427 14.41324256 43.22944438 15.22944438 47 19 C49.52470277 22.48649431 49.36226929 25.79767625 49 30 C47.42189381 34.1030761 45.94008031 36.92051317 42 39 C38.25 39.6875 38.25 39.6875 35 40 C35 39.34 35 38.68 35 38 C36.8871875 37.4121875 36.8871875 37.4121875 38.8125 36.8125 C41.70164663 35.71309022 42.90062548 35.11179633 45 32.75 C46.2971258 29.18290405 46.53856082 26.76992575 46 23 C43.40092405 19.75115506 40.86002281 17.57260188 37 16 C37 16.66 37 17.32 37 18 C37.763125 18.2475 38.52625 18.495 39.3125 18.75 C42.34813868 20.16192497 43.44504874 21.05377656 45 24 C45.56262515 27.77762603 45.29466967 29.48999479 43.375 32.8125 C40.55839511 35.40674134 38.7652358 35.74327938 35 36 C35 33.69 35 31.38 35 29 C35.66 28.67 36.32 28.34 37 28 C37 27.34 37 26.68 37 26 C36.34 26 35.68 26 35 26 C34.67 26.66 34.34 27.32 34 28 C32.02 28 30.04 28 28 28 C27.32942113 26.2097939 26.6636531 24.41778511 26 22.625 C25.62875 21.62726562 25.2575 20.62953125 24.875 19.6015625 C24 17 24 17 24 15 C23.34 15 22.68 15 22 15 C21.85304687 15.53625 21.70609375 16.0725 21.5546875 16.625 C19.17840052 24.92834761 16.08909366 32.94236411 13 41 C12.34 41 11.68 41 11 41 C8.51454223 33.91852813 6.29674337 26.78154819 4.25 19.5625 C4.02739502 18.79373535 3.80479004 18.0249707 3.57543945 17.23291016 C2.50366268 13.39402354 1.71167929 10.02848108 2 6 C1.34 6 0.68 6 0 6 C-0.2475 7.216875 -0.495 8.43375 -0.75 9.6875 C-2.12037065 15.90381903 -4.0701587 21.93879942 -6 28 C-7.98 28 -9.96 28 -12 28 C-12 27.34 -12 26.68 -12 26 C-11.37891357 25.9393335 -10.75782715 25.87866699 -10.11791992 25.81616211 C-7.78698469 25.19279213 -7.78698469 25.19279213 -6.91918945 22.80688477 C-6.65323975 21.86127686 -6.38729004 20.91566895 -6.11328125 19.94140625 C-5.81486328 18.91595703 -5.51644531 17.89050781 -5.20898438 16.83398438 C-4.91314453 15.75439453 -4.61730469 14.67480469 -4.3125 13.5625 C-3.70546272 11.43850583 -3.09743875 9.31479332 -2.48828125 7.19140625 C-2.22571533 6.24467041 -1.96314941 5.29793457 -1.69262695 4.32250977 C-1 2 -1 2 0 0 Z " fill="#E0E0E0" transform="translate(14,11)"/>
<path d="M0 0 C0.66 0 1.32 0 2 0 C3.45530395 4.59255754 4.89430515 9.18971779 6.31542969 13.79296875 C6.75445826 15.20838184 7.19746595 16.6225704 7.64550781 18.03515625 C8.2343256 19.89458086 8.80504902 21.75970588 9.375 23.625 C9.71273438 24.71039063 10.05046875 25.79578125 10.3984375 26.9140625 C11.05374939 30.2757274 10.76664537 32.68450769 10 36 C9.67 36 9.34 36 9 36 C8.01433257 32.31420663 7.03764451 28.6260901 6.0625 24.9375 C5.78470703 23.89916016 5.50691406 22.86082031 5.22070312 21.79101562 C3.83528831 16.53311601 2.60580604 11.40624379 2 6 C1.34 6 0.68 6 0 6 C-0.2475 7.216875 -0.495 8.43375 -0.75 9.6875 C-2.12037065 15.90381903 -4.0701587 21.93879942 -6 28 C-7.98 28 -9.96 28 -12 28 C-12 27.34 -12 26.68 -12 26 C-11.37891357 25.9393335 -10.75782715 25.87866699 -10.11791992 25.81616211 C-7.78698469 25.19279213 -7.78698469 25.19279213 -6.91918945 22.80688477 C-6.65323975 21.86127686 -6.38729004 20.91566895 -6.11328125 19.94140625 C-5.81486328 18.91595703 -5.51644531 17.89050781 -5.20898438 16.83398438 C-4.91314453 15.75439453 -4.61730469 14.67480469 -4.3125 13.5625 C-3.70546272 11.43850583 -3.09743875 9.31479332 -2.48828125 7.19140625 C-2.22571533 6.24467041 -1.96314941 5.29793457 -1.69262695 4.32250977 C-1 2 -1 2 0 0 Z " fill="#D9D9D9" transform="translate(14,11)"/>
<path d="M0 0 C1.67542976 0.28604898 3.34385343 0.61781233 5 1 C6.06351675 4.38391693 6.21442982 5.5804634 4.5625 8.8125 C4.046875 9.534375 3.53125 10.25625 3 11 C3.99 11.33 4.98 11.66 6 12 C4.35 12.33 2.7 12.66 1 13 C1 10.69 1 8.38 1 6 C1.66 5.67 2.32 5.34 3 5 C3 4.34 3 3.68 3 3 C2.34 3 1.68 3 1 3 C0.67 3.66 0.34 4.32 0 5 C-1.98 5 -3.96 5 -6 5 C-6 4.01 -6 3.02 -6 2 C-4.7934375 1.7834375 -4.7934375 1.7834375 -3.5625 1.5625 C-1.07896294 1.25864751 -1.07896294 1.25864751 0 0 Z " fill="#E6E6E6" transform="translate(48,34)"/>
<path d="M0 0 C3.51718971 0.87929743 5.68703734 1.71174492 8.375 4.1875 C10.47374052 7.81993552 10.58141509 9.85741745 10 14 C6.92307692 19.53846154 6.92307692 19.53846154 4 21 C3.34 20.34 2.68 19.68 2 19 C2.825 18.29875 3.65 17.5975 4.5 16.875 C7.2056249 14.23623861 7.2056249 14.23623861 7.625 11 C6.79930566 7.03666717 5.06558569 5.55465474 2 3 C1.34 2.67 0.68 2.34 0 2 C0 1.34 0 0.68 0 0 Z " fill="#1E1E1E" transform="translate(51,27)"/>
<path d="M0 0 C2.1758058 3.2637087 3.07963886 6.05697073 4.1875 9.8125 C4.55230469 11.01519531 4.91710937 12.21789062 5.29296875 13.45703125 C6.01190644 17.05966375 5.85170138 19.45757325 5 23 C4.67 23 4.34 23 4 23 C3.13200283 20.10767725 2.2803444 17.21215302 1.4375 14.3125 C1.19064453 13.49587891 0.94378906 12.67925781 0.68945312 11.83789062 C-1.47053761 4.32355667 -1.47053761 4.32355667 0 0 Z " fill="#C7C7C7" transform="translate(19,24)"/>
<path d="M0 0 C3.87187551 1.25574341 6.06837517 2.34007927 8 6 C8.5 8.9375 8.5 8.9375 8 12 C5.5 14.875 5.5 14.875 3 17 C2.01 16.34 1.02 15.68 0 15 C0.825 14.62875 1.65 14.2575 2.5 13.875 C5.2816463 12.21473097 5.2816463 12.21473097 5.625 9.125 C4.82027857 5.10139285 3.03490723 3.65554383 0 1 C0 0.67 0 0.34 0 0 Z " fill="#D7D7D7" transform="translate(51,29)"/>
<path d="M0 0 C0.66 0.99 1.32 1.98 2 3 C-0.64834899 6.72730598 -2.54344592 8.77444763 -7 10 C-8.32 10 -9.64 10 -11 10 C-11 9.34 -11 8.68 -11 8 C-9.741875 7.608125 -8.48375 7.21625 -7.1875 6.8125 C-3.98017438 5.63175004 -3.12072078 5.16221855 -1 2.3125 C-0.505 1.1678125 -0.505 1.1678125 0 0 Z " fill="#D6D6D6" transform="translate(60,41)"/>
<path d="M0 0 C2.31 0.33 4.62 0.66 7 1 C7 1.66 7 2.32 7 3 C5.35 2.67 3.7 2.34 2 2 C2.33 3.32 2.66 4.64 3 6 C2.01 6 1.02 6 0 6 C0 4.02 0 2.04 0 0 Z " fill="#EFEFEF" transform="translate(49,25)"/>
<path d="M0 0 C2.62187494 1.04874998 3.79371361 1.64931313 5.25 4.125 C5.4975 4.74375 5.745 5.3625 6 6 C5.01 6 4.02 6 3 6 C0.8125 3.5 0.8125 3.5 -1 1 C-0.67 0.67 -0.34 0.34 0 0 Z " fill="#D7D7D7" transform="translate(56,27)"/>
</svg>
