<svg version="1.1" xmlns="http://www.w3.org/2000/svg" width="150px" height="300px" transform="rotate(0) scale(1, 1)">
<path d="M0 0 C6.47630923 -0.36658354 6.47630923 -0.36658354 8.875 1.3125 C10 3 10 3 11 6 C11.71027344 5.98839844 12.42054687 5.97679687 13.15234375 5.96484375 C14.07144531 5.95582031 14.99054688 5.94679688 15.9375 5.9375 C16.85402344 5.92589844 17.77054687 5.91429687 18.71484375 5.90234375 C21 6 21 6 22 7 C24.49067174 7.27732802 24.49067174 7.27732802 27.375 7.3125 C28.84066406 7.36857422 28.84066406 7.36857422 30.3359375 7.42578125 C33.13828749 7.2862231 33.13828749 7.2862231 34.5703125 5.01171875 C35.04210937 4.34785156 35.51390625 3.68398438 36 3 C39.05378812 2.24761742 41.91531625 2.44383955 45 3 C47.125 4.5625 47.125 4.5625 48 7 C47.93439072 10.739729 47.76345433 13.0603639 45.375 16 C41.88418213 17.46981805 39.60851044 16.98413921 36 16 C35.54625 15.319375 35.0925 14.63875 34.625 13.9375 C33.18373007 11.77048601 33.18373007 11.77048601 30.82421875 11.73828125 C28.54783167 11.74890203 26.27259637 11.86825528 24 12 C24 15.96 24 19.92 24 24 C23.34 24.33 22.68 24.66 22 25 C22.01160156 25.60328125 22.02320312 26.2065625 22.03515625 26.828125 C22.04417969 27.62734375 22.05320312 28.4265625 22.0625 29.25 C22.07410156 30.03890625 22.08570312 30.8278125 22.09765625 31.640625 C22.00385306 33.90691002 21.63241063 35.8288895 21 38 C20.05125 38.04125 19.1025 38.0825 18.125 38.125 C13.54869036 38.7388952 10.21571968 41.10904251 6.4296875 43.625 C4 45 4 45 -1 46 C-1 50.62 -1 55.24 -1 60 C-0.01 60 0.98 60 2 60 C2 64.95 2 69.9 2 75 C1.01 75 0.02 75 -1 75 C-1 79.62 -1 84.24 -1 89 C0.98 89.99 0.98 89.99 3 91 C3.66 91.66 4.32 92.32 5 93 C7.91487922 93.27876767 7.91487922 93.27876767 11.3203125 93.1953125 C12.57714844 93.18886719 13.83398438 93.18242188 15.12890625 93.17578125 C16.44761719 93.15902344 17.76632813 93.14226562 19.125 93.125 C20.46483721 93.11496983 21.80468152 93.10584404 23.14453125 93.09765625 C26.42986573 93.07402075 29.71484465 93.04107234 33 93 C33 92.34 33 91.68 33 91 C30.69 90.67 28.38 90.34 26 90 C26 89.01 26 88.02 26 87 C26.66 86.67 27.32 86.34 28 86 C27.34 85.67 26.68 85.34 26 85 C26 84.01 26 83.02 26 82 C26.66 81.67 27.32 81.34 28 81 C27.34 80.67 26.68 80.34 26 80 C26.2784375 79.13375 26.2784375 79.13375 26.5625 78.25 C27.04500232 75.76855951 26.71703433 74.39011444 26 72 C26 70.33333333 26 68.66666667 26 67 C26.66 66.67 27.32 66.34 28 66 C27.34 65.67 26.68 65.34 26 65 C26.66 63.68 27.32 62.36 28 61 C27.34 60.67 26.68 60.34 26 60 C26.66 58.68 27.32 57.36 28 56 C27.34 55.67 26.68 55.34 26 55 C26 54.01 26 53.02 26 52 C26.66 51.67 27.32 51.34 28 51 C27.34 50.01 26.68 49.02 26 48 C27 46.51953125 27 46.51953125 29 45 C31.75733549 44.72835572 34.25113595 44.62635979 37 44.6875 C37.72445312 44.68427734 38.44890625 44.68105469 39.1953125 44.67773438 C42.9807029 44.71614701 44.78295894 44.85530596 48 47 C47.7215625 47.86625 47.7215625 47.86625 47.4375 48.75 C46.95499768 51.23144049 47.28296567 52.60988556 48 55 C48 57 48 57 47.4375 58.875 C46.94061873 61.28842332 47.30030231 62.66767436 48 65 C48 67 48 67 47.4375 68.875 C46.94061873 71.28842332 47.30030231 72.66767436 48 75 C48 77 48 77 47.4375 78.875 C46.94061873 81.28842332 47.30030231 82.66767436 48 85 C48 86.66666667 48 88.33333333 48 90 C44.535 90.495 44.535 90.495 41 91 C41.99 92.485 41.99 92.485 43 94 C43 95.32 43 96.64 43 98 C41.30472168 98.05945801 41.30472168 98.05945801 39.57519531 98.12011719 C35.377357 98.27240202 31.18089004 98.44980362 26.984375 98.63476562 C25.16889545 98.71127512 23.35311636 98.78099382 21.53710938 98.84375 C18.92469321 98.93521315 16.31433265 99.05115491 13.703125 99.171875 C12.89256653 99.19497742 12.08200806 99.21807983 11.24688721 99.24188232 C7.54993952 99.43506711 5.45208549 99.61653952 2.58105469 102.05175781 C1.79843262 103.0161377 1.79843262 103.0161377 1 104 C0.34 104 -0.32 104 -1 104 C-1 162.08 -1 220.16 -1 280 C-3.31 280 -5.62 280 -8 280 C-8 221.92 -8 163.84 -8 104 C-8.66 104 -9.32 104 -10 104 C-10 99.05 -10 94.1 -10 89 C-9.34 89 -8.68 89 -8 89 C-8 84.38 -8 79.76 -8 75 C-9.98 74.01 -9.98 74.01 -12 73 C-12.99 72.01 -12.99 72.01 -14 71 C-16.81255357 70.64349236 -16.81255357 70.64349236 -20.1171875 70.62109375 C-21.365 70.58693359 -22.6128125 70.55277344 -23.8984375 70.51757812 C-25.21070313 70.49115234 -26.52296875 70.46472656 -27.875 70.4375 C-36.95301582 70.22157553 -45.95930155 69.87834171 -55 69 C-55 67.68 -55 66.36 -55 65 C-61.27 65 -67.54 65 -74 65 C-74 63.35 -74 61.7 -74 60 C-73.01 60 -72.02 60 -71 60 C-71.020625 58.741875 -71.04125 57.48375 -71.0625 56.1875 C-71.05077998 52.48983422 -70.93316047 48.81482022 -70.6875 45.125 C-70.62949219 44.22007813 -70.57148437 43.31515625 -70.51171875 42.3828125 C-69.90273359 39.54708009 -69.2700294 38.7612243 -67 37 C-64.78613281 36.64355469 -64.78613281 36.64355469 -62.203125 36.671875 C-61.25074951 36.67614502 -60.29837402 36.68041504 -59.31713867 36.68481445 C-57.79890503 36.7170813 -57.79890503 36.7170813 -56.25 36.75 C-55.22044189 36.76313232 -54.19088379 36.77626465 -53.13012695 36.78979492 C-50.08582145 36.83853234 -47.04345195 36.91371525 -44 37 C-43.16968262 37.02078613 -42.33936523 37.04157227 -41.48388672 37.06298828 C-32.5289877 37.32313706 -32.5289877 37.32313706 -29 38 C-26.83073341 41.25389988 -26.75919951 42.13395957 -26.8046875 45.88671875 C-26.81113281 46.82451172 -26.81757812 47.76230469 -26.82421875 48.72851562 C-26.84097656 49.70498047 -26.85773437 50.68144531 -26.875 51.6875 C-26.88402344 52.67556641 -26.89304688 53.66363281 -26.90234375 54.68164062 C-26.9259157 57.12133765 -26.95881978 59.56054697 -27 62 C-26.34 62 -25.68 62 -25 62 C-25 62.99 -25 63.98 -25 65 C-20.02065483 64.82559211 -15.45115951 64.59753627 -10.8125 62.6875 C-8.17575337 58.7778412 -8.67383244 55.29102427 -8.921875 50.6796875 C-9 48 -9 48 -8 46 C-9.299375 45.855625 -10.59875 45.71125 -11.9375 45.5625 C-16.625 45.04166667 -21.3125 44.52083333 -26 44 C-26.08159574 39.83861737 -25.98248524 36.0527516 -25 32 C-26.65 31.67 -28.3 31.34 -30 31 C-30 26.71 -30 22.42 -30 18 C-31.175625 18.680625 -32.35125 19.36125 -33.5625 20.0625 C-37.76618529 22.14206163 -40.41684531 22.47006849 -45 21 C-48.61932815 18.38176262 -49.82190418 16.97952699 -50.625 12.5625 C-49.77969084 7.74423782 -48.69374497 6.22220306 -45 3 C-40.80276905 2.41091495 -37.52208768 2.52149386 -34 5 C-31.5705484 8.6441774 -31.83820425 10.71241272 -32 15 C-30.2675 14.2265625 -30.2675 14.2265625 -28.5 13.4375 C-23.86543049 11.70572136 -20.78954014 11.76132583 -16 13 C-14.5 15.0625 -14.5 15.0625 -14 17 C-12.68 17 -11.36 17 -10 17 C-10 16.34 -10 15.68 -10 15 C-7.03 15 -4.06 15 -1 15 C-1.09539062 14.25234375 -1.19078125 13.5046875 -1.2890625 12.734375 C-1.39992188 11.74953125 -1.51078125 10.7646875 -1.625 9.75 C-1.74101563 8.77546875 -1.85703125 7.8009375 -1.9765625 6.796875 C-2.00112537 3.86570607 -1.5312717 2.45471036 0 0 Z M0 18 C-0.33 18.33 -0.66 18.66 -1 19 C-5.00220653 19.14355117 -8.99441683 19.04216403 -13 19 C-13.33 22.96 -13.66 26.92 -14 31 C-15.32 31.33 -16.64 31.66 -18 32 C-17.67 33.65 -17.34 35.3 -17 37 C-9.91027421 38.77243145 -2.53391825 37.40462871 3.9296875 33.9765625 C5.3137329 33.02279028 6.65925279 32.01373569 8 31 C9.64619113 30.28426473 11.30728055 29.5974304 13 29 C13 27.35 13 25.7 13 24 C12.01 24 11.02 24 10 24 C10 22.35 10 20.7 10 19 C9.67 19.66 9.34 20.32 9 21 C2.84765625 20.4140625 2.84765625 20.4140625 1 20 C0.67 19.34 0.34 18.68 0 18 Z " fill="#e8e421" transform="translate(88,20)"/>
</svg>