<svg version="1.0" xmlns="http://www.w3.org/2000/svg" width="512.000000ptpx" height="512.000000ptpx" viewBox="0 0 512.000000 512.000000" preserveAspectRatio="xMidYMid meet" transform="rotate(0) scale(1, 1)">

<g transform="translate(0.000000,512.000000) scale(0.100000,-0.100000)" fill="#ffffff" stroke="none">
<path d="M1672 4945 c-223 -40 -414 -139 -566 -291 -235 -235 -345 -575 -292&#10;-899 8 -44 13 -81 11 -83 -1 -1 -26 -9 -56 -16 -203 -53 -367 -170 -479 -343&#10;-89 -136 -125 -259 -125 -433 0 -174 36 -297 125 -433 112 -172 261 -279 480&#10;-345 49 -15 156 -17 1025 -20 1010 -3 1054 -2 1173 39 30 10 59 19 64 19 4 0&#10;8 -399 8 -886 0 -667 3 -897 12 -928 16 -55 99 -138 154 -154 31 -9 233 -12&#10;796 -12 859 0 816 -4 891 80 24 26 49 66 55 88 9 30 12 536 12 2096 l0 2056&#10;-362 0 -363 1 -115 194 c-63 107 -117 194 -120 194 -3 0 -57 -87 -120 -194&#10;l-115 -194 -362 -1 -363 0 0 -430 c0 -236 -4 -430 -8 -430 -5 0 -35 9 -67 20&#10;-32 11 -65 20 -74 20 -38 1 -41 12 -26 95 56 317 -57 665 -291 899 -236 235&#10;-586 348 -902 291z m383 -173 c325 -89 553 -319 641 -648 14 -52 18 -103 18&#10;-209 -1 -159 -19 -242 -76 -364 l-34 -71 65 -39 c36 -21 69 -37 72 -35 3 2 17&#10;26 30 54 28 59 43 62 142 29 253 -84 426 -306 444 -569 19 -290 -170 -563&#10;-452 -653 l-70 -22 -995 0 -995 0 -70 22 c-164 52 -313 178 -384 325 -94 194&#10;-94 382 0 576 101 210 331 352 569 352 237 0 463 -139 568 -350 41 -82 71&#10;-191 72 -257 l0 -33 80 0 80 0 0 34 c0 19 -6 67 -14 108 -66 341 -331 596&#10;-674 649 l-81 12 -11 51 c-21 95 -23 234 -6 336 64 363 342 644 711 716 94 18&#10;278 11 370 -14z m2025 -340 c72 -121 75 -129 75 -189 0 -101 -56 -158 -155&#10;-158 -99 0 -155 57 -155 158 0 60 3 68 75 189 41 70 77 128 80 128 3 0 39 -58&#10;80 -128z m-394 -195 c1 -130 53 -217 166 -278 58 -31 70 -34 148 -34 78 0 90&#10;3 148 34 70 38 101 70 139 145 22 42 27 65 27 133 l1 83 243 0 242 0 0 -280 0&#10;-280 -800 0 -800 0 0 280 0 280 243 0 242 0 1 -83z m1114 -695 l0 -59 -320&#10;-199 -320 -199 0 -182 0 -183 -80 0 -80 0 0 -80 0 -80 80 0 80 0 0 -160 0&#10;-160 -80 0 -80 0 0 -80 0 -80 80 0 80 0 0 -160 0 -160 -160 0 -160 0 0 663 0&#10;662 -242 145 c-198 118 -257 159 -320 220 -70 67 -78 79 -78 113 l0 37 800 0&#10;800 0 0 -58z m0 -1712 l0 -1461 -25 -24 c-24 -25 -24 -25 -240 -25 l-215 0 0&#10;1338 0 1338 233 146 c127 81 235 147 240 147 4 1 7 -656 7 -1459z m-1120 -172&#10;l0 -1338 -215 0 c-216 0 -216 0 -240 25 l-25 24 0 933 0 933 75 74 c195 192&#10;278 449 230 716 -8 44 -15 81 -15 82 0 1 43 -23 95 -55 l95 -57 0 -1337z m480&#10;-218 l0 -160 -80 0 -80 0 0 -80 0 -80 80 0 80 0 0 -160 0 -160 -80 0 -80 0 0&#10;-80 0 -80 80 0 80 0 0 -160 0 -160 -160 0 -160 0 0 640 0 640 160 0 160 0 0&#10;-160z"/>
<path d="M488 1662 c-89 -149 -152 -266 -159 -295 -7 -28 -9 -75 -6 -112 11&#10;-116 67 -201 169 -256 58 -31 70 -34 148 -33 72 0 93 4 136 26 75 39 107 70&#10;143 137 38 71 50 164 32 238 -11 42 -297 542 -311 542 -3 0 -71 -111 -152&#10;-247z m232 -190 c72 -121 75 -129 75 -189 0 -101 -56 -158 -155 -158 -99 0&#10;-155 57 -155 158 0 60 3 68 75 189 41 70 77 128 80 128 3 0 39 -58 80 -128z"/>
<path d="M1448 1662 c-89 -149 -152 -266 -159 -295 -7 -28 -9 -75 -6 -112 11&#10;-116 67 -201 169 -256 58 -31 70 -34 148 -33 72 0 93 4 136 26 75 39 107 70&#10;143 137 38 71 50 164 32 238 -11 42 -297 542 -311 542 -3 0 -71 -111 -152&#10;-247z m232 -190 c72 -121 75 -129 75 -189 0 -101 -56 -158 -155 -158 -99 0&#10;-155 57 -155 158 0 60 3 68 75 189 41 70 77 128 80 128 3 0 39 -58 80 -128z"/>
<path d="M2408 1662 c-89 -149 -152 -266 -159 -295 -7 -28 -9 -75 -6 -112 11&#10;-116 67 -201 169 -256 58 -31 70 -34 148 -33 72 0 93 4 136 26 75 39 107 70&#10;143 137 38 71 50 164 32 238 -11 42 -297 542 -311 542 -3 0 -71 -111 -152&#10;-247z m232 -190 c72 -121 75 -129 75 -189 0 -101 -56 -158 -155 -158 -99 0&#10;-155 57 -155 158 0 60 3 68 75 189 41 70 77 128 80 128 3 0 39 -58 80 -128z"/>
<path d="M968 862 c-89 -149 -152 -266 -159 -295 -7 -28 -9 -75 -6 -112 11&#10;-116 67 -201 169 -256 58 -31 70 -34 148 -33 72 0 93 4 136 26 75 39 107 70&#10;143 137 38 71 50 164 32 238 -11 42 -297 542 -311 542 -3 0 -71 -111 -152&#10;-247z m232 -190 c72 -121 75 -129 75 -189 0 -101 -56 -158 -155 -158 -99 0&#10;-155 57 -155 158 0 60 3 68 75 189 41 70 77 128 80 128 3 0 39 -58 80 -128z"/>
<path d="M1928 862 c-89 -149 -152 -266 -159 -295 -7 -28 -9 -75 -6 -112 11&#10;-116 67 -201 169 -256 58 -31 70 -34 148 -33 72 0 93 4 136 26 75 39 107 70&#10;143 137 38 71 50 164 32 238 -11 42 -297 542 -311 542 -3 0 -71 -111 -152&#10;-247z m232 -190 c72 -121 75 -129 75 -189 0 -101 -56 -158 -155 -158 -99 0&#10;-155 57 -155 158 0 60 3 68 75 189 41 70 77 128 80 128 3 0 39 -58 80 -128z"/>
</g>
</svg>