<svg version="1.0" xmlns="http://www.w3.org/2000/svg" width="512.000000ptpx" height="512.000000ptpx" viewBox="0 0 512.000000 512.000000" preserveAspectRatio="xMidYMid meet" transform="rotate(0) scale(1, 1)">

<g transform="translate(0.000000,512.000000) scale(0.100000,-0.100000)" fill="#ffffff" stroke="none">
<path d="M3055 5103 c-290 -62 -519 -294 -579 -585 -14 -68 -16 -234 -16&#10;-1403 l0 -1326 -54 -67 c-68 -85 -118 -164 -151 -237 -179 -406 -95 -866 214&#10;-1176 135 -135 298 -226 501 -281 115 -32 362 -31 484 1 458 119 776 501 803&#10;962 15 262 -65 507 -237 723 l-60 76 0 1325 c0 1174 -2 1335 -16 1403 -61 295&#10;-291 525 -586 586 -94 20 -210 19 -303 -1z m247 -294 c171 -36 310 -175 347&#10;-347 8 -38 11 -437 11 -1412 0 -837 4 -1368 10 -1384 5 -14 43 -61 84 -106 82&#10;-90 141 -191 177 -310 30 -95 33 -289 6 -386 -107 -388 -490 -628 -875 -548&#10;-144 30 -262 93 -371 197 -222 215 -290 534 -175 817 35 87 83 159 160 241 35&#10;38 69 80 74 94 6 17 10 518 10 1385 0 961 3 1375 11 1412 18 87 58 158 123&#10;223 111 111 258 155 408 124z"/>
<path d="M3138 3299 c-23 -12 -46 -35 -58 -59 -20 -38 -20 -57 -20 -902 l0&#10;-863 -52 -24 c-65 -30 -166 -129 -197 -194 -89 -185 -58 -381 84 -522 212&#10;-213 570 -161 708 102 73 142 75 277 6 420 -33 66 -132 164 -196 194 l-53 24&#10;0 863 c0 845 0 864 -20 902 -37 73 -127 99 -202 59z m142 -2119 c45 -23 80&#10;-80 80 -130 0 -76 -74 -150 -151 -150 -46 0 -108 39 -130 82 -37 72 -14 151&#10;57 194 48 29 92 30 144 4z"/>
<path d="M745 4504 c-44 -23 -443 -422 -466 -466 -24 -48 -24 -89 1 -138 23&#10;-45 80 -80 130 -80 48 0 88 25 173 108 l77 77 0 -733 c0 -715 0 -734 20 -772&#10;23 -45 80 -80 130 -80 50 0 107 35 130 80 20 38 20 57 20 772 l0 733 78 -77&#10;c84 -83 124 -108 172 -108 50 0 107 35 130 80 25 49 25 90 1 138 -24 46 -424&#10;444 -468 466 -40 20 -89 20 -128 0z"/>
<path d="M4338 4499 c-43 -22 -78 -81 -78 -129 0 -50 35 -107 80 -130 35 -18&#10;59 -20 220 -20 161 0 185 2 220 20 45 23 80 80 80 130 0 50 -35 107 -80 130&#10;-35 18 -58 20 -222 20 -162 -1 -187 -3 -220 -21z"/>
<path d="M4338 3899 c-43 -22 -78 -81 -78 -129 0 -50 35 -107 80 -130 32 -16&#10;59 -20 145 -20 86 0 113 4 145 20 45 23 80 80 80 130 0 50 -35 107 -80 130&#10;-56 29 -237 28 -292 -1z"/>
<path d="M1338 3299 c-23 -12 -46 -35 -58 -59 -19 -38 -20 -58 -20 -772 l0&#10;-733 -77 77 c-43 42 -92 83 -110 92 -122 61 -258 -75 -197 -197 22 -44 420&#10;-444 466 -468 47 -24 89 -24 136 0 46 24 444 424 466 468 61 122 -75 258 -197&#10;197 -18 -9 -67 -50 -109 -92 l-78 -77 0 733 c0 715 0 734 -20 772 -37 73 -127&#10;99 -202 59z"/>
<path d="M4338 3299 c-43 -22 -78 -81 -78 -129 0 -50 35 -107 80 -130 35 -18&#10;59 -20 220 -20 161 0 185 2 220 20 45 23 80 80 80 130 0 50 -35 107 -80 130&#10;-35 18 -58 20 -222 20 -162 -1 -187 -3 -220 -21z"/>
<path d="M4338 2699 c-43 -22 -78 -81 -78 -129 0 -50 35 -107 80 -130 32 -16&#10;59 -20 145 -20 86 0 113 4 145 20 45 23 80 80 80 130 0 50 -35 107 -80 130&#10;-56 29 -237 28 -292 -1z"/>
<path d="M4338 2099 c-43 -22 -78 -81 -78 -129 0 -50 35 -107 80 -130 35 -18&#10;59 -20 220 -20 161 0 185 2 220 20 45 23 80 80 80 130 0 50 -35 107 -80 130&#10;-35 18 -58 20 -222 20 -162 -1 -187 -3 -220 -21z"/>
</g>
</svg>