<svg version="1.1" xmlns="http://www.w3.org/2000/svg" width="1600px" height="1600px" transform="rotate(0) scale(1, 1)">
<path d="M0 0 C3.43477634 0.01139364 6.86924264 0.00459593 10.30400848 -0.00686932 C33.5708401 -0.07288256 56.59934406 1.10492689 79.62304688 4.57324219 C80.35419708 4.68089905 81.08534729 4.78855591 81.83865356 4.8994751 C160.10207654 16.43409587 234.31240555 43.93738761 301.12304688 86.26074219 C301.73486816 86.6477832 302.34668945 87.03482422 302.97705078 87.43359375 C317.24358711 96.53323648 330.79674359 106.84801577 344.12304688 117.26074219 C345.28529813 118.15333265 346.44807393 119.04524044 347.61132812 119.93652344 C354.51667033 125.2557329 361.07780508 130.80234262 367.43945312 136.76074219 C369.73263146 138.89703641 372.05967948 140.96776984 374.43554688 143.01074219 C377.55393419 145.71120131 380.45243434 148.56884579 383.34179688 151.51074219 C385.20694362 153.34316706 387.14232433 155.05427353 389.12304688 156.76074219 C395.03040884 161.87135013 400.29012826 167.38715011 405.38085938 173.30371094 C407.02099816 175.14610899 408.72412248 176.86062855 410.49804688 178.57324219 C414.26315831 182.27111949 417.5028586 186.33557149 420.80664062 190.44433594 C422.98290108 193.0903457 425.23878147 195.61742521 427.56054688 198.13574219 C494.92091551 272.36012075 534.65555125 374.08763747 554.43554688 548.32324219 C554.43481873 549.66480499 554.43432238 551.00636794 554.43405151 552.34793091 C554.4179887 574.46048141 553.86128716 596.41773065 550.12304688 618.26074219 C546.16244203 616.94054057 545.06389347 614.50917813 542.93554688 611.13574219 C542.04737171 609.76566135 541.1565643 608.39728468 540.26367188 607.03027344 C539.52213867 605.89452881 539.52213867 605.89452881 538.765625 604.73583984 C535.65169876 600.04366027 532.41171799 595.43861731 529.18554688 590.82324219 C527.79734362 588.83378613 526.4093205 586.84420437 525.02148438 584.85449219 C524.35600586 583.90058594 523.69052734 582.94667969 523.00488281 581.96386719 C520.42622997 578.2598137 517.86469272 574.5442235 515.31054688 570.82324219 C514.6536084 569.86635498 514.6536084 569.86635498 513.98339844 568.89013672 C512.27161349 566.39543741 510.56111486 563.89985749 508.85058594 561.40429688 C502.97410913 552.83350245 497.06177747 544.28854241 491.12304688 535.76074219 C485.1987053 527.25360407 479.30107795 518.72915448 473.43945312 510.17871094 C472.03431754 508.13146592 470.62590388 506.08650554 469.21679688 504.04199219 C468.7337207 503.34066162 468.25064453 502.63933105 467.75292969 501.91674805 C466.80762483 500.54471196 465.86168415 499.17311368 464.91503906 497.80200195 C461.93674978 493.4784861 459.03895177 489.11215176 456.24414062 484.66699219 C455.87417969 484.20292969 455.50421875 483.73886719 455.12304688 483.26074219 C454.46304688 483.26074219 453.80304687 483.26074219 453.12304688 483.26074219 C451.74072244 484.88700623 450.40367172 486.55324239 449.12304688 488.26074219 C447.68437195 483.4717073 446.58997673 478.75844675 445.71289062 473.82714844 C445.44856038 472.37513387 445.1831316 470.92331896 444.91674805 469.47167969 C444.70869034 468.33617676 444.70869034 468.33617676 444.49642944 467.17773438 C436.83919516 425.81590984 423.64290232 385.72710466 404.20214844 348.34960938 C403.01966149 346.06061427 401.86444867 343.75880139 400.70898438 341.45605469 C384.09614023 308.67379193 362.61086377 278.6070288 338.12304688 251.26074219 C337.65253906 250.7323877 337.18203125 250.2040332 336.69726562 249.65966797 C330.15461256 242.3406508 323.29988498 235.34065665 316.37304688 228.38574219 C315.58075684 227.5887793 314.7884668 226.79181641 313.97216797 225.97070312 C309.18332667 221.1948886 304.26246852 216.65506809 299.12304688 212.26074219 C297.98167563 211.2642004 296.84102234 210.26683559 295.70117188 209.26855469 C288.94596269 203.39929099 282.09382701 197.77102432 274.84423828 192.51367188 C272.90142222 191.09941201 270.97160961 189.66819979 269.04101562 188.23730469 C247.73927178 172.54128291 225.00625852 158.6877604 201.140625 147.23486328 C199.02728473 146.21450659 196.92686478 145.17014598 194.82617188 144.12402344 C181.60162977 137.61264301 167.96731133 132.30089691 154.12304688 127.26074219 C153.1370752 126.90093262 152.15110352 126.54112305 151.13525391 126.17041016 C117.38380962 114.01303133 81.78005514 106.79313584 46.12304688 103.26074219 C45.17969482 103.1650293 44.23634277 103.06931641 43.2644043 102.97070312 C30.60439966 101.87673757 17.88269993 102.01688876 5.18554688 102.01074219 C3.3091452 102.00973007 3.3091452 102.00973007 1.39483643 102.00869751 C-17.55094766 102.02492523 -36.10421793 102.51091811 -54.87695312 105.26074219 C-56.73199463 105.52612793 -56.73199463 105.52612793 -58.62451172 105.796875 C-106.49878039 112.8135062 -153.71385322 126.79769881 -196.74267578 149.15673828 C-199.08610513 150.36893086 -201.44028692 151.55875342 -203.79492188 152.74902344 C-228.69031484 165.4369509 -252.15981127 180.68282686 -273.87695312 198.26074219 C-275.22853516 199.32228516 -275.22853516 199.32228516 -276.60742188 200.40527344 C-281.75307333 204.44999481 -286.66322725 208.68947507 -291.49804688 213.10058594 C-293.65967264 215.06344152 -295.85221574 216.98040479 -298.06445312 218.88574219 C-301.24571599 221.65177998 -304.21262369 224.57137541 -307.16210938 227.58105469 C-308.83537362 229.22001511 -310.57006015 230.7092658 -312.37695312 232.19824219 C-315.65490451 234.94937996 -318.36917004 238.01129767 -321.13476562 241.26855469 C-322.76768955 243.13579954 -324.46624451 244.85336615 -326.25195312 246.57324219 C-329.97936695 250.23379657 -333.21286487 254.24096006 -336.47070312 258.31933594 C-338.36175069 260.63095739 -340.28872672 262.8735952 -342.26757812 265.10839844 C-345.72235971 269.03811982 -348.96005519 273.09690341 -352.12695312 277.26074219 C-352.68632568 277.99566895 -353.24569824 278.7305957 -353.82202148 279.48779297 C-359.4289228 286.91016397 -364.75338441 294.49775929 -369.87695312 302.26074219 C-370.35487305 302.98455078 -370.83279297 303.70835937 -371.32519531 304.45410156 C-382.80453919 321.96445207 -392.88587761 340.35435883 -401.87695312 359.26074219 C-402.40385742 360.36820801 -402.40385742 360.36820801 -402.94140625 361.49804688 C-424.66720008 407.57435566 -438.04304855 457.58419414 -442.87695312 508.26074219 C-442.97266602 509.21585693 -443.06837891 510.17097168 -443.16699219 511.1550293 C-444.26012652 523.8034555 -444.12081215 536.5126443 -444.12695312 549.19824219 C-444.12762787 550.44917664 -444.12830261 551.70011108 -444.1289978 552.98895264 C-444.11277009 571.93473672 -443.62677721 590.48800699 -440.87695312 609.26074219 C-440.61156738 611.11578369 -440.61156738 611.11578369 -440.34082031 613.00830078 C-433.32418911 660.88256945 -419.33999651 708.09764228 -396.98095703 751.12646484 C-395.76876445 753.4698942 -394.57894189 755.82407598 -393.38867188 758.17871094 C-380.70074441 783.07410391 -365.45486845 806.54360034 -347.87695312 828.26074219 C-347.16925781 829.16179688 -346.4615625 830.06285156 -345.73242188 830.99121094 C-341.6877005 836.13686239 -337.44822024 841.04701631 -333.03710938 845.88183594 C-331.07425379 848.0434617 -329.15729052 850.2360048 -327.25195312 852.44824219 C-324.48591533 855.62950505 -321.5663199 858.59641275 -318.55664062 861.54589844 C-316.9176802 863.21916268 -315.42842952 864.95384922 -313.93945312 866.76074219 C-311.18831536 870.03869357 -308.12639765 872.7529591 -304.86914062 875.51855469 C-303.00189577 877.15147862 -301.28432916 878.85003357 -299.56445312 880.63574219 C-295.90389874 884.36315601 -291.89673525 887.59665393 -287.81835938 890.85449219 C-285.50673793 892.74553975 -283.26410011 894.67251578 -281.02929688 896.65136719 C-277.09957549 900.10614878 -273.0407919 903.34384426 -268.87695312 906.51074219 C-268.14202637 907.07011475 -267.40709961 907.6294873 -266.64990234 908.20581055 C-259.22753135 913.81271187 -251.63993603 919.13717347 -243.87695312 924.26074219 C-242.79124023 924.97762207 -242.79124023 924.97762207 -241.68359375 925.70898438 C-224.17324324 937.18832825 -205.78333648 947.26966667 -186.87695312 956.26074219 C-186.13864258 956.61201172 -185.40033203 956.96328125 -184.63964844 957.32519531 C-138.56316761 979.05107026 -88.55359851 992.42642942 -37.87695312 997.26074219 C-36.92256348 997.35645508 -35.96817383 997.45216797 -34.98486328 997.55078125 C-3.16781813 1000.30204596 30.52882569 1000.05198168 62.12304688 995.26074219 C63.56343646 995.04904336 65.00386841 994.83763265 66.44433594 994.62646484 C103.81856422 989.08720692 139.84044717 979.49377778 174.85205078 965.14208984 C175.7522998 964.77519043 176.65254883 964.40829102 177.58007812 964.03027344 C178.40096924 963.69229736 179.22186035 963.35432129 180.06762695 963.00610352 C182.12304688 962.26074219 182.12304688 962.26074219 184.12304688 962.26074219 C183.90648437 963.41960938 183.68992187 964.57847656 183.46679688 965.77246094 C178.30148778 996.25881373 180.11557371 1027.83293544 186.94042969 1057.8840332 C187.10897461 1058.65030029 187.27751953 1059.41656738 187.45117188 1060.20605469 C187.60489258 1060.87137207 187.75861328 1061.53668945 187.91699219 1062.22216797 C188.17085002 1064.73367613 187.71200856 1066.81946946 187.12304688 1069.26074219 C150.38841044 1081.75065927 113.48629865 1091.14899157 74.99804688 1096.44824219 C73.32186279 1096.68087769 73.32186279 1096.68087769 71.61181641 1096.91821289 C50.35604934 1099.69116416 29.17227289 1100.59411858 7.7487793 1100.52148438 C4.36665731 1100.51010223 0.98485059 1100.5168804 -2.39726067 1100.52835369 C-25.56190068 1100.59514073 -48.46096069 1099.40033188 -71.37695312 1095.94824219 C-72.10810333 1095.84058533 -72.83925354 1095.73292847 -73.59255981 1095.62200928 C-151.85598279 1084.08738851 -226.0663118 1056.58409677 -292.87695312 1014.26074219 C-293.48877441 1013.87370117 -294.1005957 1013.48666016 -294.73095703 1013.08789062 C-308.99749336 1003.9882479 -322.55064984 993.67346861 -335.87695312 983.26074219 C-337.03920438 982.36815173 -338.20198018 981.47624393 -339.36523438 980.58496094 C-346.27057658 975.26575148 -352.83171133 969.71914175 -359.19335938 963.76074219 C-361.48653771 961.62444796 -363.81358573 959.55371453 -366.18945312 957.51074219 C-369.30784044 954.81028307 -372.20634059 951.95263859 -375.09570312 949.01074219 C-376.96084987 947.17831732 -378.89623058 945.46721084 -380.87695312 943.76074219 C-386.78431509 938.65013424 -392.04403451 933.13433427 -397.13476562 927.21777344 C-398.77490441 925.37537538 -400.47802873 923.66085583 -402.25195312 921.94824219 C-406.01706456 918.25036488 -409.25676485 914.18591288 -412.56054688 910.07714844 C-414.73680733 907.43113867 -416.99268772 904.90405916 -419.31445312 902.38574219 C-486.67482176 828.16136362 -526.4094575 726.4338469 -546.13769531 554.38378906 C-546.12630167 550.94901272 -546.13309939 547.51454642 -546.14456463 544.07978058 C-546.21057787 520.81294896 -545.03276842 497.784445 -541.56445312 474.76074219 C-541.40296783 473.66401688 -541.40296783 473.66401688 -541.23822021 472.5451355 C-529.70359944 394.28171252 -502.2003077 320.07138352 -459.87695312 253.26074219 C-459.48991211 252.6489209 -459.10287109 252.03709961 -458.70410156 251.40673828 C-449.60445883 237.14020195 -439.28967955 223.58704548 -428.87695312 210.26074219 C-427.98436267 209.09849093 -427.09245487 207.93571514 -426.20117188 206.77246094 C-420.88196241 199.86711873 -415.33535269 193.30598398 -409.37695312 186.94433594 C-407.2406589 184.6511576 -405.16992547 182.32410958 -403.12695312 179.94824219 C-400.426494 176.82985487 -397.56884952 173.93135472 -394.62695312 171.04199219 C-392.79452825 169.17684544 -391.08342178 167.24146473 -389.37695312 165.26074219 C-384.26634518 159.35338022 -378.75054521 154.0936608 -372.83398438 149.00292969 C-370.99158632 147.3627909 -369.27706677 145.65966658 -367.56445312 143.88574219 C-363.86657582 140.12063075 -359.80212382 136.88093046 -355.69335938 133.57714844 C-353.04734961 131.40088798 -350.5202701 129.14500759 -348.00195312 126.82324219 C-273.77757456 59.46287355 -172.05005784 19.72823781 0 0 Z " fill="#ffffff" transform="translate(745.876953125,199.7392578125)"/>
<path d="M0 0 C1.22058105 0.20399414 2.44116211 0.40798828 3.69873047 0.61816406 C58.78087158 10.03965814 111.40133023 30.97874034 156 65 C160.29067546 63.34763349 163.1429553 60.1094793 166.296875 56.8984375 C167.18732513 56.00374252 167.18732513 56.00374252 168.09576416 55.0909729 C169.98526627 53.1903019 171.86768392 51.28278526 173.75 49.375 C175.03209065 48.08287532 176.31463761 46.79120324 177.59765625 45.5 C180.73708432 42.33855521 183.87017801 39.1709539 187 36 C191.81083002 40.01211725 196.34672497 44.20595723 200.76147461 48.64794922 C201.39647888 49.28280746 202.03148315 49.91766571 202.68572998 50.57176208 C204.76031704 52.64703949 206.83135073 54.72582401 208.90234375 56.8046875 C210.34943599 58.25364705 211.79675084 59.70238432 213.24427795 61.15090942 C217.03580107 64.9462331 220.82431021 68.74455131 224.61218262 72.54351807 C228.4850689 76.42667159 232.36082152 80.30696195 236.23632812 84.1875 C243.82701408 91.78887983 251.41451649 99.39342884 259 107 C254.41153742 112.5169437 249.51874572 117.58801868 244.40649414 122.61955261 C243.55466112 123.46236214 242.7028281 124.30517166 241.82518196 125.17352086 C239.96498465 127.01341561 238.10387444 128.85232871 236.24114037 130.68964958 C233.20955799 133.68000994 230.18175626 136.67417931 227.15461731 139.66903687 C226.09295701 140.71931212 225.03129141 141.76958202 223.9696207 142.81984675 C223.16731909 143.61353698 223.16731909 143.61353698 222.34880936 144.42326136 C220.68863446 146.06534528 219.02810454 147.70706945 217.36748409 149.34870279 C209.28536985 157.33906353 201.21474752 165.34091384 193.15087891 173.34968567 C192.27488729 174.21964537 192.27488729 174.21964537 191.38119888 175.10718002 C185.96243914 180.48877201 180.54441977 185.87110912 175.12682343 191.25387228 C171.41748194 194.93927718 167.70772001 198.62425843 163.99755859 202.30883789 C163.07327529 203.22676442 163.07327529 203.22676442 162.1303196 204.16323493 C152.13397542 214.08942548 142.11462857 223.99209685 132.0871619 233.88683446 C121.78482058 244.05394813 111.50923766 254.24754723 101.25762272 264.46580869 C94.93681317 270.76430925 88.59581882 277.04098038 82.22728986 283.2912331 C77.86715346 287.57425856 73.53312419 291.88258606 69.21877128 296.21172263 C66.72895274 298.70852718 64.22914668 301.19253673 61.69754982 303.64703178 C58.95246439 306.30908522 56.26349 309.0236565 53.57763672 311.74552917 C52.77047746 312.51122654 51.9633182 313.2769239 51.13169956 314.06582421 C47.9467216 317.37249887 46.01273626 319.39630829 45.9752636 324.11469424 C46.47574565 327.15226097 47.18287014 330.03471628 48 333 C49.2085784 348.23722837 48.80788615 363.43446951 44 378 C43.63777344 379.12921875 43.27554687 380.2584375 42.90234375 381.421875 C34.12573486 406.29389205 15.75271692 426.33331304 -7.81445312 438.00244141 C-31.08813622 448.62534904 -58.58871209 451.05783854 -83 443 C-84.12921875 442.63777344 -85.2584375 442.27554687 -86.421875 441.90234375 C-111.29389205 433.12573486 -131.33331304 414.75271692 -143.00244141 391.18554688 C-153.62534904 367.91186378 -156.05783854 340.41128791 -148 316 C-147.63777344 314.87078125 -147.27554688 313.7415625 -146.90234375 312.578125 C-138.12573486 287.70610795 -119.75271692 267.66668696 -96.18554688 255.99755859 C-81.95884342 249.50400293 -67.71170709 246.64933235 -52.125 246.75 C-50.93519531 246.74226562 -49.74539063 246.73453125 -48.51953125 246.7265625 C-46.75029297 246.73042969 -46.75029297 246.73042969 -44.9453125 246.734375 C-43.89875488 246.73663086 -42.85219727 246.73888672 -41.77392578 246.74121094 C-38 247 -38 247 -35.40611458 247.80655861 C-30.75699852 249.10827674 -27.51870291 249.83499949 -23.16646767 247.4420929 C-20.13534572 244.86100637 -17.36929827 242.10341325 -14.63183594 239.22119141 C-13.5591982 238.14460083 -12.48346063 237.0710912 -11.40489197 236.0004425 C-8.49541749 233.09497487 -5.63104213 230.14847531 -2.77300167 227.1925168 C0.22463442 224.10718259 3.26214066 221.06161849 6.29559326 218.01156616 C12.02923842 212.23445839 17.72627497 206.42261018 23.41093135 200.59733522 C29.88627537 193.96534346 36.40156275 187.37320441 42.92046404 180.78406644 C56.32515048 167.23316074 69.67900566 153.63316114 83 140 C80.58102495 137.53622442 78.43123001 135.45835298 75.41015625 133.7734375 C74.71994385 133.38663818 74.02973145 132.99983887 73.31860352 132.60131836 C72.57408936 132.1966333 71.8295752 131.79194824 71.0625 131.375 C70.269646 130.9426001 69.47679199 130.5102002 68.65991211 130.06469727 C66.11525237 128.69273981 63.56062692 127.3419043 61 126 C60.18789063 125.57348145 59.37578125 125.14696289 58.5390625 124.70751953 C37.65638183 113.89506127 15.07838066 106.45599194 -8 102 C-8.8053418 101.83773926 -9.61068359 101.67547852 -10.44042969 101.50830078 C-70.47797438 89.95161012 -136.37296281 104.75682357 -187.25 137.9375 C-189.18018939 139.27232111 -191.09593372 140.62817272 -193 142 C-193.60231445 142.43393066 -194.20462891 142.86786133 -194.82519531 143.31494141 C-213.50681369 156.85470212 -230.79350684 171.72353853 -245 190 C-245.78761719 190.98226562 -246.57523438 191.96453125 -247.38671875 192.9765625 C-282.02771794 236.52935401 -300.48473574 290.40268284 -300.375 345.9375 C-300.37512085 346.88099304 -300.3752417 347.82448608 -300.37536621 348.79656982 C-300.34788381 363.89942961 -299.31643285 378.22206776 -296 393 C-295.67243952 394.57146102 -295.3455855 396.14306951 -295.01953125 397.71484375 C-293.32971288 405.54781111 -291.1510308 413.17948159 -288.48657227 420.73852539 C-287.1912404 424.57842022 -286.61802364 427.15294183 -288 431 C-290.18948364 432.32449341 -290.18948364 432.32449341 -293.12939453 433.32080078 C-294.23146744 433.70569168 -295.33354034 434.09058258 -296.4690094 434.48713684 C-297.67806442 434.88583481 -298.88711945 435.28453278 -300.1328125 435.6953125 C-301.39422673 436.12772038 -302.654995 436.56201674 -303.91514587 436.99809265 C-307.28304188 438.15808847 -310.65888644 439.29303962 -314.03682327 440.42340469 C-317.50149966 441.58748274 -320.95840044 442.77415375 -324.41577148 443.9597168 C-328.51085168 445.36248829 -332.60654565 446.76329675 -336.70597839 448.15330505 C-344.08327008 450.654788 -351.44638141 453.18935481 -358.77734375 455.82421875 C-359.52157593 456.09161865 -360.26580811 456.35901855 -361.03259277 456.63452148 C-364.27580656 457.80259262 -367.51647607 458.97746764 -370.75634766 460.15478516 C-371.83835449 460.54327637 -372.92036133 460.93176758 -374.03515625 461.33203125 C-374.9362915 461.65921143 -375.83742676 461.9863916 -376.76586914 462.32348633 C-379 463 -379 463 -382 463 C-393.83094057 430.21814587 -402.03697056 395.19917626 -402.203125 360.19140625 C-402.21013931 359.19488037 -402.21715363 358.19835449 -402.22438049 357.17163086 C-402.24179739 353.96854075 -402.24823407 350.76563575 -402.25 347.5625 C-402.25067474 346.46630341 -402.25134949 345.37010681 -402.25204468 344.24069214 C-402.23549934 327.31449855 -401.73613109 310.73961828 -399 294 C-398.73461426 292.37046387 -398.73461426 292.37046387 -398.46386719 290.70800781 C-388.0035499 228.61455268 -361.8933874 170.05668485 -321 122 C-320.08844685 120.90242249 -319.17699507 119.80476079 -318.265625 118.70703125 C-305.85470512 103.92204137 -292.27983318 89.82799093 -277 78 C-275.14269596 76.42034809 -273.28872867 74.83676743 -271.4375 73.25 C-257.54403138 61.69893085 -242.63775222 52.00527539 -227 43 C-226.25814453 42.5659082 -225.51628906 42.13181641 -224.75195312 41.68457031 C-183.31914531 17.46889962 -136.60727098 3.22392076 -89 -2 C-88.18797119 -2.09571289 -87.37594238 -2.19142578 -86.53930664 -2.29003906 C-58.42050241 -5.15296996 -27.86146695 -4.7660567 0 0 Z " fill="#ffffff" transform="translate(802,403)"/>
<path d="M0 0 C0.66 0 1.32 0 2 0 C3.22033691 1.48872375 3.22033691 1.48872375 4.60351562 3.6105957 C5.12657288 4.40541855 5.64963013 5.20024139 6.1885376 6.01914978 C7.03880524 7.33418236 7.03880524 7.33418236 7.90625 8.67578125 C8.49807068 9.57885513 9.08989136 10.48192902 9.699646 11.41236877 C11.63939376 14.37501483 13.56957216 17.34377463 15.5 20.3125 C16.83743008 22.35809878 18.17564904 24.40318201 19.51464844 26.44775391 C21.51339344 29.49996798 23.51163971 32.55249436 25.50726318 35.60675049 C30.37717004 43.05983734 35.29348364 50.47927178 40.25 57.875 C46.9473694 67.89392632 53.6005637 77.94151068 60.23083496 88.00494385 C61.30093625 89.6288458 62.37162503 91.25236082 63.44299316 92.87542725 C71.10945321 104.49250788 78.60531601 116.20821106 86 128 C86.61230469 128.97308105 87.22460938 129.94616211 87.85546875 130.94873047 C97.43144825 146.19321355 106.60241356 161.67897235 115.74755859 177.18408203 C117.75895763 180.59394623 119.77954584 183.99830005 121.80078125 187.40234375 C130.01614094 201.29487288 137.72793487 215.42600725 145.25537109 229.69873047 C146.84273032 232.70240685 148.44422438 235.69796997 150.05078125 238.69140625 C184.70592606 303.64578117 215.48647253 374.47917112 193.71875 448.55859375 C187.34370619 469.23709126 177.81130686 489.51194423 165 507 C164.24332031 508.04027344 163.48664063 509.08054687 162.70703125 510.15234375 C157.06703285 517.75822608 150.87706314 524.76511692 144.33398438 531.60302734 C143.19641327 532.79431246 142.07321776 533.99929764 140.953125 535.20703125 C118.72984047 558.52248575 87.58754746 574.89400251 57 584 C55.75992187 584.37898438 54.51984375 584.75796875 53.2421875 585.1484375 C2.13664428 599.82886352 -52.16942621 590.74255574 -98.28125 565.66015625 C-104.09763235 562.42180255 -109.6244269 558.93800874 -115 555 C-116.04027344 554.24332031 -117.08054687 553.48664062 -118.15234375 552.70703125 C-125.75822608 547.06703285 -132.76511692 540.87706314 -139.60302734 534.33398438 C-140.79431246 533.19641327 -141.99929764 532.07321776 -143.20703125 530.953125 C-166.52248575 508.72984047 -182.89400251 477.58754746 -192 447 C-192.37898437 445.75992187 -192.75796875 444.51984375 -193.1484375 443.2421875 C-215.5297463 365.32830799 -175.06906753 286.53225852 -138.18359375 219.74609375 C-137.66265137 218.80620605 -137.14170898 217.86631836 -136.60498047 216.89794922 C-134.97083266 213.94733552 -133.34681869 210.99127583 -131.72265625 208.03515625 C-124.91833621 195.71081435 -117.8166258 183.59604892 -110.46264648 171.59448242 C-106.89282924 165.76745457 -103.34735448 159.93016651 -99.890625 154.03515625 C-92.35592541 141.18586761 -84.59213114 128.56774288 -76.37890625 116.140625 C-73.52900334 111.82666052 -70.7719446 107.4655616 -68.0625 103.0625 C-63.61002498 95.86623872 -58.92536738 88.83528708 -54.21459961 81.80615234 C-47.60390022 71.93255178 -41.06638813 62.01140428 -34.5335083 52.08618164 C-30.77116712 46.37186052 -27.0039994 40.66071943 -23.23760986 34.94906616 C-20.00274014 30.04230212 -16.77287312 25.13233092 -13.54992676 20.21772766 C-11.85856074 17.64122235 -10.16184633 15.06827834 -8.46331787 12.49649048 C-7.70142315 11.34023291 -6.94198507 10.18235251 -6.18511963 9.02279663 C-5.16746378 7.46419749 -4.14067868 5.91156997 -3.11328125 4.359375 C-2.55423096 3.50827148 -1.99518066 2.65716797 -1.41918945 1.78027344 C-0.95085693 1.1927832 -0.48252441 0.60529297 0 0 Z M0 185 C-8.91681258 198.9368176 -17.29691261 213.19564269 -25.71148682 227.4385376 C-27.8088835 230.98852803 -29.91229425 234.53470246 -32.02734375 238.07421875 C-45.75442099 261.09795504 -58.24938653 284.9499809 -70.03027344 309.0234375 C-70.69316038 310.37457865 -71.36069878 311.72344504 -72.03222656 313.0703125 C-88.68376696 346.52546216 -106.19733188 384.39442325 -94 422 C-84.7939017 447.9583718 -66.55694006 468.78792057 -41.96240234 481.0703125 C-36.77976049 483.52558747 -31.49448061 485.38211021 -26 487 C-24.98679687 487.31839844 -23.97359375 487.63679688 -22.9296875 487.96484375 C2.19674584 494.66316812 28.55617593 489.56176307 50.984375 477.37890625 C73.50608023 463.80730064 89.61262256 443.23296373 97 418 C97.31839844 416.92878906 97.63679688 415.85757813 97.96484375 414.75390625 C102.38778417 397.44940663 100.57584031 380.72085526 95 364 C94.72655762 363.16452637 94.45311523 362.32905273 94.17138672 361.46826172 C87.2673274 340.68575379 78.1227315 320.62464455 68.10302734 301.17089844 C66.81110934 298.62823911 65.55528131 296.06913797 64.30078125 293.5078125 C57.79744307 280.26879687 50.83310451 267.38529722 43.48144531 254.60009766 C41.74935559 251.5600918 40.07169585 248.49307538 38.39941406 245.41992188 C32.70582583 234.98087055 26.51828044 224.84809983 20.31106567 214.70993042 C19.9506015 214.12116119 19.59013733 213.53239197 19.21875 212.92578125 C18.68107498 212.04782394 18.68107498 212.04782394 18.13253784 211.15213013 C15.83209289 207.38716325 13.57435286 203.59967513 11.34375 199.79296875 C10.52076416 198.39377197 10.52076416 198.39377197 9.68115234 196.96630859 C8.66908255 195.24035964 7.66381163 193.5103997 6.66650391 191.77587891 C6.00013916 190.64351807 6.00013916 190.64351807 5.3203125 189.48828125 C4.94148926 188.83384033 4.56266602 188.17939941 4.17236328 187.50512695 C2.97778635 185.6847556 2.97778635 185.6847556 0 185 Z " fill="#ffffff" transform="translate(1199,809)"/>
<path d="M0 0 C2.10192708 2.73044766 3.61182321 5.1226075 4.83203125 8.3515625 C5.312771 9.61383667 5.312771 9.61383667 5.80322266 10.90161133 C6.13628418 11.80032959 6.4693457 12.69904785 6.8125 13.625 C7.1636084 14.56432373 7.5147168 15.50364746 7.87646484 16.47143555 C8.92949591 19.31011397 9.96811344 22.1535736 11 25 C11.28311035 25.77778809 11.5662207 26.55557617 11.85791016 27.35693359 C19.03842283 47.31171648 23.7663981 68.06269804 27 89 C27.15098145 89.92296875 27.30196289 90.8459375 27.45751953 91.796875 C32.56455868 124.05881812 32.55395342 159.80489031 27 192 C26.79600586 193.19496094 26.59201172 194.38992188 26.38183594 195.62109375 C22.68866813 216.62968154 17.46085861 237.01366507 10 257 C2.62248037 255.54256899 -4.28430496 253.29962628 -11.36328125 250.78125 C-12.54931442 250.36387573 -13.7353476 249.94650146 -14.95732117 249.51647949 C-18.10920493 248.4061549 -21.25942516 247.29134062 -24.40893555 246.17431641 C-27.51014452 245.07574783 -30.61360366 243.98357355 -33.71679688 242.890625 C-38.64666522 241.15406341 -43.57164533 239.40440823 -48.49462891 237.6484375 C-52.99932214 236.0465053 -57.51233729 234.48144711 -62.04653263 232.96521759 C-64.67106817 232.085588 -67.29028114 231.19072139 -69.9090786 230.29417419 C-71.75663952 229.66855183 -73.61148456 229.06457386 -75.46638489 228.46105957 C-77.1269416 227.88962219 -77.1269416 227.88962219 -78.82104492 227.30664062 C-80.28932991 226.81774353 -80.28932991 226.81774353 -81.78727722 226.31896973 C-84 225 -84 225 -84.8886261 222.59118652 C-85.05628428 218.69050939 -83.67125854 215.36789861 -82.375 211.75 C-79.75874927 203.98789387 -77.83067579 196.22331066 -76.25 188.1875 C-76.05196777 187.18750977 -75.85393555 186.18751953 -75.64990234 185.15722656 C-75.06698375 182.1097222 -74.52533977 179.05793721 -74 176 C-73.81163574 174.94337158 -73.62327148 173.88674316 -73.42919922 172.7980957 C-71.80249806 162.79293865 -71.60452465 152.92193227 -71.625 142.8125 C-71.62454681 141.9395932 -71.62409363 141.0666864 -71.62362671 140.16732788 C-71.65236015 121.23458172 -73.80484135 103.19108483 -78.51831055 84.8190918 C-79.01134989 81.93357467 -78.95911615 80.7059595 -78 78 C-76.65879726 76.28965378 -76.65879726 76.28965378 -74.91856384 74.55780029 C-74.26088516 73.89599762 -73.60320648 73.23419495 -72.92559814 72.55233765 C-71.83695465 71.47987289 -71.83695465 71.47987289 -70.72631836 70.38574219 C-69.96539383 69.62437958 -69.2044693 68.86301697 -68.42048645 68.07858276 C-65.90065042 65.5608387 -63.37035047 63.05389032 -60.83984375 60.546875 C-59.09184124 58.80446696 -57.34449939 57.06139591 -55.59779358 55.31768799 C-50.99628402 50.72763879 -46.38583669 46.14666935 -41.77349854 41.56750488 C-37.06950039 36.89418169 -32.37397425 32.21236851 -27.67773438 27.53125 C-18.46011407 18.34581491 -9.23331795 9.16965409 0 0 Z " fill="#ffffff" transform="translate(1070,609)"/>
</svg>