<svg version="1.1" xmlns="http://www.w3.org/2000/svg" width="512px" height="512px" transform="rotate(0) scale(1, 1)">
<path d="M0 0 C4.62585802 3.59281888 8.9541078 7.45845798 13.18359375 11.5078125 C13.92996094 12.19101562 14.67632812 12.87421875 15.4453125 13.578125 C42.10060905 38.79133744 54.26020524 77.56053021 55.40234375 113.41796875 C56.0691003 146.17490979 47.21342957 176.01484039 34.05859375 205.7578125 C33.57519531 206.8617334 33.09179688 207.9656543 32.59375 209.10302734 C27.11660676 221.24460596 20.60466987 232.84689681 14.18359375 244.5078125 C14.93448273 244.51145813 15.6853717 244.51510376 16.45901489 244.51885986 C23.55059835 244.55679531 30.64171976 244.61371044 37.73295784 244.69171524 C41.37830477 244.73115139 45.02341156 244.76335838 48.66894531 244.77880859 C52.19002451 244.79400129 55.71044334 244.82849132 59.23122787 244.87612152 C61.22184957 244.89808382 63.21265769 244.90028399 65.20339966 244.90216064 C76.51633895 245.08488781 76.51633895 245.08488781 81.18359375 249.5078125 C86.7235127 255.51644262 89.34734943 264.54098415 92.45095825 271.99755859 C93.91577611 275.51582466 95.39662657 279.02727972 96.87632751 282.53930664 C97.68603567 284.46135918 98.49498593 286.38373115 99.30323792 288.30639648 C103.89368509 299.21928147 108.56140818 310.09884882 113.23104858 320.97802734 C114.76258691 324.54623862 116.2931764 328.11485549 117.82348633 331.68359375 C119.90563753 336.53918564 121.98808971 341.39464823 124.07080078 346.25 C126.61980849 352.19280665 129.16779332 358.13605087 131.71495056 364.07965088 C132.71279504 366.40797162 133.71081158 368.73621863 134.70899963 371.06439209 C137.18648307 376.84359461 139.66091284 382.62406865 142.12915039 388.40722656 C146.79932552 399.34064759 151.49933706 410.25871064 156.29956055 421.13562012 C158.28743576 425.64062278 160.26102038 430.15184346 162.23149109 434.66448212 C163.57600598 437.74056243 164.93087167 440.81105206 166.30078125 443.87597656 C167.81294827 447.26048472 169.29765893 450.65587891 170.77734375 454.0546875 C171.22605835 455.03975281 171.67477295 456.02481812 172.13708496 457.03973389 C175.07608025 463.89079595 176.11023104 470.05809448 175.18359375 477.5078125 C173.00854473 482.09958266 170.72836702 484.33992022 166.18359375 486.5078125 C163.33718726 486.79172685 160.713653 486.91276435 157.8701334 486.88812923 C157.03210516 486.89278915 156.19407691 486.89744907 155.33065388 486.9022502 C152.50979332 486.91424415 149.6894105 486.90478782 146.86854553 486.89549255 C144.83085204 486.89966354 142.79316087 486.90513976 140.75547403 486.91181237 C135.14593098 486.92631649 129.53653423 486.92200675 123.926983 486.91464555 C117.88121402 486.90992846 111.83547736 486.92241076 105.78971863 486.93266296 C94.62703655 486.9488888 83.4644 486.95129034 72.30171236 486.94635797 C61.98944468 486.94180353 51.67719441 486.94239656 41.36492729 486.94819832 C39.9824842 486.94895518 38.6000411 486.94971116 37.217598 486.95046626 C35.13446681 486.95161144 33.05133563 486.95276131 30.96820445 486.95392551 C11.59713639 486.96463302 -7.77392585 486.96935316 -27.14499569 486.96145535 C-27.87544727 486.96115817 -28.60589885 486.960861 -29.35848532 486.96055482 C-35.2905418 486.9581058 -41.2225982 486.95549426 -47.1546546 486.95287069 C-70.2960831 486.94276736 -93.43743904 486.95112426 -116.57885742 486.97436523 C-142.57023069 487.0004261 -168.56156028 487.01328893 -194.5529471 487.00617748 C-197.32327274 487.00546141 -200.09359838 487.00478702 -202.86392403 487.00413704 C-203.54606332 487.00396723 -204.22820262 487.00379742 -204.93101281 487.00362247 C-215.23671384 487.00131764 -225.54237438 487.00930519 -235.84806633 487.02242851 C-247.56568283 487.03732305 -259.28322058 487.03783002 -271.00084084 487.0203576 C-276.98229458 487.01181758 -282.96356665 487.00977114 -288.94501114 487.02500916 C-294.41694566 487.03877691 -299.88854152 487.03419548 -305.36045606 487.01476992 C-307.34357553 487.01098519 -309.32672162 487.01400237 -311.30981755 487.02438157 C-313.99932548 487.03746078 -316.68764875 487.02604954 -319.37710476 487.00838375 C-320.15246009 487.01803426 -320.92781542 487.02768477 -321.72666636 487.03762773 C-326.89917373 486.96755721 -329.83021715 485.77114552 -333.81640625 482.5078125 C-337.89256851 477.21190743 -337.56181224 471.9236811 -336.81640625 465.5078125 C-335.74481867 461.61407924 -334.18471155 458.05347684 -332.48828125 454.39453125 C-332.03209412 453.36281296 -331.57590698 452.33109467 -331.105896 451.26811218 C-329.61247199 447.90131482 -328.08935948 444.54884126 -326.56640625 441.1953125 C-325.51375246 438.83331706 -324.46365711 436.4701799 -323.41601562 434.10595703 C-321.80677477 430.47557752 -320.19584723 426.84604862 -318.57666016 423.22009277 C-313.77827555 412.47357513 -309.14264269 401.66247424 -304.55957031 390.82269287 C-302.49956207 385.95110915 -300.43072576 381.08327499 -298.36328125 376.21484375 C-297.97047974 375.28917603 -297.57767822 374.3635083 -297.17297363 373.40979004 C-293.6556252 365.12215121 -290.11644348 356.84399409 -286.56640625 348.5703125 C-286.13879501 347.57369598 -286.13879501 347.57369598 -285.70254517 346.5569458 C-284.48841586 343.72744277 -283.27420255 340.89797584 -282.05976868 338.06860352 C-279.00470919 330.94974332 -275.95548713 323.82838689 -272.90625 316.70703125 C-271.57182327 313.5910601 -270.23729892 310.47513075 -268.90275002 307.35921192 C-267.59116132 304.29682164 -266.27982885 301.23432227 -264.96887207 298.17166138 C-264.47286499 297.01294525 -263.97685791 295.85422913 -263.46582031 294.66040039 C-262.97596649 293.51587906 -262.48611267 292.37135773 -261.98141479 291.19215393 C-261.01065722 288.92801969 -260.0376439 286.66485116 -259.06228638 284.4026947 C-256.69246911 278.90583583 -254.35190831 273.4003675 -252.07275391 267.86523438 C-251.63228226 266.81172791 -251.19181061 265.75822144 -250.73799133 264.67279053 C-249.9134804 262.69998559 -249.10133658 260.72194503 -248.30436707 258.737854 C-245.66450349 252.4783475 -243.05161075 248.62541475 -236.81640625 245.5078125 C-234.87669247 245.38775703 -232.93297009 245.33047906 -230.98974609 245.30249023 C-229.76863129 245.28254501 -228.54751648 245.26259979 -227.28939819 245.24205017 C-225.95204802 245.22506594 -224.6146965 245.20818713 -223.27734375 245.19140625 C-221.91256072 245.17083647 -220.54778407 245.14983999 -219.18301392 245.12843323 C-215.58932652 245.07321491 -211.99558165 245.02380463 -208.40179443 244.97558594 C-204.73525879 244.92536913 -201.06880669 244.86968401 -197.40234375 244.81445312 C-190.20710199 244.7068745 -183.01179079 244.60542893 -175.81640625 244.5078125 C-176.18010315 243.84329575 -176.54380005 243.17877899 -176.91851807 242.49412537 C-178.60108604 239.41571574 -180.27907176 236.3348301 -181.95703125 233.25390625 C-182.5288916 232.20924194 -183.10075195 231.16457764 -183.68994141 230.08825684 C-196.95342826 205.70131382 -207.91227001 179.71175557 -213.81640625 152.5078125 C-214.05979736 151.40107178 -214.05979736 151.40107178 -214.30810547 150.27197266 C-222.64734023 110.71009217 -214.71522758 65.74812203 -192.67822266 31.75195312 C-172.37153706 2.20532845 -142.93804759 -16.76727999 -108.03515625 -23.9140625 C-70.50903098 -30.6541918 -30.65103336 -23.10093016 0 0 Z M-153.81640625 34.5078125 C-154.491875 35.13558594 -155.16734375 35.76335938 -155.86328125 36.41015625 C-173.34513127 52.84773646 -181.37539578 77.39654815 -184.81640625 100.5078125 C-184.94789063 101.33796875 -185.079375 102.168125 -185.21484375 103.0234375 C-191.56549483 152.11225399 -166.45905091 199.95070012 -141.81640625 240.5078125 C-141.25244141 241.44173828 -140.68847656 242.37566406 -140.10742188 243.33789062 C-133.05205261 254.99850672 -125.69002897 266.38399671 -117.81640625 277.5078125 C-117.2126416 278.36584473 -117.2126416 278.36584473 -116.59667969 279.24121094 C-113.70152003 283.35314252 -110.76909844 287.43703148 -107.81640625 291.5078125 C-107.28644043 292.2390332 -106.75647461 292.97025391 -106.21044922 293.72363281 C-98.34883819 304.54541083 -90.27407251 315.1448478 -81.81640625 325.5078125 C-77.71796866 323.96158377 -75.89169822 321.34228805 -73.31640625 317.8828125 C-72.8869873 317.31014648 -72.45756836 316.73748047 -72.01513672 316.14746094 C-71.08987863 314.91223641 -70.16794935 313.67451279 -69.24902344 312.43457031 C-67.81754108 310.50933876 -66.37030562 308.59703601 -64.91796875 306.6875 C-21.82199832 249.90247256 32.51279495 176.17485493 23.24047852 100.93359375 C20.07642071 78.78260623 11.86367717 57.54614225 -2.81640625 40.5078125 C-3.33460938 39.84523437 -3.8528125 39.18265625 -4.38671875 38.5 C-19.62655586 19.58422228 -44.16754305 8.64946644 -67.81640625 5.5078125 C-72.05014078 5.2235127 -76.26155212 5.17326612 -80.50390625 5.1953125 C-81.64585449 5.20095215 -82.78780273 5.2065918 -83.96435547 5.21240234 C-110.77242693 5.59564583 -134.92717711 15.53166973 -153.81640625 34.5078125 Z M-221.81640625 276.5078125 C-222.81502043 278.85198934 -223.81362187 281.1961716 -224.81221008 283.5403595 C-225.71777866 285.66617174 -226.6233682 287.79197504 -227.52897644 289.91777039 C-230.08135512 295.90937595 -232.63312053 301.90124167 -235.18383789 307.89355469 C-236.24489887 310.38609136 -237.3060225 312.87860136 -238.3671875 315.37109375 C-238.63415499 315.99817104 -238.90112247 316.62524834 -239.17617989 317.27132797 C-242.56008033 325.21899785 -245.95036765 333.16388929 -249.34915161 341.10520935 C-251.21165426 345.45754655 -253.07160183 349.81097322 -254.93127441 354.16452026 C-255.81288164 356.22637053 -256.69577544 358.28767116 -257.57995605 360.34841919 C-258.80652286 363.20747805 -260.02874747 366.0683555 -261.25 368.9296875 C-261.61449753 369.77609299 -261.97899506 370.62249847 -262.35453796 371.49455261 C-264.15698292 375.36281826 -264.15698292 375.36281826 -264.81640625 379.5078125 C-259.58847404 377.97748424 -255.07783219 375.65008174 -250.31640625 373.0703125 C-243.20362164 369.26865176 -236.04234595 365.58961961 -228.81640625 362.0078125 C-221.97778162 358.61286866 -215.18321347 355.15369215 -208.44140625 351.5703125 C-200.27123934 347.2286109 -192.00912369 343.08777489 -183.72363281 338.97119141 C-176.74006176 335.49279719 -169.81914377 331.91420721 -162.93579102 328.24194336 C-158.59747088 325.93780611 -154.23039725 323.71094708 -149.8203125 321.546875 C-148.8111377 321.0506665 -147.80196289 320.55445801 -146.76220703 320.04321289 C-144.79399596 319.07955298 -142.82242307 318.12272177 -140.84716797 317.17358398 C-139.95916504 316.73860596 -139.07116211 316.30362793 -138.15625 315.85546875 C-136.97083618 315.28324585 -136.97083618 315.28324585 -135.76147461 314.69946289 C-133.51488519 313.51021404 -133.51488519 313.51021404 -131.81640625 310.5078125 C-132.15784668 310.04109131 -132.49928711 309.57437012 -132.85107422 309.09350586 C-139.77482092 299.61249592 -146.54866082 290.07099751 -152.98828125 280.25390625 C-154.5582365 277.70039553 -154.5582365 277.70039553 -155.81640625 276.5078125 C-157.87197286 276.41367563 -159.93080806 276.39038252 -161.98852539 276.39428711 C-162.63240707 276.39414108 -163.27628876 276.39399506 -163.93968201 276.3938446 C-166.07700928 276.39454365 -168.21425038 276.40233559 -170.3515625 276.41015625 C-171.8298691 276.41202046 -173.30817632 276.41344435 -174.78648376 276.41444397 C-178.68439427 276.41826891 -182.58226774 276.42809898 -186.48016357 276.43914795 C-190.45486958 276.44936258 -194.42958154 276.4539417 -198.40429688 276.45898438 C-206.20835025 276.46972128 -214.01237307 276.48679741 -221.81640625 276.5078125 Z M-12.38858032 284.82614136 C-12.85976288 285.71109283 -13.33094543 286.59604431 -13.81640625 287.5078125 C-14.53570312 288.56613281 -15.255 289.62445313 -15.99609375 290.71484375 C-16.83527344 292.00455078 -16.83527344 292.00455078 -17.69140625 293.3203125 C-27.09899887 307.52250831 -37.42391202 321.01784144 -47.81640625 334.5078125 C-48.34443848 335.19472168 -48.8724707 335.88163086 -49.41650391 336.58935547 C-52.50500934 340.59890292 -55.63293927 344.57321601 -58.81640625 348.5078125 C-59.32187988 349.13365234 -59.82735352 349.75949219 -60.34814453 350.40429688 C-61.92825348 352.34622227 -63.5252706 354.27278898 -65.12890625 356.1953125 C-65.60875977 356.7843335 -66.08861328 357.37335449 -66.58300781 357.98022461 C-70.04958972 362.0744188 -73.48808676 364.8837526 -78.94140625 365.90625 C-79.56015625 365.89851563 -80.17890625 365.89078125 -80.81640625 365.8828125 C-81.43515625 365.89054687 -82.05390625 365.89828125 -82.69140625 365.90625 C-87.9714352 364.91624457 -91.55668493 362.1626175 -95.00390625 358.1953125 C-95.76316406 357.32390625 -96.52242188 356.4525 -97.3046875 355.5546875 C-100.67083332 351.47133798 -103.92551528 347.30259157 -107.09838867 343.06713867 C-109.8074768 339.44514465 -109.8074768 339.44514465 -113.81640625 337.5078125 C-115.69923273 338.08283549 -115.69923273 338.08283549 -117.65429688 339.13500977 C-118.41939575 339.51613419 -119.18449463 339.89725861 -119.97277832 340.28993225 C-120.79773804 340.7137468 -121.62269775 341.13756134 -122.47265625 341.57421875 C-123.75891907 342.22087746 -123.75891907 342.22087746 -125.07116699 342.88059998 C-127.82437632 344.26790032 -130.57025485 345.66910197 -133.31640625 347.0703125 C-135.13627858 347.98850316 -136.95658654 348.90583092 -138.77734375 349.82226562 C-147.53563609 354.24236913 -156.2590435 358.70731048 -164.81640625 363.5078125 C-163.42242441 366.61521531 -161.78071004 368.84834801 -159.45713806 371.32965088 C-158.41388115 372.4485672 -158.41388115 372.4485672 -157.34954834 373.59008789 C-156.58571838 374.39857178 -155.82188843 375.20705566 -155.03491211 376.04003906 C-153.82651421 377.32838654 -153.82651421 377.32838654 -152.59370422 378.64276123 C-145.11741877 386.58600988 -137.5457254 394.43784468 -129.94061947 402.25766373 C-124.8420072 407.50360879 -119.77912687 412.77605985 -114.79370117 418.12988281 C-91.81961823 445.53718734 -91.81961823 445.53718734 -60.9070282 458.96542358 C-54.2595359 458.91618037 -48.13705952 457.5680581 -41.81640625 455.5078125 C-40.80637543 455.197229 -39.7963446 454.88664551 -38.75570679 454.56665039 C-32.49683088 452.4820439 -27.05715358 449.5504097 -21.44140625 446.1328125 C-19.87735779 445.24740975 -18.30960924 444.36851221 -16.73828125 443.49609375 C-13.62350344 441.75579844 -10.53171585 439.98268432 -7.453125 438.17919922 C0.27627678 433.68084328 8.2438007 429.61887427 16.18359375 425.5078125 C17.46472645 424.84237267 18.74581648 424.17685069 20.02685547 423.51123047 C23.49339351 421.71378397 26.96295956 419.92233516 30.43359375 418.1328125 C32.94691978 416.83522582 35.45986057 415.53689461 37.97265625 414.23828125 C38.58897919 413.91978714 39.20530212 413.60129303 39.84030151 413.27314758 C46.41942394 409.87161343 52.98564913 406.445536 59.5480957 403.01196289 C64.79914409 400.26643455 70.05901279 397.538813 75.328125 394.828125 C77.16136399 393.88340168 78.99448226 392.93844447 80.82757568 391.99343872 C82.56753204 391.09788078 84.3093723 390.20598598 86.05126953 389.31420898 C91.94051201 386.277665 97.62741896 383.11966367 103.18359375 379.5078125 C100.97890121 372.56262885 98.33617503 365.91351589 95.45703125 359.22265625 C94.76579414 357.60426094 94.76579414 357.60426094 94.06059265 355.95317078 C92.56317522 352.44915166 91.06089087 348.94724192 89.55859375 345.4453125 C88.52493035 343.0286451 87.49164876 340.61181436 86.45874023 338.19482422 C84.37309038 333.31501546 82.2859291 328.4358575 80.19775391 323.55712891 C76.23486137 314.29416181 72.29396177 305.02187954 68.35650635 295.74807739 C67.2587158 293.1625402 66.16044951 290.57720563 65.06201172 287.99194336 C63.43559139 284.16401904 61.80947911 280.33596407 60.18359375 276.5078125 C51.71685638 276.25219797 43.25174648 276.05713651 34.78209686 275.93787861 C30.84845619 275.88061818 26.91746624 275.80306611 22.98535156 275.67797852 C19.18551436 275.55786459 15.38821392 275.49257398 11.58662415 275.46416283 C10.14146473 275.44393777 8.69643451 275.40443387 7.25236511 275.34478188 C-2.32267934 274.96522419 -7.24408157 276.18490944 -12.38858032 284.82614136 Z M-200.39453125 381.30859375 C-201.131875 381.70304687 -201.86921875 382.0975 -202.62890625 382.50390625 C-203.43328125 382.93832031 -204.23765625 383.37273437 -205.06640625 383.8203125 C-212.26339739 387.66165133 -219.50713831 391.38480083 -226.81640625 395.0078125 C-234.42387387 398.78442875 -241.96583102 402.66111163 -249.46142578 406.65478516 C-253.99536264 409.05846717 -258.55941684 411.38661502 -263.16015625 413.66015625 C-264.24377441 414.19584229 -265.32739258 414.73152832 -266.44384766 415.28344727 C-268.56321666 416.32719906 -270.68518325 417.36569757 -272.81005859 418.39819336 C-274.263396 419.1137439 -274.263396 419.1137439 -275.74609375 419.84375 C-276.60444824 420.26188965 -277.46280273 420.6800293 -278.34716797 421.11083984 C-283.89881479 424.2516865 -286.46950106 427.07343571 -288.9296875 432.98828125 C-289.1889653 433.60173904 -289.4482431 434.21519684 -289.71537781 434.84724426 C-290.53313433 436.79136833 -291.33096121 438.74298608 -292.12890625 440.6953125 C-292.68299721 442.01810141 -293.23832398 443.34037337 -293.79492188 444.66210938 C-296.49456237 449.95747324 -296.49456237 449.95747324 -297.81640625 455.5078125 C-239.07640625 455.5078125 -180.33640625 455.5078125 -119.81640625 455.5078125 C-124.36696885 450.13734718 -124.36696885 450.13734718 -129.14398193 445.04652405 C-129.72991623 444.45632477 -130.31585052 443.86612549 -130.91954041 443.25804138 C-131.54002762 442.63800735 -132.16051483 442.01797333 -132.79980469 441.37915039 C-133.47046463 440.70513184 -134.14112457 440.03111328 -134.83210754 439.33666992 C-137.02738005 437.1319745 -139.22633239 434.93099724 -141.42578125 432.73046875 C-142.95948496 431.19354954 -144.4931142 429.65655601 -146.02667236 428.11949158 C-149.22906113 424.91113555 -152.4334894 421.70483248 -155.63916016 418.49975586 C-159.75582679 414.38319143 -163.86553845 410.25975713 -167.97356796 406.13457584 C-171.13218458 402.96487805 -174.29529774 399.79969776 -177.45972443 396.63580132 C-178.97805456 395.1162879 -180.49475603 393.59514534 -182.00981903 392.07237434 C-184.11872147 389.95373818 -186.23378779 387.84145602 -188.35058594 385.73071289 C-188.97917007 385.09650925 -189.60775421 384.4623056 -190.25538635 383.80888367 C-194.83983534 379.19944258 -194.83983534 379.19944258 -200.39453125 381.30859375 Z M115.18359375 408.5078125 C112.93292106 409.34439482 112.93292106 409.34439482 110.40625 410.68359375 C109.42825439 411.17641846 108.45025879 411.66924316 107.44262695 412.17700195 C105.86034302 412.99044067 105.86034302 412.99044067 104.24609375 413.8203125 C102.61063599 414.65018677 102.61063599 414.65018677 100.94213867 415.49682617 C93.85227447 419.10582487 86.79452417 422.77530024 79.76635742 426.50292969 C72.3921549 430.41385352 64.97626608 434.24277559 57.55859375 438.0703125 C47.06627303 443.48602011 36.59925163 448.94576075 26.18359375 454.5078125 C26.18359375 454.8378125 26.18359375 455.1678125 26.18359375 455.5078125 C62.48359375 455.5078125 98.78359375 455.5078125 136.18359375 455.5078125 C132.05310302 444.7334069 132.05310302 444.7334069 127.703125 434.0546875 C127.40419846 433.34298401 127.10527191 432.63128052 126.79728699 431.89801025 C126.17763706 430.42581543 125.55681901 428.9541117 124.93481445 427.48291016 C123.98084466 425.22166681 123.03638861 422.95658046 122.09179688 420.69140625 C121.48365121 419.24975592 120.87494886 417.80834026 120.265625 416.3671875 C119.98539993 415.69129578 119.70517487 415.01540405 119.41645813 414.31903076 C118.07177963 410.75136998 118.07177963 410.75136998 115.18359375 408.5078125 Z " fill="#ffffff" transform="translate(336.81640625,25.4921875)"/>
<path d="M0 0 C10.01179498 6.87398752 16.22237518 16.23248617 19.25 27.9375 C21.66147617 41.23076237 19.60993045 53.74844412 12.31640625 65.18359375 C5.34985178 74.46794328 -3.90250362 80.58199772 -15.15625 83.578125 C-29.97883259 85.63185632 -42.98321026 83.20580864 -55.1015625 74.1875 C-65.28829919 65.73830034 -70.31429899 55.08350595 -71.5625 42.0625 C-72.2065107 29.01428317 -68.82882386 17.91816289 -60.5625 7.625 C-44.35971821 -9.42869374 -19.92321838 -11.52720284 0 0 Z M-37.5625 29.6875 C-40.06194649 33.40096335 -40.75 35.47437763 -40.75 39.9375 C-39.02590063 45.81972138 -36.55477921 48.46170227 -31.75 51.9375 C-28.53360522 53.54569739 -25.23855833 53.40611231 -21.75 52.9375 C-17.40863915 50.68333187 -14.39680186 48.05474734 -11.75 43.9375 C-10.36992916 39.30440503 -10.7441127 36.31398139 -12.75 31.9375 C-15.63608923 27.88137459 -17.83175504 25.13707194 -22.75 23.9375 C-29.16182043 23.25539144 -33.01333121 25.23942385 -37.5625 29.6875 Z " fill="#ffffff" transform="translate(281.75,97.0625)"/>
</svg>