<svg version="1.0" xmlns="http://www.w3.org/2000/svg" width="512.000000ptpx" height="512.000000ptpx" viewBox="0 0 512.000000 512.000000" preserveAspectRatio="xMidYMid meet" transform="rotate(0) scale(1, 1)">

<g transform="translate(0.000000,512.000000) scale(0.100000,-0.100000)" fill="#ffffff" stroke="none">
<path d="M2441 4919 c-75 -9 -180 -40 -257 -74 -66 -29 -201 -121 -215 -146&#10;-16 -30 -10 -65 16 -93 35 -38 71 -34 136 15 68 51 175 102 259 125 85 23 251&#10;23 345 0 97 -23 218 -86 292 -150 35 -30 72 -58 84 -61 51 -17 109 44 95 99&#10;-15 62 -212 196 -359 244 -139 46 -260 59 -396 41z"/>
<path d="M2485 4604 c-100 -15 -223 -69 -283 -124 -85 -78 7 -185 103 -119&#10;172 117 363 112 513 -14 53 -45 97 -49 130 -14 38 40 30 83 -25 133 -56 51&#10;-137 96 -213 118 -60 16 -177 27 -225 20z"/>
<path d="M2490 4277 c-113 -39 -150 -109 -87 -167 27 -26 56 -25 106 1 44 22&#10;69 20 110 -12 31 -24 62 -24 94 1 56 44 39 109 -40 152 -58 32 -134 42 -183&#10;25z"/>
<path d="M2410 3905 c-434 -88 -714 -495 -636 -925 38 -206 161 -398 331 -515&#10;l55 -38 0 -149 c0 -145 1 -150 25 -173 13 -14 31 -25 40 -25 13 0 15 -30 15&#10;-240 l0 -240 -555 0 -555 0 0 200 0 200 113 0 c178 0 281 36 382 135 61 60&#10;215 310 215 349 0 15 -11 38 -25 51 -24 25 -27 25 -197 25 -243 0 -328 -25&#10;-441 -132 -28 -27 -53 -48 -54 -48 -2 0 -3 50 -3 111 l0 110 75 127 c92 154&#10;109 206 103 316 -5 94 -21 133 -129 323 -87 152 -119 178 -176 138 -27 -19&#10;-184 -293 -206 -359 -21 -62 -22 -176 -2 -243 8 -28 51 -110 95 -184 l80 -133&#10;0 -107 0 -107 -53 51 c-113 111 -199 137 -445 137 -170 0 -173 0 -197 -25 -14&#10;-13 -25 -36 -25 -51 0 -39 154 -289 215 -349 103 -101 203 -135 392 -135 l123&#10;0 0 -200 0 -200 -380 0 -381 0 -24 -25 -25 -24 0 -631 0 -631 25 -24 24 -25&#10;2351 0 2351 0 24 25 25 24 0 631 0 631 -25 24 -24 25 -371 0 -370 0 0 200 0&#10;200 113 0 c178 0 281 36 382 135 61 60 215 310 215 349 0 15 -11 38 -25 51&#10;-24 25 -27 25 -197 25 -243 0 -328 -25 -441 -132 -28 -27 -53 -48 -54 -48 -2&#10;0 -3 50 -3 111 l0 110 75 127 c92 154 109 206 103 316 -5 94 -21 133 -129 323&#10;-87 152 -119 178 -176 138 -27 -19 -184 -293 -206 -359 -24 -70 -22 -191 3&#10;-258 11 -29 53 -109 95 -177 l75 -124 0 -108 0 -107 -53 51 c-113 111 -199&#10;137 -445 137 -170 0 -173 0 -197 -25 -14 -13 -25 -36 -25 -51 0 -39 154 -289&#10;215 -349 103 -101 203 -135 392 -135 l123 0 0 -200 0 -200 -565 0 -565 0 0&#10;240 c0 210 2 240 15 240 9 0 27 11 40 25 24 23 25 28 25 173 l0 149 55 38 c78&#10;54 169 149 220 230 255 407 101 937 -331 1146 -146 71 -338 96 -494 64z m284&#10;-160 c241 -51 440 -250 491 -491 60 -283 -79 -573 -335 -702 -110 -55 -207&#10;-76 -325 -69 -166 10 -297 70 -420 192 -248 247 -245 644 6 896 153 155 370&#10;219 583 174z m-1594 -583 c25 -50 35 -84 38 -131 4 -59 1 -69 -38 -147 -57&#10;-112 -62 -116 -96 -63 -58 93 -74 135 -74 197 0 71 6 90 61 184 42 71 42 71&#10;58 49 10 -13 33 -53 51 -89z m3040 0 c25 -50 35 -84 38 -131 4 -59 1 -69 -38&#10;-147 -57 -112 -62 -116 -96 -63 -58 93 -74 135 -74 197 0 71 6 90 61 184 42&#10;71 42 71 58 49 10 -13 33 -53 51 -89z m-3430 -794 c64 -31 103 -70 155 -152&#10;l37 -58 -99 4 c-153 6 -223 47 -308 182 l-37 58 99 -4 c82 -3 108 -8 153 -30z&#10;m874 -25 c-84 -134 -155 -175 -307 -181 l-99 -4 37 58 c88 139 164 182 323&#10;183 l83 1 -37 -57z m2166 25 c64 -31 103 -70 155 -152 l37 -58 -99 4 c-153 6&#10;-223 47 -308 182 l-37 58 99 -4 c82 -3 108 -8 153 -30z m874 -25 c-84 -134&#10;-155 -175 -307 -181 l-99 -4 37 58 c88 139 164 182 323 183 l83 1 -37 -57z&#10;m-2064 -16 c90 0 153 5 188 15 l52 15 0 -58 0 -59 -240 0 -240 0 0 59 0 58 53&#10;-15 c34 -10 97 -15 187 -15z m160 -327 l0 -80 -55 0 c-67 0 -105 -29 -105 -80&#10;0 -51 38 -80 105 -80 l55 0 0 -423 0 -422 -80 -80 -80 -80 -80 80 -80 80 0&#10;582 0 583 160 0 160 0 0 -80z m-480 -857 l0 -297 143 -143 c188 -188 166 -188&#10;354 0 l143 143 0 297 0 297 960 0 960 0 0 -520 0 -520 -2240 0 -2240 0 0 520&#10;0 520 960 0 960 0 0 -297z"/>
<path d="M2441 3584 c-253 -68 -410 -331 -346 -579 62 -237 291 -393 529 -358&#10;213 30 379 195 409 407 48 333 -269 617 -592 530z m270 -185 c33 -18 71 -46&#10;85 -62 62 -74 95 -181 80 -261 l-7 -36 -99 0 -99 0 25 72 c13 39 24 82 24 95&#10;0 33 -43 73 -78 73 -48 0 -70 -28 -105 -135 l-34 -100 -126 -3 -126 -3 -7 36&#10;c-23 125 53 267 176 330 88 46 198 43 291 -6z m49 -530 c-74 -50 -116 -64&#10;-200 -64 -84 0 -126 14 -200 64 -10 8 50 11 200 11 150 0 210 -3 200 -11z"/>
<path d="M1225 1175 c-16 -15 -25 -36 -25 -55 0 -19 9 -40 25 -55 15 -16 36&#10;-25 55 -25 19 0 40 9 55 25 16 15 25 36 25 55 0 19 -9 40 -25 55 -15 16 -36&#10;25 -55 25 -19 0 -40 -9 -55 -25z"/>
<path d="M1865 1175 c-50 -49 -15 -135 55 -135 19 0 40 9 55 25 16 15 25 36&#10;25 55 0 19 -9 40 -25 55 -15 16 -36 25 -55 25 -19 0 -40 -9 -55 -25z"/>
<path d="M3305 1175 c-50 -49 -15 -135 55 -135 41 0 80 39 80 80 0 41 -39 80&#10;-80 80 -19 0 -40 -9 -55 -25z"/>
<path d="M3945 1175 c-50 -49 -15 -135 55 -135 41 0 80 39 80 80 0 41 -39 80&#10;-80 80 -19 0 -40 -9 -55 -25z"/>
<path d="M4505 1095 c-50 -49 -15 -135 55 -135 41 0 80 39 80 80 0 41 -39 80&#10;-80 80 -19 0 -40 -9 -55 -25z"/>
<path d="M665 1015 c-16 -15 -25 -36 -25 -55 0 -19 9 -40 25 -55 15 -16 36&#10;-25 55 -25 19 0 40 9 55 25 16 15 25 36 25 55 0 19 -9 40 -25 55 -15 16 -36&#10;25 -55 25 -19 0 -40 -9 -55 -25z"/>
<path d="M3545 1015 c-50 -49 -15 -135 55 -135 41 0 80 39 80 80 0 41 -39 80&#10;-80 80 -19 0 -40 -9 -55 -25z"/>
<path d="M1945 775 c-50 -49 -15 -135 55 -135 19 0 40 9 55 25 16 15 25 36 25&#10;55 0 19 -9 40 -25 55 -15 16 -36 25 -55 25 -19 0 -40 -9 -55 -25z"/>
<path d="M1305 695 c-50 -49 -15 -135 55 -135 41 0 80 39 80 80 0 19 -9 40&#10;-25 55 -15 16 -36 25 -55 25 -19 0 -40 -9 -55 -25z"/>
<path d="M2985 695 c-50 -49 -15 -135 55 -135 41 0 80 39 80 80 0 41 -39 80&#10;-80 80 -19 0 -40 -9 -55 -25z"/>
<path d="M4185 695 c-50 -49 -15 -135 55 -135 41 0 80 39 80 80 0 41 -39 80&#10;-80 80 -19 0 -40 -9 -55 -25z"/>
</g>
</svg>