<svg version="1.1" id="Layer_1" xmlns="http://www.w3.org/2000/svg" xmlns:xlink="http://www.w3.org/1999/xlink" x="0px" y="0px" width="100%px" viewBox="0 0 688 592" enable-background="new 0 0 688 592" xml:space="preserve" height="100px" transform="rotate(0) scale(1, 1)">
<path fill="#ffffff" opacity="1.000000" stroke="none" d="&#10;M412.987671,498.012146 &#10;&#9;C406.020782,491.045471 399.338501,484.293762 392.576172,477.623260 &#10;&#9;C386.873383,471.997894 382.631866,473.168701 380.629395,480.979858 &#10;&#9;C374.148499,506.260651 367.743835,531.560974 361.306030,556.852844 &#10;&#9;C361.019073,557.980164 360.721100,559.106018 360.385284,560.219543 &#10;&#9;C358.796844,565.486877 355.467316,568.303589 350.900604,568.265686 &#10;&#9;C346.389984,568.228271 342.991455,565.345825 341.621216,560.013550 &#10;&#9;C334.957458,534.081970 328.373108,508.129944 321.723145,482.194824 &#10;&#9;C320.960358,479.219940 320.986908,475.608093 317.182617,474.503296 &#10;&#9;C313.074127,473.310181 310.718018,476.201385 308.250366,478.702271 &#10;&#9;C297.014679,490.089386 285.776398,501.473907 274.535065,512.855530 &#10;&#9;C273.715881,513.684875 272.880157,514.499268 272.026245,515.292847 &#10;&#9;C268.772064,518.316895 265.110809,519.219482 261.015625,517.191956 &#10;&#9;C257.180725,515.293152 255.606415,512.115112 255.627106,507.852997 &#10;&#9;C255.700760,492.687958 255.652740,477.522369 255.650391,462.356964 &#10;&#9;C255.649994,459.857178 255.691498,457.356445 255.637863,454.857788 &#10;&#9;C255.478394,447.427917 251.665726,445.181580 245.353790,448.918701 &#10;&#9;C222.847519,462.244019 200.376282,475.628479 177.889572,488.986847 &#10;&#9;C176.601318,489.752167 175.331650,490.563019 173.987427,491.217224 &#10;&#9;C169.958008,493.178314 165.967819,493.653717 162.431351,490.237518 &#10;&#9;C159.183701,487.100372 158.585129,482.255066 161.154144,477.789124 &#10;&#9;C166.719482,468.114319 172.472992,458.547699 178.153793,448.939362 &#10;&#9;C186.378082,435.028961 194.652069,421.147675 202.813583,407.200562 &#10;&#9;C207.015091,400.020660 204.783630,396.364563 196.302414,396.351685 &#10;&#9;C179.303894,396.325897 162.304611,396.263550 145.307144,396.401428 &#10;&#9;C140.533936,396.440155 136.812057,395.237823 134.717056,390.624512 &#10;&#9;C132.531693,385.812225 134.746002,382.308319 137.997223,379.054413 &#10;&#9;C150.011475,367.030334 162.034500,355.014954 174.017670,342.959961 &#10;&#9;C180.346725,336.592987 179.381561,332.803650 170.805145,330.599548 &#10;&#9;C145.675003,324.141235 120.525528,317.758057 95.384567,311.341827 &#10;&#9;C94.256866,311.054016 93.143089,310.711456 92.014702,310.426605 &#10;&#9;C87.078049,309.180267 84.174759,306.055542 83.849869,300.967377 &#10;&#9;C83.579170,296.727783 86.806465,292.995911 92.069389,291.629211 &#10;&#9;C117.988045,284.898529 143.936874,278.284058 169.874695,271.627167 &#10;&#9;C170.519241,271.461731 171.160507,271.283295 171.801956,271.106079 &#10;&#9;C178.662506,269.210358 179.907211,265.019409 174.943787,260.001526 &#10;&#9;C163.459183,248.390823 151.892914,236.860870 140.360168,225.297775 &#10;&#9;C139.418762,224.353867 138.460754,223.425507 137.544434,222.457748 &#10;&#9;C134.625549,219.375000 132.839127,215.959137 134.647736,211.628494 &#10;&#9;C136.495926,207.203033 140.043335,205.631516 144.629395,205.642441 &#10;&#9;C160.794617,205.680908 176.960159,205.695816 193.125153,205.623276 &#10;&#9;C197.176407,205.605103 201.923035,206.785278 204.425842,202.313385 &#10;&#9;C206.907715,197.878906 202.887802,194.827393 200.989532,191.576797 &#10;&#9;C188.136002,169.566544 175.097412,147.664398 162.143143,125.712875 &#10;&#9;C158.739899,119.945938 158.897446,115.536736 162.503769,112.049637 &#10;&#9;C165.792389,108.869728 170.636505,108.721222 175.889069,111.831848 &#10;&#9;C198.107605,124.989891 220.280075,138.225906 242.527542,151.334717 &#10;&#9;C245.557281,153.119934 248.542038,156.337738 252.530045,154.238937 &#10;&#9;C256.798340,151.992661 255.617432,147.619568 255.632904,143.908142 &#10;&#9;C255.699570,127.909767 255.711182,111.910690 255.628372,95.912460 &#10;&#9;C255.602249,90.868057 256.729462,86.636162 261.877289,84.546303 &#10;&#9;C266.949158,82.487259 270.444061,85.179314 273.774353,88.496490 &#10;&#9;C285.698914,100.374138 297.628204,112.247253 309.606415,124.070694 &#10;&#9;C315.718140,130.103439 319.532837,128.985092 321.644897,120.709770 &#10;&#9;C328.306580,94.608170 334.981964,68.510056 341.672180,42.415752 &#10;&#9;C343.083374,36.911484 346.697662,33.491787 351.222778,33.847618 &#10;&#9;C356.224915,34.240967 359.298553,37.009022 360.576752,42.065781 &#10;&#9;C367.094788,67.852226 373.747040,93.604752 380.355316,119.368385 &#10;&#9;C380.644501,120.495682 380.943970,121.621017 381.270996,122.737801 &#10;&#9;C382.869324,128.196365 386.753815,129.506592 390.941528,125.675926 &#10;&#9;C396.102356,120.955048 400.989624,115.933899 405.968506,111.015572 &#10;&#9;C413.792969,103.286316 421.599731,95.539108 429.404663,87.790123 &#10;&#9;C432.391541,84.824661 435.562866,82.837067 440.092377,84.413445 &#10;&#9;C444.758850,86.037491 446.594299,89.521889 446.644226,94.001457 &#10;&#9;C446.829956,110.662643 446.783722,127.326416 446.969940,143.987595 &#10;&#9;C447.009155,147.496292 445.586456,151.762390 449.438232,154.092926 &#10;&#9;C453.621490,156.624023 456.624268,153.020203 459.747559,151.075851 &#10;&#9;C483.227753,136.458603 506.662903,121.768959 530.116455,107.108871 &#10;&#9;C531.670227,106.137604 533.240601,105.189606 534.836060,104.288879 &#10;&#9;C539.145691,101.855850 543.369873,102.317642 546.793152,105.663200 &#10;&#9;C550.344238,109.133583 550.302063,113.572044 547.851746,117.631523 &#10;&#9;C542.084717,127.185883 536.073486,136.593170 530.135071,146.043625 &#10;&#9;C520.030823,162.123825 509.903534,178.189514 499.793793,194.266266 &#10;&#9;C498.198822,196.802567 496.128998,199.391464 497.849945,202.540375 &#10;&#9;C499.650299,205.834610 503.021118,205.665131 506.244202,205.660324 &#10;&#9;C522.742798,205.635773 539.241638,205.703705 555.739868,205.624664 &#10;&#9;C560.882446,205.600037 565.448669,206.329849 567.585449,211.845749 &#10;&#9;C569.646423,217.165985 566.674622,220.757584 563.278320,224.160965 &#10;&#9;C551.394287,236.069855 539.444458,247.913605 527.618469,259.879822 &#10;&#9;C522.037048,265.527405 523.177246,269.370361 530.914185,271.352020 &#10;&#9;C556.209961,277.831085 581.520447,284.252411 606.824768,290.698212 &#10;&#9;C608.114868,291.026855 609.403015,291.364136 610.686035,291.719299 &#10;&#9;C615.456665,293.040009 618.197510,296.307831 618.145325,301.119293 &#10;&#9;C618.092590,305.994873 615.072876,309.023285 610.331665,310.229858 &#10;&#9;C593.240967,314.579224 576.150330,318.928925 559.058167,323.272369 &#10;&#9;C549.549683,325.688690 540.027710,328.052826 530.531433,330.515900 &#10;&#9;C523.274780,332.398071 522.072388,336.540619 527.320557,341.838837 &#10;&#9;C538.930847,353.560028 550.626282,365.196808 562.284790,376.870270 &#10;&#9;C563.344360,377.931274 564.465149,378.943726 565.423767,380.090607 &#10;&#9;C568.063843,383.249084 569.219666,386.753265 567.331665,390.709564 &#10;&#9;C565.516541,394.513306 562.575134,396.403870 558.200684,396.381653 &#10;&#9;C540.869324,396.293549 523.537048,396.334473 506.205261,396.365723 &#10;&#9;C497.116730,396.382111 495.002350,399.994324 499.606873,407.758270 &#10;&#9;C512.439819,429.396545 525.332397,450.999420 538.195496,472.619812 &#10;&#9;C539.217468,474.337616 540.304810,476.029297 541.168152,477.826172 &#10;&#9;C543.192627,482.039612 543.516907,486.192871 539.946289,489.816101 &#10;&#9;C536.741272,493.068420 532.056519,493.476593 527.535400,490.819275 &#10;&#9;C513.030090,482.293671 498.568237,473.694000 484.092438,465.118164 &#10;&#9;C475.349823,459.938812 466.643005,454.698120 457.863617,449.581909 &#10;&#9;C449.850830,444.912445 446.349396,447.050598 446.340912,456.535126 &#10;&#9;C446.325989,473.200409 446.272522,489.866150 446.389648,506.530640 &#10;&#9;C446.424286,511.461060 445.189087,515.386230 440.298126,517.437866 &#10;&#9;C435.428802,519.480408 432.009918,517.039551 428.798523,513.810608 &#10;&#9;C423.627869,508.611603 418.426178,503.443451 412.987671,498.012146 &#10;M369.478485,140.030609 &#10;&#9;C362.367188,133.548157 362.124786,124.254494 359.759888,115.884377 &#10;&#9;C356.725372,105.144302 354.108063,94.286346 350.988342,82.232475 &#10;&#9;C350.375793,84.418182 350.137878,85.207878 349.933228,86.006104 &#10;&#9;C346.381378,99.859024 342.801422,113.704849 339.292664,127.568687 &#10;&#9;C334.397400,146.911026 312.876099,153.388428 298.244171,139.765366 &#10;&#9;C292.027527,133.977386 286.200745,127.772179 280.135956,121.818542 &#10;&#9;C278.650055,120.359879 277.455750,118.417244 275.089447,118.008171 &#10;&#9;C273.804657,119.517525 274.375549,121.254692 274.362976,122.837219 &#10;&#9;C274.296936,131.169418 273.984711,139.519592 274.398346,147.831650 &#10;&#9;C275.338409,166.722656 255.169540,181.570633 236.410385,170.012054 &#10;&#9;C226.625412,163.982971 216.665298,158.237152 206.756332,152.410919 &#10;&#9;C203.977478,150.777023 201.099350,149.311951 198.266769,147.769424 &#10;&#9;C199.142914,151.136841 200.549667,153.761017 202.072754,156.315811 &#10;&#9;C208.300339,166.761902 214.671036,177.124161 220.788452,187.634048 &#10;&#9;C230.190338,203.786789 218.625717,224.134048 200.010269,224.288727 &#10;&#9;C190.511703,224.367661 181.011612,224.256256 171.512787,224.319214 &#10;&#9;C170.151535,224.328247 168.544113,223.667084 167.045914,225.513062 &#10;&#9;C174.505203,232.899200 182.113846,240.114594 189.360733,247.676666 &#10;&#9;C203.602524,262.537842 197.270706,284.213684 177.316147,289.346680 &#10;&#9;C166.681229,292.082367 156.006485,294.669006 145.409576,297.543518 &#10;&#9;C141.432846,298.622223 137.188629,298.989502 132.692810,301.320679 &#10;&#9;C148.385849,305.294189 163.220657,309.017059 178.037445,312.810364 &#10;&#9;C197.349289,317.754486 203.467148,339.544525 189.593674,353.956787 &#10;&#9;C186.936783,356.716858 184.101257,359.304230 181.418091,362.039917 &#10;&#9;C176.614792,366.937195 171.864670,371.886658 166.266632,377.666870 &#10;&#9;C178.161697,377.666870 188.641891,377.616333 199.121445,377.677765 &#10;&#9;C218.822998,377.793213 230.246902,397.133636 220.570374,414.247711 &#10;&#9;C213.766083,426.281860 206.545837,438.080536 199.552170,450.008270 &#10;&#9;C198.857010,451.193848 197.529831,452.241089 198.111588,453.936218 &#10;&#9;C199.653915,453.999481 200.728546,453.164215 201.863953,452.489899 &#10;&#9;C213.610657,445.513702 225.402328,438.611633 237.085785,431.531036 &#10;&#9;C245.050980,426.703827 253.210159,426.294922 261.304413,430.585052 &#10;&#9;C269.786011,435.080444 274.157867,442.479309 274.299713,452.125366 &#10;&#9;C274.434509,461.289459 274.310486,470.457092 274.369934,479.622711 &#10;&#9;C274.379028,481.025787 273.789001,482.629486 275.510559,484.111328 &#10;&#9;C277.080688,482.708130 278.729889,481.358398 280.237244,479.865417 &#10;&#9;C286.275269,473.884796 292.119507,467.700287 298.309845,461.883240 &#10;&#9;C312.628571,448.427765 334.367249,454.819489 339.200775,473.799683 &#10;&#9;C340.308502,478.149475 341.302979,482.528229 342.422577,486.874847 &#10;&#9;C345.058716,497.109070 347.738861,507.331970 350.519714,518.014648 &#10;&#9;C352.172180,516.205383 352.305389,514.539551 352.707275,512.989685 &#10;&#9;C356.004272,500.275085 360.140564,487.704773 362.371948,474.805267 &#10;&#9;C365.307648,457.834351 388.330627,446.083160 404.692139,462.828186 &#10;&#9;C410.631653,468.906921 416.666901,474.893494 422.735168,480.843842 &#10;&#9;C423.955658,482.040558 424.829956,483.917938 427.031464,483.841980 &#10;&#9;C428.111237,482.278290 427.613525,480.567383 427.623779,478.966797 &#10;&#9;C427.681549,469.967834 427.585571,460.967621 427.674072,451.969147 &#10;&#9;C427.858856,433.182983 448.005554,421.590881 464.169403,431.023804 &#10;&#9;C474.815369,437.236542 485.310669,443.706940 495.910248,450.000000 &#10;&#9;C498.461365,451.514709 500.922485,453.354431 504.628784,454.116119 &#10;&#9;C503.720581,452.310547 503.260986,451.246063 502.675568,450.255981 &#10;&#9;C495.637909,438.354004 488.647461,426.423309 481.507233,414.582977 &#10;&#9;C476.680054,406.578217 476.521881,398.507782 480.864044,390.381744 &#10;&#9;C485.333099,382.018280 492.437103,377.734375 501.951965,377.672516 &#10;&#9;C511.450867,377.610748 520.950684,377.688904 530.449463,377.616302 &#10;&#9;C531.798767,377.606018 533.411194,378.287323 535.211975,375.934479 &#10;&#9;C533.352600,374.389313 531.308533,372.926971 529.544189,371.181732 &#10;&#9;C523.267761,364.973358 516.595337,359.077393 510.970734,352.316223 &#10;&#9;C498.882660,337.785614 505.517853,317.800568 523.730652,312.854492 &#10;&#9;C530.630676,310.980682 537.604492,309.380371 544.529358,307.596100 &#10;&#9;C552.295105,305.595184 560.043518,303.527069 569.113403,301.142822 &#10;&#9;C566.596069,300.215393 565.548462,299.720398 564.446289,299.440002 &#10;&#9;C551.072754,296.038147 537.680908,292.708435 524.314331,289.279602 &#10;&#9;C505.982513,284.577057 499.051147,264.970245 510.491821,249.991989 &#10;&#9;C512.600647,247.231079 515.261780,244.880234 517.750122,242.423370 &#10;&#9;C523.496704,236.749557 529.293701,231.126801 535.070251,225.483353 &#10;&#9;C523.616333,224.304489 512.838257,224.318741 502.060181,224.300232 &#10;&#9;C492.459656,224.283737 485.467346,219.572632 480.890137,211.536118 &#10;&#9;C476.451843,203.743393 476.427612,195.641006 481.276337,187.832489 &#10;&#9;C487.515839,177.784119 493.866302,167.804001 500.032257,157.710953 &#10;&#9;C502.755493,153.253342 506.070282,149.101776 508.319946,143.226913 &#10;&#9;C505.797760,144.732788 504.096191,145.705826 502.436859,146.746216 &#10;&#9;C489.875763,154.621948 477.380005,162.603760 464.746979,170.362183 &#10;&#9;C456.712372,175.296570 448.367981,175.405792 440.107391,170.797531 &#10;&#9;C431.995209,166.272095 427.847168,159.215103 427.693634,149.981171 &#10;&#9;C427.532959,140.317841 427.678040,130.649673 427.613647,120.984138 &#10;&#9;C427.605713,119.797905 428.283539,118.329163 426.563446,117.254021 &#10;&#9;C425.019287,118.717888 423.429016,120.160751 421.911011,121.675995 &#10;&#9;C416.131714,127.444855 410.509857,133.378799 404.581879,138.989822 &#10;&#9;C393.702057,149.288025 381.385010,149.742081 369.478485,140.030609 &#10;z"/>
<path fill="#ffffff" opacity="1.000000" stroke="none" d="&#10;M385.784363,431.111450 &#10;&#9;C350.619904,439.429901 317.334961,435.873169 285.802338,418.614471 &#10;&#9;C282.741150,416.938965 279.744812,415.093719 276.920685,413.047974 &#10;&#9;C272.406555,409.777893 271.444855,404.744995 274.217896,400.305786 &#10;&#9;C277.016998,395.824860 282.514008,394.320587 287.264526,397.328705 &#10;&#9;C299.915344,405.339478 313.431030,411.074127 328.081818,414.273865 &#10;&#9;C387.941162,427.346924 450.905334,386.564056 463.644165,326.495178 &#10;&#9;C470.442322,294.439240 464.784119,264.750397 447.300110,237.166885 &#10;&#9;C443.099884,230.540359 444.300934,224.843750 450.306641,222.070816 &#10;&#9;C454.918365,219.941483 459.480377,221.400909 462.763855,226.283524 &#10;&#9;C474.188141,243.271515 481.536377,261.933228 484.178925,282.194611 &#10;&#9;C489.542236,323.316162 478.449188,359.764160 451.137787,390.887299 &#10;&#9;C433.691162,410.768890 411.795593,424.046997 385.784363,431.111450 &#10;z"/>
<path fill="#ffffff" opacity="1.000000" stroke="none" d="&#10;M217.743805,319.915710 &#10;&#9;C214.443237,293.426300 217.613937,268.259399 229.022964,244.520142 &#10;&#9;C249.003082,202.946548 281.865295,177.435562 327.110809,168.823822 &#10;&#9;C361.643890,162.251007 393.896027,169.530350 423.727753,187.955948 &#10;&#9;C427.652924,190.380371 429.921326,193.612106 429.160583,198.274246 &#10;&#9;C428.477417,202.461044 425.709930,204.986221 421.636230,206.044876 &#10;&#9;C418.414001,206.882263 415.792847,205.387711 413.233948,203.751541 &#10;&#9;C394.818207,191.976379 374.600494,185.657242 352.831268,185.518845 &#10;&#9;C328.268646,185.362686 305.511841,191.988434 285.205139,206.269501 &#10;&#9;C257.681580,225.625900 241.437439,252.120102 236.607040,285.180054 &#10;&#9;C232.485977,313.385284 238.643234,339.756256 254.092392,363.827332 &#10;&#9;C256.295013,367.259186 258.425842,370.606079 256.576447,374.944275 &#10;&#9;C255.069672,378.478851 252.480377,380.582825 248.692673,381.042297 &#10;&#9;C244.574249,381.541931 241.689819,379.471039 239.488083,376.223206 &#10;&#9;C231.860245,364.970978 226.009628,352.852570 222.313614,339.774628 &#10;&#9;C220.508041,333.385834 219.274979,326.835266 217.743805,319.915710 &#10;z"/>
</svg>