<svg version="1.0" xmlns="http://www.w3.org/2000/svg" width="512.000000ptpx" height="512.000000ptpx" viewBox="0 0 512.000000 512.000000" preserveAspectRatio="xMidYMid meet" transform="rotate(0) scale(1, 1)">

<g transform="translate(0.000000,512.000000) scale(0.100000,-0.100000)" fill="#ffffff" stroke="none">
<path d="M2502 5100 c-18 -11 -37 -32 -42 -46 -6 -15 -10 -190 -10 -426 l0&#10;-400 34 -34 c28 -28 42 -34 76 -34 34 0 48 6 76 34 l34 34 0 401 c0 441 -1&#10;445 -60 476 -39 20 -69 19 -108 -5z"/>
<path d="M1428 4551 c-28 -25 -33 -36 -33 -73 0 -36 17 -71 110 -232 113 -193&#10;133 -216 190 -216 67 0 110 51 106 126 -1 29 -207 385 -234 406 -36 29 -101&#10;23 -139 -11z"/>
<path d="M3630 4525 c-23 -12 -214 -329 -239 -397 -23 -63 32 -138 102 -138&#10;59 0 78 22 192 216 93 161 110 196 110 232 0 37 -5 48 -33 73 -36 33 -89 38&#10;-132 14z"/>
<path d="M374 3872 c-43 -34 -55 -87 -32 -137 7 -16 44 -45 92 -74 186 -111&#10;603 -349 624 -355 31 -10 88 11 112 41 23 30 26 82 6 121 -14 28 -31 38 -485&#10;299 -179 103 -221 123 -255 123 -24 0 -50 -8 -62 -18z"/>
<path d="M4301 3692 c-229 -132 -347 -205 -357 -222 -18 -34 -18 -91 2 -118&#10;22 -32 72 -55 105 -48 15 3 181 94 369 202 260 150 344 203 355 225 40 76 -7&#10;158 -91 159 -34 0 -90 -29 -383 -198z"/>
<path d="M2337 3765 c-489 -92 -877 -475 -976 -962 -39 -190 -25 -443 35 -622&#10;134 -403 448 -696 864 -808 128 -34 369 -43 509 -19 481 84 855 434 982 921&#10;22 81 24 111 23 290 0 185 -2 207 -27 297 -121 440 -448 767 -885 884 -83 23&#10;-122 27 -272 30 -125 2 -197 -1 -253 -11z m115 -320 c3 -110 4 -116 31 -142&#10;23 -23 36 -28 77 -28 41 0 54 5 77 28 27 26 28 32 31 142 l4 114 31 -5 c156&#10;-27 325 -95 441 -178 76 -54 205 -188 253 -263 77 -120 132 -264 157 -410 l5&#10;-31 -114 -4 c-110 -3 -116 -4 -142 -31 -23 -23 -28 -36 -28 -77 0 -41 5 -54&#10;28 -77 26 -27 32 -28 142 -31 l114 -4 -5 -31 c-25 -146 -80 -290 -157 -410&#10;-46 -72 -163 -195 -241 -253 -115 -87 -292 -160 -453 -188 l-31 -5 -4 114 c-3&#10;110 -4 116 -31 142 -23 23 -36 28 -77 28 -41 0 -54 -5 -77 -28 -27 -26 -28&#10;-32 -31 -142 l-4 -114 -31 5 c-146 25 -290 80 -410 157 -71 46 -194 162 -254&#10;241 -85 112 -159 293 -187 453 l-5 31 114 4 c110 3 116 4 142 31 23 23 28 36&#10;28 77 0 41 -5 54 -28 77 -26 27 -32 28 -142 31 l-114 4 5 31 c27 156 95 325&#10;178 441 101 142 272 275 446 347 58 25 199 63 252 68 3 1 8 -51 10 -114z"/>
<path d="M2483 2995 l-34 -34 3 -225 3 -226 255 -255 c266 -267 283 -279 342&#10;-256 60 23 89 87 64 144 -8 18 -111 129 -230 247 l-216 215 0 178 0 179 -34&#10;34 c-28 28 -42 34 -76 34 -35 0 -48 -6 -77 -35z"/>
<path d="M314 2691 c-66 -40 -66 -142 0 -182 28 -17 52 -19 251 -19 202 0 223&#10;2 253 20 59 36 67 119 17 169 l-25 26 -233 3 c-215 2 -234 1 -263 -17z"/>
<path d="M4315 2621 c-40 -17 -60 -51 -60 -102 0 -40 5 -54 28 -76 l27 -28&#10;230 -3 c195 -3 234 -1 260 13 70 36 74 144 7 185 -29 18 -51 20 -252 19 -121&#10;0 -229 -4 -240 -8z"/>
<path d="M1050 1813 c-16 -7 -487 -277 -616 -354 -48 -29 -85 -58 -92 -74 -35&#10;-76 12 -154 94 -155 42 0 71 16 598 321 135 78 156 100 156 161 0 70 -77 125&#10;-140 101z"/>
<path d="M3983 1801 c-17 -11 -37 -29 -42 -40 -15 -27 -13 -81 3 -111 10 -17&#10;128 -90 357 -222 293 -169 349 -198 383 -198 84 1 131 83 91 159 -11 22 -96&#10;76 -356 226 -187 108 -355 199 -372 201 -21 3 -43 -2 -64 -15z"/>
<path d="M1570 1116 c-16 -9 -65 -83 -135 -203 -93 -160 -110 -195 -110 -231&#10;0 -37 5 -48 33 -73 23 -20 43 -29 68 -29 67 0 83 18 192 208 56 98 106 192&#10;111 208 25 91 -74 166 -159 120z"/>
<path d="M3372 1077 c-40 -23 -56 -57 -53 -113 1 -28 207 -385 234 -406 36&#10;-29 101 -23 139 11 28 25 33 36 33 73 0 36 -17 71 -110 232 -114 194 -133 216&#10;-192 216 -15 -1 -38 -6 -51 -13z"/>
<path d="M2484 926 l-34 -34 0 -400 c0 -236 4 -411 10 -426 11 -30 65 -66 98&#10;-66 36 0 80 27 97 60 13 24 15 91 15 431 l0 401 -34 34 c-28 28 -42 34 -76 34&#10;-34 0 -48 -6 -76 -34z"/>
</g>
</svg>