<svg version="1.0" xmlns="http://www.w3.org/2000/svg" width="980.000000ptpx" height="924.000000ptpx" viewBox="0 0 980.000000 924.000000" preserveAspectRatio="xMidYMid meet" transform="rotate(0) scale(1, 1)">

<g transform="translate(0.000000,924.000000) scale(0.100000,-0.100000)" fill="#ffffff" stroke="none">
<path d="M3935 9223 c-121 -10 -357 -49 -475 -79 -544 -134 -1020 -403 -1420&#10;-804 -242 -241 -418 -487 -568 -790 -170 -343 -266 -670 -303 -1038 l-13 -123&#10;-55 -31 c-308 -174 -594 -451 -784 -758 -72 -117 -163 -313 -207 -448 -261&#10;-797 -44 -1660 565 -2241 391 -372 913 -588 1433 -593 120 -1 144 2 197 22&#10;117 45 196 118 248 229 26 55 32 81 35 156 6 141 -37 246 -141 342 -87 80&#10;-151 102 -338 114 -348 22 -628 146 -864 383 -250 251 -375 555 -375 911 0&#10;351 126 659 370 906 167 168 302 248 603 355 100 35 182 64 185 64 2 0 1 116&#10;-3 258 -8 275 -1 385 36 572 143 720 657 1328 1348 1595 116 45 328 100 466&#10;121 152 23 462 23 610 0 476 -75 895 -285 1223 -615 113 -114 190 -211 313&#10;-392 l101 -150 101 8 c56 4 183 8 282 7 149 0 195 -4 265 -21 393 -98 699&#10;-339 873 -688 85 -171 122 -317 137 -534 11 -181 34 -244 122 -338 95 -99 194&#10;-138 339 -131 76 4 97 9 162 41 90 45 156 112 201 207 l31 65 -1 185 c0 208&#10;-17 326 -78 536 -242 840 -990 1458 -1870 1543 -60 6 -115 11 -121 11 -6 0&#10;-54 50 -106 111 -491 580 -1228 956 -2014 1029 -102 9 -417 11 -510 3z"/>
<path d="M8376 5189 c-298 -30 -582 -164 -779 -367 -147 -153 -178 -337 -85&#10;-514 91 -172 309 -267 494 -213 75 21 123 49 199 116 159 139 365 158 533 49&#10;70 -45 112 -94 155 -179 27 -55 32 -78 35 -156 5 -113 -11 -176 -67 -263 -51&#10;-77 -139 -144 -228 -172 -64 -20 -89 -20 -2275 -20 -2464 0 -2291 5 -2405 -69&#10;-76 -49 -128 -109 -167 -190 -29 -62 -31 -73 -31 -176 0 -102 2 -115 31 -175&#10;66 -138 191 -230 340 -251 45 -6 891 -8 2300 -6 2221 3 2229 3 2324 24 533&#10;118 912 497 1026 1025 14 61 18 127 18 248 0 180 -12 262 -64 414 -150 444&#10;-546 785 -998 860 -120 20 -251 25 -356 15z"/>
<path d="M3470 2291 c-197 -63 -324 -268 -293 -472 25 -158 128 -284 283 -346&#10;42 -17 159 -18 2080 -23 l2035 -5 41 -22 c99 -53 153 -133 162 -238 17 -224&#10;-210 -376 -416 -278 -20 10 -69 52 -110 94 -80 84 -138 120 -227 144 -147 38&#10;-288 0 -402 -107 -99 -95 -138 -194 -131 -339 6 -117 46 -202 153 -316 149&#10;-160 355 -285 560 -338 124 -33 321 -44 445 -26 713 105 1159 817 938 1501&#10;-27 85 -110 246 -162 318 -156 211 -386 369 -641 439 l-100 28 -2080 2 c-1968&#10;2 -2083 1 -2135 -16z"/>
</g>
</svg>